<svg xmlns="http://www.w3.org/2000/svg" version="1.1" id="Layer_1" x="0" y="0" viewBox="0 0 400 300" enable-background="new 0 0 400 300" xml:space="preserve"><path fill="#6622CC" d="M86.1 150.9H28.7c1 3.8 3.2 9 6.5 12.2 4 3.8 9 5.8 15.2 5.8 8.4 0 14.3-3.8 18-10.8l0.7-1.5h15.5l-1.1 3.3c-2.5 6.5-6.5 12.1-12 16.2 -5.5 4.1-12.6 6.2-21.1 6.2 -10.8 0-19.8-3.6-26.7-10.8 -6.7-7-10-15.8-10-26.3 0-10.6 3.3-19.5 9.6-26.4 6.8-7.3 15.7-10.9 26.4-10.9 10.8 0 19.9 3.6 26.7 10.9 6.3 7 9.9 15.9 9.9 26.5V150.9z"/><rect x="97.6" y="77.2" fill="#6622CC" width="16.3" height="105.2"/><path fill="#6622CC" d="M197.1 109.8v71.7h-16.3v-7.2c-4.8 5.5-12.2 8.4-21.5 8.4 -10.4 0-18.7-3.7-25.3-11 -6.4-7.1-9.4-16.1-9.4-26.5s3.3-19.3 9.7-26.5c6.6-7.3 14.6-11 25.5-11 8.8 0 16.2 2.9 20.9 8.5v-6.5H197.1z"/><path fill="#F7B32B" d="M69.1 260.8h15.3l-0.9 2c-2.2 7.2-6.3 12.6-12.2 16.9 -6.2 4.4-13.6 6.5-22 6.5 -10.6 0-19.3-3.7-25.9-11 -6.4-7-9.7-16-9.7-26.4 0-10.5 3.3-19.4 9.7-26.4 6.7-7.3 15.4-10.9 25.9-10.9 8.4 0 15.8 2.2 22 6.7 5.9 4.4 10 10.4 12.2 17.6l0.9 3H69.1l-0.5-1.6c-1.4-3.5-3.6-6.6-6.7-8.8s-6.4-3.3-10.4-3.3 -7.6 0.6-10.3 1.8c-2.8 1.2-5.2 3-7 5.1 -4.1 4.5-6.2 10.2-6.2 16.9 0 6.8 2 12.3 6.1 16.9 4.2 4.7 9.9 7 17.3 7 3.9 0 7.4-1.1 10.4-3.3 3.1-2.2 5.3-4.5 6.7-8L69.1 260.8z"/><path fill="#F7B32B" d="M169.2 248.9c0 10.6-3.3 19.5-9.6 26.4 -6.8 7.3-15.6 10.9-26.4 10.9 -10.7 0-19.6-3.6-26.4-10.9 -6.3-6.9-9.6-15.8-9.6-26.4 0-10.6 3.3-19.5 9.6-26.4 6.8-7.3 15.6-10.9 26.4-10.9 10.7 0 19.6 3.6 26.4 10.9C165.9 229.4 169.2 238.3 169.2 248.9z"/><path fill="#F7B32B" d="M246.8 243.5v43.1h-13.4v-42.8c0-5.8-1.8-10.3-5.1-13.7 -3.2-3.3-7.4-5-12.5-5 -5.3 0-9.7 1.7-13.3 5.2 -3.6 3.5-5.5 8-5.5 13.6v42.8h-16.3V212h16.3v7.9c1.9-1.7 3.7-3.3 5.8-4.7 3.9-2.5 8.4-3.7 13.4-3.7 4.8 0 9.1 0.7 12.5 2.1 3.5 1.4 6.4 3.5 9.1 6.3C244 225.8 246.8 233.8 246.8 243.5z"/><path fill="#F7B32B" d="M285.1 208.7v3.3h15.3v12.4h-15.3v62.2h-14.3v-62.2h-11.5V212h11.5v-4.1c0-8.2 2-14.8 7-19 4.9-4.1 11.1-6.5 19.6-6.5h3.1v14.3h-3.6c-4.3 0-7.1 1.1-9.2 2.9C285.7 201.4 285.1 204.6 285.1 208.7z"/><circle fill="#4056F4" cx="305.8" cy="276.9" r="10.4"/><circle fill="#57DDDD" cx="352.4" cy="22" r="10.2"/><path fill="#4056F4" d="M314.7 82.5c-11.1 0-20-9-20-20s9-20 20-20"/><circle fill="#4056F4" cx="146.5" cy="56.5" r="12.6"/><circle fill="#57DDDD" cx="24.8" cy="34.3" r="13.5"/><path fill="#C200FB" d="M100.5 12.7c0 9.1-7.4 16.6-16.6 16.6s-16.6-7.4-16.6-16.6"/><circle fill="#4056F4" cx="379.7" cy="84.3" r="10.2"/><path fill="#4056F4" d="M247 107.7c11.1 0 20 9 20 20s-9 20-20 20"/><path fill="#C200FB" d="M185 33.6c0-11.1 9-20 20-20 11.1 0 20 9 20 20"/><circle fill="#57DDDD" cx="244.1" cy="70.1" r="10.2"/><circle fill="#C200FB" cx="60.2" cy="59.2" r="8"/><circle fill="#C200FB" cx="193.9" cy="77.6" r="6.9"/><circle fill="#4056F4" cx="18.7" cy="87.3" r="6.9"/><path fill="#C200FB" d="M384.3 148.1c0 10.1-8.2 18.3-18.3 18.3s-18.3-8.2-18.3-18.3"/><path fill="#57DDDD" d="M374.9 209.4c7.2 0 13.1 5.9 13.1 13.1s-5.9 13.1-13.1 13.1"/><path fill="#57DDDD" d="M311.4 118c0-7.2 5.9-13.1 13.1-13.1 7.2 0 13.1 5.9 13.1 13.1"/><path fill="#4056F4" d="M347.7 148.4c0-10.1 8.2-18.3 18.3-18.3s18.3 8.2 18.3 18.3"/><circle fill="#C200FB" cx="314" cy="166.1" r="7.3"/><circle fill="#C200FB" cx="339" cy="223.1" r="6.3"/><path fill="#57DDDD" d="M230.3 178.6c-5.6 0-10.1-4.5-10.1-10.1 0-5.6 4.5-10.1 10.1-10.1"/><path fill="#C200FB" d="M360 286.6c0-7.5 6.1-13.5 13.5-13.5s13.5 6.1 13.5 13.5"/></svg>