<svg class="ela-splash" xmlns="http://www.w3.org/2000/svg" viewBox="0 0 1388.3 918.9"><style>.st0{fill:#263D83;} .st1{opacity:0.1;} .st2{fill:#4480FD;} .st3{fill:#80DDAE;} .st4{fill:#794D9A;} .st5{fill:#44EAEA;} .st6{fill:#FFFFFF;} .st7{fill:#9F76FF;} .st8{fill:#1FDCE5;} .st9{fill:#38F7CF;}</style><path class="st0" d="M112.6 95.7h1130.9v750.2H112.6z"/><path class="st1" d="M984.7 644.9c-1 0-2-.6-2.5-1.6-.6-1.4 0-3 1.3-3.6l198.5-92.5c1.4-.6 3 0 3.6 1.3.6 1.4 0 3-1.3 3.6l-198.5 92.5c-.3.2-.7.3-1.1.3z"/><path class="st2" d="M714.9 805.7c-.9 0-1.7-.5-2.1-1.4-.5-1.2 0-2.6 1.1-3.1l170.6-79.6c1.2-.5 2.6 0 3.1 1.1.5 1.2 0 2.6-1.1 3.1l-170.6 79.6c-.3.2-.7.3-1 .3z"/><circle class="st3" cx="830.5" cy="752.9" r="9"/><circle class="st1" cx="158.7" cy="357.7" r="15.1"/><circle class="st4" cx="165.4" cy="357.7" r="15.1"/><path class="st1" d="M37.4 451.9c-6.2 0-12.1-3.5-14.8-9.4-3.8-8.2-.3-17.9 7.9-21.7L323 284.3c8.2-3.8 17.9-.3 21.7 7.9 3.8 8.2.3 17.9-7.9 21.7L44.3 450.3c-2.3 1.1-4.6 1.6-6.9 1.6z"/><path class="st5" d="M44.4 454.9c-6.2 0-12.1-3.5-14.8-9.4-3.8-8.2-.3-17.9 7.9-21.7L330 287.3c8.2-3.8 17.9-.3 21.7 7.9 3.8 8.2.3 17.9-7.9 21.7L51.3 453.3c-2.3 1.1-4.6 1.6-6.9 1.6z"/><path class="st4" d="M309.9 606.7c-1.3 0-2.5-.7-3.1-1.9-.8-1.7-.1-3.7 1.6-4.5l244.7-114.1c1.7-.8 3.7-.1 4.5 1.6.8 1.7.1 3.7-1.6 4.5L311.4 606.4c-.5.2-1 .3-1.5.3z"/><path class="st1" d="M780.6 310.9c-1.6 0-3.2-.9-3.9-2.5-1-2.1-.1-4.7 2.1-5.7l311.9-145.4c2.2-1 4.7-.1 5.7 2.1 1 2.1.1 4.7-2.1 5.7L782.4 310.5c-.5.2-1.2.4-1.8.4z"/><path class="st5" d="M165.6 282.7c-1.5 0-2.9-.9-3.6-2.3-.9-2-.1-4.4 1.9-5.3l290.9-135.7c2-.9 4.4-.1 5.3 1.9.9 2 .1 4.4-1.9 5.3L167.3 282.3c-.6.3-1.2.4-1.7.4z"/><path class="st4" d="M189 497c-10.2 0-19.9-5.8-24.5-15.6-6.3-13.5-.5-29.6 13.1-35.9l483.1-225.3c13.5-6.3 29.6-.5 35.9 13.1 6.3 13.5.5 29.6-13.1 35.9L200.4 494.5c-3.7 1.7-7.6 2.5-11.4 2.5z"/><path class="st1" d="M366.4 425.9c-6.2 0-12.1-3.5-14.8-9.4-3.8-8.2-.3-17.9 7.9-21.7L652 258.3c8.2-3.8 17.9-.3 21.7 7.9 3.8 8.2.3 17.9-7.9 21.7L373.3 424.3c-2.3 1.1-4.6 1.6-6.9 1.6z"/><path class="st3" d="M373.4 428.9c-6.2 0-12.1-3.5-14.8-9.4-3.8-8.2-.3-17.9 7.9-21.7L659 261.3c8.2-3.8 17.9-.3 21.7 7.9 3.8 8.2.3 17.9-7.9 21.7L380.3 427.3c-2.3 1.1-4.6 1.6-6.9 1.6z"/><path class="st2" d="M787.3 918.9c-11.8 0-23-6.7-28.3-18-7.3-15.6-.5-34.2 15.1-41.5L1333 598.7c15.6-7.3 34.2-.5 41.5 15.1 7.3 15.6.5 34.2-15.1 41.5L800.5 915.9c-4.3 2-8.8 3-13.2 3z"/><path class="st6" d="M218 685.3h-53.5c.9 3.6 3 8.4 6 11.4 3.8 3.6 8.4 5.4 14.2 5.4 7.9 0 13.4-3.6 16.7-10.1l.6-1.4h14.4l-1 3.1c-2.3 6-6 11.3-11.1 15-5.1 3.8-11.7 5.8-19.7 5.8-10.1 0-18.5-3.4-24.8-10.1-6.2-6.5-9.4-14.7-9.4-24.5 0-9.9 3.1-18.2 8.9-24.6 6.3-6.7 14.6-10.1 24.6-10.1 10.1 0 18.5 3.4 24.8 10.1 5.9 6.5 9.2 14.8 9.2 24.7v5.3zM228.6 616.8h15.1v98h-15.1zM321.2 647.1v66.7h-15.1v-6.6c-4.5 5.2-11.4 7.9-20 7.9-9.7 0-17.4-3.5-23.5-10.2-5.9-6.6-8.7-15-8.7-24.7s3.1-18 9-24.7c6.1-6.7 13.6-10.2 23.8-10.2 8.2 0 15 2.7 19.5 8v-6l15-.2zM202 787.7h14.3l-.8 1.8c-2 6.6-5.9 11.7-11.4 15.7-5.8 4.1-12.7 6-20.5 6-9.9 0-18-3.5-24.1-10.2-5.9-6.5-9-14.9-9-24.6 0-9.8 3.1-18.1 9-24.6 6.2-6.7 14.3-10.1 24.1-10.1 7.9 0 14.7 2 20.5 6.2 5.5 4.1 9.4 9.7 11.4 16.4l.8 2.8H202l-.4-1.5c-1.3-3.3-3.4-6.1-6.2-8.2-2.8-2.1-5.9-3.1-9.7-3.1-3.8 0-7 .5-9.6 1.7-2.6 1.1-4.8 2.8-6.5 4.7-3.8 4.2-5.8 9.5-5.8 15.7 0 6.3 1.8 11.5 5.7 15.7 3.9 4.4 9.2 6.5 16.1 6.5 3.7 0 6.8-1 9.7-3.1 2.9-2 4.9-4.2 6.2-7.5l.5-.3zM295.2 776.5c0 9.9-3.1 18.2-8.9 24.6-6.3 6.7-14.5 10.1-24.6 10.1-10 0-18.3-3.4-24.6-10.1-5.9-6.4-8.9-14.7-8.9-24.6s3.1-18.2 8.9-24.6c6.3-6.7 14.5-10.1 24.6-10.1 10 0 18.3 3.4 24.6 10.1 5.9 6.5 8.9 14.7 8.9 24.6zM367.5 771.5v40.1H355v-39.9c0-5.4-1.7-9.6-4.7-12.8-3-3.1-6.8-4.6-11.6-4.6-4.9 0-9 1.6-12.4 4.8-3.4 3.3-5.1 7.5-5.1 12.7v39.8H306v-69.4h15.1v7.3c1.7-1.6 3.5-3.1 5.4-4.4 3.7-2.3 7.9-3.5 12.5-3.5 4.5 0 8.5.6 11.6 1.9 3.3 1.3 5.9 3.3 8.5 5.9 5.8 5.7 8.4 13 8.4 22.1zM403.1 739.2v3.1h14.3v11.5h-14.3v57.9h-13.4v-57.9H379v-11.5h10.7v-3.8c0-7.7 1.8-13.8 6.5-17.8 4.5-3.8 10.3-6 18.3-6h2.9V728H414c-4 0-6.6 1-8.6 2.7-1.8 1.6-2.3 4.6-2.3 8.5z"/><path class="st7" d="M528.4 808.9c-5 0-9.8-2.9-12.1-7.7-3.1-6.7-.2-14.6 6.5-17.7L761.7 672c6.7-3.1 14.6-.2 17.7 6.5 3.1 6.7.2 14.6-6.5 17.7L534 807.6c-1.8.9-3.7 1.3-5.6 1.3z"/><circle class="st1" cx="374" cy="186.4" r="16.5"/><circle class="st2" cx="378" cy="188.4" r="16.5"/><path class="st1" d="M1033.7 816.3c-4.4 0-8.6-2.5-10.6-6.7-2.7-5.8-.2-12.8 5.6-15.5l208.5-97.2c5.8-2.7 12.8-.2 15.5 5.6 2.7 5.8.2 12.8-5.6 15.5l-208.5 97.2c-1.6.7-3.3 1.1-4.9 1.1z"/><path class="st8" d="M1038.9 818.9c-4.4 0-8.6-2.5-10.6-6.7-2.7-5.8-.2-12.8 5.6-15.5l208.5-97.2c5.8-2.7 12.8-.2 15.5 5.6 2.7 5.8.2 12.8-5.6 15.5l-208.5 97.2c-1.6.7-3.3 1.1-4.9 1.1z"/><circle class="st1" cx="549" cy="490.4" r="16.5"/><circle class="st7" cx="554" cy="492.4" r="16.5"/><path class="st2" d="M785.6 313.9c-1.6 0-3.2-.9-3.9-2.5-1-2.1-.1-4.7 2.1-5.7l311.9-145.4c2.2-1 4.7-.1 5.7 2.1 1 2.1.1 4.7-2.1 5.7L787.4 313.5c-.5.2-1.2.4-1.8.4z"/><path id="XMLID_1_" class="st8" d="M511.3 658.9c-11.8 0-23-6.7-28.3-18-7.3-15.6-.5-34.2 15.1-41.5L1057 338.7c15.6-7.3 34.2-.5 41.5 15.1 7.3 15.6.5 34.2-15.1 41.5L524.5 655.9c-4.3 2-8.8 3-13.2 3z"/><path class="st3" d="M988.7 645.9c-1 0-2-.6-2.5-1.6-.6-1.4 0-3 1.3-3.6l198.5-92.5c1.4-.6 3 0 3.6 1.3.6 1.4 0 3-1.3 3.6l-198.5 92.5c-.3.2-.7.3-1.1.3z"/><circle class="st3" cx="322.5" cy="544.9" r="9"/><circle class="st3" cx="773.5" cy="180.9" r="9"/><circle class="st3" cx="957.5" cy="563.9" r="25"/><circle class="st1" cx="568" cy="788.4" r="16.5"/><circle class="st9" cx="573" cy="790.4" r="16.5"/><path class="st1" d="M459.4 701.9c-6.2 0-12.1-3.5-14.8-9.4-3.8-8.2-.3-17.9 7.9-21.7L745 534.3c8.2-3.8 17.9-.3 21.7 7.9 3.8 8.2.3 17.9-7.9 21.7L466.3 700.3c-2.3 1.1-4.6 1.6-6.9 1.6z"/><path class="st4" d="M466.4 704.9c-6.2 0-12.1-3.5-14.8-9.4-3.8-8.2-.3-17.9 7.9-21.7L752 537.3c8.2-3.8 17.9-.3 21.7 7.9 3.8 8.2.3 17.9-7.9 21.7L473.3 703.3c-2.3 1.1-4.6 1.6-6.9 1.6z"/><path class="st1" d="M626.6 512.9c-1.6 0-3.2-.9-3.9-2.5-1-2.1-.1-4.7 2.1-5.7l311.9-145.4c2.2-1 4.7-.1 5.7 2.1 1 2.1.1 4.7-2.1 5.7L628.4 512.5c-.5.2-1.2.4-1.8.4z"/><path class="st7" d="M631.6 515.9c-1.6 0-3.2-.9-3.9-2.5-1-2.1-.1-4.7 2.1-5.7l311.9-145.4c2.2-1 4.7-.1 5.7 2.1 1 2.1.1 4.7-2.1 5.7L633.4 515.5c-.5.2-1.2.4-1.8.4z"/><circle class="st1" cx="175.5" cy="164.9" r="25"/><circle class="st3" cx="180.5" cy="168.9" r="25"/><path class="st4" d="M923.5 142.7c-.7 0-1.4-.4-1.8-1.1-.5-1 0-2.1.9-2.6L1064 73.1c1-.5 2.1 0 2.6.9.5 1 0 2.1-.9 2.6l-141.4 65.9c-.2.1-.5.2-.8.2z"/><path class="st7" d="M13.4 664.9c-5 0-9.8-2.9-12.1-7.7-3.1-6.7-.2-14.6 6.5-17.7L246.7 528c6.7-3.1 14.6-.2 17.7 6.5 3.1 6.7.2 14.6-6.5 17.7L19 663.6c-1.8.9-3.7 1.3-5.6 1.3z"/><path class="st1" d="M793 793.2c-3.4 0-6.7-1.9-8.2-5.2-2.1-4.5-.2-9.9 4.4-12l161.5-75.3c4.5-2.1 9.9-.2 12 4.4 2.1 4.5.2 9.9-4.4 12l-161.5 75.3c-1.2.5-2.5.8-3.8.8z"/><path class="st4" d="M796.9 794.9c-3.4 0-6.7-1.9-8.2-5.2-2.1-4.5-.2-9.9 4.4-12l161.5-75.3c4.5-2.1 9.9-.2 12 4.4 2.1 4.5.2 9.9-4.4 12L800.7 794c-1.2.6-2.5.9-3.8.9z"/><path class="st3" d="M502.7 223.9c-8.2 0-16-4.6-19.6-12.5-5.1-10.8-.4-23.7 10.5-28.8L880.7 2c10.8-5.1 23.7-.4 28.8 10.5 5.1 10.8.4 23.7-10.5 28.8L511.8 221.8c-3 1.4-6.1 2.1-9.1 2.1z"/><circle class="st1" cx="584.5" cy="342.9" r="25"/><circle class="st2" cx="588.5" cy="344.9" r="25"/><path class="st1" d="M1072.4 489.9c-6.2 0-12.1-3.5-14.8-9.4-3.8-8.2-.3-17.9 7.9-21.7L1358 322.3c8.2-3.8 17.9-.3 21.7 7.9 3.8 8.2.3 17.9-7.9 21.7l-292.6 136.4c-2.2 1.1-4.5 1.6-6.8 1.6z"/><path class="st5" d="M1079.4 492.9c-6.2 0-12.1-3.5-14.8-9.4-3.8-8.2-.3-17.9 7.9-21.7L1365 325.3c8.2-3.8 17.9-.3 21.7 7.9 3.8 8.2.3 17.9-7.9 21.7l-292.6 136.4c-2.2 1.1-4.5 1.6-6.8 1.6z"/><circle class="st1" cx="1097.5" cy="248.9" r="9"/><circle class="st4" cx="1101.5" cy="248.9" r="9"/><path class="st1" d="M975 239.2c-3.4 0-6.7-1.9-8.2-5.2-2.1-4.5-.2-9.9 4.4-12l161.5-75.3c4.5-2.1 9.9-.2 12 4.4 2.1 4.5.2 9.9-4.4 12l-161.5 75.3c-1.2.5-2.5.8-3.8.8z"/><path class="st7" d="M978.9 240.9c-3.4 0-6.7-1.9-8.2-5.2-2.1-4.5-.2-9.9 4.4-12l161.5-75.3c4.5-2.1 9.9-.2 12 4.4 2.1 4.5.2 9.9-4.4 12L982.7 240c-1.2.6-2.5.9-3.8.9z"/><circle class="st1" cx="713.5" cy="413.9" r="9"/><circle class="st4" cx="717.5" cy="413.9" r="9"/><path class="st2" d="M698.5 431.7c-.7 0-1.4-.4-1.8-1.1-.5-1 0-2.1.9-2.6L839 362.1c1-.5 2.1 0 2.6.9.5 1 0 2.1-.9 2.6l-141.4 65.9c-.2.1-.5.2-.8.2z"/><path class="st1" d="M258.5 349.7c-.7 0-1.4-.4-1.8-1.1-.5-1 0-2.1.9-2.6L399 280.1c1-.5 2.1 0 2.6.9.5 1 0 2.1-.9 2.6l-141.4 65.9c-.2.1-.5.2-.8.2z"/><path class="st2" d="M261.5 350.7c-.7 0-1.4-.4-1.8-1.1-.5-1 0-2.1.9-2.6L402 281.1c1-.5 2.1 0 2.6.9.5 1 0 2.1-.9 2.6l-141.4 65.9c-.2.1-.5.2-.8.2z"/><path class="st1" d="M823.5 605.7c-.7 0-1.4-.4-1.8-1.1-.5-1 0-2.1.9-2.6L964 536.1c1-.5 2.1 0 2.6.9.5 1 0 2.1-.9 2.6l-141.4 65.9c-.2.1-.5.2-.8.2z"/><path class="st2" d="M826.5 606.7c-.7 0-1.4-.4-1.8-1.1-.5-1 0-2.1.9-2.6L967 537.1c1-.5 2.1 0 2.6.9.5 1 0 2.1-.9 2.6l-141.4 65.9c-.2.1-.5.2-.8.2z"/></svg>