<svg xmlns="http://www.w3.org/2000/svg" width="243.4" height="32" viewBox="0 0 243.4 32"><circle fill="#E8E5D3" cx="15.2" cy="16.8" r="15.2"/><path fill="#998D50" d="M8.3 23.5c-1.2-.9-2.3-1.5-3.9-1 .3.8.7 1.6 1.7 2.2 1.8 1.2 4.2 1.5 4.2 1.5s-.3-1.3-2-2.7zM19.5 15.1c-3.3 1-4.8 2.9-6.3 5.2 1.2.3 5.6.4 7.5-.2 4.4-1.3 7.2-5.6 7.2-5.6s-4.5-.6-8.4.6zM13.9 21.2c-2.5-.6-3.9.3-5.5 1.4 1.2.7 3.3 1.6 4.7 2 3 .7 6.6-.4 6.6-.4s-2.7-2.2-5.8-3zM22.5 8.9c-1 3.5-3.8 4.8-6 6 0-1.9.1-5.1.7-7.1C18.4 3.7 22.4 0 22.4 0s1.4 4.8.1 8.9zM14.8 15.1c-.4 2.3-2 3.4-3 4.3-.1-1.2-.1-3.5.2-4.8.5-2.7 2.6-5.4 2.6-5.4s.7 3.2.2 5.9zM10.6 18.9c-.3 1.7-1.3 2.2-2.4 2.8-.1-.9 0-2.5.1-3.4.4-2 2-3.9 2-3.9s.7 2.5.3 4.5z"/><path fill="#231F20" d="M52.3 24.7c-.1-.2-.1-.4-.1-.6s0-.4.1-.6h2.2l-2.1-5h-6.3l-1.7 4.1.4 1h1.5c.1.2.1.4.1.6s0 .4-.1.6H41v-.7c0-.2 0-.4.1-.6h1.2l7.1-16.4h1.1l6.9 16.4h1.4c.1.2.1.4.1.6s0 .4-.1.6h-6.5zm-2.4-12.3l-.6-2.1-.7 2.1-2 4.7h5.2c.1 0-1.9-4.7-1.9-4.7zm20.7 12.3c-.1-.2-.1-.4-.1-.6s0-.4.1-.6h2.2V8.6h-2.2c-.1-.2-.1-.4-.1-.6 0-.2 0-.4.1-.6h7.2c3.8 0 5.8 1.5 5.8 4.3 0 1.8-1.3 3.3-2.9 3.8l-1.1.3 1.1.1c2.4.4 3.8 2 3.8 4.1 0 3.2-2.7 4.7-6.8 4.7h-7.1zm8.3-9.4c1-.4 1.8-1.7 1.8-3.5 0-2.1-1.1-3.2-3.3-3.2h-1.9v6.6h3.4zm-1 8.2c2.4 0 3.6-1.2 3.6-3.4 0-2.3-1.3-3.6-4.1-3.6h-1.9v6.9c.5 0 1.9.1 2.4.1zm9.9-7.3c0-5.4 4.4-9.1 9.1-9.1 4.8 0 9 3.3 9 8.8 0 5.4-4.4 9.1-9.1 9.1-4.9 0-9-3.4-9-8.8zm15-.3c0-4.7-2.5-7.4-5.9-7.4-3.5 0-6 2.6-6 7.8 0 4.7 2.5 7.4 5.9 7.4 3.4-.1 6-2.7 6-7.8zm5.3.3c0-5.4 4.4-9.1 9.1-9.1 4.8 0 9 3.3 9 8.8 0 5.4-4.4 9.1-9.1 9.1-4.8 0-9-3.4-9-8.8zm15-.3c0-4.7-2.5-7.4-5.9-7.4-3.5 0-6 2.6-6 7.8 0 4.7 2.5 7.4 5.9 7.4 3.4-.1 6-2.7 6-7.8zm18.3 8.7v-.4l-6.5-7.5-1-.3v6.9h2c.1.2.1.4.1.6 0 .2 0 .4-.1.6H129c-.1-.2-.1-.4-.1-.6 0-.2 0-.4.1-.6h2.2V8.5H129c-.1-.2-.1-.4-.1-.6 0-.2 0-.4.1-.6h6.9c.1.2.1.4.1.6 0 .2 0 .4-.1.6h-2v6.8h1l6-5.9-.2-.9h-1.4c-.1-.2-.1-.4-.1-.6 0-.2 0-.4.1-.6h5.8c.1.2.1.4.1.6 0 .2 0 .4-.1.6h-1.3L137 15l7.3 8.4h1.5c.1.2.1.4.1.6 0 .2 0 .4-.1.6h-4.4zm26.5 0c-.1-.2-.1-.4-.1-.6 0-.2 0-.4.1-.6h2.2l-2.1-5h-6.3l-1.7 4.1.4 1h1.5c.1.2.1.4.1.6 0 .2 0 .4-.1.6h-5.3c-.1-.2-.1-.4-.1-.6 0-.2 0-.4.1-.6h1.2L164.9 7h1.1l6.9 16.4h1.4c.1.2.1.4.1.6 0 .2 0 .4-.1.6h-6.4zm-2.5-12.3l-.6-2.1-.7 2.1-2 4.7h5.2l-1.9-4.7zm11.3 12.3c-.1-.2-.1-.4-.1-.6 0-.2 0-.4.1-.6h2.2V8.5h-2.2c-.1-.2-.1-.4-.1-.6 0-.2 0-.4.1-.6h7.3c3.9 0 6.1 1.9 6.1 5s-2.4 5.2-6.5 5.2h-2v5.9h2.5c.1.2.1.4.1.6 0 .2 0 .4-.1.6h-7.4zm4.9-8.4h2c2.2 0 3.6-1.4 3.6-4s-1.2-3.7-3.6-3.7h-2v7.7zm20.2 8.4c-.1-.2-.1-.4-.1-.6 0-.2 0-.4.1-.6h2.2l-2.1-5h-6.3l-1.7 4.1.4 1h1.5c.1.2.1.4.1.6 0 .2 0 .4-.1.6h-5.3c-.1-.2-.1-.4-.1-.6 0-.2 0-.4.1-.6h1.2L198.8 7h1.1l6.9 16.4h1.4c.1.2.1.4.1.6 0 .2 0 .4-.1.6h-6.4zm-2.4-12.3l-.6-2.1-.7 2.1-2 4.7h5.2l-1.9-4.7zm23.3 12.3v-.4l-5.1-6.9-2-.3v6.3h2.1c.1.2.1.4.1.6 0 .2 0 .4-.1.6h-7c-.1-.2-.1-.4-.1-.6 0-.2 0-.4.1-.6h2.2V8.5h-2.2c-.1-.2-.1-.4-.1-.6 0-.2 0-.4.1-.6h7.4c3.8 0 5.9 1.7 5.9 4.7 0 2.1-1.7 4.2-4.5 4.7.9.6 1.7 1.4 2.4 2.4l3.5 4.3h1.2c.1.2.1.4.1.6 0 .2 0 .4-.1.6h-3.9zm-4.3-8.7c1.5-.5 2.7-1.6 2.7-3.9 0-2.5-1.1-3.5-3.5-3.5h-2v7.4h2.8zM243 7.3h-14.9l-.4 3.3h1.5l.7-1.4c.2-.5.4-.7.6-.7h3.7v14.8H232c-.1.2-.1.4-.1.6 0 .2 0 .4.1.6h7.2c.1-.2.1-.4.1-.6 0-.2 0-.4-.1-.6H237V8.5h3.7c.2.1.4.2.6.7l.7 1.4h1.5l-.5-3.3z"/></svg>