<svg xmlns="http://www.w3.org/2000/svg" viewBox="0 0 300 68" xmlns:xlink="http://www.w3.org/1999/xlink"><defs><path id="a" d="M115.01 56c-1.662 0-3.01-1.33-3.01-3.01V3.01c0-1.66 1.377-3.01 3.028-3.01h5.944C122.644 0 124 1.377 124 3.028V12h16.962c1.678 0 3.038 1.365 3.038 3.024v37.952c0 1.67-1.375 3.024-3.01 3.024h-25.98zM124 24h8v20h-8V24zm24-8.976c0-1.67 1.377-3.024 3.028-3.024h5.944c1.672 0 3.028 1.365 3.028 3.024v37.952c0 1.67-1.377 3.024-3.028 3.024h-5.944c-1.672 0-3.028-1.365-3.028-3.024V15.024zM151.028 0h5.944C158.644 0 160 1.32 160 2.98v2.04c0 1.646-1.377 2.98-3.028 2.98h-5.944C149.356 8 148 6.68 148 5.02V2.98c0-1.646 1.377-2.98 3.028-2.98zm16 0h5.944C174.644 0 176 1.377 176 3.028V12h1.01c1.65 0 2.99 1.377 2.99 3.028v5.944c0 1.672-1.354 3.028-2.99 3.028H176v20h28v-4h-16.962C185.36 40 184 38.65 184 37.004V14.996c0-1.654 1.375-2.996 3.01-2.996h25.98c1.662 0 3.01 1.377 3.01 3.028v5.944c0 1.672-1.312 3.028-3.038 3.028H196v4h16.962c1.678 0 3.038 1.35 3.038 2.996v22.008c0 1.654-1.338 2.996-3.02 2.996h-45.96c-1.668 0-3.02-1.33-3.02-3.01V3.01c0-1.66 1.377-3.01 3.028-3.01z"/><mask id="b" width="104" height="56" x="0" y="0" fill="#fff"><use xlink:href="#a"/></mask><rect id="c" width="64" height="44" rx="22"/></defs><g fill="none" fill-rule="evenodd"><g transform="translate(84)"><use fill="#1A8CFF" stroke="#06C" stroke-width="2" mask="url(#b)" xlink:href="#a"/><path fill="#333" d="M84 16v20h20V16H84zm-4-2v42h28v-4H84V40h24V12H80v2zm-48-2h28v52H32v-4h24v-4H32V12zm4 4h20v36H36V16zM0 28v28h28V12H0v4h24v12H0zm24 4H4v20h20V32zm40-20v44h4V12h-4zm0-8v4h4V4h-4zm8-4v56h4V0h-4z"/></g><g transform="translate(0 12)"><mask id="d" fill="#fff"><use xlink:href="#c"/></mask><use fill="#06C" xlink:href="#c"/><rect width="60" height="40" x="2" y="2" fill="#1A8CFF" mask="url(#d)" rx="20"/><circle cx="42" cy="22" r="22" fill="#06C" mask="url(#d)"/><path fill="#333" d="M.006 22.5C.002 22.334 0 22.167 0 22 0 9.847 9.85 0 22.003 0h19.994C54.157 0 64 9.85 64 22c0 .167-.002.334-.006.5C63.73 10.58 53.99 1 41.997 1H22.003C10.018 1 .27 10.578.006 22.5z" mask="url(#d)"/><circle cx="42" cy="24" r="18" fill="#333" mask="url(#d)"/><circle cx="42" cy="22" r="18" fill="#EDEFF2" mask="url(#d)"/><path fill="#FFF" d="M59.973 23c.018-.33.027-.664.027-1 0-9.94-8.06-18-18-18s-18 8.06-18 18c0 .336.01.67.027 1C24.547 13.524 32.394 6 42 6c9.606 0 17.454 7.524 17.973 17z" mask="url(#d)"/></g></g></svg>