<svg xmlns="http://www.w3.org/2000/svg" width="545.6" height="76" viewBox="0 0 545.6 76"><path fill="#82BFBE" d="M17.1 17.4L.1 5.6v47.3l17-11.8"/><path fill="#235A5A" d="M99.8 76c7.6 0 13.8-6.9 13.8-15.4V37L57.5 76h42.3z"/><path fill="#2C7A79" d="M113.6 5.5L56.8 45 12.3 75.9c.5.1 1.1.1 1.6.1h43.6l56.1-39V5.5z"/><path fill="#123B4F" d="M21.7 32.4l12.5-8.7 22.6 15.7L113.6 0H0l21.7 15v17.4zm35.1 1.4L36.4 19.7 101 4.8l-44.2 29zM14.6 4.6l85.2-1.8L26.7 13 14.6 4.6z"/><path fill="#389798" d="M34.2 29.2L.2 52.9v8.5c.2 4.5 2.2 8.3 5.1 11.1 1.5 1.4 3.4 2.9 7.1 3.4L56.8 45 34.2 29.2z"/><g fill="#123B4F"><path d="M135.4 37c0-16 12.1-27 27.8-27 11.5 0 18.1 6.3 21.8 12.7l-9.5 4.7c-2.2-4.2-6.9-7.6-12.3-7.6-9.5 0-16.3 7.3-16.3 17.1 0 9.9 6.9 17.1 16.3 17.1 5.4 0 10.1-3.3 12.3-7.6L185 51c-3.8 6.5-10.3 12.8-21.8 12.8-15.7.2-27.8-10.7-27.8-26.8M215.9 63.1v-4.8c-2.6 2.9-7.1 5.7-13.3 5.7-8.3 0-12.2-4.5-12.2-11.9V25.3h9.9v22.9c0 5.2 2.7 7 7 7 3.8 0 6.9-2.1 8.6-4.3V25.3h9.9v37.8h-9.9zM231.2 59.8l4.3-7c2.9 1.8 8.4 3.5 13.1 3.5 4.3 0 6.3-1.7 6.3-4.1 0-6.3-22.4-1.2-22.4-16 0-6.3 5.6-11.9 15.5-11.9 6.4 0 11.4 1.2 15.5 3.5l-4.8 6.4c-2.7-1.4-6.1-2.3-10.7-2.3-3.6 0-5.9 1.6-5.9 3.8 0 5.6 22.4.9 22.4 16.2 0 6.9-5.9 12.1-16.3 12.1-6.6 0-12.4-1.2-17-4.2M274 53.7V35.2h-6.2v-2.9l13-17.3h3.2v11.5h7.7v8.7H284V51c0 2.4 1.3 4.1 3.4 4.1 1.5 0 2.9-.5 3.4-1.1l2.1 7.5c-1.5 1.3-4.1 2.4-8.3 2.4-6.9.1-10.6-3.5-10.6-10.2M297.1 44.1c0-10.7 7.5-19.8 19.9-19.8 12.5 0 20 9.1 20 19.8 0 10.8-7.5 19.9-20 19.9-12.4 0-19.9-9.1-19.9-19.9m29.7 0c0-5.9-3.5-11-9.7-11-6.2 0-9.6 5.1-9.6 11s3.4 11 9.6 11c6.1.1 9.7-5 9.7-11M389.3 64V40.1c0-3.5-1.6-6-5.6-6-3.5 0-6.4 2.3-7.8 4.4V64h-10V40.1c0-3.5-1.6-6-5.6-6-3.4 0-6.3 2.3-7.8 4.5V64h-9.9V26.2h9.9v4.9c1.6-2.3 6.6-5.9 12.4-5.9 5.6 0 9.1 2.6 10.5 6.9 2.2-3.4 7.2-6.9 13-6.9 7 0 11.1 3.7 11.1 11.4V64h-10.2zM404.7 44.1c0-11 8.1-19.8 19.6-19.8 11.3 0 18.9 8.4 18.9 20.8v2.2h-28.1c.6 4.8 4.5 8.8 10.9 8.8 3.2 0 7.7-1.4 10.1-3.8l4.4 6.4c-3.8 3.4-9.7 5.2-15.6 5.2-11.5.1-20.2-7.6-20.2-19.8m19.6-11.9c-6.2 0-8.8 4.6-9.3 8.4h18.6c-.2-3.6-2.7-8.4-9.3-8.4M448.6 64V26.2h9.9v5.2c2.7-3.4 7.4-6.1 12-6.1V35c-.7-.2-1.6-.2-2.7-.2-3.3 0-7.7 1.9-9.3 4.3V64h-9.9zM469.5 57.6c0-3.4 2.9-6.3 6.3-6.3s6.3 2.9 6.3 6.3-2.9 6.3-6.3 6.3-6.3-2.9-6.3-6.3M489.4 16.2c0-3.3 2.7-5.9 5.9-5.9 3.3 0 5.9 2.6 5.9 5.9 0 3.3-2.7 5.9-5.9 5.9-3.2.1-5.9-2.6-5.9-5.9m1 10h9.9V64h-9.9V26.2zM505.7 44.1c0-10.7 7.5-19.8 19.9-19.8 12.5 0 20 9.1 20 19.8 0 10.8-7.5 19.9-20 19.9-12.4 0-19.9-9.1-19.9-19.9m29.6 0c0-5.9-3.5-11-9.7-11s-9.6 5.1-9.6 11 3.4 11 9.6 11 9.7-5 9.7-11"/></g></svg>