<svg xmlns="http://www.w3.org/2000/svg" width="493" height="271" viewBox="0 0 493 271"><g transform="translate(39 50)"><path fill="#FFF" d="M-36-50h402c1.7 0 3 1.3 3 3v163c0 1.7-1.3 3-3 3H-36c-1.7 0-3-1.3-3-3V-47c0-1.7 1.3-3 3-3z"/><path fill="none" stroke="#979797" stroke-opacity=".445" d="M-35.5-49.5h401c1.7 0 3 1.3 3 3v162c0 1.7-1.3 3-3 3h-401c-1.7 0-3-1.3-3-3v-162c0-1.7 1.3-3 3-3z"/><path fill="#D8D8D8" fill-opacity=".338" d="M-36-50h402c1.7 0 3 1.3 3 3v15H-39v-15c0-1.7 1.3-3 3-3z"/><path fill="none" stroke="#979797" stroke-opacity=".054" d="M-38.5-32.5h407V-47c0-1.4-1.1-2.5-2.5-2.5H-36c-1.4 0-2.5 1.1-2.5 2.5v14.5z"/><circle fill="#EC5839" cx="-30.5" cy="-40.5" r="2.5"/><circle fill="#F8E71C" cx="-23.5" cy="-40.5" r="2.5"/><circle fill="#7ED321" cx="-16.5" cy="-40.5" r="2.5"/><path fill="none" stroke="#333" stroke-linecap="square" stroke-opacity=".37" d="M342.5-11.5v90"/><path fill="#333" d="M-14.8 64l1.4-5.5H-8c1 0 1.4-.4 2-2.2L6.2 12c.5-1.9.1-2.2-.9-2.2H-.1l1.3-5.5h45.9l-3.7 14.2h-5.6l.9-5.8c.1-2.4-1.1-3-3.7-3H15.5L9.6 31.2h11.1c2.3 0 3-1.1 3.5-3.1l1.1-3.7h5.6L26 43.1h-5.5l1-3.9c.5-1.8.3-3.1-1.7-3.1H8.3l-6 22.2h22c2.7 0 3.8-1 4.6-3l2.2-5.8H37L33.2 64h-48zm61.1-6.1c0-3 1.4-7.7 2.7-12.4l9.4-33.3c.4-1.8.3-2.4-.7-2.4h-5.8l1.3-5.5h5.7c4.1 0 8.4-.5 10.3-.8L58 43.1c-1.5 5.8-3 10.4-3 13.1 0 2.2 1.4 3.1 3.4 3.1 1.5 0 2.5-.3 3.9-.7L61 64c-1.8.7-3.8 1.1-6.1 1.1-5.4 0-8.6-2.4-8.6-7.2zm23.8-9.8c0-15.1 9.7-28.9 23.5-28.9 7.5 0 12.8 4.2 14.2 11.1l2.8-10h2.7c2.5 0 4.3-.3 5.9-.7L112.8 44c-1.5 5.4-3.1 9.8-3.1 12.1s1.2 3.2 3.2 3.2c1.4 0 2.3-.3 4-.8l-1.4 5.5c-2 .6-4 1.1-6.2 1.1-5.5 0-8.4-2.6-8.4-7.5v-.5c-3.8 4.8-9 8-15.2 8-9.4 0-15.6-7.1-15.6-17zm8.4 0c0 6.8 4.1 11.1 10.3 11.1 9.6 0 16.7-11.9 16.7-23.1 0-6.6-4.4-10.9-10.6-10.9-9.4-.1-16.4 10.6-16.4 22.9zm68-7.4c0-19.9 12.8-37.5 30-37.5 11.1 0 16.8 5.9 17.8 12.2l5-11.1h5.4l-6.2 22.5H191c1.4-10.8-4.1-17.4-13.2-17.4-11.1 0-17.6 9.2-20.7 20.1-1.4 4.6-2.1 9-2.1 12.2 0 11.2 5.6 17.4 16.1 17.4 9.4 0 14.9-5.7 18.4-15.3l5.9 2.1c-3.9 12.2-12.4 19.3-24.8 19.3-15.3-.1-24.1-9.9-24.1-24.5zm55.7 4.7c0-14.3 10-26.2 24-26.2 11.8 0 19.8 7.5 19.8 19.5 0 14.4-10.1 26.4-24.1 26.4-11.7 0-19.7-7.7-19.7-19.7zm8.1 2.2c0 6.8 4.1 11.7 11.3 11.7 10.2 0 16.4-13.1 16.4-22.8 0-6.8-4.4-11.6-11.3-11.6-10.1 0-16.4 13.1-16.4 22.7zm39 16.4l10-35.7c.5-1.9.2-2.4-.7-2.4h-6.7l1.4-5.6h6.2c4.1 0 8.3-.4 10.3-.7L266.3 32c4.7-8.2 10.6-12.8 18.3-12.8 6.8 0 11.5 3.5 11.4 9.9 0 5.8-7.4 24.2-7.4 27.4 0 2 1 2.9 3.1 2.9 1.4 0 2.2-.3 3.9-.8l-1.4 5.5c-2 .7-4.2 1.1-6.4 1.1-5 0-8.1-2.2-8.1-7.1 0-4.8 7.3-22.3 7.3-27 0-3.6-2.5-5.6-6.4-5.6-8 0-15.7 9.8-23 38.6h-8.3V64zm51 2.5l11.2-40.7h-7.4l1.4-5.6h7.6l1.8-6.7C316.7 6.6 320.2 2 327.7 2c3.2 0 6.4.5 9.1 2.4l-1.4 5.2c-1.4-.9-3.4-1.4-5.5-1.4-4.3 0-6.1 2.1-7.3 7.6l-1.3 4.3h8.5l-1.4 5.6h-8.6l-11.4 41.9c-2 7.5-5.2 12.6-13.4 12.6-2.4 0-5.6-.4-8.3-2.4l1.3-5.1c1.4.9 3.3 1.4 5.1 1.4 4.6.2 5.9-2.4 7.2-7.6z"/></g><g transform="translate(310 183)"><path fill="#FFF" d="M-36-50h216c1.7 0 3 1.3 3 3V85c0 1.7-1.3 3-3 3H-36c-1.7 0-3-1.3-3-3V-47c0-1.7 1.3-3 3-3z"/><path fill="none" stroke="#979797" stroke-opacity=".513" d="M-35.5-49.5h215c1.7 0 3 1.3 3 3v131c0 1.7-1.3 3-3 3h-215c-1.7 0-3-1.3-3-3v-131c0-1.7 1.3-3 3-3z"/><path fill="#D8D8D8" fill-opacity=".338" d="M-36-50h216c1.7 0 3 1.3 3 3v12H-39v-12c0-1.7 1.3-3 3-3z"/><path fill="none" stroke="#979797" stroke-opacity=".054" d="M-38.5-35.5h221V-47c0-1.4-1.1-2.5-2.5-2.5H-36c-1.4 0-2.5 1.1-2.5 2.5v11.5z"/><circle fill="#EC5839" cx="-32" cy="-42" r="2"/><circle fill="#F8E71C" cx="-26" cy="-42" r="2"/><circle fill="#7ED321" cx="-20" cy="-42" r="2"/><path fill="#333" d="M35.7 43.9V48h-4.1v4.1H11v-4.2h4v-53h-4v-4.3h24.7v4.1h4.1v16.5h-4.1v8h4.1V44h-4.1zm-4.2-49h-8v20.2h8V-5.1zm0 24.4h-8v28.5h8V19.3zM68.3-1.1v-4h-8v20.2h3.9v-4h4.3v12.4h-4.3v-4.1h-3.9v28.5h4.1v4.2H47.9v-4.2H52v-53h-4.1v-4.3h24.7V-1c-.1-.1-4.3-.1-4.3-.1zm28.6 0v-4h-8v20.2h3.9v-4h4.3v12.4h-4.3v-4.1h-3.9v28.5h4v4.2H76.5v-4.2h4.1v-53h-4.1v-4.3h24.7V-1c-.1-.1-4.3-.1-4.3-.1zm24.7 49V52h-16.5v-8.4h4.2v4.1h8v-12h-4.1v-4.1h-4.1v-4.1H105V11h4.1V6.9h16.6v8.4h-4.3v-4.1h-8v12.2h4.1v4.1h4.1v4.1h4.1V48s-4.1 0-4.1-.1z"/></g></svg>