<svg viewBox="0 0 142.3 157.3"><path fill="#333740" d="M67.2 59.8v1l-.2.7.2.5.3.3h.5l.5-.5H68l-.3.2h-.2l.2-.5V61l.3-.5V60l-.5-.5-.5-.2h-.8l.5.2.5.3M90.8 62.5v-.2h-.3l-.3.7.6.5.4-.2h-.4v-.8M129.8 115.3l1.2.5.9.3-.6-.3-1.5-.5M16.9 24.2v-1l-.2-.8-.7-.8-.8-.5v.2l.2 1-.2 1-.5-1.3-1-1.2-.8-.8-1-.8-2-.8 1 1.5.8 1.8.5 1 1 .8 1 .5 1 .2v1l.5.8.5 1 .8.8v-3.6m-4.1-1.5l-.5-.7-.8-1.2-.8-1.5 1 .5 1 .8 1 1.2.5.8.2 1.2-1.6-1.1zm3.8 4.3l-.9-1.4-.2-1.4.3-1-.2-1.3.8.9.1 1 .1 3.2zM77.7 85.4l1.3-.8-.3-.2-1 1M99.5 10.5l-1.1-1-.6-1.5-1-1.5L97 8l.8 1.2.7 1.3.7.5.8.2h.9l-.8-.4-.6-.3"/><path fill="#333740" d="M77.6 8.9l1.9 1.3 1.2.5 1.1.2.6.1h1.1l.9-.2-.5.5-1.2.8-2.7.8-1.3.5-.5.2-.4.4-.6.9-.5 1-.3.5-.5.5-1.6 1-1.2 1.7-.7-1.5.9-.6.9-.8 1.1-1.3.5-.8.3-.5v-.8l.3-.5V12l-1.3 1-1.1 1.1-.8.6-.7.4-.5 1.5v1l-.5-.3-.2-.8-.2-1.1-.2-.7-.3-.7-.1-1.1.2-1.2 1 1.3.8.8.8.3.3-1v-1l-.5-.8-1.1-.8-.6-.8 1.8.9.6.2h.6l1.4-.2 1-.2.7-.2.5-.1-1-.4-.8-.4-.8-.5-.5-.2-.8-.3-1-.2-1 .2-.5.2-.3.1-.2-.4v-.1l.2-.2.2-.2.8-.2h.8l.5-.2 1-.8 1.2-2.2.8 1 .8.8 1 .8 1 .5 1.2.2h.5l.5-.2-1.8-2-1.2-.8-1-.8 1.8-.2 1-.5.8-.5.5-.8v-1l-.8.5-.8.2-1.8.2-1 .2-.8.5-.5.5-.5 1-1 .2-1 .5-.8.8-.8.8.2-1 .2-1.2-.2-1.5-.5-1-.2-1-.1-.5-.6 1.5-.2.7-.2.9.1 1.8-.5-.7-.2-.6-.2-.8-.5-.5-.8-.2-1.2-.5.8 1 .5 1.2-.8.8-.8.5-1.5.8V4.4l-.5-1.2-.8-1-1-1v1.7L62.7 4l.1.9.2 1.8-1.2-.8-1-1 .5-.5.5-.5.2-.8.2-.5-.8-2.5-.2.2v.5l-.8.8-.3.9-.1 1.8-.9-1.2-1-.8-1.2-.7h-1.2l.8 1 .5 1 1 1.3.7.2.8.1.5-.1 1.2.8 2.2 2.2.2.5v.2l-.2.2-1-.2h-1l-.8.2-1 .2-1.8 1-1.2 1.2h3.5l1.5-.2.8-.2.8-.5v.5l-.2.6-.2 1v1l.2 1 .6.5.3.4-.6.6-1 .4.7.3.4.3 1 .2.8.2-.8.8-1 .8-.8 1-.5 1v1.2l-.2.2-.5-1v-2l-.4-.4-1-.8-1-.8-1-.5.5-.8.5-1 1-1.5.5-.5.8-.8-1.5.2-1.5.8-1.3 1-1 1-.8 1.2v.8l.2.8 1-.2 1.2-.5.8 1.5 1 1.8.8 1.5.8.5 1 .5v1.2l-.8-1-.8-.8-1.8-1.2-2-1-.6-.9-.8-1-.5-1-.5-.8-1.5-1.5-2.5-2.2.5-.1.4.1 1.9.9 1.2.2 1.4-.2.8-.6.8-.8-1.5-.2-1.2-.5H52l1.5-1.8L55 8.3l-3 .8-.5.2-.5.5-.3 1-.2.6-.7 1.2-1.2-1-1.5-1-2.8-2.2-.8-.2-.2-.5-.5-2.5-.2-.8-.2-.5-.5-.8-.5-.2-1-.8-2.4-.7.5 1.7.5 1.5 1 1.5 1.5 1 .8.2 1 .5-.8.2H42l-1.2-.5-1.5-.2-1.3-.2-.8.2-1 .2-.8.8-.4.6v.2l3.2.5 1.7-.1.8-.2.8-.4.8-.2h.2l.6.1-2 1.8-.1-.5-1-.2-1.5.2-1.5.3-1.5.5-1 1-.5.7v.8l.5-.5.5-.2.5 1.5.5.5 1.2.8 1.8.8.8.5.8.5-1.3-.1-1.1.1h-2.4l-1.2-.2-1-.2-1.2-.2H31l-.8.2-.8.5-1.2 1.5v-1.8l-.2-1.7-.5-.8-1.5-1.5-.5-.8V8.9h-.2l-.3.7-.5.8-1.2 1.5-.8 1.5-.2.8v1l.2.2v.7l-1-.8-1.5-1.2-2-.8-1.8-1-2-1-2-.5-.8-.5-1-.2-1.4-1-.8-.5-.7-.5-.7-.2-1-.2H4l-1.8.2v.5l.2.2 1.2 1 3 1 1.5-.2h.2l.7-.3h.2l.5.2-1 .5h-1l-1.7.3-1.8.5-1.2 1-1.5 1.5-.2.5 2.5-.2 1.2-.3 2-1 .8-.8 1.5-1.5 1.2-.2h.5l.5.5-1 .8-1.2.8-.8 1-.2.5-.3.7-.2.2-.2.2-.2.5-.4.6 1.2-.5 1.5-.5 1-.8.5-.8.2-.8.2-.5v-1l.2-.5 2 .8 1.8 1 2.3 1.3-1.7-.1-1.6.4-.9.6-.8.3 1.1.3 1.7.4.8.6-1.5.3-2 .8-1 .5-.8.5 2.5.5 1.2.2h1.2l1.5-.5.8-.5.5-.5v-.8l-.5-.5.8-.5.3-.4-.1-.6 2.8 2.3 1.5 1.5 1.5 1.2 1.5 1.5.5.6 2.1 2.8 1.9 2.2 2.5 2.2 1.2 1 1.5.8 3.2 1.5 3.5 1.2-1.8.5-.6.6-1 .5-1 1.5-1.2 1.2v.2h1.8l1.8-.2 1.5-.8.5-.5.5-.8.5-.8.5-1-.7 2.7v1.2l.2.8.5.5.5.2.5.5.2-1.2.2-1.5-.1-.5v-.5l-1-2 1 .5 1.2.5 2 1.8 1.5 1.2 1.2 1.5 2.5 3.2-1.2-.8-1-.2h-.8v-1l-.2-1-.2-.8-.8-.8-1.2 2.5V40l-.5-1.2-1.5-2.2-.2.2v1.5l-.5 1.5-.2 1.5.2.8.2.8-.5-.2-.2-.8-.2-.5-.2-.5-.8-1-1-.8-1-.2h-2.8l.8.8 1 .5L43 42l.8.8.8.5 1 .5h1.2l.2.2v.8l.2.2.8-1 .5-1-.3 1-.2 1-.8 1.8-2.2-.5-2.2-.5-2.2-1-2-1V42l-.2-1.5-.8-1.8-1-1.2v-.2l.2-.2.5-.5.5-.8.2-1.2v-2.2l-.3-.4-.2.2v.2h-2l-1.5-.1.5-.2.5.2h1.2L35 31l-1.5-1-1.5-.5-1.8-.5h-.9l-.2.2.4.3.2.2.5.8.8.5 1.8 1h-2.2l-.8.5-.8-2-.5-1-.6-1.1v-.3l.3-.6.2-1.2.1-.8-.2-.8-1-1.8-.6-.6-.2.4-.3 1v1.2l.6 2-1-1.3-.2-1.2v-.8l-.5-1.5-.1-.4-.5-.5-1-.5-1-.5-.5-.3.2.5.5 1.2.8 2.5h-.2l-.5-.2-.5-.5-.5-.2h-1.5l-.8.2H19l-.5-.2 1.2-1.5.5-1v-1l-.5-2.8-2 3.5-.2.8v1l.5 1.5-.5 2.2v1.2l.3 1 .4.5-1.6-1-1.8-.8-1.8-.4v-1.3l-.2-.8-.5-1-.5-.8-1.5-1.2L9 19.9l-.1 1.2.1 1.1v.4l.5 1 1.2 1.2 1.5 1.2v.2h-.5l-1 .5-1.2.2-1 .5-1 .8-.2.5-.3.9.2 1.8.2-.2.2-.2 1.5-.8 1-1 1-1.2.8-1.2 1.8.5 1.8.8 3 2.5-1-.2-1-.2-1-.2-1.2-.2h-1l-.8.2-1 .5-.8.8h1l.8.5h.5l-2 1-1.2.5-1 .2-.2.2h-1l.2 2 .8 1.8 1 1.8 1.2 1.5-1.5-1L8 37.9l-1-1.2-1.5-1-1.5-.6-1-.2-1 .2-2 .2v.2l1 .5 2 1.5 1 .5 2 .8 2 .2 1.5.8-1.2.2H5.8l-1.2.2-1 .5-1 .8-.8 1-.2 1H4l2.2-.8 2-1.2 1.8-1.2.5.5.5.5.8.2.2.5-1.8.8-.8.2-1 .5-.8.5-.8 1-.5 1-.5 1-.2 1.8.5.2 2.5-2 2-2.5 1.5-2.5.8.2.5.5-1.2 1.5-1 1.5-.5 1.2.2 1.5.2.8.5.8 1-1.5.8-1.5.2-.2.8-.2.8-.2h1.5l.2.2-1 .5-.7.5-.5.8v.2l1-.2 1.2.2 1 .2h.8l-.7.4h-.7L16 49l-1.2.2-1.3.8-1.8 1.9v.2l3.5-.5 1.7-.8.8-.5.8-.5.2-.5.5-.2.2-.2.2-.2.8-.2.5-.2 1-1 .5-.5h-1.8l-2.5-.2h-.8l1.5-.8 1.5-1.2 1.2.5 1.2.8 2.2 1.5 1 .8 1.2.5h.8l1 .3-1.4.1-.5.1-1 .2-.5.2h-1l-.5.2 1 .2.8.5 1.8.6 1.8-.1.8-.2.8-.5.2.5v.8l-.2.6.2.8.5 1 .8 1 1 .8V54l.2.2v.2l1-1 1-.8.8-.8.5-1 .5-2.2.2.5.2.5.2 1.2V52l.2.5.2.2v-.8l.2-.5.2-1 .5-1-.2-.5-.2-.5-.8-.2-.8-.2 1-.2 1.2-.5 4.2 1.5.2.2-1 .7-1 .5-1 .8-.8.8-.5 1h2l.8-.2.8-.5 2-2 .8-.2.8.2.8.2-1.8.5-.9.4-.8.5-.2.5v.2h.2l1-.2 1.2-.2 1-.5.5-.5.2-.5 4.2.2 2.2 1.2 1 .5 1.2.5.8.2h.8l1.2-.5.8-.2h1.2l.8.5-.2.5-.1.3-.5.2-.2.2-.3.8.2.5h.2l.5.5v.2l-.2.5v.5l.5.2.2.2v.5l.2.5.5.2h.9l.5-.5v-.8l.2-.2.2-.2h.5l.2-.2.2-.5.2-1h.2l.8.8.8.8.5.8.5 1 .2 2 .5 2.2.2 2.2v1.5h-.5l-.2-.2-.5-.5-.5-.7-.8-.8H67l-.5-.2-.8.2-1 .2-.2-.2-.5-.2-.2-.5v-.8h.5v.2h.7l.8-.2.2-.2v-1.2l-.2-.2-.5-.2H65l-.8.2v-.2l.2-.2.2-.8.8-.5.5-.2h-.5l-.8.2-.5.5-.5.8v.8l-.5 1.5.2 1 .2.5.2.2.8.2h.5l1.5-.2.8.5.2.5v.2h-1l-1 .5-.5 1-.2 1 .2.2-.2.5h-.5l-.5-.5h-.5l-1 .5-.2-.2h-.2l-.5-.5v-.8l-.5-.5-.2-.2-.5.2-.2.2-.8.5-.2.2h-.5l-.5.2-.2.5-.2.8.2.2.2.2v.8l-2.2.2-1.2.2-1 .5-.2-.2H53l-.5.2-.5.4-1.5.2.8-1h-1l-.8-.2.2.5h.5l.2.2v.2l-.2.2v.2l.2.2h.6l.8-.2.8-.5.5-.2.5.2v.2l-.2.2-1 .5-.8 1-.5 1-.8.8-1 .5h-.5l-.5-.2H48l-.5-.5-.2-.8.2-1 .5-1 .5-.2h.5l.2.2.5.5.2.2v.8l-.2.2-.5.5h-.5l-.5-.5.2-.2.2-.5-.2-.2-.2.8-.2.6.5.5.5.2.5-.2.2-.2.5-.8v-1.5l-.5-.2h-.2l-.2-.2h-1l-1 1-.5 1 .2 1.2v.2l.5.5.5.2.5.2 1-.2 1.8-.8v.5l.2.5.2.2v.2l-.2.5v1.2l.5.5.5.2.5.2.2.5.5.2.2-.8v-.5l-.2-.8v-.8l-.7-.2-.5-.2H52l-.2-.2-.2-.5-.2-.8.8-1.5.5-.5.5-.5v.2l-.2.2v1.2l.5.2h.5v.8l.2.5.2.2.2.5-.6.7.5.2.2.5v.5l.2.5h.2l.2.2.2.5.2.2.5-.2h.2l.2-.2v-.5l.5-.2.2-.2v-.5l.5-.2.2-.5v-1.2l-.2-.2.5-1 .2-.2.5.2 1-.8.5-1-.5-.7v-.5l-.5-.8.5-.2h1.2l1 .2.8.2-.8.5-1 1v.5l-.2.4-.5.8-.8.5v1l.2.5.8.5v.2h-.2l-.2.8.2.8.5.5.2.5v.8l.2.2h1l.2.5.2.5.2.2h1l.2-.5.5-.5h.8l.2-.8v-1h.5l.4-.4.1 1.7.4 1.4-.7.1-.5-.2-.5.2-.2.2-.8.8v1l.2.5.5.2-.3.8-.5 1.5.2.8v.2l.5.2 1.8-.5 1-.5.5-.8.2.2h.8l-.5 1.9-.2 2-.2 3.5.2 2.8.2 2.5v.5l.2.8v.5l-.2.2-.2.2-.2-.5v-.2l-.5-1-.2-.5-.2-.5-.2.2v.5l-.5.5-.2.5v.5l-.2.2v.2h.2l-.2.2h-.5l-.5.2h.5l.5.5-.8.2-.2.5-.5.8h-.8l.5.8.5.2h.5l.8-.5.8-1 .2.2v1l-.2 1v.8l.2 1 .5.8.5.8 1.5.8v.2l-.2.8-.8.5-.8-.5-.8-.2h-1.8l-1.8.8-1.8.5h1l1.2-.5h1.2l1-.2.5.5.5.2h.5l.5.2v.8l-.5 1.5-.5.5.5-.2.5-.2.5-.8v-1.2l.2-.2h.2l.8-.2h1.2l.8.2 1 .2.8.5.5.8.8.2.5.2.2.5v.8l-.2 1v.5l.5.5h.5l.8.2 1 .2 1 .8 1 1 .5.8.8.2.5-.2.8-.2 1.2-.8.8-.2.5-.2h.2v.2l-1.2.8-1.5 1 1-.2.8-.2.5-.5.8-.2h.2l.2.2-.8.2-.5.5h.8l.8-.5.8-.2h.8l.8 1.2 1 .8.8.5h.5l.5-.2h2l2 .5 3.8 1H98l-1.5-.5-1.5-.2-3.2-.2H85l2.2.2 2.2.2h2.2l2.2.2h.5v.2h-10l-.2-.2-1 .2h-2.8l1-.8.8-.8-2 .8-2 .8v-1l1.2-.2.5-.2.5-.5h.5l.2.2h.2l.2-.2-2-1.8-.8-.8-1.2-.8h-1.2l-.2-.2v.8l.2 1 .2.5.8.8v1.2l.2 1.2h-2.2l.2-.2.2-.2h.8v-.8l-.8-.8v-.8h-.5l-.5.2-.8.5-.8.8-1 .8h-.2l-.5.2h1.8l1.5-.2.2.2-2 .2h-2l-3.8.2-.5-.2h-.8l.5-.2h1l.5-.2h-4.5l-4.5-.5h-7.5l-3.8.5-3.4.2h-8.5l-2-.5h-1l-1 .2H20.8v-.2h-1.2l-1.2.2-1 .2-1.2-.2H9l.2-.2.5-.5 1-.5h-.5l-.2-.2v-.5l.2-.5 1-.8-.2-.2-.5-.2-.5.2h-.2l-.6-.3-.2.2v.2l-.2 1v.5l.2.2v-.5l.2-.5.2-.2h.2l-.2.5v1.2H9l-.9-.6.2-.5v-.8l-.3-.2-.4.8.2.5.2.8.5.5-.2.2h-.2l-.5.5-.8.2H4.1v2.2h133.1l.4-.5V124l-.1-.5v-.2l.3-.6v-.5l.5.2.2.2.5.2h.2l-.8-1-.5-1-.2-.8-.5-.5v-.2h.2l.2.2 1.2-.2 1 .2 1.2.2 1 .5-.2-.8-.2-.5-1.2-.5h-1.2l-.5.2h-1.2l-.5.2-.5.2-.2-.2.8-.2.5-.5h-.8l-.8-.2h-.2l-1-1-2-1-.9-.2.6.2 1.2 1 1 1 .5.5-.8.2-.2.5h1.5l.2.5v.2h-2.2l-.2.2h-.2l-.2-.2v.2h.2l.2-.5-1 .2-1.2-.8-1.2-.8-2-.2h-2v-.2h-2.2l1-.5h3l4 1 .8.4v-.2l.2-.2v.2l.2.5.2.5v-1l-1.8-1.2-1-.5-1-.2-2-.5-.2.2h-.8l-.8.2-1.5.5-1 .5-.8.5-.8.2h-.8l-.8-.2 1-.5v.5h.8l.2-.2.5-.8.5-.5 1.5-.8-2.2-.5h-1.2l-1 .2 1.2-1 1.2-.5 1.5-.2 1.5.2.8.8.2.2v.5h-.2l-.2-.2-.2-.2h-.5v.2l.5.5.8.2.8-.8v-.5l.2-.2-.2-.8-.5-.2-1-.5h-2l-1.5.5-1.5 1-1.5 1.2-.8.2-.5-.2 1.2-1.2.8-.5 1-.2h-.8l-.8.2-.5.5-.8.8-.5.5h-.5l-.2-.2 2.2-2.2 1.2-.5h.5l.8-.5h-1.2l-1 .2-1 .5-.8.8-1 1.8h-.5l.2-1 .8-1 1-1 1-.5 1.5-.5h.8l.8.5.2-.2v-.2l-.2-.5-1-.2h-1l-.8.2-.8.5-1.2 1-1 1.5-.8 1.5.8-2.8.8-1.2.8-1 .8-.5h-.5l-.8.5-.5.5-.5.5-.8 1.5-.5 1.2-.2.5-.2.2-.2-.5v.8l-1 .5-.2-.2-.2-.5.2-.5.2-.2 1-.5.2-3.2.5-3.5.2-1.5V104l.2-1.5.2-.5.2-.8-.2-3.2v-3.5l.2-4.8v-5.2l-.8-6-.8-2V73l-.5-3.2-.8-3.2-1-3.2-.2-.2-1-.5h-.2v-.8l.2-.5v-.8l-.2-.2-.5-.2-.5.2-.8.5-.8.2v-.5l.5-.2.5-.2.7-1 .3-1.6v-.9l-.2-.5-.1-.6.2-.7-.8-.7-.8-.2-.5-.5-.8-.2-.5-.2-.2-.5.2-.5-1-.5-1.2-.2-1 .2-1 .2v.8l.2.8-.8.5-.8.8-.2.5-.2.8-1 1.2-.8 1.2.2.5h.8v.5l.2.2h.5l-.5.2-.2.2v.8l-.2.5-.2.2-.2.5-1 .5-.8.8-1 1.2-.5 1.2-1 3-1.5 1.5-.2.2v.5l-.2.2h-.2l-.2-.5-1-.8-.8-1-.5-1-.2-1.2h-.2l-.2-.2-.2-.5-.2-.8-.8-1.5-.2-.5-.5-.8-.2-.2h-.5l.2-.5-.2-.2h.2l-.5-1v-.5l-.2-.5.5-.2h.2l.2-.2v-.5l-.2-.8-.2-.2.2-.2.8.5.5.2h.5l.2-.2v-.2l.2-.2.5.8.2.2v.5h-.2l-.5-.5h-.2v.2l.5.5.5.2v.2l-.3.2.2.2.2.2h.8l.2.2.5.2h.2l.2.5h-.2l-1-.5h-1.2l-.8.8-.5.8v1l.2.5.2.5.8.5.5.2h1l.2-.2.2-.8V63l-.8-.8h-.5l.5.2.2.5v1l-.2.5H91l-1-.5-.2-.5-.2-.5v-1.2l.2-.5.5-.5 1 .2 1 .5 1 .2 1.2.2 1-.2.8-.8.5-.8.2-1-.2-1-.2-1.2-.5-1-.8-.8-.5-.5-.5-.2-1-.8-.2-.2v-.2h.8l.8.2h.8l.8-.2v.2h.5l.8.5.8.2h.8l-1-.5.8-.3.9-.1.9.2-.4.2-.8.5-.8.2h.8l.8-.2.5-.5-.5-.2-.5-.2h-.8l-1 .2-.8.2-.2-.2h.2l.2-.2.8-.8.2-.5v-.5h1l-.2-1.5v-.5l-.2-.2-.3-.4.2-.4.6-.3 1-.2h1.3l.9.3.5.2h.2l-2.8.8-1-.2h-.8l.2.2 1.2.2h1.2l1.2-.5 1-.5-2.2-1h-1.8l-.8.5-.8.5-1.5-.8-1.5-.2v-.2h.8l.7.1.6.1h1.2l1.2-.5 1-.8-2-.5h-1l-.8.5-.8.2-.5.2-.8.2-.5-.5-.2-.5v-.8l.5.5h1.8l2.2-1-.7-.3-1-.2-1.8.1v.1l-.4.2-.5-.2.2-.2 3-.5h8.3l1 1.2 1 1 2.5 1.8.5.2-.2 1.5v1.8l.2 1.5.5 1.2.5-1.2.5-1.2v-1.2l-.2-1.5.2-.2 2.5 1.2 1.5.5 1.5-.2.8-.2h.8l.5-.2.8-.2-1.5-.8-1.5-.8-2-1-1-.2h-1.2l1.2-.5 1-.8 1-.8 1-1v-.5l-.8.2h-.8l-1.5.2v-1l.2-1 1.2.8 1.5.5h3l.2-.5-1.2-.5-1.2-.8h-.2l-.5-.2-1.2.2h-.8l-.5-.2-.5-.2 1.5-.5 1.8-.2h1.5l1.5.2 2.2 1.8 2 2.7.5 1 .5 2.2.8.8-.5 2.2-.2 2v1.2l.2 1 .5.8.7.8.5-1.8.2-1.8v-1.8l-.5-.8-.5-.8-.8-2-.5-2.2.2.2v.5h.5l.5 1.5.8 1.2.8 1.2 1 .5.6.1.7-.2-.1-.7-.2-.7.9-.3.7-.4.7-1 .4-.8.2-.8-.2-.8.1-1.6.1.4.2.5.5 1-.2 1.2-.2.6-1 1.2-1 1.2-.5.8v1.5l.2 1h.2l1.8-1.8.8-1 .2-1.2v-1.9l.1-.5.3 1.2.2 2.4-.9 1.3-.2.8-.2 1v4l-.2 1 .8-.2.5-.8 1-1.2.2-1.2.2-1.5-.2-1.2-.5-1.2-.2-2.2.4.1.3.3.3.6.2 2 .5 2 .8.5h1v-2.8l-.2-.8-1-1-1-.8-1.2-.8v-.2l-.5-2-.8-2 1.6 2.2.9 1 1.1.7.9.3 1.1.1.8.1-.4-.8-.5-1.1-.6-.8-.9-.9-1.5-.8-1.6-.7-1.6-.7-.8-1-1.1-.9h.8l1 .2 1.2.9.8.6.7.4 1.8.5 1.1-.1.8-.5-.8.1-.8-1.1-1.2-.5-2.1-.2-2-.5-1.4-.6.6.1h1.2l2-.5 1.8-.8 1.5-1.5v-.2h-4.2l-1.2.2-1 .5-.8.8-.5 1-2.8-1-2.8-.5.8-.8.2-.5.2-.2 1.2.5 1 .2 2.2-.2 1.8-.5 1.2-.8-3-.8h-3.5l1.5-1 1.5-.8 1.5 1 1.5.8 1.5.2 1.6-.1.8-.2.5-.2.2-.2-.9-.3-1.3-.4-1.8-1-.8-.4-.6-.2h-.7l.7-.6h.4l1.5.7h2.2l1.5-.8 1.5-.8-1.5-.2-1.2-.2-1.5-.2-1.5.2.2-1 .5-.8v-2.1l-.2-.2h-.5l-3-1-1.2-.5H128l1.5-.8 1.5.8 1 .2 1.8.2 2-.5 1.8-.8 1.2-.2.5-.2.5-.2h-1.5l-3.2-.2h-1.8l-1.5.2 1.2-.8 1.5-2 .8-1.2 1.5-3 .2-.8-.2-1-.5-2-.5-1.8-.8 2.8-.2 2.8v1.5l.2 1.2-1.2 2 .2-3v-1.8l-1-2-2 .2h-1l-3.3 1.1 1.1-2.6.8.4 1.5.2h.8l1-.4 2.8-1.2-3-.9-1.8-.1-1.5.3 1.1-1 4.5.2 1.4-.3 1-.5 1-1 .7-1.6-.6.3-.6.1-1.3-.1h-2l-2 .2-.8.5-.8.5.2-.5V5.6l-.5-1.2-1-1.2-1-1.3v3.8l.1 1.9.4 1 .2.6-1.2 1.1-1 2-1 1.8-1.1 1.6-1.1 1 .6-1.1.5-.9.3-.8.2-1-.2-1-.5-.8 2-.2v.8h.2l1-3.5.2-.8-.2-1-.5-1.5-.8-1.5-.5-1.5-.5 1-.2 1.2.5 2 .5 2.2.2 1v1.2l-.5-.2-.2-1.5-.2-1.2-.2-.8-.5-.5-1.2-1-1.2-1-1-1h-.2l.2 1.5.5 1.2.8 1.2 1 1.2h-1l-.8-.2h-1.5v.2l1.8 1.2 1 .8 1 .2v1l-.2.8-1 1.5-.5 1.5-.2 1 .2 1-1.2 1-1.2.8-1.2.5-1.2.8-1.5.5-1.8.2-3 .2-3.2.5-1.5.5-1.2.8-1.8 1-2 .8-1.8.2-2-.2 1.2-1 1.2-1.2h.5l.2.2.5.5h.5l.8.2h.5l1.5-.5 1-.8 1-1H102l.2-.5.2-.8v-2h1l1.2-.2 1-.2h1.2l-1-.5-1-.8-1-.5-1-.2h-1.5l-.8.5-.5.5v-.2l.1-1-.3-1.6-1.5-2-.4 1.7.5 1.4.4 1.9-1.2-1.2-1.5-.5-1.5-.5h-1.8l-.5-.2v.5l-1.2 2.2-.4.6v1l-.1 1.2.2 1.5.5.5.2.5 1.2-1.5.8-1.8.2-1v-2l-.5-.8v-.2l1.5 1.5.8.8 1 .8 3 .5h-1l-1 .2-1 .2-.8.5-1.6 1.3-1.5 1.2.2.5.8-.5 1-.5h2l1-.2.8-.2 1-.5.5-.8.2-.5.5-.5.2-1.5.8.5 1 .2-.2.5-.5.2-.8 1-.8 1-.2 1.2-2 .2-1 .5-.5.2-.4.5-.7 1.1L95 26l-4.1.7-4 .8-1.5.5-1.3 1v-.2l.2-.2.2-.5.2-1v-1.2l-.2-2 1.2 1 1.2.8 1.5.2h1.2v.1l.2.2.5-.2h1.2l1.5-.2 1-.5 1.1-1.1.8-1.2.4-.6-1 .2-3 .8-1 .5-.8-1.2-1-2.5-.8-1-.5-.8-.4-.4-.8-.2-1 .2v-1.2l-.8-1.2-1.6-1.9.4-.3 1.7 2 1.4.9 1.6.3 1.1-.2.2-.1-.2-.5-.5-.5-1-1-.9-.7-1.3-.6-1.8-.2 1.7-1.6 1.4-.6 1.8-.8-.4 1.4-.1 1.5.3 1.1.5.8.8.8.2.2h.5l.2-1.5v-1.5l-1-2.5 1.2 1.5 1.2 1.2.8.5 1 .2.8.2h1l1.2-.2-1.5-1.2-1.2-1.2-1-.5-1.2-.5-1.2-.2-1-.5 1.5.2 1.8.2.8-.2.8-.2.8-.2.8-.8-3.1-.8 1.2-.4.4-.6.4-.2h1l.8.2.8.2 1.2 1 .8 1.4.5 1.5v.2l.2.2.2.8.2.5.5.2h.8l.5-.5.2-1 .2-.8v-2l-.5-2-1-1.8v1.2l-.5 1.2-.8 2.2-.5-1-.8-1.2-1-.8-1.2-.7.9-.3.8-.8 1.2-1.8 1-1.8-1 .2-1.3.2-1.2.2-1 .5-1 .8-.8.8-.5 1v1.2l-.5.2-.8.2-1.2.2 1.2-1 .5-.8.2-.8.8-1.8.5-2-.2.2h-.5l-.8.2-1 .8-.8.8-.2 1-.2 1.2-.5 1.5-.2.8h-.8l.8-1.5v.3l-.2-.8-.2-.5-.5-.5-1-.5-1-.5-.5-.5-.2-.5-.2.2V2l-.2.8v.8l.2.8 1 1.2 1 1 .5.8v.8l-3.8 1.5.3-1 1-1.1.2-.5.1-.6-.1-.4-.1-.5-.7-.9-.3-.4-.5-.2-.2 1.5-.5 1.5-.3 1.4.3.9.1.8-.4.5-.7-1-1.3-.7-1.5-.6h-1.1l-1.2.1-1.1.4m20.3 37l.8-.3 1.6.3-.7.3-.4.4-.7.2h-.8l-1.3-.2 1.5-.7zm-1.8-1.8h1.3l1 .3-1 .4-.9.4-1.3-.1-.7-.6 1.6-.4zm20.1-3.3l1.8.2.8.3.8.5h-1.8l-1-.3-.8-.5.2-.2zm10.9 9.3l.2.8.2 1.2-.5 2.8-.5-.5-.2-.5v-1.5l.2-1.2.2-1.5.4.4zm7.1-2.6l-.1.7-.1.7-.1.6-.6.8-1.5 1.9-.2-.9.3-1.4.6-.8.9-1.2.6-.6.4-1-.2 1.2zm2.6 1.2l1 1 .8 1.4v2.1l-1-.5-.6-1.6-.2-2.4zm-.9 3.2v1.3l-.6 2.4-.6.5v.3h-.3v-3l.3-1.6.6-1.3.6 1.4zm-.3-8.8l1.9.9 1.3 1.2.5.8.5 1.1-1-.2-.9-.2-1.4-1-1.5-1.8-1.1-1.2 1.7.4zm1.2-2.4l1.1.5.3.5.6.5h-1.2l-1.4-.5-1.1-.6-1-.8 2.7.4zm-5.1-2.6l.5-.5.5-.2 1.5-.8h3.8l-1 .8-1.2.8-1 .2-1.3.3h-2l.2-.6zm3.9-23.6l.3-1.8.2-1.2.4 1.2.2 1.8-.4 1.4-.7 1.2v-2.6zm-9.3-8.7l-.5-1.6v-1l.2-.8.5 1.2.3.6.8 2.1v1.2L127 9l-.2-1.8-.5-1.4zm-33.8 4.7l1.6.8 2.7 2.2h-1.7l-1.8-.7-1.3-1.3-.9-1.2 1.4.2zm9-1.3l.7-2.2.2-1.2.5 1.6.3 2.2-.4 2.1-.8.8-.4-.7-.4-1.2.3-1.4zm-6.3-4.1l.4-.8.8-.8 1-.8 3.4-1.1-.6.8-.5.8-.7.9-.7.8-1.3.5-.8.4-1.4.4.4-1.1zm-21.6.2l.9-.7 1-.3-.6 1.1-.9 1-.9.5-1.1.3 1.6-1.9zM57.3 17l-1.5.5.2-1.1 1-1.2 1-.8 1.5-.8.8-.2-1.5 1.6-.7 1.3-.8.7zm3 4.5l-.6-1.3-.5-1.1-.7-1.2.5.1.5.2.7.6.8.9.3 2.5-1-.7zM53 12.2l1.7.1 1.8.5-1.1.7-1.4.2-1.3-.3-1.4-.7.7-.4 1-.1zm-2.5-.1l.4-1 .4-.9.5-.6.8-.3L54 9l-1.4 1.7-1 1.1-1.5 1 .4-.7zM41 6.2L39.8 5 39 3.2 38.8 2l1.2.6.9.7 1.1.9.5 1.6.3 1.6L41 6.2zm-.6 2.9l-1.7.1-2.7-.4.5-.6 1.2-.4H39l2.7.6-1.3.7zm-33 1.2l-1.5-.4-2-.8-1.1-1 1.9-.2 1.5.3 1.5.7 1.5 1-1.8.4zm-.5 2.2l-2 1-2.6.6 1.1-1.3 1.5-.9 2.3-.6h1l-1.3 1.2zm3.7 1.6l-1.3.9-1.3.7.6-1.3.9-1.3 2-1.6-.9 2.6zm-.2 14.3l-.8 1-2.1 1 .1-.7.5-1 1-.8 2-.8-.7 1.3zm1.6-3l-1.5-1.5-1-1.2-.2-.8v-1l2.5 2.2.8 1.2.2 1.5-.8-.4zm-5.6 13l-2.5-1-2.6-1.6h2.1l1.9.5L7 37.4l1.2 1.7-1.8-.7zm.8 3.2l-1.6.9-1.9.6-1.5.2.9-1.3 2.3-1.2 1.9-.2 2.1-.1-2.2 1.1zm3.2 2.9L9 46l-1.8 2-.8.4.6-1.6 1-2.1 1.4-.8 1.7-1-.7 1.6zm3.3 1l-.2 1-1.5 2.8-.5-2 1-2.5 1-1h.2v1.7zm1.9 5.6l-3 .7 1.5-1.5.8-.6.8-.3h1.1l1.4.4-2.6 1.3zm22.9-2.4l.5.3.3.8-.5 1.9-.2-1.5-.6-1.5h.5zM64 62l.3-.3.6-.3.6.3.3.3v.6l-.3.3h-1.2l-.3-.6V62zM52.3 77.6h.5l.5.6.3.6-.2.2v.6l.3.6.2.7-.7-1.2-.6-.7H52l-.3-.6v-.6l.6-.2zm22.8 44.1h.4v.8l-1.2-.4.8-.4zm-2.2 1.7l.7-.5h1l-1.7.5zm2.3-.6l.7-.5v1l-1-.5h.3zm1.1-3.6H78l-.8.4h-.4l-.5-.4zm.8 1.5l-.4-.4 1.2-.4H79v.4h-.4l-.8.4h-.7zm1.5.2h1.5l-1.5.5h-1.1l1.1-.5zm-.5 1.3l.4-.5H80l.4-.5.4.5-1.5.5-1.5.5.3-.5zm58.2-2l.6.6h-.6v-.6zm0 1.7l.3-.3.3.3-.3.3h-.5l.2-.3zm-.9-.8h.5l.3.3v.3h-.5l-.3.3-.5-.3.5-.6zm-1.9.3l.3-.5h.5l-.8.5-.7 1h-1l1.7-1zm-.1.9h1.1l-.7.4-.4.4h-.4l.4-.8zm-1.3-1.7h1.1l-.7.4-.4.4h-.4l.4-.8zm-1.2-.4l.4-.4.4.4-.4.4h-.4v-.4zm.6 1.4l-.3.3h-.3l-.3.3h-.3l-.3-.3.6-.3.3-.3.6.3zm-.4-2l-.9.2-.6-.7-.6-.7 2.1 1.2zm-1.8 1.3l.6-.3.3.3v.3h-.3l-.3.3-.6-.3.3-.3zm.8 1.4l-.6.7h-.6l-.3-.3.3-.3 1.2-.1zm-1.7-.1h-.3l-.6-.3.3-.3h.3l.3.3h.3l-.3.3zm.1-3.7l.8.5h-.8v-.5zm-.4 1.3l.8.3-.8.5h-.3l-.5-.3.3-.3.5-.2zm-2.3-.2l.5-.3 1.1.3-.8.5h-1.1l.3-.5zm1.3 1.8h-1.3l.3-.3h.3l.7.3zm-2.7-2.3l.6-.3.6.3-.8.6h-1.1l.7-.6zm1 1.4l-.3.5h-2l1-.5h1.3zm-3-1.9h1.3l-.8.5h-.5l-.3-.3.3-.2zm0 1.5h.9l-.9.6-.3.3-.6-.3.9-.6zm.9 1.5l-.3.6h-1.7l.3-.3.6-.3h1.1zm-2.4-2.3h.6l.3.3-.6.6h-.6l-.3-.3.6-.6zm.2 2l-.9.6H119l1.2-.6.3-.3.6.3zm-.4-5.2h.5l1.1-.5.3.3h.3l-.5.8-.5.3-.5.3-.3-.3-.3-.3h-.3l-.3-.3.5-.3zm-1.2 0h.4l-.4.5v-.5zm-.4 1.5l.3-.3 1.1.3-.8.3h-.5l-.1-.3zm-.1 1.2h.7l1 .3-.3.3h-.7l-1-.3.3-.3zm.1 1.5l.3.3h.6l-.9.9-.6.3-.6-.3.6-.6.3-.3.3-.3zm-1.6-3.3h1.3l-.3.6h-.6l-.9-.3.5-.3zm.8 1.5l-.4.5h-.8l.4-.5h.8zm-1.2 1.6l1.4.3-1.2.9-.6.3-.9-.3.3-.3.3-.3.3-.3.4-.3zm-.6-1.4h-1.3l.3-.3.3-.3 1.3.3-.6.3zm-.1-2.1h.7l-1 .7h-1v-.3l.3-.3h1zm-1.3-1.3h.4v.4h-.7l.3-.4zm.4 4.8l.6-.3h.6l-1.2.9-.6.3h-.3l-.6-.3 1.5-.6zm-6.7-1.5h.5l-.5.5-.3-.3v-.3c.1.1.3.1.3.1zm-.3-.8v-.5h.5l.3.4-.4.1h-.4zm1.3 1.3l.5-.5.5.3-.8.8-.8.3h-.5l1.1-.9zm.8-1.8h.5l-.5.5-.5.3h-.5l.8-.5.2-.3zm.2-.7h1.3l.5-.3-.3.3-.8.3h-1.1v-.3h.4zm-.2-9.6h-.5l.5-.4v.4zm-5.1-11.4l-.5.3h-.5v-.3l.3-.3h2.4V95l.3-.8h-.8l-.3-.3-.8-1.1-.5-1.1-.5-.8-1.1-1.8.7.2.5.3v.5l2.2 1.8.9.6h.5l.9-.2 1.1-.5.6-.1h.7l-.3 1.8-.5 1.6-1.6 3.6 1.6-.5 1.6-.5 1.4-1.1 1.9-1.4v1l-.7.8-1.3.5-1.1.4-.9.9-3.7 1.6-.6-.3-.3-.6-.3-1.3-.3-1.3-.8-1.3h-.2zm.3.6l-.4.4h-.2l-.6-.1 1.2-.3zm-3.5-.7V95h.3l.3.2v.2l-.6.1zm.7.3v.5l-.3-.2-.3.2-.3-.5h.9zm8.9-27.6v.8l-1 .7.2-.9.8-.6zm-.9 0l.1-1.1 1-.7-.1.7-.5.5-.5.6zm3.1 8.7l-.8.8-1.7 1.1-1.8.7.3-1 .5-.2.7-.3 2.2-1.1 1.2-1.2-.6 1.2zm.1 2.9l.9-.4.1.4v.3l-1.1.4.1-.7zm.1 2.7l1.3-.7.1.7-.4.3-1.6.6.1-.7.5-.2zm-2.8 14.2l1.2-.5 2.9-1.8-.3.7-3 2.1-2.9 1.4.5-1.2 1.6-.7zm-1.1-.3l.6-1.4 1.4-.3 1.2-.8 1.8-1.4-.1 1.1-2.5 1.6-1.2.8-1.2.4zm5-4.5l-.8.4-1.5 1-1.9 1.1.3-.5.2-.7 1.1-.5 1.2-.7.6-.4.9-.5.4.7-.5.1zm-5.8-17.5l-.1.7-.3.5-1 .4.3-.9.4-.4h.3l.4-.3zm-.8-.3l.5-1.5 1.5-.9-.2 1.2-.5.6-1.3.6zm.6 1.8l-.4 1-.4.5-1.6.4.4-1 .8-.2 1.2-.7zm-.8 2.1l.3-.3h.3l.3-.3.2-.3.8-.2-.2.8-.8.5-.9.3V78zm1.4 3.7l-.9.4-.5-.3 1.3-.5 1.3-.7-1.2 1.1zm1.4-.5l2-1.5-.4.9-.3.8-1.4.7-.7.4-.8.4-.2-.5 1.8-1.2zm-.4 1.9h1.2l-.3-.6.6-.4.6-.3v1.1l-.6.6-.6.3-.5.4-1.5.4-1.2.2-.4.4h-.3l-.7.2-.6.1-.6.1-.3-.4 2.7-.9 2.5-1.2zm-2.9 3l.6-.7 1.6-.4 2.1-.9 1.1-.6-1.4 1.4-1.5.8-1 .4-2 .6.5-.6zm4.2 4.9l.7-.3 1-.5 1.2-.6.5-.2v1l-1.7.8-2.3 1.1.3-.5.3-.8zm1.6-1.6l-1.5.8.2-.7.3-.3.7-.4 1-.6 1.2-.7v.8l-1.9 1.1zm1.9-2.4l-1.2.6-1.8 1.1.3-.9 1.1-.6 1.6-.9v.7zm-3.1-7.9l-.3.2-.4.5-2.3 1.1-1.9.7-.9-.6 1.2-.4.4.2.3-.4 2.2-.8 1.8-.9.9.3-1 .1zm-3-.5l-.3 1-.5.3-1.2.5-1.6.5-.6-.7 2.2-.7 2-.9zm-2.1 3.2l-2.2.6-1.4.3-.6-.7 1.3-.2 1.7-.5 1.2.5zm-1.5.8l1.7-.4.4.3-1.8.8-1.5.4-.4-.6 1.6-.5zm-1 1.6l1.7-.5 1.5-.8.5.1.5.3-1.7.8-2.1.6-.4-.5zm2.6 1.3l-.1.5-.2.7-2.3.5-2.2.8v.2l.3.3 2.4-.7 2.8-.8.4.6-1.8.4-1.3.6-1.3.4-1.3-.4h-.6l-.2-1.6.5-.2h1.3l1.1-.4 2.5-.9zm.7 2.8l4.3-1.8-.4.8-.8.2-1.2.8-4.9 1.5-.9-.6 3.9-.9zm.6.8l1.5-.5 1.8-.8-.1.8-3.1 1.1-3 .9-.5-.5 3.4-1zm.4 1l2.7-1-.2 1-4.2 1.3h-.7l-.5-.4 2.9-.9zm-2 1.9l2.2-.7 2.2-.7-.2.6-1.1.4-1.3.6-1.2.2-.6-.4zm8.5-6.6l-.8.5-1.9 1.1.2-1 .7-.5 1.3-.7.6-.4-.1 1zm-6.7-8.4l.3-1.1h.4l.8-.6-.2.6-.1.6-1.2.5zm1.9-2l1.2-.9 1-.8 1-.8.1.7v.6l-.8.6-.3-.3-.3.5-.9.6-1.3.9.3-1.1zm.8-1.2l-.6.5-1.5.8.2-1 .6-.4 1.2-.8.1.9zm-.6-3l-1.4.9.4-.9.3-.6 1-.6-.3 1.2zm-1.2-4.8v-.4l.8-.4-.8.8zm.4 0l.1.5v.5l-.5.3.1-.9.3-.4zm-.4 1.8l.5-.1v.8l-.1.4-.7.2.3-.9v-.4zm.3 1.6l-.3.8-.1.4-1 .6.2-.3.2-.5.3-.7.7-.3zm-.6 1.8l-.4.8-.5.6-.6.4.4-1.3.5-.3.6-.2zm-1.1 2l-.2.9-1 .6.5-1v-.3l.7-.2zm-.3 4.7l-.4.7-.4.4-2.1.7.4-.7.8-.7 1.7-.4zm-.6-1.8l-.5.4-.7.1.6-1.1.5-.2.5-.3-.4 1.1zm-.7.7l-.7.9-.7.3.3-.6.3-.3.8-.3zm-1 1.1l-1.2 1.3-1.2.9.4-.9.8-.4 1.2-.9zm-1.5 2.4l.1-.7.6-.2v.3l-.1.3-.3.2.7.7-2 .6-.4-.2-.2-.2-.3-.3.7-.3.8-.1.4-.1zm-1.7-.1h-.6l1.2-.7-.6.7zm-.7.4l.3.5-.3.3h-.5v-.8h.5zm0 1.5l.7-.2.6.8-.7.2-.8.1-.3-.2-.2-.6.7-.1zm-.5 1.3l.8.1.5-.3h.7l.3.4-.7.3-1.2.3h-.1l.2-.3-.5-.5zm3.3 1.5l-1.2.3-1.8.1v-.7h.9l.8-.1.8-.2.5.6zm-2.4 9.5h.3v.2h-.3v-.2zm0-.5v-.2l.3-.2v.5l-.3-.1zm-.4-7.2l-.1-1 1.8-.1 1.3-.4.6.5-1.4.5-1.3.2-.9.3zm.3 2.2l.6-.1.3.3-.3.2.2.5-.6.2-.2-1.1zm1 1.3l.1.4-.3-.1-.4-.1.6-.2zm0 .5h.3v.3h-.6l.3-.3zm.3.5h.3l.3.3-.3.3h-.6l.3-.6zm-.2 1.1h.3l.3-.3.3-.3.3.6.4.8h-.7l-.6.3v-.3l.6-.3h.3l-.3-.3h-.9v-.2zm1.7 1.3l.4.5-1 .1h-.9l1.2-.9.3.3zm-1.3 1.3l.3-.3.6-.3h1.4l-.9.6h-.6l-.9.3.1-.3zm3.1 5.4v.3h-1.2v-.3l.3-.3h.7l.2.3zm0 .7l.3-.2.3.2-.9.4h-.3l-.2-.1.8-.3zm.1.6h.7l-.3.3h-.7l.3-.3zm0 .6h.5l2.4-.5.3.3v.6l-1.3.3-1.3.3-.5-.6c-.1-.2-.1-.4-.1-.4zm2.9-1.8l-.5.3-.5.3.3.3h.3l-.5.3h-.8l.5-.3v-.3l-.3-.3.5-.3.5-.3h.8l.5-.3 1.9-1.1 2.5-1.4-.1 1.3-.4.3-.8.5h-.3l-.7.2-.5.7-.5.3-.8.3-.5.3-.3-.5-.3-.3zm1.2 2.4l1.4-.4.8-.3 1.6-.8-.2.9-1.5 1-1.8.5-.3-.9zm1.2-.8l-.7.3-.7.1-.1-.5-.2-.3.7-.2 1-.4v1zm.6-.2h-.3v-.8l.5-.4.3.2v-.5l.3-.3 1.3-.4v1l-1.2.9-.9.3zm-2.1 2.4l1.5-.3-1.2 1h-.6l-1.2-.1 1.5-.6zm1.7 3h-1.3v-.3l1-.3.8-.3v1.4l-.6.2-1 .5v-.6l.6-.3.5-.2.5-.2-.5.1zm-1.2 1.7l.7-.3 1-.3v.7l-.6.3-1.3.2.2-.6zm0 1.3l.7-.3 1-.5-.3.6-.3.3-1.4.3.3-.4zm1.6.1v.6h-.6l-.4.2h-.3l-.8.3 2.1-1.1zm-1 1.6l1.1-.7v.8l-.5.2-1.3.5h-.4v-.3l1.1-.5zm1 2.5l-.4.9-1.4 1 1.8-1.9zm-.9-8.2h-.9v-.3l2.2.3h-1.3zm1 6.2l-.2.6v.3l-.6.3-.7.2-.4.2h-.4v-.3l2.3-1.3zm-1.4 1.8l1.3-.5v.4l-1 .8-.8.2-.8.3 1.3-1.2zm-.4 5.1h1.1l-.6.3-.6.6h-.8l.9-.9zm.5-.9h-.6l-.3-.3.8-.6.3-.3.8.3-.3.3h-.3l-.4.6zm1.7 1.2h1.4l-1.2.9-.6.3-.9-.3 1.3-.9zm-.8-1.1l.7-.3.7-.3h.7l-.7.7h-1.4zm1.1-2.1h1.1l-.5.5h-1.6l.5-.3.5-.2zm-1.1-11l-.5-.1-.5-.4 2.5-1-.5 1-.5.1-.5.4zm1.6 2.4l-.7.4v-.4l.3-.4.7-.4v.4l-.3.4zm.2 1.6v.4l-.3.2-.6.3v-.4l.4-.4.5-.1zm-.9 4.6h-.4v-.4h.9l-.5.4zm.4-1.5l-.6.6v-.7l1.2-.3-.6.4zm-.8-.8l.7-.8.8.1-1.5.7zm1.7-5.5l-.3.3-.9.3.3-.3.3-.3.6-.3v.3zm.1-1.8v.3l-.3.3h-.3l.6-1.3v.7zm.7-21.1v.9l-.7.3-1.8.7.1-.8.7-.4.9-.4.8-.3zm-.4-2.1l-.4.2-1.1.5.2-.9.6-.1.3-.3.3.1v.5zm-.3-2.4l-.9.5.1-.4v-.4l.8-.1v.4zm0-.9l-.7.3.1-.4v-.4l.5-.1.1.6zm-.5-2.8l-.3.5-1.1.8-1.2.8-1.6.6.2-1 .8-.4 1.4-1 1.4-1.1.4.8zm-.5-3.4v.6l-.8.7-1.1.7-.1-.9.7-.5 1.2-.9.1.3zm-.2-.8l-.5.3-.4.3-.5.3.2-.8-.5.4-.3.7-1.1.8.2-1.2.9-.8.9-.8.4-.5.4-.2.3 1.5zm-.3-1.9l-.5.3-1.4 1.2.5-1.3 1.2-1.1.2.9zm-1.3-.3l.1-.7v-.4l.7-.5v.4l.2.4-1 .8zm.5-2.9l.3.4.1.3-.3.3-.5.2.2-.9.2-.3zm0-.9v.3l-1.2 1.3v-.3l.3-.7.9-.9v.3zm-.3-1v.4l-.4.4-.8.4.8-.8.4-.4zM111 63v-.4l.3.4-.3.4V63zm-.1 1l.6-.7h.3l.3.4-.6.7-1 .4v-.4l.4-.4zm-.7-2.2v-1.3h.6v1.3l-.3.3h-.3v-.3zm-.2 1h.4v.3h-.4v-.3zm.1.9l.3.3h-.5l-.5-.2h-1.8l-.6.4.8-.1h.8l.8.2.7.6-.5-.2-.5-.2h-1.6l.3.5h.7l.9.3.3.5.3.8v1.5l-.7 1.8-.8 1.8-.8 1.5-.5 1.8-.8 1.5L105 78l-1.5 1.2-1.5.8-.4-.3v-1.8l-.3-1.5.5-.8 1.3-.6 1.5-.7.3-.2v-.2h-.9v-1.5l.3-1.3.3-1 .9-1.5.1 1.2.3 1.3.2-.2.2-.9v-.8l-.3-1.5.3-1.3.3-.8.6-.4-.3-.2-.5.2-.3.5-.5 1-.3 1-.5 1-.5.5-.4 1.1-.2 1.9-.5 1.5-.5 1-.7.3h-1.9l.3-.2.3-.5v-1l.3-1.3v-.2l.3-.5.3-1v-.9l.6 1.1-.3 1-.4 1 .5-.5.3-.5.3-1.3.1-1.4.3-1.5.1 1.1.1 1 .2-.8.2-.6v-.8l.3-.8 2.5-3.2-1.3 1.3-1.4 1.4v-.8l.5-.2.3-.3.1-.5 1.3-1.3 1.1-.6.4.3h.4v.2h-.5l.3.3.5.2 1 .2h1v.3zm-8.6 5.5l.1-.3.4-1.6V70l-.5-.8zm6.7-6.6h1.5l-.4.4h-1.5l.4-.4zm-.1-.3v-.6h.6v.3l-.3.3h-.3zm0-8.8l.3.3.3.5.1.6v.5l.3-.5v-.5l.5-.2.6.5v.5l-.4-.5-.4.2.7 1 .3 1v1l-.3 1v-1.6l-.3-1-.6-.5.6 1.6.1 1.2-.3.8-.3.3.2-1v-.8l-.3-.8-.6-.5.3.8v1.3l.2.5-.5.8-.2.8.1.4h.8l.2.2.4-.1-.1.6v.5l-.8-.7-.8-.2-.4.4-.6-.8.2-.6.6-.5.6-.2.1-.7v-.8l-.6-1 .3 1.2-.3.8-.4-1.2v1.2l-.1.7-.3.3-.1-1.1-.3-1v.3l.1 1.3-.2 1.5v.3l.4.3.6.8-.4-.2-.6-.1-.3-.3-.1-.3.2-.9.1-1v-1l.3-.8v-.3l-.6.5.2.5-.3 1-.3 1-.3.2-.5.3-.2-2 .2-1 .7-.8h-.3l-.7.4.6-.8 1.4-.7v-.2l-1.5.5.3-.6.3-.3.9-.5h-.6l-.8.3.2-.3.5-.5 1-.4.6.3.5.3v-.5l-.6-.2-.8-.8h1.2zm-4.3-2l.9-.2 1.4.2.3.3.3.3-.1 1.5-.6-.4-.3-.3h-.8l-.8-.6v-.7l-.3.2-.2.2v.4l-.4.1-.1-.8.7-.2zm-4.1 6.6l.3-.9.8-.8.5-.7.4-1.1 2.1-2 1.2.5.5.3.5.3h.5l.3.3-1.3 1-.5.8.1.8-.3.5-.3.5-.4.5v.8l.4-.1.3 2.1h-.7l-.3-.3v-.3h.5v-.5h-.3l-.5.5v.5l.2.5.8.1h.5l.5-.3.6-.6-.3 1.1.3.3-1.8 1-.8.8-.1.9-.4.1v-1.3l-.5-1v-1l-.2-.7.5-.6-.3-.8-.3-.8-.4-1.3 1.5-.3.9-.7-.3-.5-.3-.5-.8-.5h-.5l-.5.3.3.3-.3.2.3.3-.3.5-.3.2v.5l-.5-.3-.2.3h-.3l.3.3h.3v.3l-.8.3-.6.2zm2 .7l.9.7-.1.8-.5.3-.1-1-.2-.8zm1.1-2.4l.6-.5.1.6-.7-.1zm-1.9 2.3v-.3l.3-.6h.3l.3.3.3.6h-1.2zm-.8 4.2l.8-.9-.3-.2-.3.2h-.3v-.2l.3-.5.3-.2.6-.2.2-.5-.5-.3.3-.3.3-.2.4.9.3.5.3.5.3.5v1.7l.4.3v2.2l-.3.3V65l-.1-.8-.6-.8v.6l.1.6.4 1.3-.4 1.1-.1-1.4-.3-.7.1 1.6-.6 2.6V67l-.6 1.5.4.9v.6l-.6 1.3-.3 1.3-.3 1.4-.6 1.5-.4-.6v-.5l.6-2-.3-.5v-.5l-.3-.8-.1-1.1.6-1.5.6-1.8.3-1v-1h-.2l-.8 2v-1.1l.3-1.3.4-.9zm-2 .6v.6h-.6l.6-.6zm-1.1 1l.9.7-.3.6-.7-.6.1-.7zm.1 1.7l.3.5-.2.6-1.1-.5.4-.9.6.3zm-1.2 1.5h1v.8l-.5.4-.5-.9v-.3zm.4 1.8h.8l.6-3.1.9-3.5.3-.5.8-.3.1.6v.5l-.5.3-.3.5v3.8l-.3 1.1-.3.5h-.8l-.3.5v.5l.3 1.1h-1.1v.3l-.3-1.1.1-1.2zm2.6 2.3v2.9l.3.9v.3l-.9-2-1.4-2 1.2.6v-2.7l.6.3.3.6-.3.6v.9l.2-.4zM95.8 69h.3v2.8h-.3V69zm-.6 3l1.7 3.2h-1.3l-.4-.8.4-1.2-.4-1.2zm.1 5.7v-2.3l1.3 1.3 1.3 1.5.3-.5-.2-.5-.8-1-.5-.2-.3-.5h.3l.5.2v-.2l-.5-1.5-.8-1.8h.5v-.5l.3.2v.2l.3.5.8.8.5.8.3 1 .5 1v.2h.5l-.3-.2V76l.3-.2v.8l.3.5.3-.5v-.5l1.2-.4-1.2 1.7.3.2.5-.2v3.3l.3 3 .8 6.7-2.6-.5-.5-2.7.3-2.5.3-2.3v-2.5l.3-1.5v-1.3h-.3l-.3.5-.3.5-.3 3V90l.3.8v3l.3 1v.8l-.1.4-.6.1-.3.5-.3.5.3.8.4-.1.2-.4-.3-.1.1-.6.8-.1-.5 4.3-1.2-2.7-.4-1.9-.1-1.8.5-4.8.5-5.8.3-2.8.5-3-.3.8-.8.5-1.3.5v-.2l-.5.2-.5.5-.4-2.7zm.3 3.4v-.6l.3-.3.3.3v1.1h.6v-.8l.3-.6 1.1-.8h.3v.3h-.3v1.1l-.3-.6-.3.3.3 1.1.3.8-.7-.4-.5-.9v.3l.3 1.4.6 1.4-1.4-1.4-.9-1.7zm1.4 3.3l-1.6-1.3-.5-.9v-.9h.5l.5 1.3 1.1 1.8zm-2.1-15.2h.4v1.1l-.4-.3v-.8zm-.5.9l.7.9.3.9-1.3-1.2.3-.6zm0 1.4l.3.6.3 1.8v3.5l-1.4.8.6-2.9V72l-.5-1 .7.5zm-.5.8l-.2 2.7v1.6l-.6 1.4h-.6l-.3-.3.9-1.3.3-1.6.5-2.5zm-.7-1.1h.3l-.4 3.1-1.1 3.2-.7-.5 1.1-2.6.6-1.6.2-1.6zm-.4.2l-.8 2.3-.8 1.9.4.4-.4.4h-.4v.4h-.4v-.4l-.4-.5.4-.4v-.4l.4-.4h.4l.4-1.9 1.2-1.4zm-1.3-1.5v2.3l-.7 2-.9 1.6-.4-.2v-.3l2-5.4zm-.6 0l-.3 1.7-.3 1.2-1.3 2.4.2-1.5.6-1.2 1.1-2.6zm-.9-.3l.4-1.7.1 1.6-.6 2.1-1.3 2.8-.4-1.1.3-.6.3-1.2 1.2-1.9zm-.1-2.3l-.7 2.6-1 2.6h-.3v-.9l2-4.3zm-.5-1.2l-.6 2.8-.5 1.3-.7.9-.4-.2 1-2.1 1.2-2.7zm-.9-.1v-1.3h.4V66l-.3 1.2-.6 1.2-.8 2.1.3-1.8.8-1.5.2-1.2zm-1.3-3.7l.5.3.5 1.8v1.1l-.2.8-.5.3H87l-.5-.5-.3-.5.5-.3-.3-.3h-.5l-.3-.3-.3-.5h.5v-.3l-1.3-.8-.5-.5-.3-.8v-.3l.3-.5v-.3h.3v.5l.3.3v.5l-.3.3.3.3v-.3h.3l.3-.3.5.5.8.3.5.5v.7l.3-.3v-.8l-.8-.8-1.1-.5 1.3.3.5.4zm-2.9 2.5v-.7h.4l.4.4v.7l-.8-.4zm.9.7v.3l-.3.3h-.3v-.6h.6zm-2.2-.8h1v.7h-.7L83 65v-.3zm-.5-2.5l.3-.4h.3l.3.4v.8h-.7l-.2-.8zm.8 2.1l-.4-.5v-.5h.4l.9.5-.4.5h-.5zm1.3-3.8h.9v.6h-.9v-.6zm1-.3v-.4h.8v.4l-.4.4-.4-.4zm1.2.6v.6h-.5v-.5l.5-.1zm.2-2.1h-.2v-.3h-.3v.6l-.3.5-.4-.3-.2-.6.1-.9.1-.6-.3-.3h-.4v1.6l.3 1.1-.3.8-.3-.5-1.1 1.1v-.3l-.3-.3-.5.3-.3.5h-.3l-.3-.3.3-.5V60l-.5.3h-.3v-.5l.1-.7.3-.8.4-.4v-.3l-.5-.3-.1.5-.3.5-.3 1.1-.7-.2-.3-.5-.3-.3h-.3l.3-.3.3-.3.5-.3v-.3l-.3-.3v-.3h1.3l.3-.5h.3l.5.3 1.6-.8h1.3l.5.3.3.5v.3l.6.9.2 1c.1.1-.2.1-.2.1zm-5.2 4.1v-.4l.7.4v.4l-.4.4-.4-.4.1-.4zm-.1-.8l-.3-.3V61h.7l.3.3v.3l-.3.4h-.4zm-.4-1.8v.3H81l-.3.3-.3-.3-.3-.3.3-.3.3.3h.6zm10.5-.6h-.9v-1.2l.6.3h.3v.9zm.9 0v.6h-.3l-.3-.6v-.9h.3l.3.3v.6zm2.1 1l-.3.3-.3.6-.6-.3-.3-.3-.3-.9.3-.6.6-.6.6.3.3.6v.9zm.2-4.8l.3-.3.8 1.1.3 1.3.3 1.3-.3 1.3-1.1.5-.3-1.2V59l-.5-.3-.5-.2-.5.3H93l-.3-.3.5-.5v-1.9l.8.3h1v-.6zm-1.3-1.2h.5l.2.5.2.2v.8h-.8l-.8-.5-.5-.5-.2-.2h-.2l.5 1.3.2.5-.2.8.2.2-.2.2-.5.5h-1l-.5-.8v-.2l-.2-.2-.6-.3-.4-.6.6.1.1-.4-.3-.4-.4-.2-.3.1-.2.4.1.5.4.4-.5.5-.6-.1-.6-.5v-1.1l.2-.8.2-.5.2-.2.5-.2.3-.2.5-.2.5.2.5.2h.8l.5-.2h.8l.5.5.5.4zM91.5 52l.5-.3h.8v1.1l-.5.3-.5.3-1.1-.3H89l-.5.5-.8-.5-.5-.8v-.5l.3-.3.3-.3h.5l.3.3h.4l.3-.3.3-.8.3-.5H91l.5.3v.5l-.3.5v.3l.3.5zm5.4-4.2l.8.6 1.1 1.1.5 1.7-.8-.3-.8-.6-.5-.6-.8-.8-.3-1.1h.8zm.6 3.2l-.2.5h-.5l-.2-.2v-.8l.2-.5.5.5.2.5zm-2.3-.6l.4-1.8.1-.8.7 2.2-.4.6v1l.8.5h.8l.2-.5.5-.5.2.5-.2.5-.8.5-.5.3-.2.2H93l.5-.8v-.5l-.2-.2-.5-.5h-.5l-.2-.2v-.5l-.8-.8-.5-.2h-.5l-.8.5-.2.5-.5.2h-.5l-.8.5-.8.8v.5l.5 1 .5.2.2.2-.5 1.2-.2.5v.8h-.3l-.2-.5-.5-.2H86v-.2h-1.8l-.5.2-.8.5h-.8l-.5.2h-.8l-.5.2h-.2l-.2.5v.8l-.5.2-.2.8h.8l.2.5-.2.5v.8l.2.2.8.2.2.5v.2l.2.2v1.5l.5.5.5-.2h.2l-.2.5v.2l.2 1 .2.2h.5l.5.2.2.2.5.5h.5l.2-.2v-.2l.2-.5v-.2l.5 1 .2.5.5.2.8-.2-1 3.5.5.5.2.8.5 1.2.2 1.2.8 1.2.8 1 1 .5 1 .5.8.8h.5l.5.2 1-.5.5-.5v3l-.2.5-.8.5-.8.2-.5.5-.5.8-.5.8-.2 1-.8.8 1 .5h.8l.8-.5.5-.2v.2l.2.2-.3-1.2.2-1.2.3-1.1h-.2l-.5 1.2-.2 1.9-.1-.4-.2-.7-.5-.4.5-.6.5-.8.5-.2.8-.3.3 1.1.8.7.7.7 1.1.3.2.2v.6l-.4.6v1.2l-.1.9.2.5-.2.2-.2.5-.2.5-.4.4v-.5l.2-.5.1-.2v-1l-.2-.8v-.7l.2-.5v-1.2l-.4 1.5-.2 1.6.2.2-.5.5-.2.6-.4 1.2-.3-.4.1-.8.5-.8.2-2 .5-2-.8 1v1l-.2 1-.2 1.2-.9 2.2-.2-.7v-.2l.2-.8.5-1 .2-1.2v-1.2l.1-1.4-.2.2.1.6-.2 1v1l-.5.7-1.4 1.1.3-.9.6-.5.5-.8V86l-.2.2v.2l-.2.2-.2.2-.8 1-.2.5v.8h.8l.8-.8.5-.2-.5 1.2-.2.5v.8l.5.5v.2l.5-.2.2-.2h.2l.2.2.8-1.8v1.2l.2.2h.5l.2-.2-.2-.2.2-.2.2-.2-.2 1.8-.2 1.8V95l.2 1.8.2 1-.8 5.3.2 2-.2.5v.8l.2 1.2v3.8l-.2 1.5v.2l.2.2v.2l.8-3.5v-7l.2-3.5.5 1.2.2.2.5.5.2-1.2v-1l.2-2.5v-.2h.2l.1-.1-.1-.2-.2-.5.2-.2-.2-2.3-.1-2.4.2-.2h1.2l.7.6-.2.2-.2.8-.5.8-.2 1-.6 1.8.2.5.5-.6.2-.8.5-1.2V93l.8-1.5.3.7v1.5l-.8 2v1l-1 4 .2-.5.2-.8.5-1.2v2.2l-.2 1.2-.2 1.2h.2l-.8 5.8-.2 2.8-.2 2.8-1.8-.2-.8-.2-1 .2v-.5l-.2-.2-.5.2h-.2l-.2-.2v-.3l.2-.2h.2v-.2l-.2-.2h-.5l-.8.2-.8-.2.5-.2.5-.2-.8-.5-.8-.2-1.8.2-.5.2-.5.2v-.9l.2-.5-.2.2-.5.2-.8-.5-1-.2.5.5.5.2h.2l-2.2 1-.2-.2.2-.2.2-.2v-.3l.2-.2h.2l-.2-.2-1.5.8h-.8l-.2.2-.2.2h-1l.5-.8.8-.5 1.8-.8v-.7l.2.5v.2l.2.2h.8v-.2l-.8-.5-.2-.2-.2-.5-.5-.5-.8-.5-.8-.2h-1l-.2-.5-.5-.5h-1l.5-.2.8-.2H84l.8.5.5.2 1 1-.2-1-.5-1-.5-.8-.8-.2h-1.8l-1 .2-1 .8-.8.8-.5 1v.2l-.8-2.2-.5-1-.2-1-.5-2.3.3.8.2.2.2.2.2-.2v-.5l.8-.3-1.1.1-.1.6-.2-.3-.1-.3-.1-.4-.2-.2v-.8l-.2-.2h1.5l.2.5.2.2v.2h.5l-.2-.5-.2-.2-.8-.5h-.5l.5-1 .8-.5.8-.5 1-.2.2-.5.2.8v.4l.5.5.2.2.5-.5h.2v2.2l.8-.2.2-.5.5-1.5-.5-1.5-.8-.5-.5-.5h-.8l.2-.5h1l.5-.2.2-.5.2-1 .2-.5.2-.2.2.2.2.5-.2.8.2.8.5.2h.2l.5-.2h.2l.2-.5.5-.8v-.5l.2-.2.2.2.5.2v1l-.5.8-.2.5.2.5.5.2h.5l.5.2.2.2v.8l-.5.8-1 1-.8-.1-.5-.5.1-.6.2-.8.2-.2.2-.2.4.2.2.2v.5l-.2.2-.2.3h.5l.2-.2.2-1-.5-.5-.5-.2-.8.2-.5.5-.2.2v.2l-.2 1 .5.8.8.5h.5l.5-.2.8-.5.5-.5.5-1v-1l-.5-.2-.5-.2h-.5l-.5-.5.8-1.2.2-.8-.2-.5-.5-.5H87l-1 .2-.5.5 1.2.4-.2.5-.6.5-.2-.5.2-.2.2-.2-.2-.5v-.8l-.2-.2-.2-.2h-.8l-.5.5-.5.8-.2.2v.5l-.2.2-.2.2h-.2V93l-.2-.8-.2-.5.2-.5h.2l1-.2h.5l.8.5.5.2h.8l.2-.5v-1.5l.5-.2.2-.2.2-.2v-.2l-.2-.5h-.2V88l.5-.5.5-.5-.2-.5-.5-.5h-.2l.2-.2.2-.5.2-.2-.2-.2-1-.5-.2-.2-.5.2-.2.2h-.5v-.2l-.2-.2-.5-.5h-.5l-.2.2-.5.2-.2-.8-.5-1h-.8l-.8-.2-.8-.2h-1v.2l-.5-.2h-.5l.5.2-.2.2v.5l-.2.2h-.2l.2-3.5v-1.8h.8l.2.5.2.2h1l.8-.8.5-.2h.2v-.5l.2-.5-.5-.5v-.5l.2-.5-.5-.8.2-.8v-.5l-.2-.5h.2v.2l.2.2.5.5.5.2 1 .2-.2 1.2.2 1 .8.8h.2l.5 1.5 1 1 .8.2h.8l.2-.2 1-1 .2-.2v-1.5l-.2-.8-.2-.2-.2.2-.5.2.5.5.2.2v1l-.2.2-.2.5-.9.8-.6.2-.2-.2-1-.5-.2-.5-.1-.6.7-.4.2-.2.2.8.2.5.5.2h.2l.8-.2v-.8l-.5-.8-.2.2h-.2l.5.5v.2l-.2.2h-.2l-.5-.8v-.2l.2-.5.5-.2-.2-.5-.5-1-.5-.5h-.2l-.5.2-.5.8v.5l-.3.9-.6-.6-.5-.5.1-.5.2-.4v-.5l-.5-.2-.2-.2-.6-.4h-.3l-.5-.4.8-.1h.5l.2-.5-.1-.6v-.5h.2l.2-.2.8-.2.8-.5v-1l-.8-.8-1.8-.8h-.5l-.5.2-1 .2.2-.5v-.5l.2-.2-.5-.5-1.2-.2.2-1.2-.2-1.2-.5-1-.8-1v-.8l.2-.8-.2-.8.2-.8.5-1 .8-.8.2-.2.5-1.2.5-.8.5-1v-2l1.2.8.2-.5v-.2h.2l.5.2.5.5.2 1.2v.2l-.2.5-.2.2-.2.5-.5.2-.5.2-1.2.2.2.2h.5l1-.2.8-.5 1-1.5v-1.5l-.5-.5-.8-1-1 .5h-.2l-.5-.2h-.5v-.2l2-1 2-1 .2.8.2.2.5.2h.5l.8-.2.8-1 .2-.5v-1.2l.5-.2 1.2-1 1.4-.8-.5.8-.3 1.2v1.6l.4-.2.4-.2.8-.8.4-1.3v-1.3l.3-.2.6.6-.5 2.1-.2 1.5.3 1.4.8 1.5.2.8.2-.8.4-1zm-2.7 34.2v.9l-.3.3h-.3v-.9l.3-.6.3.3zm4.1 4l-.4.9v-.9h.4zm8.7 30.2l-.6-.1-.4-.3-1.5-.9.4-.5.6.6.4.4 1.1.8zm-2.4-2.7l1.6.5.8.9-.1.6-2.3-2zm-.6 2l-2.8-1.9.1-.7h.3l1.4 1.1 1.4 1.1 2.5 1.7-.2.6-2.7-1.9zm2.6 2.2l-.2.4-1.1-.6v-.6l.8.3.5.5zm-1.6-.9v.7l-.6-.3-.6-.3-.6-.3-.6-.6-.8-.6-.8-.6v-1h.3l1.7 1.4 2 1.6zm-2-12.6h1.3v.2l-1.6.2v-.2l.3-.2zm-.1-.2v-.8h1.6v.2l-.7.2-.9.4zm.4 1.2h.7l-.3.2-.7.3h-.3v-.5h.6zm1.1.8l-.3.2-.3.2-1.3.2v-.8l1.9.2zm-1.4 1h1v.2h-1l-.7.2v-.5l.7.1zm.2 1h1.3l-1 .2-.7.2-.7-.2.3-.2h.8zm0 .8h.8v.5h-1.6l-.3-.5h1.1zm0 .8l.8.2H101l-.3.2-.3-.2v-.2h1.1zm-.3.9h1.1v.2h-1.6l-.3.2v-.5l.8.1zm.8 1.1l.3.2h-.3l-.8.2h-.8l-.3-.2v-.2h1.9zm-.1 1.3l-.4-.5h.5l.5.5h-.6zm.3.8l.6.9-2.9-2h.6l.9.3.8.8zm.4-11h-1.3v-.5h1.6l-.3.5zm0-1.3l-.3.2h-.7l-.3.2v-.4l.3-.2h1.3l-.3.2zm-1.3-.7l.3-.2.3-.2h.7v.2l-.3.2h-1zm1.3-1.1h-1.3l.3-.2v-.2h1l.3.2-.3.2zm0-1h-1v-.2h.7l.7-.2-.4.4zm-.3-1h-.7v-.5h1.3v.5h-.6zm.2-1h-.7v-.5h1v.3l-.3.2zm-.7-1l.3-.5h.7v.5h-1zm-21.3 10.7l.7-.6.6-.3-.8 1.3-.3.8v.5l-.4-.7.2-1zm-.7-.9l.4-.7.5-.6.8-.5-.5.8-.1.8-.8 1-.3-.8zm3.4-.8l-.9.7h-.6l-.6-.3v-.3l.3-.3.9-.3h.4l.3.2.2.3zm-.1.7l.8-.3 1.1.3 1.1.6.3.6-.7.3-.9-.6-.8-.1h-.3l-.6.4-.7.3-.7.5-1.1 1.8.4-1.6.8-1.3.7-.6.6-.3zm-2.8 4l.6 1-1.3-.7.7-.3zm.7 0l.8-1.1.8-.8 1.2-.8h.5l1.3.4-.6.2-.6.3-.3.4-.8.4-.2.2h-.5l.5-.8-.5.2-.5.5-.2.3-.9.6zm.1.9l.8-.4 1.9-.8-1.5 1.2h-1.2l-.8.4.8-.4zm2.9-.1l.3-.3h.7v.3h-.3l-.9.3-.9.6h-.3l-.3-.3.6-.3h.9l.2-.3zm-2.4.5l.3.3.3.3h-.6l-.3-.3.3-.3zm.3 1.1h.3l.3-.3.3.3.3.3-.3.3h-.3l-.6-.3v-.3zm1.7.9l.6-.3v.3l.3.3.3.3-.3.3-.9-.3-.3-.3-.3-.3h.6zm.1-.7l-.6-.6.6-.3h.6l.3.3v.3l-.9.3zm1.4.2h.6l.3.3-.3.3h-.8l-.3-.3.5-.3zm1.4-.4l.4-.5.4.5v.5h-1.5l.7-.5zm-.1-1.1v-.3h.3l.6-.3h.3l-.6.6h-.6zm0-1.2l-.3.3h-.6l.3-.3.6-.3v.3zm-.9 1.1h.7l-.7.5-.4.5-.3-.5.7-.5zm-.4 2.5h.9l.6.6-.3.3h-.6l-.3-.3-.3-.3v-.3zm2.1 2.2l.8-.4.4.4h.4v.4l-.8.4h-.4l-.8-.4.4-.4zm-.3-1.5h.8l.4.4v.4h-.4l-.8-.8zm.9-.4l-1.1-.4.7-.4h.4l.7.4-.4.4h-.3zm1.9-3.4l1-.3.2.7-.7.5-.8-.1-.1-.5.4-.3zm-.6-.7l.3-.3.3-.3v.3l-.3.3h-.3zm2.3 1.4l.6.3.4.4v.4H92l-1.1.3-.3-.3-.3-.4 1.1-.7zm-.4-.8l.3-.6h.7l.9.3-.3.3h-.3l-.6.3h-.3l-.4-.3zm-2.3-.1l-1.1.4.7-.7h1.1l-.7.3zm-.2.8h.5l.5.5-.5.5h-.5l-.5.5-.5-.5v-.5h.5l.5-.5zm.7 3.7h.4l.4.4h.4l-.4.4h-.4l-.8-.4.4-.4zm.6-.4H89l-.4-.4.9-.4.4.4.4.9-.5-.5zm.3-1.2h-.8l-.8-.5.8-.5h.4l.8.5v.5h-.4zm.8 1.4l.8-.4.4.8h-1.2v-.4zm-.4-.9l.6-.7h1.1v.7h-1.7zm1.9.8v-.4l.5-.4.9.4-.5.4h-.9zm1.1-4l.4.4.4.4-.7.4h-.4l-.7-.4.4-.4.6-.4zm-.9-.9h1.1l-.5.3-.6-.3zm.5 2.8h1.5l-1 .5-.5.5-.5-.5.5-.5zm.4 2.4h.5l.3.3-.3.3-.5.3-.3-.3-.3-.3.6-.3zm.9-1.1l-.7-.4.7-.4h.7v.4l-.7.4zm-.1-1.6v-.5h1l-.3.5h-.7zm.8 1.7h.5v.3l-.5.3h-.3l.3-.6zm.3-1l.3-.3h.5v.3l-.3.3-.5-.3zM77.2 98.4l-.5-.5-1 .3.5-.5.5-.5.5.8.5.5h-.5zm.3.8l-.5.4v-.8l.5.4zm-4.5-10v-.8l-.3-.3h.3V88l1.3.3 1 .3h-.5l-.3.3-.3 1 .3.8.3.8-.8.1h-.3l-.3-.5-.3-.8v-.5l-.1-.6zm-1.3-4.3l-1.5-.4-.8-.6-.9-1-.6-1.1-.2-1-.2-2v-1.9l.8-2.1 1-1.3 1.8-2.8V73.1L69.9 75l-.9 2.1-.2 1.4.2 1.3.2 1.1.2.8.5.8 1 .8 1 .5 2.5 1 .8.1.1.4.6.2.2.4-.1.5-1.7-.4-2.6-1.1zM73 86h-1.6l-.8.3-.8.3.3-1.3h.8l.5.3 1.6.4zm-1.8-17.7l-.5-2-.2-2.3 1 .2.5-.2.5-.2.2-.5.5-.5.5-1.2v.4l-.2.5v.5l.5.2h.8l1.4-.1-.6.4-.8.2h-.2l-.4.3.9.1h1.1l-.5.4h-.5l-.5.2-.2.3h2.1l-.6.2-.7.3h-.5l-.2.2.4.3.7-.2 1-.1-.5.4h-.6l-.5.1-.5.2.8.2 1.2-.1-.7.5-.7.3-.2.2 2.1-.2-.4.5-1.7.2-.6-.2-.6.1-.8.1-1 1-.5.5.2.8v.7l.2.5h1v.2l-.2.3-.2.5v.5l.5.2.2.8.2.5.5.2h.5l.8.8.2.5.2.2h.5l-.5.2h-1.5l.9.6.9.1 1-.1.9-.2-.9.7-.9.2-.8-.1h-.8l.5.2.7.2 1.4.2-1.3.3-.7-.1-.8-.1 1.4.6 1.6.1-1.5.2-1.5.2.8.2h.8l1.5.2-.7.4h-2.7l.8.4.8.1 1.7.2-1.5.2-1.7.5 1.2.2 1.8.1-.5.2-1.2.1H74l.5.5h2.3l-1.2.3-1.6.3.8.5.9-.1 1.8-.2v.4l-1.2.1-.8.2-.7.3-.8-.4-.8-.5-1-.2-1-.5-.8-.8v-2.2l.4-2.4.2-2 .1-1.9.2-.2v-2.8l-.1-2.3zm.3-8.1h-.3l-.8-.3.5-.5.3-.2.5-1.3 1.3.5.8.3.8-.3-.3.8-.2.5h-.8l-.5-.3h-.2l.5.5v.3l.3.3-1 .8-1 1h.3l1-.8 1-1 .3.3.3.3v-.3l.3-.5-.2-.3.8-1.3.3.3v.3l-.3.5-.5.8v.4h-.3l-.5.3-.9.2-.3.3v.8l-.2.4-.8.5-.3.3H71v-1l-.1-1.3.3-.3.5-.3.4-.5v-.3h-.6zM48.4 25.7L49 24l.5-1.5-.5.2-.3.3-.5.2h-.5l-1 .5-.5 1-1 1.8v-2.8l-.5-.7-.5-.5L43 21l-1-1.2h-.2v2.8L42 24l.8 1 1.2 1.2 1.2 1-.2.5v.5h.2l1.2-.5 1-.8.7-.8.3-.4zm2.3-5.2l-1 .8-1.3.7-1.3.2-1.6-.1 1-.9 1.2-.4 3-.3zm3.2.2l-.7 1.2-.8 1.1-1.2 1-1.2.6.8-1.3.8-1.3.8-.8.7-.2.8-.3zm-6 5.2l-1 1-1.3.5 1-2.1.8-1 1-.8-.5 2.4zm-3.2.1l-1.3-1-.9-1.2-.2-1.2-.2-1.5 1 1 1.1 1.1.6 1.5-.1 1.3zm5.7-.1l1.3.8 1 1.3.8 1.3.8 1.3-.8-.3-.7-.3-.9-.9-.8-1.5-.7-1.7zm-1.5 1.5l.2 1.7-.6 1.2-.6.5-.9 1.3h-.3l-.3-1.4.5-1.6.9-.9 1.1-.8zm-10.9 1l.4-.3.8-.4.9-.1 1.3.4 1 .7-1.2.4h-1.1l-1.1-.3h-1v-.4zm5 .2l-1.5-2.1 1.1.4.9.3.8.9.9 1.4.3 1-2.5-1.9zM40.6 20l-.4 1.5-1.2 1-1.1.3.3-1 .8-1.5 1.5-1.2 1.8-.6-1.7 1.5zm-2.5 4.2l.3.9v.8l-.6 1.5-.3.5-.3.8-.6-1v-1.3l.6-3.7.3.8.6.7zm1 4.8l1.2.5h1.2l.8-.2.5-.2.7.4 1.2.9 1.2.8.5.7.2.2-2.2-.8-2.4-.8-4.5-1.5h1.6zm16.3 3.3l.3-1.6.9-1.5 1.9-2.3v1l-.2 1.3-.7 1.3-.9.9-1.3.9zm1.1 1l.8.3.8.3h1.1l1.2.6 1.9 2.6-1.5-.3-1.8-1-1.4-1.1-1.1-1.4zm5.7 5l-.3.8v.8l-.4 1.1-.6.4-.7.1-.6-.1 1.3-1.8.5-.5.8-.8zM54 26.2V23.3l.5.5.6.9.4 1.2.1 1.4-.8 2.3-.8-3.4zm13.2 18.2l1.6 3-.1 1.1-.1 1.1-.7-.4.1-.8.4-1.1-1.2-2.7.2-.8.4-1.3v-1.6l-.3-1.2-.5-.4-1-1.5-.3 2.2.2 1.2.2.5.5.2.5.2.1.5-.1.5-.5.2-1.2.2-.4 1-.8.8-.8.5h-1v.5l.8.5 1 .5H66l.5-.5.2-.5.3-1.3.8 1.5.2 1-.3.5-.2.2v.8l-3.7-1-1.8-1.2-.8-.8-.8-1-4-5.5-3.2-3-1.5-1.4-1.6-1.2-.9-.7-.8-.4-1.1-.6 1.3-1.4.9-1.8-.3-2.3-1.8 1.3-1.1 1.4-.3.9-.4-1.1-.6-.7-.5-.8-.5-.5-2-1h-.7l-.6-.1 1.2 1.7-2.1-.5-.9.2-.8.4.3-.9.3-1 .2-.7-.2-.8-.5-.8V23h.8l.8-.5.8-.8.8-1.5.5-.8.5-.5.8-.2h1l3.5 1 3.3.3-1.8.2h-1.8l-.8.2-.6.3-.5.8-.8.8.5.2h1l1.5.2 1.5-.5 1.2-.8 1-1.2h.8l1 .2-1 .2-.5.4-.6.8-1.4 2.8.1.3.5 1.6.5 1.5.2.5.5 1 1 1 1.2.5 1.2.2v1l.2.5.5.2 1.5 1.5 1.5 1.8.8.5 1 .5 1 .2h1l.2.2-.6.4-.5.2-1 1-1.6 2.6 1.2.1 1-.2.7-.5.2-.5.2-1 .2-1v-.5l.5-.5-1.2-2.5-.8-1-.5-.5-.8-.2-1-.2-1-.2h-1l-1-.5 1.2-.8 1-1 .8-1.2.4-1.6-.2-1 .2-1-2.2 2-.8 1.1-.8 1.4-.1.2-.1-.4.3-.7.2-.5.2-.4.3-.7.2-.8-.2-1.7-.5-1.8-1.2-1.5v-.5l-.8 2.3v2.2l.5 2.2.8 2L54 29l-1-1.8-1.3-1.2-.7-.5-1-.5 1.2-.5 1-.8 1-1 .5-1 .3-.7h.2l.5.8.8.8 1.5 1 1.5 1.2.8.8.8.8 2 4 1.2 2 1.5 1.8 1.8 2.5 1.5 2.8.3.4.2.4.1.2.8 1.1-.1-.1.2.4.5 1 .3.5.3.6.3.4.3.5-.3 1-.5.9-.5 1-.3 1.2-.2.9-.1.8-.4-1 .1-2.4-1.8-3.4-.1.5zm.1-2.5l-.6-.4-.3-.3-.4-1.3.2-1.2 1 1.3.2.9-.1 1zm-.4 2l-.6 1.8-.3.9-.9.3h-.9l-1-.5 1.8-1.1.9-1.1 1-.3zm-.8 5.1l1.5.6 1.7 1 1.8 2.2 1.5 1.8 1 1.2 1.2 1.2 1.1.8 1.1 1.7 1 1.5 1.2 1.9.4 1.1.2 1.1-.3.9-.3 1.1-1.4 1.9-1.3-.3H76l-.5.2h1l.6.4.4.9.7 1.1-.2 1.4v.5l-.5.5-.5-.5-.2-.8v-1.5h-.2v-.2l-.2 1v.8l-.4.7-.2.2h-.5l-.5 1-.2.2-.6-.1-.3-.5-.2-.5-.5-.6v-.5l1.3-2.3v-.2l-.3-.2h-.3l-.2.5-.5.5-.2.5h-.5l-.2-.5.2-.5.2-.2H72l.2-.8.9-.8 1.1-.1 1.1.1h1l1-.2.5-.2-.2-.7.3-.4.2-.5.1-1.5V64l-.2-.9-.3-.8-.5-1-1.2-1.7-1.3-1.6-1-.8-1.3-.8-.5-1.4-1.8-2-1.6-1.6-1.3-1.1-2.7-1.7 1.6.4zm8.1 7v-.3l.9.3.9.2v.4l-1 .1-.8-.7zm-2.4-19l-.6-.5-.5.1-.4.2-.3-.5.5-.8.5-.3.8-.3 1.1.5.5 1.1v.5l-.3 1.3-.3.5-.5.5-.3-.3-.3-.3.3-.5.1-.7-.3-.5zm-1.2.2l.6-.2.4.5.1 1-.7-.7-.4-.6zm1.1 2.3l-.9-.2-.6-.4-.4-.8-.1-.6.1-.7 1.9 2.7zm1.3 0l.5-.8.5-1.2-.3-1.5-.5-.8-.5-.5-.7-.2h-.5l-.8.2-.5.3-.5.5-1-1.8-1.2-1.5V32l1.5.2 1.2.5 1.4.1 1.6-.4 1.2-.8.8-.2h.2l.9.2-.5.6-1 .4-1.2.5-1.7.9 1.9.8 1 .1 1.6-.4.8-.7.1-.8v-1l.5 1 .2.8v.5l-2.6 3.2-2.2 3.5-.5-.5-.2-.8.5-.2zm-2.4-15.3l1-1.1.6-.1-.3 1.3-.5 1.3-1 1.3-1.2 1.2.2-1.3.5-1.3.7-1.3zm-.2-.7l-1.4.3-1.7-.4-1.3-.3 1.7-.7.8-.2.8-.2 1.2.1 1.4.4-.6.7-.9.3zm.7 3.3l.8-1 .5-1.3v-1.3l1 1.9 1.5 1.6 1 1.6.5 2.1v.3l-.4-1-1-.8-1-.5-1-.3h-1.5l-1-.3.6-1zm2.1 2.1h.8l.8.5 1 1 1 1-1.5-.5-1.3-.5-1.3-.8-1.3-1 1.8.3zm-5.1 2.7l.6-.4.8-.4h1.7l3.3.4-.6.4-.8.4h-.8l-1.1.3-1.4-.3-1.7-.4zm8.7.1v1.6l-.8.9-1.6.2-1.8-.4 1.6-.7 1-.4.8-.2.8-1zm-2.2 7.9l.6-.8L77 40l1.8.5-1.1.2-.6.3H74.2l.4-1.4zm45.5-8.5l2.7-2h.3l-.7 1.8-.9 1.4-1.6 1-1.5.5.6-1.4 1.1-1.3zm-1.9-1.3v-.6l.4-2.1.1-1.9.6 1.4v1.7l-.2 1.2-.3 1.2-.6-.9zm2.6-1.9l-1.2 1.4h-.3l.2-1V27l-.2-1-.5-1h.8l.5-.2 1.2-.5v2.2l-.1.8-.4.6zm-1.4-3.4l-.9-.1-1.9-.8-.8-.6.9.1.9.2 1.5-.1 1.7.9-1.4.4zm-3.4-.8l.8.2 1.2.8.2.8v.8l-.2 1.5-.2 1.5.2.7.2.8-1.8 3-.5 1.8-.5 1.8H114v-.5l.2-.5.5-.8.2-1.2V33l-.2-1.2-.8-1-.2-.5v-.8l.2.2.2.2.5.2.5.2.8 2.2.8.5.2-1.5.5-2 .2-2-.2-1v-1l-.4-.5-.5-1v1.2l-.2 1-.8 2.2-.2-1.5-.5-1.2-1-1-1.2-1-.2.2v.5l.2.2v.4l-2.8-.8-2.2.2 1.8-.8 2-.2 4.2-.5.4.8zM98.8 40h-1.2l-1.2.2.2-.8.5-.8.8-1.5L99 36l1.8-.8-.8 1-.8 1.2-.5 1-.2.8.3.8zm.4-8.2v-1.1l.5.8.8 1.2.8 1 .5.2.8.2h.5l-2.5.5-1 .5-1.3.8.4-1 .4-.6.5-.8V33l-.4-1.2zm.7-.8l1.2.3 1.1.6.9.9 1 1-1 .2-1.2-.4-.9-.9-.7-1-.4-.7zm-.8 8l.3-.8 1.5-2.5.3.8.2.8-.2.9-.6.7-.6.6-.6.5-.3-.5V39zm1.4.8l.5-.5.6-.9.1-.8v-.8l-.5-1.5 1-.2.8 1.5.8 2.2.5.5.7.7.8.2-.2.2-2.8-.2-2.8-.2.5-.2zm5 0l-.5-.5-.8-1.2-.5-1.2-.8-1.2 1.2.8.8 1 .8 1.2.5 1.2v.1l-.7-.2zm.5-1.8l-.5-1-1-.8-.8-.8-1.2-.5 1.2-.5 1.2-.2h1.5l1.2-.2-.2.5-.5.8-.5 1-.4 1.7zm6-8h.5l.5-.2.2.2-.2 2.5-.2 2.2-1.5-1-1.8-.8v-.2l.5-.7 1-2h1zm-1.6-.8l-1.6-1.1-.9-1.2 1.3.3 1.4.3.7.4 1.2 1 .4.4-1.2.2-1.3-.3zm-.4 1.9l-.6.9-.8.9-1.2.6-1.2.2-1.1.3 1.4-1.6 1.7-1.3 2.2-.8-.4.8zm-3.9-.3l-.6 1.7-.9 1.4-.3-1.4.3-1.1.9-2.8v-.8l.3.8.3.8v1.4zm.4 7.8l.2-1.5.8-1.6.8-1.2.2 1.8v1l-.2 1-.4.8-.6.7-.5.2-.3-1.2zm2.2 0l.5-2.1-.3-1.3-.8-1.5.8-.5 1.3 2.8.8 1 .8.3.5.3-2.2 1-2.4 1 1-1zm3.2-1.9l-.9-.6-.4-1-1-1.6 1.3.5 1.3.8 1.5 2.1-.4.3-.6-.1-.8-.4zm1.4-1.4v-1.6l.2-1.8.1-1.2.5.9.3.8.3 1.3-.3 1.3-.5 1.3-.3-.5-.3-.5zm-.1-8.8v-1.6l1.1 1.1.5 1.3.3 1.3.3 1.6-.5-.5-.8-.4-.4-1.1-.5-1.7zm2.8 5.2v-.8l-.2-1.7.6-1.8.3-1.5.5 1.1-.1 1.3v.6l-.8 3.9-.3-1.1zm-6.3-6.9l1.4.3 1.1.5-.8.5h-1.1l-1.9-.3-.8-.5-.3-.3-.3-.3 2.7.1zm-2.2 1.2l1 .5 1.2.2h1.5l.8-.5.5-.8.2 1.8.2 1 .2.8-.5-.5-.6-.5-1-.8-1.2-.2-2.5-.5h-.3l1.5 1.8 1 .8 1 .8-1.2.5-1 .2-1 .5-1 .7.2-1.2V29l-.5-1.2-1-1h-.2l.2.5v1l-.8-.2h-.8l-1.5.5-1.8.2h-.8l.6.5 1.1-.2 1.2-.2 1.2-.3 1.2.1-.2.6-.7.5-1.1.2-1.8-.2-.5-.2-.5-.3.8.8 1.2.2 1.2.2 1.2-.8-.5 1.8v1.8l-1-1-1-1-1.2-.5-1.5-.1v-.6l-.1-.6-.3-1.2 2.2-.2 2-.8 2-1 1.8-1.2.9.9zm-10.2 9.8l-1.7-.8-1.1-1.2-.8-1.5-.9-1.5 1.5.6 1.7 1.2.7 1.4.6 1.8zm-8.6 2.5l1.6.4 1.6.1 1.3.4.7.5.6.6-1.7.4-1.3-.4-1.5-.5-1.3-1.5zm0-2.1l-.5.3v-1.1l.2-1.3.8-.9 1.2-1.1-.1 1.1-.3 1.1-1.3 1.9zm-.8-2.8v2l-.2 1.2-.5-.2-.6-1v-1.2l.4-1 .5-1.5.4 1.7zm-1.2-1l-.5 1.5v1.5l.3.8.5.8h-.5l-.5-.8-.5-1-.5-.5-1.1-.5.8.7.5.6.8 1.5-.3.3h-.5l-.5-.5-.4-.6-.4-1.8V36.1l.3.8.3.5h-1.3l-1.5-.5.8-1.3.8-1 1.8-2.1 1-.8 1-.5-.4 1.2zm-3 5.4l1.6-.1 3.7-1-1.2.7-2.1.8-2.6.2L81 38l.3-.8 2.4.6zm11 .9l.4.8-.2.6-1.4-1.2-1.2-.5-2.8-.2-1.3-.2.5.9.5.8.7.6 1.6.5-.7.2-.8.5-.8.8h-.3l-.6-.8-2-1.3-1.1-.3-1.8-.6.3 1.3 1.2 1.5 1.8 1.1L88 43l-.8.8-1 .8V44l-2-.5-1.8-.8-1-.2-.8-.2-1 .2-1 .2 2-4.2 2.2.1h1.6l1.6-.2 1-.3 1.3-.7.9.5H91l2.3-1 .5-.2.9-.8-2.2 1-1.5.5h-1l-1.1-.4 1.6-.6 1.9-.4 2.3-.1-1.4-.2H92l-2 .4-.6.1-.4.3.8-1.2.8-1.2.2-1.2v-1.5l-1.2 1.2-.8.4-.2.5-1-2.5 1-.2 1-.2 2.2-.5 2.2-.2 1-.5 1-.5 1.2-.2.5-.2h.5v3.2L98 33l-.5 1.5-.5-1-.2-.8-.2-.5-1-.8-1-.5-1.2-.2-1-.5v.5l.5.5.2.5.5 1.2 1 1.5 1 1 .8.2.6.4-1.5 2.2-.5-.1-.3.6zm-10.9.9l2.3 1 .9.6.9.4.8.6-.2.5h-1.1l-.9-.1-.8-.4-.9-.8-.5-.8-.5-1zM87 47l-.5-.2-.8-.8v-.7l.3-.2.4.3 1 1.5-.4.1zm.5 1.8h.3v-1l.5-.3.5-.3v.5l-.2.5-.2.6-.5.5-.6.1-.6-.2-.4-.9.4-.2.3-.1h.3l.2.8zm-6-.2l.4.7.8.3v.3l-.9.2-1.1-2.5.8 1zm-.5-1.3l-.2-.3.3-.6.6-.3h.6l.6.3-1 .6-.9.3zm.4.5l.3-.3h.4l.3.3.7.9.8.6-1.6-.3-.9-1.2zm2.3.8l-1.4-1.5.8-.2.3.3 1.2 1.4h-.9zm-.3-1.9l.5-.3.8.8.5 1.1-1.1-.5-.7-1.1zm.7-.5l.3-.4.7-.4.7 1.1.7 1.1h-.7l-.3-.4-1.4-1zm-4.7-3.3l1.6-.1 1.3.4 1.6.7 1.6.4-.8.4-1 .3-1.8-.2-1.9-.6-1.6-1 1-.3zm.1 1.6l1.2.5-.5.5-.5.5-.5.8v.8l-1 .2h-.5l-.2-.5-.2-.8.2-1 .5-.8.2-1 1.3.8zm.3 4.1l-.1 1-.7-.2.2-.8h.6zm-1.7 1.8h1.2l-.6.8H78l.1-.8zm-.3-1V49l.4-.4.4.4v.4h-.8zm-1.3-.6h1v.7h-1v-.7zm.6 1.5h.6l-.6.9-.5-.9h.5zm.3 2h-1l.5-.8.5.8zm-.4 1.2l1.5-1.2 1.8-1 .2.5-.3.2-.5.2h-.5l-.2.3v.5l-.2.5.2.5.2.8-.8 1-.5 1-.2 1.2.2 1.2V59l.1-.7.1-.9.4-.8.6-.9 1-1.5.6-1.9-.1-1.1-.3-1-.2-1.2-.5-1.2v-1.2l.9-1.1.7-.2h.5l.7.1h1.4l1-.3 1-.2-2.4 1.3-.7-.2-.7-.2-.9.2-.6.6-.1.9.2 1 .4.8.4 1.2.2 1.4-.2.9-.2.8-.7 1.6-.5 1-.8.7-.5.9-.3 1-.2 1v.5l-.8-1-.8-.8-.5-1v-1.3l.9-2.7zm3.2-1l-.4 1.6-.4.3-.4-.7.2-.8.5-.5c.2.1.5.1.5.1zm1.4 15.8l1.1-.3H84l.5.3.8.8v.5l-.8.3-.8.3-1.1.3-.5-.3-.3-.3-.3.3.5.5.5.3.5.3v.7h-1.1l-.5-.3-.6.3-.3-.3-1.5-.8-1-.8v-.8l.5-.8.8-1.1.3-.5.5-.3h.5l.5.3-.5 1.6 1-.2zm-2.7 9.1V77h1.3v.9h-.8v-.4l-.5-.1zm-.2-2.4l.1-.4.4-.4.6.4-.4.6.2.7.3.3-.4.5-.7-.2.2-.6v-.5l-.3-.4zm0 .5l.1.6-.6.2-.4-.6.1-.6h.4v.3h.4zm.1-2.9v1.3l-.2.2-.2.5-.2-.2-.2.2-.2.2v.5l-.2-.2-.5.2-1 .8-.2-1-.2-.2-.7-.3.2-.5.2-.2.5-.2.2-.5.2.2h.2v.8h1l.5-.5.5-1.5v-.8h.2l.1 1.2zm2.4 10.7l-.8.2h-.8l-.7 1 1.2 1.6 1.1 1.5-.2-.7-.5-.8-1.1-1.5.4-.5.5-.2h.5l.5.2.5.2h.5l.5.2.2.2-.2.5h-.2l-.2-.2-.5-.2h-.2l.2 1.3-.5-.5h-.5v.5l.2.5 1 .2.5.2.2.2v.5l-.2.5h.8l.2-.2v-.5l-.2-.2v-.2l-.2-.2-1-.2.2-.5V86h1l.2-.8v-.5l-.2-.2.5-.2.2-.2.8 1 .5.2h.5l.2-.2v-.2l.2-.2h.2l.2.2v.5l-.2.5v.8h.8l-.1.5-.5.2-.2.2-.2.5.2.3.2.6-.2.4-.4.3-.1.2.1.5-.2.6h-.5l-.8-.5-.8-.1-.1-.4v-.5l-.3-.7-.3-.2h-.5l.5.8v1l-.5.2-.6.4v-.5l-.5-.5h-.2l-.3-.3v-.5l-.2-.5-.2.2-.6.3-.2-.8v-.5l.2-.2v-.2l-.2-.5-.5-.2-.3.1-.5.5v.5l-.2.5-.5.5-.2.5-.6.3-.5-.2-.2-.2v-.2l.2-.2.2-.2h.3v-.8l-.5-.5v-.5l.2-.2.5-2h.8l.5-.2.5-2h.8l.8.2.8.2h.5l.2.2.2.5-.2.5h-.5v-.5h-.4zm.9 12.8h.5l.5.3.8.9.3 1.1-.2.6-.4.8-.1-1.9-.3-.3-.5.3h-.5l-.4-1.5.3-.3zm-.6-5.4l-.4-.4h.4v.4zm.2 1.1l.3.3v.5l-.8.4-1.4.2-.3-.5 1.3-.3.3-.3.6-.3zm-.2-.9l-.7.9-.8.2h-.3l-.2-.7 1.2-.2.3-.3h.5zm-.9-.6l-.3.3-.5.3-.4.3-.3-.3-.3-.5.4-.1.3-.5.3-.3h.5l.5.5-.2.3zm-1.5-.7H78l.3.8.5 1.1.3.8v1.1l-.3.8-.5.8-1.1 1.3.3-1.8v-3.4l.3-.8.3-.8h.5l.3-.5.3-.3.3.3.3.3-.7.3zm-1.5 7.1l.3.5.5.3.3.3-.1.4-.8-.5-.5-.3.1-.7h.2zm.1-.3l.5-.5 1.5 1.4-.9.1-1.1-1zm.8-.7l.4-.5V95l.5.4.3.3.5.3.3.3.6.3-.5.2-.7.2-1.4-1.3zm1.9-.1l-1.2-.9.3-.3h.3l1.2.4h1l-.3.3-.4.9-.9-.4zm1.4-1.3h-.5l-.6-.1-1-.3.3-.4h.5l.5.1 1.1-.3.3.7H82l-.2.3zm-6-2.2H75l.3-.5.6.1h1l-.1.3-1 .1zm1.1.5l-.6.5-.7-.1h-1v-.4l.1-.4 2.2.4zm-1.5-1.4l-.1-.4H77l-.4.4h-1.2zm2.4-15.1l-.3.4-.4.1-.6-.2.5-.2.4-.2.4.1zm2-3.1l.4.2.3.4-.3.6-.5-.1-.4-.5.1-.5.4-.1zm-.4-.8l.8-.1.5.2.2.2-.4.7-.4-.5-.7-.5zm.8 3.5l-.4-.1.1-.7.5.3.1-.5.2-.5.4.6-.4.7-.5.2zm0 .5h.3l.3-.3.3.7v.7h-.3l-.3-.3-.3-.3v-.5zm-3.4-12.3l-.1-1.6v-1.2l1 2.3.2 1.2-.3 1.4-.3.6-.5-2.7zm-.6-2.2l-.9.1-.1-.6 1.1-.1-.1.6zm.2.4l-.2.7-1.1.1v-.6l1.3-.2zM75 60.6v-.2l.8-.2.4.6-1 .1-.2-.3zM72.5 57l.2.2.2.2.2.2h.5l.2.5h-1l-.2-.5h-.5l.4-.6zm2.5 4.7l-.3.3v.3l-.3.6-.5-.1.5-1.6h.3l.3.5zM70.2 78l-.2 3.8-.6-1.8-.3-1.9.8-2.2.9-1.7-.6 3.8zm5.4 6.8l1-.3-.2.8-.8-.5zm1.3 5.7h-.7l-.9.1-.6-.8h1.2l1 .7zm-.8-.9l-1.3-.2.3-.5.7.2.3.3v.2zm-1.9 3.5l.8.2.9.1.9-.1-.4.4h-1.2l-1.5-.2.5-.4zm11.1-16.6l.4-1.2v-.5l.3-.3h.5l.3.5.3.5-.3.3-.8.6-.4.4-.3-.3zM93 44.6V46l-.3 1-1 .9.3-2 .5-.6.5-.7zm1.4 1.4l.6 1.2.2 1-.5 2.6-.7-.9-.3-1.5.1-1.2.6-1.2zm13.5-1.2l-.8-.8-.5-.8 1.8-.5 1.6-.8 3.3-1.5v1l-.3.5-.5.3h-1.3l-1.3.3-1 .5-.8 1-.2.8zm4.4-2.3l-.3.4-.7.7-1.7 1.1-1.4.4.7-1.1 1-.7 1-.7c0-.1 1.4-.1 1.4-.1zm-2.3 3.8l-1.6-1 1.6-.3 1.3-.8 2.1-2.1.3.3.3.5-1 .5-1 .8-.6.8-.2.6.1.6.4.1-.4.3-.3-.1-1-.2zm1.1 6.1l-.4-1.8V49l.4-1.2.4.2.2 1.1v1.5l-.6 1.8zm2.7-5.8l1.8.4 3.9 1.5-2.1.5-1.6-.2-2.3-.9-1.9-1 1.1-.4 1.1.1zm2.6-3.4l-.8.9-1.8 1.2-2.2.7.3-1.2 1.4-1 3.1-.6zm-2.8-1.4l.1-.6v-.9l.4-.2.3.5-.1 1-.2.8-.5-.6zm16.2 8l-.9-.5-.6-1-.8-1.2-.7-1.6 1.2.8 1.1 1 1 1.2.3 1.4-.6-.1zm3.4-4.4l-.2.7-.7 1.2-.9.8-.6.1.7-1.3.6-.9.7-.8.2-1 .2 1.2zm-1.4-3.4v1l-.1.9-.8 1.3-.1-.7-.1-.5-.3-.8v-1.1l.3-1.1.2-.8.9 1.8zm-1.3-2v.2l-.2.2v.2L130 42v1.2l.5 2.5.2.2 1.2-1.5.2-.8v-1l-.2-1.2-.8-1.2.8.5.5.5.6 1.3v.7l-.2 1-.5 1-.8 1-.5.8-.6 1.1-1.1-1.4-1.5-1.2h-.2l-.5-.2-.2-.2-.2.2-.2-.5-.2-.2h-.2L125 43l-1-1-.5-.7.7.2.3.2.4.5 1.1 1.6.8.7.8.5.8.2h1.8v-.5l-.2-.2-.2-.2V44l-1.2-1.5-.6-.3-1.6-.5h1.5l.6-.3-.7.1-.5-.2-1-1.2-.5-.2-.6-.1H124l-.8.3-.7.2-.5-.3-.6-.4h1l.9-.2 1.7-.4 1.7-.2h.8l2.2.5 1 .5-.2.2zm-7.7.5l1.2-.5.9.2.6.3.9.9-1.2.1-1.2-.5-1.2-.5zm2.3 1.5l1 .1 1.2.5 1 .8 1.1 1.4-1.5-.1-1.3-.9-1.5-1.8zm-8.3-4.5l1 .1 2.2.3 2.1.2 1.2.1 1.3-.7.9.1 1 .1 1.8.3 3 1.2.9.3-1.1-.2-3-1-1.8-.1-1.6.3-1.8.6-.9.1-1-.2-1.5-.1-1.8-.3-1.8.3-1.7.4-1.8.5v.2l-.1.3h-.5l-.6-.3v.3l.2.5-.4.2h-.8l-.8-.4-.2.2.2.5-.5.3h-.5l-.5-.3-.5.3.2.3.8.3-1.3.2-.5-.3-.5-.3h-.1l.5.5-.5.3h-.6l-.5-.7-.4.2.2.5h-.5l-.6-.6-.6-.1.4.8h-.8l-.5-.3-.2-.3-.2.3.2.3h-.5l-.2-.3-.5-.5h-.5l.5.8h-.5l-.2-.3-.2-.3h-.5l.2.5H99l-.2-.3-.5-.5H98l.2.8h-.5l-.5-.3-.4-.6h-.4l.2.5.3.3-.5.3-.4-.2-.5-.3-.5-.2.5 1h-.8l-.7-.5-.2-.3h-.2v.3l.8.8-1 .3h-.1l-.4.4-1.2-1.3v.6l.8 1-.4.3L91 44l-.3-.6-.2.3.2.5.6.7-.3.2-.3-.1-.6-.5-.7-.3.2.5.5.8-.2.3-.9-.6-.3-.2h-.2l.2.8.7.5-.3.3-.8-.8-.6-.6.1.7.8.9-.3.1-.5-.3-.5-.3-.5-.5-.2-.5 1.2-1.2 1.4-1.2.5-.5.8-.3.8-.8 3.9-.6.5-1v-.5l-.7-.4v-.3l.5.3 1-1.3 1.1-2.4.8-2 .3-2.9.2 1.6.1 1.5-1 2.3-.4 1.2-.5.8-.3.5-.6 1.2-.2 1 .2.5h3l2.5.3 2.6.2h1.4l1.6-.8 1.8-.6 1.6-.7 1.8-.8 1-.4 2.3-.3.4-.8.9-3 1.4-2.4 1.8-2.6 2-2.1-1.8 2.4-1.4 2.5-1 2.1-.8 1.1-.6 2.3.1.3zm7.4-3.4l.3-1.8.3.5.3.5.5 1.4.1 1.2-.4.9-.8-.1-.5-.7.2-1.9zm4 .5l1.2-.2h1l1 .3 1 .3h1l-1.6.6-1.6.2-1.7-.1-1.7-.5.4-.6h1zm-.4-1l-1.1 1-.1-1.2.3-1.2.7-1.2 1.1-1-.3 2.4-.6 1.2zm5.7-1.6l1.1.6 1.3.8 1.6.4-1.6.2-1.9-.2-1.3-.7-1.6-1 1.1-.5 1.3.4zm1.8-2.3l1.1-.1 1.6.4 1.3.1-1.5.5-1.2.4H135l-1.5-.6.6-.5 1.2-.2zm-.9-1.6l-.6 1.3-1.5 1.3-1 .8V31l.2-1.3.7-1.1 2.4-1.8-.2 1.3zm-6.4-3.6h1.3l1.6.2 1.9.8 1 .3-.6.3-1.3.2-1.6-.2-1.3-.4-1.9-.9.9-.3zm1.1-1.3l.1-1.2.3-1.6.7-1.3 1-1v1.6l-.5 1.3-1.6 2.2zm5.1-.7l1.9.1 2.1.1-2.2.8-1.6.4-1.6-.1-2-.7 3.4-.6zm-.7-7.8l.5 1.3-.1 1.8-.1 1.6-.6 1.2-.3-1.6v-2.9l.6-1.4zm-1 1.5v3.2l.5 1.8-.6.6-.6.4-1.7.5.9-1.3.5-1.5.2-1.5v-1l-.2-.8.2-.8 1.5-1.5-.7 1.9zm-5.5-1l3.8-1.2h2.3l-.5.6-.6.6-1.7.9-1.3.2-2.1-.7.1-.4zm4.3-7.3l1.6-.6 1.9-.3 1.9.1 1.1-.1-.3.6-.5.6-1.1.6-1.3.3h-2.9l-1.5-.1 1.1-1.1zm-2.4-.3l-.3-1.4V4.8l.3-1.7.6.6.3.8.3 1.4v1.7l-.3 1.4-.9-1.4zm-.1 3.4l1.6-.4 1.5.1 2.2.6-1.6.5-1.2.5-.9.1-1.1-.2-.8-.6.3-.6zm-2.5 5l2.5.8h1.2l1.2-.5-.5 1.2-.8 1-.8 1-.5 1.2-.2 2.5-1.2 1-1 .8.2.2h.5l1.8 1 1.8.5h1.8l1-.2.7-.5h.8l-1.2 1.2-1.5 1-.8.8-.5 1.5.2 1v.2l-1.2.5-1.2.8.5-1.8v-1.8l-.2-.2-1 1-1 1-.5 1.2-.2.8.2.8v.2l.2.5v.3l-.2.5-.2-1-.5-1-1.2-2-.8 4.5.2.8.5.5-.8.5h-1l-1.8-.2-2-.2-1.8-.4.2-1.2.8-1.2.5.8.5.6 1.5 1 1.2.2.8.2.8-.2-1-1-.8-1-.8-.8-1.2-.5 1.8-1 1.2-1.2.8-1.8.5-2-1 .5-.8.8-2.2 1.5 2.5-3.5 1.2-1.8L125 24l.8-1.5.2-1.8.2-1.5-.2-1.8-1.2 1.8-1.2 2-.2 1v1l-.2 2.2-2.2 2.8 1-1.2.5-1.5.5-1.2v-1.5l-.5-.8-.5-.5-1-.8h-.2l.8 2.8-1.5-.5-.5-.2H117l5-3 1.2-.5 1.2-.8 1-1.2.9-1.3zm-8 18.1l1.2.3 1.2.7 2.1 2-1.4-.3-1.2-.6-1.9-2.1zm5.2-9.1l.3-3.3 1.1-1.7.8-1.6V20l-.3 2-.8 1.6-1.1 1.4zm-2-2.5l-.3-1 .6.5.6.7.1.7v.9l-.7 1.8v-2.2l-.3-1.4zm1.6-15.6l-.9-1.7-.8-1.3 1.3 1 1.3 1.3.8.5.5.5.3.8.1 1.4-.4-.1-2.2-2.4zm1.1 3.5l-1.7-.8-.8-.7-.4-.4 2.7.4 1.1.8.8.7h-1.7zm-1.3 5l.5-1.2.8-1.2.2-1.5.5 1v.8l-.5 1-.2 1-1.2 1.8h-.2l.1-1.7zm-25.3 9l-.6.6-1.6.9 1-1.6.3-.7.7-.4.5-.3.6-.2 1.1-.1-1.4 1.4-.6.4zm5.9-2.4h2l-.5.5-1 .5h-1.8l-.5-.2h-.2v-.2l2-.6zm-1.2-1.3l-.7 1-.8.4-.1-1 .6-.9 1.2-1.5.1 1.2-.3.8zm-.9-4l.6-.4 1.2-.4 1.2.4.9.7h.3l.3.4-1.3.3-1.1.1-2.8-.7.7-.4zm-1.8-3.2l.4.8.2 1.1v1.4l-.1 1.2-.9-1-.4-2.7.2-1.5.6.7zm-4.4 1.8l1.6.6 1.3 1 1.3 1.3-.3.3-1.6-.6-1.1-.3-.4-.7-.8-.3-.5-.6-1.1-1 1.6.3zm-4 5.2v-1.7l.6-1.7.6-1.4.2-.3.3-.3.3.8.1 1.1-.3 2-.6 1.7-1 1.4-.2-1.6zm8.8-1.6l-.3.7-.7.7-1.7.7-1.7.3-1.6.4 1.3-1.4 1.3-.7 3.4-.7zM81.7 30.5l-1 .8-.5.5-.5-.8-.6-1-.1-1v-1l-.5-1-.8-1 1-.2H80l1-.2.5-.2.5-.4.5-.5.2-.8.2-1.2.5-1.2.5-.5.5-.2-.2-.2H84l-1.3.6-1.2.5-1 .5-1 1-.2-1.8-.2-1-.5-.8h-.2l-.5 1.2-.5 1.5-.4 1.4.2 1.5-1.5-2-.5-1v-1.3l.5-.5.8-.5.8-.5.5-.8.2-.4.2-.8.5-1.5.2-.5.4-.6.5-.4.8-.1v.2l-.6 1.4-.5 1.3v1.2l.2 1.5.8.8.5 1 .8-1.8.5-1.8v-1.8l-.5-.8-.6-1.3 1.8-.2-.3 1.2.2 1.5.5 1.2 1 1 1 1 .5.5.2.5h.2v-.5l-.2-.8L86 18l.4-.1.2.8.3 1.2.3 1.4.4.7 1 .8 2.2 1-.5.8-.3.4-.5-.8-.8-.8-1.7-.7-1.8-.5-1.7-.2.8 1 .2.5-.2.8-1 1.5-1.3 1.4-.5.8-.2.8v1l.4.7zM79 22.7v.8l-.6 1.1-.6.8-.4-1.9.2-1.3.8-2.1.4 1.3.2 1.3zm.7.7l1.7-1.3 1.4-.6-.3 1.5-.5 1.3-1.2.8-1.4.2-.9.3h-.6l1.8-2.2zm1.6-7.8l.4.9v1.6l-.7 2.5-1-1.4-.2-1.7.4-1.4.5-1.3.6.8zm2-1.5l.4.2.3.3.6.8.9 1.7.3 2.3-.9-1.2-1.2-.9-.6-1.6.2-1.6zm3.6 4.2l1 .4.8.6.8 1 1.3 2.8-.8-.2-1.4-.9-.7-.8-1-2.9zm4.1 6.2l1.7-.8 1.7-.3 1.4-.6-.4.7-.8.9-1.4.8-3 .4.3-.6.5-.5zm-1.4.4l-1.5.3-1.7-.5-1.3-1.1-.8-1 1.4.2 1.4.5 1.4.8 1.1.8zm-7.8 3.5l.6-.9 1.1-1.1.5-.7.4-.9.1 1-.2 1.6-.5 1.1-.6 1.1-.9.5-.5-.9v-.8zm3.8-15l1.7.5 1.4 1.1.9 1H88l-1.3-.6-1.2-.9-1.1-1.3 1.2.2zm5.3-.8l.1 1.3-.1 1.4-1.2-1.2-.4-1.2.2-1.8.3-1.7.5 1.4.6 1.8zm4-4.4l1.1.4-.9.5-1.1.3h-2L90.6 9l1.1-.8 1.6-.2 1.6.2zm-2.6-4.3l.4-1 1.4-1.1.6-.3-.8 3.1-1.1 1.6-1.3 1 .8-3.3zm-3.9 1.6l-.7-1-.4-.9-.2-1.6.7.9 1.3.4.7 1 .2.9.3.7-.5 1.8-.2-.6-.2-.6-1-1zM72.5 17.7v-.8l.3-1.1 1.3-1.1 1.6-1.1-.3 1.1-.8 1.1-1 1.1-1.1.8zm-.8-8.8l1.2-.2h.8l.9.2.9.6 1.4.6-1.7.3h-1.5l-1.5-.6-1.2-.6.7-.3zm.7 2.3l.6.9v1.2l-1-.6-.6-.9-.6-.9V10l1.6 1.2zm-1.8-7.8l.2-1.1.5-1.3.7 1.4.2 1.6-.3 1.3-.3 1.7-.6-1-.3-.8-.1-1.8zm-2.9-.9l.7.3.7.6.7 1.5L71.1 7l-1.6-1.3-.5-.9-.6-1.2-.7-1.1zm38.1 22.1l-1 1-.8-.1-.6.1.6.2.3.3-.8.2-.8.3-.8-.3h-.5v.3l.5.3-.5.3h-.4l-.8-.3h-.5l.5.5H99l-.5-.4-.5-.2.2.5-.2.3h-.2l-.8-.3-.6-.3h-.5l-.2.3.5.3.5.3-.4.2-.4.2-.8-.4h-.5v.3l.7.5-.3.2h-.6l-.6-.4-.2-.3-.5.3.5.5.2.3h-.5l-.8-.3-.5-.3h-.5l1 .5-.7.2-.6-.2-.5-.5h-.5l.8.8-.3.3-.5-.3-.8-.5-.5-.3h-.8l.8.5 1.1.8-1 .1-1.2-1-.3.2 1 .8-.5.3-.7-.4-.5-.3H86l-.2.3.8.2.7.4-1 .4-1.1-.5.1.4.6.4-.9.5-.8-.5-.2.5.7.5-.6.5-.7-.2-.3-.3-.1.3.8.5-.3.3-.8-.4-.7-.1 1.1.8-.3.4-.3-.3-1-.3v.3l.8.5v.3l-.3.3-.8-.5-.8-.3.5.8.8.5-.3.3h-.2l-1.5-1 .6.9.9.9-.2.3-.5-.1-.8-.7-.5-.3.3.5.3.4.9.8-.7.1-1.1-.8h-.5l1.9 1.5-.6.2-1.3-.4-.8-.5.3.5.5.5 1.4.8h-.9l-.7-.1-1.1-.8.2.6.6.6 1.4.5h-1.5l-1.2-.5-1-.8 1.3-2.1 1.4-1.6.7-1.1.1-.7h-.5l-.8-1.5-.8-1.5-1-3.1-.5-.8-.4-.6-1.1-1.2-1-1.6-.3-.8-.2-.9-1.4-2.2-1-1.8-.3-1-.2-1.1V14l-.5-1-.5-.5-.5-.5-1.2-.4-.9-.4-.7-1-.9-1.2-.2-.8-.6-1.1 1.7 2.3.9 1 1 .7.6.4.8.3v-.5l-.8-.3-.8-.5-2.6-2.9 1-.3 1-.3.8-.8.4-.2.3-.5v-1l.5-.5.8 1.6.5.3-1 .3-.8.5-1.4 1.6-.7-.1-.2.2 1 .5h2.3l.5-.3.5-.5.3-.3.5-.3v.3l-.3.3-.5.8-.5 1.6-.3.8v.8l.8-2.1.5-.8.5-.8-.8 2.6v2.8l.8 2.8.5 1.5 1 1.3.2.6.6.7.3-.3.5-1 1.1-1 1.1-.8.9-1.1.6-1.2.6-1.1 1-.5 3.8-1.2 2.6-2.2 1.6-.7 2.1-.8.8-.8 1.1-.2.6-.3 2-.4.8-.4-.7.2-1.5.7-.8.3-2.4 1.4-1.6.8-1.6.7-1.8 1.5-.8.7-1.2.5-1.3.2-1.1.3-.7.3-1.2 2.4-.6 1.4-.9 1.1-.5.2-.8.5-.3.6-.4.6.3 1-.1.5h-.5l-.2.2.3.3.5.3h.5l.3.5h-.8l.3.5 1.2.1.4.6-.9-.2-.4.2 1.4.6.6.5.2.5-.6-.2h-.3l-.2.2 1.3.5.8.2v.4H77l.1.4h.3l1 .3.3.3-1.3-.2.1.4h.3l.7.3.2.3-.9-.1v.3l.5.3.7.2.2.3h-1l.1.3 1 .3.6.6-.8.1h-.3l.4.4.5.1.6.2.8-.4 1-.8 2.3-1.5 1.2-.9 1.1-.4.3-.1 2.6-.6 2.8-.4 2.7-.4 2.9-1.4 2 .4 1.5-.3 1.8-.5 1.4-.7.3-.6 1.7-1 1.4-.5 1.5-.3 1.5-.3 3.3-.3 1.6-.2 1.8-.6 4.6-2.6 1.5-1.4 1.7-1.6.6-1.2 1.1-2.2 1.3-2.3-2.6 5.9-.8 1.3-.8 1.1-1.3.7-2.1 1.2-1.5.7-1.1.8-1.2.8-1.4.3-3 .3-2.8.3-1.4.2-1.5.8-.2-.1h-.5v.6l-.6.2zm-35.6-18l.7.4-1.1.7-.9.5-1.2.5h-1.2l.6-.9.9-.9 1.6-.5.6.2zM69 16.5l-1.8-.8-1.2-.5h-1l.5-1v-1l-.2-2 .5.5.2.3 1.2.2 1 .5.5.5.2.5.2 1.5-.1 1.3zm.6.7l-.3 1.1-.4.9-.9 1-1.1 1-.9.5.3-1.2.7-1.5.9-.9 1.1-.9h.6zM65.2 6.5l.3-.5 1.9-1.1-.2 1-.6.8-.5.3-1.4.3.5-.8zm-1.8.1l-.3-1.9V2l1.5 2 .2 2-.4 1.5-1-.9zm-1.1 4.2l-1.4.4h-2.8l1.1-1.1 1.4-.4 1.7-.4 1.4.4-1.4 1.1zm1 1.5l.4-1.2.7-1.2.6 2.9-.1 1.5-.6 1.2-.7-.7-.4-1 .1-1.5zm1.9 4.8l-1.7-.5.5-.4.7-.6 1.4.1.8.2 1.7.9-.8.3-.7.2h-1l-.9-.2zm.2 3.2l.1-2.6 2 .1-1 1-.5 1-.3 1.2v1.2l2.2-1.5 1-1 .8-1.2.2-.4.6 1.2.7 1 .5 1 .2.2.2.5-1.8-.2-1-.2-1 .2-3.8 1.5.4.1.3.2 1 .2 1.2.2 1.2.2h.5l.8-.2-1 1.5-.2 1.5-.2 1.8.8-.2.7-.6.8.5.8.8.8.8.8.5-1.5-.2H70l-1.5.2-1.2 1-.5-.2-.3-.4.5-.8.5-2-.2-1-.3-.5-.5-.7 1.5-.5 1.2-.8-1.3-.1-1.5-.5-2.2-.1-.9.1.9-.6.5-1 .3-.6.4-1.6zM66 26l.5.8.2.8.2 1-.2 1-.5 1.2-.2-.3.2-2.2L66 26zm0-.2l-1.6-.1-1.8-.7.9-.4 1.7-.2 3.2.6-1.1.4-.7.2-.6.2zm-3.6-3.2l.5-2 .9-1.2 1.2-1.2.1 1.9-.4 1.5-.6 1.3-1.5 1.5-.2-1.8zm1.8 3.4l.8.2.8-.2v4l-1-1-.8-1-1.2-2.5 1.4.5zM49 12.2l2 1.8 2.8 3 .8.9.8 1.6 1.2 1.1 1.4.6 2.8 1.9-.3.6.3.3.9.7-.3.4.5.2.4.2.3.8-.4.3v.3h.8l.5.7-1.1.4 1.1.2.3.6-.9.2 1.1.4.4.5-.4.1-.3.2.3.3h1l.6.4-.8.3.5.3h1l.5.7-1 .1-.5.2h.5l.5.3h.7l.5.1.2.4-1 .2h-.3l-.3.2 1 .3.8-.1.4.5-1.2.1-.5.2.5.3h1.3l.3.4-.8.1v.3l-.3.2h.8l.5.3.3.2-.3.2-.3-.2-.2.2v.3h.3l.3.3v.7l.3.5.5.5.2.8.8.3h.5l.3.5h-1l-.3.3.8.3 1-.2.4.6.7.2.5.5h.3l.1-.6h1.2l2 .1.7.2-3 .3-1.8.5 3.2-.1 1.5.1-1.5.7-3.4.3 2.1.4 1.8-.2h.7l-1.9 1-2 .2 1.5.3 1.8-.2v.5l-1.7.6-1.9.2h-1l1.8.3 2.8-.3-.2.4-.3.2-1 .3-2.1.1-1.8-.2 1.8.7h.6l1.5-.1h1.2l-2.6.7-.9.1-.7-.2-.8-.3.7.7 1 .2h.5L75 49l1.2-.2-.2.6-2.3.4-1.6-.2-.5-.2-.8-.2 1.1.8.8.3.8.1.4.1 1.3-.1.8-.4.3.7-1.5.3-1.7-.1-1.1-.3-1.2-.6.7.9 1.2.6h.7l1.8.1 1.2.2-.3.5-1.9-.3h-1.8l-.8-.4-.5-.2 1.3 1h.6l1.5.2h1.7l-.2.5-1.5.1-1.6-.2.6.5 1.7.2 1.4.1-.2.5-.7.2h-.9l-1.5-.4.5.5 1.1.3 1.3.2-.2.4-.9-.1-1.3-.4-1.9-2.3-2.1-2.3.3-1.6.4-1.5 1.4-2.7-1-1.8-1.3-2-3-5.2-2.4-3.3-1.9-2.3-.9-2.2-1.3-2-.8-1-1.1-1-1-.8-1-.5-1-.8-.9-1.3-.8-1.8-1.5-2.3-1.5-2-2.1-2-1.4-1.4 2 1.3zm.6 2.5l-1.2 1.2-1.4.5-2.6.2.9-.9 1.2-.8 1.3-.2h1.8zm-2.4-1.2l-1.4-.4-1.3-1 1.6-.2 1 .2 1 .3 1.1 1.1h-2zm-12.4-1.2l1.1-.8.9-.7 1.6-.4 1.3-.2h.6l.4.3-.3.5-.3.6-2.8.8-2.5-.1zm2.9 2.7l-1.2-.7-.5-1.1-.3-.3 1.4.1 1.8 1.2.8 1 .8 1.2-2.8-1.4zm2-1.8v1.2l-.8-1-1.2-.8 1.2-.2 1-.5-.2 1.3zm.6-.2l.7-1.7 2.4-2.5-.5 2.1-.6 1.4-2.2 2.4.2-1.7zm4.2-.4l1.1.9 1.6.4 2.2-.1.4.6-3.1.1-1.6.6-.6.6-.9 1.1 1 .2H46l2-.3 1-.7.8-.8.4-.8.3.5 2.6 3.8-1.4-.2-1.3-.5-.9.4-1.8-.2-1.7-.4-1.8-.2-1.8-.2.8-1 .5-1L44 14l-.2-.8-.2-.8L42 14l-.8.8-.2 1V17l-.8-1.5 1.2-1.8.8-.8 1-1v-.4l.5-1.6.1-1.4 3.1 2.6.7.6-1.2-.4-1.2.1-1.3.6.6.6zm-1.6 3.3L42 17h-.5l-.1-1.1.3-1 1.8-1.9v1l-.2 1-.4.9zm-5.7 1.4l2.4.1 2.1.1 3.1.4 2.1.6 1.7.4 1.1.1.9-.4 1.4.4 1.2.3.5 1.2-1.3-.5-1.4-.3-3.3-.3-1.5-.4-2.4-.6-1.9-.4-2.7-.2-2-.5zm1.8.9h2.5l-.5.3h-.8l-1 .8-.7.7-.8 1-.2 1-.5-.3-.2-.2v1l-.2 1.2-.4 2.3-.5-1-1-1-1.7-1.5v-.2l1.8-.2 1.5-1 1.5-1.2 1.2-1.7zm-2.7 10.3l-1.2-.8-.7-1.2-.6-1.9-.4-1.2 1.1.9 1.1 1.5.7 2.7zM32.4 22l-.7-.2.6-1.1.7-.7 1.5-.5 1.6-.5 1.5-.2-.9 1.1-1.7 1.3-2.6.8zm-3.1-4.1l1-.8 1.1-.3 1.7.1 1.8.5-1.3.8-1.4.6-3.3-.2.4-.7zm-3.8-3.6l.3-.8 1.6 1.9.7 2.2v1.1l-1-.9-1.1-1.2-.5-1.4v-.9zm-.1 2.2l.2.5 1.2 1.5 1.2 1h.2v-.2h4l1.8-.8 1.4-1 1.6.1 1.6.4-2.2.5-1.5.3-1 .4-1.2.4-.6.6-.8 1-.1.8.7.4.4.1.5 1.2.5 2 .5 1-2-2-2-2.2-2.2-2.2-2.2-2-2.2-1.8 1-1.2.8-.5.2-.8v1.8l.2.7zm-2.6-2.2l.4-1.5.9-1 .9-1.3V12.9l-.8 1.4-1.4 1.3v-1.3zm-4.2 3.3l-.5.6-1.6.7h-1.7l-1.4-.2-.8-.4 2.7-1.1 1.4-.4h1.6l.3.8zm.4-1.9l-.4.4-1.4.2-1.5-.8-1.6-.4 1.8-.8 1.4-.1 1.3.2.6.6-.2.7zm7.5 11.6l.3.3.8 1.3.8 1.5.6 1 .4 1.4-.3 1.2-.3-.5-.3-1.5-1-2.3-.5-1-1.1-1.3.8 1.5-1-.3h-1.3l-1 .3-.8.5-.8.3.8.5 1.3.3h1l1-.3 1-.5 1 2.6h-.5l-.8-.3-1-.5L24 31l-1.6-.5-1.4-.4-1.6-.8.6-1.3 1.8.3h1.6l1.6-.5.5-.5.5-.8.5.8zm17.2 6.9h.3l-.5.8-.2.5-1.1 1.3-1.7.9-1.8.3 1-1.2.6-.8 1.8-1.1 1.6-.7zm.8 2.4l.1-1.2.2-.5.3 1.2.3 1.1v2.2l-.7-.7-.4-1.1.2-1zm13 11l.4.3.3.4.4.4-1 .2-1.6-1.1-.9-.8.8-.5.7-.2.9 1.3zm-7.8-.3l-1.5-.3H48l1-.8 1.2-1L51 44l.5-1.2h.2l1.8 1.8-.8.2-.5.2-.8.2-.8.2-1.2.8 2.2.5h2.5l-.6.3-.8.2-1.9.1h-1.1zM48.4 46l.3-3 .6-1.5.7-1.1.4-.9.5 1.2V42l-.2 1-.4 1-.7 1.2-1.2.8zm5 1.7l.3.3 1.7 1.3-.9.3-.7-1-1-.9h.6zm.4-.2l.8-.4.7.8 2 1.2-1.5.1-.9-.8-1.1-.9zm1.7 2.5l.8-.2h1.5l.8-.2.5.5.8.5.6.6-2.2.5-2-.4-.7-.4-.6-.7.5-.2zm.4-4l-2.4.3h-1.2l-1.5-.3.6-.3.9-.3 1.6-.3 1.1.3.9.3v.3zm-1.4-1.2l-.8-.5-1.5-1.5.8.2 1.4.8 1.1 1.2-1-.2zm-6.1-4.3v1.4l-1 2-.5-1.6-.3-1.6.3-1.7.3-1.5.6.9.3.9.3 1.2zm-1.9 2.7h-1l-.9-.5-1.2-1.1-1.2-1.4-.6-.5-.8-.7 2.1.4 1.1.8 1.2 1.9 1.3 1.1zm-14.2-12l-2.8-2 1.5.5 1.3.3 1.3.6 1.4 1.2-1.4.1-1.3-.7zm1.8 1.5l2.4.2-1 .5-.8.3h-1.6l-1.4-.3-1.5-.7H30l.8-.3 1-.2h1.3l1 .5zm-4.7 1.1v-.2h.8l.8.2.5 2.5 1.5 2.5v.5l-1-1.2-.8-1.2-1.8-2.5v-.6zm2.8 2.9l-.4-.7-.2-1.7.3.3.3.3.7.9.5.8.1.8v1.4l-1.3-2.1zm1.5 2.3v-2.5l-.7-1.2-1-1h2.2l2.2-.8-1 .8-.5 1-.5 1.2V38l-.2.2h.5l.3-.2.8-.2v1.5l.2 1.5.8 1.5 1 1-1.2-.5-1.2-1-1-1.2-1-1 .3-.6zm3.7-6.5l.3.6-.3 1-.5 1.6L36 37l-1.4 1 .3-1.6 2.5-3.9zm-.2 9.4l-.5-1-.2-1.3v-1.3l.5.3.5.5.3 1.3.2 2.8-.8-1.3zm-9.6-17.8l.3 1 .1 1.4-.3 1.4-.6-1.3-.4-1.5v-1.2l.2-1.1.7 1.3zm-.8 5.2l-.9.3-1.2.3h-2.1l.9-.6 1.2-.3 2.1.3zm-6.1-1.2l1.2-1 1.2-.3 2.6-1.2-.7 1.3-1.7.9h-1.2l-1.4.3zm2.7-5.9l-.5-1.5.8.5.8.5.5 1 .3 1.1.2 1.9-1.2-1.1-.6-1-.3-1.4zm-2.5 1.5l1.2.2 1 .8 1.7.8H23l-1.3-.5-2-1.2h1.2zm-1 .5l1 .8 1 .5 1.2.5h1l-1 .2-1 .2-1 .5-1 .8v-1l-.2-1.2-.5-1-.8-.8 1.3.5zm-.3 2.4v1.1l-.5 1.1-.8-.8-.3-1.1.2-1.3.3-1.3.8 1 .3 1.3zm-1.5-5.1l.4-1 1.1-2.2.4 1.5-.2 1.2-.8 1.1-.8.9-.1-1.5zm.7 9.3l-.3 1.4-.5 1-.8 1.1-1.4 1.1V34l.6-1.4 1.1-1.1 1.3-.7zm-6.7-.1l1.1-.8h1.1l1.9.4 1.6.4-1.4.8H15l-2.9-.8zm0 1.9l1.2-.7 1.7-.2-1 1.3-.9.7-1.7.2-2.1-.3 2.8-1zm-2 6.2l-1-2.1-.8-2.8 1.7 1.2 1 1.8.6 1.7-.2 1.7-1.3-1.5zm2.3 3l-.5-.5-.2-.5v-1l.2-1.2V38l-.2-.8-.8-1.5-.5-.7-.8-.8h2.5l1.2-.2.5-.2.5-.8 1-.8.5-.5h.7l-.7.8-.5.8-.2 1.2v1l-.2.5 2-.8 1-.8.5-1 1.2 1.5 1.5 1.2 1.5.8 1 .2h1v.2h.5v-.2l-1.2-1.5-1.5-1.5-.8-.8-.8-.2-1-.2-1 .2.2-2.5 1.8 1 1.5.8 1.8 1 1.8.5 3 3 2.2 3.2h-.2v2.5l.2 1.2.5 1.2-1.9-1.8-1.2-1.4-1.1-1.4v1.9l.3 1.8.6 1.1.8.8 1 .5 1.2.2h-1l-.8-.2-1.6-.5-1.5-.8-1.5-.8.8-.5.5-.2.2-.5.2-.8v-1l-.2-1 .2-.8-1 .5-1.5 3-.2-1-.8-.8-.7-.3-1-.5-.2-.2-.3-.3v-.2l1 .5 1.2.2h1.2l1-.5.2-.2h.2l.5-.2.5-.2.5-.2h.5l.5-.2-1.2-.2-1.2-.2-1.4-.6h-1.2l-1.2.2-1.3.8v-1.2l-.2-1-.5-1-.8-.8-.2-.8-.8 1.5-.5 1v1.5l.2.5.5 1.2.8 1v1.2l-.8-1.8-1-1.8-1-1.5-.7-.5-1.2-.5h-2v.5l1 1.8 1.5 1.2 1.7 1.2 1.8 1v.2l-2.8.1-3.3-.2zm6.8-8.3l1.8.2 1 .8 2.2 2.2-1.8-.5-1.2-.5-1-1-1-1.2zm13.1 12l-.5-1.3-.4-1.5-.1-1.8 1.2.9.8 1.2.4 1.2v1.2l-.4 1.2-1-1.1zm-3.5-2.4l1.3 1.3 2.7 2.6-2-.5-1.2-.6-.9-1-.6-1.2-.2-1.7.9 1.1zm-4.4.9l.5-.8.2-1 .8-1.5h.2v1.5l-.5 1.2-.5.2-.7.4zm-4.5-2.7l.5-1h.2l.8 1.8.2.8.5.8-2.8-1 .6-1.4zm-1-1.7l-.5-1.4v-1.4l.5-1.6 1.1 1.4.3 1.6-.3 1.4-.6 1.4-.5-1.4zm2.6 1.5l1.4.8.7.9.8 1.8-.7-.6-1.1-.6-1.1-2.3zm-.3-1.8l.5-.2.5-.2 1.5-.2 3 .2-1.8 1-1 .2-1.2-.2-1.5-.6zm-2.9 1.9l-1.8-.8-1.7-1.4-1.8-2.2h1l.9.3 1.3.9.9 1.4 1.2 1.8zm-3.4 4.1l-.8 1.2v-3.6l2.5.4 1 .2 1 .2h-1l-1 .2-1 .5-.7.9zm3.6 1.6l2.9.3-.5.5-.5.3-1.4.5-3.2-.5.8-.5.5-.3 1.4-.3zm-.6-1l-2.1.3H15l1-1.2 1.3-.8h1.3l1.3.3-2 1.4zm11.8 4.4l-1.4.2-1.3-.1-1.2-.7 1.1-.3 1.4-.2 1.1.1 1.4.4-1.1.6zm2.8 3.9l-.5-.5-.3-1.2v-1.1l-.3-1.1 1.1.9.5 1.2.2 2.3-.7-.5zm4.2-3.5l-.5 1.1-1.1.9-1.1.9.5-1.4.5-1.1.8-.9 1.1-.9-.2 1.4zm-.7-1.2l-1 1.2-.8 1.3-.5 1.5-.2-1.2-.2-1-.8-.8-.8-.8h-.5l-.5-.5-.5-.2h3.5l1.5-.2 1.8-.2-1 .9zm8 1.1l-1 .8-1.2.8h-1.2l.8-1 1-.8 1.2-.5 1.5-.2-1.1.9zm3.2.7l-.8.5-1.7.2.6-.7.8-.4 1.8-.5-.7.9zm1.4-1.4l-.6-1-.5-.5-.5-.1.8 1.3-.9-.3-.6-.9-.9-.2.8 1.1-1.1-.3-1-1.3-.6-.1.8 1.1-.8-.3-.6-.7-.5-.5-.8-.5.5.8.5.5-.7-.3-.6-.3-.3-.6-1-.4.8.9.1.2-.6-.3-.6-.3-1.1.6-2.1.6-2.8.3-2 .3-2-.3-2.3-.6-2.3-1.5-2.8-1.5-3-1.4-1.6-.4-3.5-.7 4.8.4 3.7 1.4 2 1.1 2.7 1.1 1.5.9 1.1.3 1.1.1h1.2l2.4-.2 2.5-.8.8-.3.5-.4-3-2.3-2.5-2.3-2.3-2.7-2.1-2.8-.9-1.2-1.2-1-1-.4-1-.5-2.3-1.1-1.4-.6-1.3-.6-2.3-1.5-3-1.8 1.5.5 1.3.8 2.5 1.5 2.5.9 2.5 1 .5.3 1 .5 1.9.3-.2.7.2.3h.2l2.6 3.7 1.6 1.9 1.3 1.4 1.6 1.7 1.8 1.3 2.4 1.2 1.7.8 3.5 1.1 3.2.7.7 1.3.6 1-.5-.1zM34 43.6l-.3-1.1.3.3.3.3.9.8 2.3 2-1.7.8-2.4.3.6-.8.3-1.4-.3-1.2zM49.8 50l-.7-1-.7-1.3 1.3.3.2.9.8 1.3-.9-.2zm1.6.2l-.6-1-.7-1.3.7.3.6.7 1.7 1.1-1.7.2zm.8-1.3l-1.1-.9 1.2-.1 1.6 1.6-.4.3-1.3-.9zm6.7 3.8l-1.1.1-.7-.2-.8-.3-2.8-1.4-.2-.3h.5l.6-.2.5.5.3.3 1.1.7.9.2.9.1 1.3-.2 1-.2h.5l.3.5-2.3.4zm6.9 3.2l-.2.5-.2.5-.2-.2-1 .5v.5l-.2.5-.2.2-.5-.8-1-.6.2-.8V56l-.2-.2v-.2h-.5v-.2l-.2-.2.2-.5.3-.2.5-.5.2-.5.8.5 1 .5 1.5 1-.3.4zm3.4 2l-.2-.7-1.2-1.5-1.5-1-1.5-1-1-.5-1.3-.9-1.5-1.5-1.9-1.8-1.4-2.1-1.7-2.4-3.5-5-2.2-2.2-1-1-1.3-.8-2.4-1.1-2.6-1-2.6-1-2.5-1-2.2-1.1-2.5-1.8-1-.8-1-1.2-2.7-3.3-3-3.5-4-3.4-3.4-2.5 1.9.8.7.7 1.3.9.9.8 2.7 2.1 1.3 1.1 1.2 1.2 2.8 3.1 2.4 2.7.9.5.7.7 1.6.8 2 .9 1 .3 1.4.2 1.7.9 1.1.5 1.1.2-.8.6.3.1 1.1-.6.5.2h.2l.3.2-.7.3v.2l1.5-.2 1 .5-.5.2.3.3 1-.4.5.7-.3.4 1-.2.8.5-.2.2h-.5v.2l.5.2h.2l.5-.2 1.2.9-.9.1h-.2v.2l1.2.2.7.2.5.5-1 .3h-.2l-.3.2.5.2h.8l.9.2.6.5-.7.3H54l-.3-.2-.2.2 1.2.2.7.2.6.5-.8.3-.8-.2H54l1.5.5 1.2.2.5.8-1.5-.2h-1v.2l1.5.2 1.1.4.5.5-1.4-.4-1.2.2 1.8.5 1.7.4.8.9h-1.2l-.8-.3-.2.2 1 .5 1.5.2.6.8-.4 1.7.2-.5.2-.7 1.2 1 1 .8.5.5.8.2.3.5-.2 1.3.2-.5.2-.3.2-.2.8.4-.1.9.3 1 .1-1.3.2-.3.8.4.2 1 .2 1.1.2-.8v-.8l.7.8.2.8.2 1.5.3-1.1-.1-.6V52l.8 1.5.2.7v1.3l.3-.7.2-1.1.9 1.3v2l.5-1.8.5 1.3.1 1-.6.2-.5.8-.2.8-.2.5h-.2l-.5-.2v-1l-.7-.7zm.4 2.4l.3-.3 1.1.3-.3.9-.3.6v1.8l-.5-1.2v-1.8l-.3-.3zm-4 6.9l.3-.3 1.2-.6h.6l.6.3 1.5.6-.6.3h-3.3l-.3.3v-.6zm1.7.7l-.3.3-.3.3-.7-.3.6-.3h.7zm-4.1 2v-.5l.3-.3h.5l.5.5h.5l.5-.3.3-.3v-.3h1.1l.3-.3.3-.3.8.8v.5l-.3.5-.8.5-.9.6-.5.3h2.6V71h-.3l-.3-.3.3-.3h.5v.6l-.3.3.3.5-1 .2H66v.3l.5.3h.5l.8-.3.8-.3.5-.5V71l.3-.5-.2-.5h-.5v-.8l-.3-.5-.3-.3-.3-.3h.8l1.1-.3.3-.5.3-.3h.3l.4 3-1.2 2-1.3 1.8-.3-.8-.8-.5v.3l.3.5.3.8-.3.5-.5.5-.6-.3v-.3l.3-.3v-.5l.5-.3-.5-.3h-1.1l-.5-.3V72l.3-.3-.6-.2-.8-.3-.5-.2-.5-.3v-.8zm-8.9 6.3V75l.7 1.8-.7-.6zm.8 2.1h.5v.6h-.5v-.6zm-.3-1H56v.7h-.6l-.6-.7zm1.9 2.6H56v-1l.7.5v.5zm.4-1.6v.4l-.5-.4v-.4l.5-.4v.8zm.9-1.6v1l-.3.3v-1.3h.3zm2.1-3.4l-.3.8-.3.3-.3.3h-.5l-.3-.3-.3-.5-.1-.8-.3-.3h-.3l-.3.5.3.5.3.8.3.5-.5 1.1-.3.5-.5.5-.8-.2-.5-.3-.1-.4-.3-.7-.1-.8.1-.8.4-.6v-.3h-.3l-.5.5-.3.5-.5.4-.3.3-.5-.2v-1.1l.3-.5.5-.3 1.2-.2h1l-.3 1.8v1.1l.5.8-.3-1.8.3-1.8.5-.3h.8l.5.3.5-.3-1-.3h-1l-2.1.3-.3-.3.5-.3h1.6l.5-.3v.3h.8l.3-.3h1.6l.3 1.1.3.3.1.5zm0-2.3l-.3-.3-.2.3h-.8l-.3-.8-.5-.6v-.5l.5-.3h.5l.5-.3.8-1.1h.5v.3l.3.8.3.5.3.3.5.3-.2.3v.5l-.5.6h-1.4zm2.7.2h-.5l-.3-.6.5-.5v-.3h.3v.8l.8.8-.8-.2zM61.2 76l-.1-1.7 1.6-1.4.5-.6h1.1l.5-.6-.5 1.4-1.4.6-.9.3.3.3h.6l.8-.6h.8l-.2 1.1.3 1.1.1 1.7-.3.3h-.6l-.3-.6-.3-1.4v-1.1l-.3-.3-.3.3-.6.6-.2 1.1h-.3l-.3-.3V76zm-.6.9l-.3-.3V76l.3.3.6.3.9.3h.3v.3l-.3.6h-.6v-.6l-.3-.3h-.6zm.9 2.5l-.3-.3h-.3l.3-1.2 1.2.6-.3.6-.6.3zm1.1.9l-.3.6H62l-.3-.3v-1.1l.6.6h.3v.2zm.2-1.7l-.4-.6.3-.6h.3v.3l.6.3v.6l-.3.3-.5-.3zm.2 1.8v-1l.4-.3.3.3.3.3v.3l-.7.3-.3.1zm1.2 1.4l-.8.1-.4-.3.1-.4v-.3h.7l.7.7-.3.2zm1.4-1.2l-.3.3-.7-.7-.3-.7 1.3.3v.8zm-.8-1.6l-.4.4-.3-.4v-.4l1.5-.4-.8.8zm.1-1.3l-.2-4.2.3-.3 1.2.5h.6l-.6.3-.2.6v.6l.3.5-.3.6v1.1l-.6.3h-.5zm2.1-.2v.3l-.4.3h-.4v-.7c0 .1.8.1.8.1zm-.5 1.7l-.6.3-.3-.6v-.6h.6l.6.6-.3.3zm.5-2.5l-.2-.5v-.8h.8l-.6 1.3zm1.8 10l-.2-.2v-1l-.6-.3.1.5-.3.5-.2.5-.3.7-.2.3-.8.6H65l.3-.5v-.5L65 87l.5-.8.2-.5.3-.5-.5-.2-.3-.5.2-.5v-.5l.5-.5 1.1-.3.8.2.5.5.5.8.8.5v1l-.2 1h-.6zm.1 5.9l.2-2.1 1.1.3h.3l.3-.3.2 1 .3.5.3.3h.2l.3-.3-.5-.2v-1.5l.5-.5.2-.5-.3-.4h-.5l-.2.2v.5l-.3.6-.5.2H70l-.6-.3v-1.5l.3-.5v-.3h.5l.3-.2V87l.3-.4.2-.3h1.3l1.3.3.8-.3h.5l.2.3.8.5.3.5.1.6h-.8l-.8-.2-.5-.2-1.2-.4.2-.5-.2-.3-.3.5v.5h-.5l-.5.2-1 .8v.2l-.5.2v.5l.5-.5.5-.5.5-.5.8-.2v1.3l.2 1 .3 1 1 .8v.2l-.2.5-.5.4h-.5v-.3l.3-.2.2-.3-.3-.5h-.3l-.5.5-.2.3v.5l.2.2.8.5.8.2h.8l2.2.3-.2.3h-.2l-.3.3-1.7-.1-.8-.2-.8-.3-.8.3 1 .2 1 .3 2.9.2-.8.3-1 .2-2.7-.3.8.2.8.4 1.8.2.8-.1-.5.5-.8.4-1 .1-.8.3.8.2 1.1-.1-.2.5-.2.2-1.7.1.8.2h2.8l-.5.5-.8.2-1.6.4.2.2h1.3l1.3-.2-.2.2-.5.3-.8.2-1.5.2 1.5.3 1.3-.3v.5l-.5.2-1 .5h-.5l-.5.2h3.1v.3l-.8.2-.8.3-1.5.2.2.2h1.5l1.5-.2.3.2-1.5.8-1.5.2.2.3h1.5l1.5-.3v.5l-.5.3-2.3.2 1.8.2h1.5l.2.3-.2.3h-.5l-.5.2h-1l-.8.3.8.2h2.6l-.5.5-.5.2-1.5.3.5.2h.8l1.6.1-.3.4-2.8.2 1.1.3.8.1 1.8.2-1 .2-1 .3-2.1-.1 1.3.5 1.5.3 1.5-.2.3.7-2 .5-1.7-.2-1.9-1.3-1.8-.8h-.5l-1-.5h-.8l-.2-.2-.2-.5.2-.6-.1-.6-.5-2.5-.4-3.6-.6-5.7v-2.2zm.5 12l.3 1.8v1.2l-.5-1.1.2-1.9zm-2.8-.9l-.3.3-1.1 1.1h-.6l.6-.6.3-.8.6-.3.6-.3.3.6h-.4zm0-1.8l.3-1.2.3-.3.3-.3.6 1.5v.6l-.3.6h-.6l-.6-.9zm.4 1.2h.7v.7h-.3l-.3-.3c-.1 0-.1-.4-.1-.4zm3.4 8.7h-.7l.4-1.1.4.4.3.7h-.4zm6.7 5.7h-.8v-.4l2-.3 1.7-.2-1.7.7-1.2.2zm.3-1.5l1.3-.3-1.1.7-1.3.3v-.6l1.1-.1zm-1-.3v-.4h1.1v.4h-1.1zm3.1 2.9h.5l.4.8-1.2-.8-.8-.8 1.2-.4 1.2-.4v.8h-1.2l-.4.4v.4h.3zm.9 1.2l1.3-.7 1.6-.7v.3l-1.6.7-.7.3-.6.1zm2.8 0l-2 .7.3-.7.7-.3 1.4-.7v-.3h.3l.7.3.3.2-1.7.8zm8.9 2.4l-1.2.1-.5-.3-.5-.5-.8-1-.3-.5-.5-.3-.5-.1-.8.3-.3-.3h.3l-.5-.3-.5-.3-.5-.2-.8-.3-.5-.2-.8-.3h-.8l-.5.5-.8.3-.8-.3.5-.5.3-.5-.5-.8-.9-.4-1-.8-.8-.5-.8-.3-.8-.3-.4-.3-1-.5-.8-.8-1-.5-1-.5-1-.8-.5-.5-.3-.5-1.5-.8-.8-.4-.8-1.1-.3-1.5.3-1.5.5-1.5 1-1.3.3.8v.5l-.2 1.2-.3 1.3v.5l.2.7.6.8.6.8 1 .2 1.3.3.5.8 1 .5.8.5.5.5h.5v.3l.5.3.3.3.5.1h1.8l.5.3.3.2.5.2h.3l.5.3v.3l.5 1 .8.8 1 .8 1 .3.5.3.8.3.8.3v.8l.3.3h-.2l-.3.3.5.5.8.2.8-.2h1l1 2 .8.8.5.3.5.1.6-.1.8.3-1.3-.5zm9.2 1.9h-.5l-.5-.3-.8-.5-2.1-.8-2.4-.3-2.1-.3h.5l.5-.3 1.8.3 1.8.3 3.4 1.3.3.3.1.3zm-.7-1.3l-2-1-2.3-.2-2.5-.2h-2.5l-.3-.4-.2-.5 3 .2 3 .5 5.3.8h.2l-.8-.8-1-.2-2.3-.5-2.5-.2-2.3-.2h-2.8l-.5-.2-.2-.2v-1l-.5-.5.5-.2h.5l.5.4.8.2 1-.2h.5l2.3-1.4.8-1 .2-1.3.5-.2h.2l.8.2h.8l.8.1-.3.7-.1.8-.2.8-.1 1 .2.5.1.6-.2.5-.8.2-1.1-.3-.8-.2h-.8l-1.8.2H93l-1-.1-.7-.3-.5-.5h-.2l-.2.2.2.2.8.5 1.8.2h3.5l1.5.5h2.3l2 .2h.2l.5.5h1l.2.2-.2.2-.5.2-.8.2-1.3.2h-.5l-.5.8zm8.8-11.8l-1 .2h-1.3l-.7.2.8.1h1.1l1 .1.6.2.7.1v.3l-1.7-.2-1.8.2-.6.4 2.7.1 1.2.4v.6l-1-.4-1-.1h-1.1l-1 .5h.3l.1.2 2-.1 1.6.4.3.3-1.9-.3-1.8.2h-.3v.2h2l1.2.3.5.5v.3l-.8-.4-1.1-.1-1.8.2v.2h2.1l1.6.8v.3l-.3.3-.3-.3-.3-.3-.3-.3-.8-.3h-.5l-.3.3.3.5.7.3v2.1l.3 2.3.3.3.3.5.2.7-.1.3-.2.2h-.2l-.3-.2h-.2l-.5.2-.7-.2-.8.3-1.6.3-1.6.2h-.8l-.8-.3-.3-.5 2.1-.5.8-.5.8-.8.3-.8.3-1 .3-2.1.8-.3h.5l.3-.3-.3-.3.3-.3v-.3l-.5.3-.5.3-.5-.3h-.5l-.5-.5h-.5l-1.6-.3v-3.6l.5-1.8v-1.8l.3-3.6-.3-1.8v-5l-.3-.5h.4V97h-.7l-.3-.2h-.5l-.3-.3.3-.3h.5l.4.2v-4l1.1 4.5.3.5.3-.3h.5l.3-.3.5-.3v.3l-.1.3-.8.2h-.3l-.2.5h.5l.5-.3h.3l.3.3-.8.3-.8.5.5.3h.3l1.1-.3-.3.3-.3.3h-.5l-.3.5-.3-.5-.3-.5-.2.2.3.5.3.3.3.5v.5l.9 1.3 1.2 1.7h.8l.2.2.2-.2v-.2h-.5l-.3-.3 1.4-.3 1.3-.2v.8h-1.1l-.5.2-.2.3v.3l.3.3h-1.4l-.5.2 1.9.2 2.1.6H106.8l-.2.2 1.8.2h.8l1.1.3h-.9l-1.1.2H107v.2l1.9.2h.7l.8.2h.3v.6l-1.6-.2-1.6-.1-.8.2.3.2h.7l.3.2.5-.2 1.3.2.4.2.2.2v.3l-1.9-.1-1.4.1-.5.2 2 .2.7.2 1.2.3-2.1-.2h-1.1l-1.1.5v.3l.8-.3.7.2 1.4.1.3.8zm.6-.1h.3v.3h-.3v-.3zm-.7 10.5l-.3-.3.3-.6h1.1l-.6.8h-.5zm3.7.8h-1.1l.3-.3h-1.1l-1.1-.3.3-.6.6-.3v.6l.8-.3 1.1.3-.3.3h-.3v.3l1.1-.6 1.1.3-.3.3h-.3l-.3.3v.3h.3l.6-.3.6-.3h1.6l-1.4 1.1h-1.1l-.8-.3-.3-.5zm2.3 1.9h-1.4v-.3l-.3-.3v-.5l.6.3-.3.3v.3l.9-.3h.9l.3.3-.7.2zm.1-1l1.4-.8.6-.3h.8l-1.4 1.1-.6.3-.8-.3zm2 .6l-.8-.3.8-.3.3-.3.3-.6h.8l.6.3-1.4.8-.6.4zm1 .2l.3-.3.3.3h-.6zm.4-.5l1.1-.5h1.4l-.6.5h-1.9zm2.3.5l-.6-.3 1.4-.6h.6l.8.3-1.4.6h-.8zm3.1 0h-1.4l.6-.3h.3l1.1.3h-.6zm.4-1.2h-1.1l.3-.3.6-.3h1.1l-.6.3-.3.3zm4.9 1.3h-1.4l.3-.3-.3-.3-.3.3-.8.3h-1l.5-.3v-.3l-.3-.3h-.2l-.3.3h-.3l-.3-.3h-.3l.8-.5.5-.3.5.3v.8l.8-.3 1.1.3v.3l1.6-.5v.3h-.3l-.5.3.2.2zm1.1-.8l-.3-.3.6-.3h.6l-.6.3-.3.3zm.5.7v-.3l.3-.5h.3l1.6.5h.5v-.5l.5-.3h.8l1.1.8h.3l-5.4.3zm6.1-.5l-.3.3-.5.3.3-.5v-.5l-.3-.3.5-.3.3.3v.7zM77.3 3.9L78.8 5l1 .6.9 1.3-1.4-.3L78 6l-1.1-1-.6-1 1-.1zm-18.5.8l-1.1-.6-.6-.9-.5-1 1 .3.9.6L60 4.8l-1.2-.1zm1.5-.8l.3-1.5.8-1.1.4.7v.7l-.3 1.1-.5.4-.6.5-.1-.8zM84 10.7h-1.2l-1.4-.4-1.7-.6-1.2-.7 1.2-.2 1.6.1 1.1.4 1.1.6.5.8zm.8-2.3l.4-1.2.4-1.2.3-1.1.3.1.2.2.3.4.1.6-.1.8-.4.6-.7.8-.4 1.2-.4-1.2zM76.6 3l.5-.5 1.2-.5 1.3-.1 1.5-.5-.5 1-1.2.6-1.5.1-1.6.4.3-.5zM54.5 124.1h-7.8l.2-.2 3.8-.3h3.8l3.8-.2 3.8.6.2.2h-7.8zm37-6.8h1.2v.4l-.8.4h-.4l-.4-.4.4-.4z"/><path fill="#333740" d="M92.2 109.3l.5.2 1.5-.2.5-.2.5-.5-1.8-.2-1-.2-.8.2-.8.5-.5 1.5 1-1h.9m.1-.7l.4-.3 1.1.3-.4.3H92l.3-.3zM129.5 114.8l.5.3h3l1-.5-1-.5h-1.2l-1.3.2-1 .3 2-1.3 1-.2h1.3l.5 1 .7.7 1.3 1.5h.2l-.2-.7-.5-1-1.5-1.5h1l1 .2 1 .5.7.8.3.7v.8l-.3 1.5h.3l.2-.3v-.2l.3-.3.2-.5.3-.7-.5-1.3-1.5-1.2-1.8-.8-1-.2h-1l-1 .2-1 .3.8-.8 1-.5 1.2-.2 1-.5.3-.3h-.5l-.5-.2h-.5l-.5-.3-.8.3-.5.5-.7.5-.5.5-.8 1.5-.7.5-.5.2-.3.3.5-1 .5-.8.8-.7.2-1v-.5l-.5.5-1.5 1.5-.5.7v1.8l-.2.7-.8.8 1.3-1 .7-.3M62.5 103.1l-.3-.5-.2-1 .2-.8.3-.5.7-.2.5.5.3.7-.5.5H63l.2.3h.3l.2-.3.5-.5v-.7l-.2-.8-.5-.2h-1l-.8.7-.2.3-.3.5.3 1.2.7.8.3.2H64v.3l.2-.5h-1.7M64.7 103.1l.5-.5-1 .5h.5M65.2 68.8l.1-.2-.1-.1v.3M72.2 116.3H71l-.5.2-.2.2h2v.2l-.8.2h-1.8l1.8.2v.2l-.2.2H70l-1.2-.2-.2.2 1 .2 1 .2-1 .5-1.2-.2H68v.2l.8.2.8.2-.2.2h-1l-.2.2h1v.8l-.2.2h-.5l-.8-.2.8.5.5.5.2.8.5.8.2.2.5.2h.6l-.2-.2.2-.2.2-.5h.8l.2-.2 1-1.2.8-1.5.8-1-.8.8-.2.2-.5.2-.2-.5-.5-.2-.2-.2-.2-.5.5-.5.2-1 .5-1.5-.5-.2-.5.2-1.2.2H73l-.8.9m-2 3.4l.7-.7.7-.3.3.7-.3.3h-.7l-.7.3v-.3zm1.1 2.9l-.3.3-.3.3-.7-.3-.7-.3.7-.3h1.3l.7-.3-.7.6zm2.2-2.2l-.3.7-.3.3h-1l-1 .3-1 .3h-1l.3-.7 2-.3 1.3-.3 1-.3zm-.5-.3l-1.6.3-2 .7v-.7l.3-.3.7.3 1-.3H73zM50.5 121.3l1-.2h1.2v-.3l-2 .3-2 .5-1.7.5-4 1h-4.3l-2-.3v.3l2.3.5 2.5.2 2.2-.2 2.3-.5 2.2-.8 2.3-1M27.4 123.6v-.5h-2.5l-.7.5h3.2M17.2 122.8l-.5.5v.3h.5l.5-.3h2.2l.3-.2v-.3h-.8v-.5l-.5-.2h-2.2l-.8.5v.7l.3-.5.5-.2 1.2-.3 1.3.5h-2M86 122.4l.6-.5-.4.1-.2.4M84 122.7l-.8.3-.9.6 2.5-.6 1.1-.5-.3-.3-1.6.5M86.9 121.9l.3-.4-.7.6.4-.2M37.2 120.8l.5-.2.3.2h3.7l.8-.2H44l1.2-.3 2.3-.7 2.5-.8 1.2-.2H49l-1.5.5-1.5.5-3.3.5-6.7.2.5.3.7.2"/><path fill="#333740" d="M36 120.3l-.8-.8-.5-.5h.8l4 .2 1.8.2h3.2l1.2-.2 4.5-1.5 1-.2h-.7l-1.8.2-2.5.8-2.5.5h-5l-.5-.2H38l-.2-.2h1.8l1.5.2h1.5l1.5-.2 2.8-.8 2.8-.8 1.5-.2 1.5-.2v-.2h-3.2l-2.8 1-3 .5-6 .2-1.2-.5-1-.2v-.2l.5-.2h.5l.5-.2.8-1 .2-.2v-.2l.2-.2h.2l.2-.2h-.2l.8-.5h.5l.5-.5.5-.5.8-.2h.5l.2-.2-.8-.2-.2-.2-.5-.2H40l-.8.2-1 .8-.2.2-.5.2-.2.2-.5.2h.8l.2.2v.2h-1l-1 .2-.8.8-.8.8H34l.2-1 .2-.8 1-.2 1-.2.8-.8.8-.8.5-.2h.2v-.2l-1-.2-1 .2-2.5 2-2 2v-.5l.2-.5.8-.5.8-.8.5-.8.5-1 1.2-.2.5-.2.8-.5.2-.5v-.5l-.2.2-2.2.2-1 .2-.8.8h.5l.2.2-1.5 1 .8-2.2-.2-.2H33l.5-1 .2-1.2h-.2l-.2-.2-.5 1-.2.8-.2-1v-1l.2-1.2v-1l.2-1-.2-.8-.2-.8.2-1-.8.5-.2 1-.5.8v1l.2.8.8.8v.5l-.2.5-.2-1-.5-.8-.8-1-.8-.8h-.2v1.2l.5 2 .5 1h.5l.5.2.5.8.5 1 .2.2.5.2-.5 2-.2 1-.5 1-.2-.8-.2-.5h.2v.2l.2-.2h.1v-1.5l-.2-.8-.2-1-.5-.5.5 1.8.2.8v1h-.2l-.5-1.2-.2-.8v.5l.2 1.5-.2-.2-.2.2-.2.8.2.8.5 1.2-.2.2-.8-1-1.2-.5h-1l-.5.2.5.5.5.8.5.5 1 .2.8.2h-2l-1 .2-.2.5-.2.5-.5-.8H26l-.2-.2v-.8l-.5-.5h-.5l-.5.2-1.2.5.2.2-.8.2-.2.2-1 1h-.5l-.2.2h.4l.5-.2 1-.5.8-.5.8-.5h1.5l.2.5h-.2l-1.2.5-1.2.5h.8l1-.2.8-.2h.8l.8.2-.2.2v.2h1.5l.5.2.8-.2-.5 1.5-.2.8.2.8 1-.5H32l.2.5-1-.2-1 .2h.8l1.5.5h-1.2l-.8.2-.5.2h2.8l1.2.2 1.5.2v-.2l-1.2-.5h-1l-.2-.2v-2.2l1.8.8 1.5.8-.2-.5-.2-.9m3.2-7.8l1-.3 1 .3-1 .3-.6.6-1 .3H38l1.2-1.2zm-2.9.2l.7-.7h.7l-1 1-.7.7h-1l1.3-1zm-5.9-5.3l-.3-.3-.4-.3v-2l.7.7.4 1 .7 1.7-1.1-.8zm1.6-2.5l-.2.8-.2-.5v-.8l.2-1.5.2-.2.2 1.5-.2.7zm2.7 6l.6-.3 1.7-.3-2 1.1v-.3h-.3l-.3.3-.3-.3.6-.2zm-2 2.7l.5-.5 1.2-1.2-.8 1.5-.5.8-.8.5.4-1.1zm1.6 2.9l.3-.3.7-.3.7-.7.7-.3 1-.3-.7 1-.7.7-2 .7v-.5zm-.2 1.2h1.2l2 .9h-2l-1.2-.3-.9-.6h.9zm-2.3-.4h.2l.2-.2v-.2l.5-1 1-1-.2 1-.8 1.3-.8.8-.2-.2.1-.5zm-1.1-.6l-1.6-.3-.5-.6-.5-.8.8.3.8.3 1.3 1.1h-.3zm-1.4 1.5l-1.9.3.8-.8.8-.3h1.6l-.5.5-.8.3zm0 2.9l.3-.8.3-.8.5-.8.8-.3-.3.8-.3.5-1.3 1.4zm1.9-.3h-.8l.8-1v1zm-.3-5.9l-.3-.8v-.8l.8 1.3v.8l.3.8-.8-1.3zm1 6l-.3-.6v-1.6l.6.6v.6l.3 1.9-.6-.9zm2.3-.8l-.8-.5-.8-.5-.3-.8.5.5 1.1.3.8.5.5.8-1-.3zM23.9 122.6h2.8l-1.8-.3h-1.7l-.3.3v.2l.3.3.7-.5M55 122.1l3 .2 4.7.3 2.3.2 2.5-.2-.3-.3-1.7.3-2-.3-3.5-.2-3.8-.3-2 .3-1.7.2h1.2l1.3-.2"/><path fill="#333740" d="M47.5 120.3l-2.5.8-2.8.5-2.7.2h-2.8v.3l1 .2h4.8l1.5-.2 3-1 2.7-1 1.5-.3 1.5-.2h-2.5l-2.7.7M22.9 121.6h1.3l1.2.2.3-.2-2-.5h-1.3l-.7.2-.5.3-.3.2-.2.3v.2l1-.5 1.2-.2M15.7 122.1l.7-.3 1-.2h1.5v-.3l-1.7-.2-.5.2-.8.3h-.5l-.2-.5v-.3l-.8-.5-.2-.5v-.7l.2-.3.5-.2-.7-.3h-.3l-.2.3-.3.5v.2l.3 1-.3.3h-.5l-.2.5-.8.2-.2.3-.3.2v.3h.3l.2-.5.5-.3h1l1 .3 1 .2v.3h.3M140.8 120.8l-1.8-.5v.3l1.5 1 .8.2 1 .3v-.3l-.8-.7-.7-.3M63.2 120.8l-1 .5h2l.5-.2.3-.3v-.2l-.5-.5-.8-.5-1.5-.3v.3h.5l.5.2 1 .3-.5.5-.5.2M21.7 120.6h2.5l.7.2h.3l.2-.2v-.3l-.5-.2h-3.5l-1.2.5-.8.7 1.3-.5 1-.2M87.8 120.5h-.2l-.9.8.6-.2.5-.6M57.5 120.8v-.2h.2l.3-.3-.8.3-.5.2h.8"/><path fill="#333740" d="M15.9 120.3l-.2.5.7-.5 1-.2h1l1 .2-.7-.5-1-.2-1.3.2-.5.5M59.5 119.6v-.3h-1l-.8.3h-.5l-.2.2-.3.3 1.5-.3 1.3-.2M22.4 119.6v-.3h-.2l-1-.2-.3.2-.5.3.8-.3h.7l.5.3M56.2 119.3h1.3l1-.5 1-.2 1.2-.3v-.2l-1.7.2-1.5.3-.8.2-.5.5M15.4 119.1l.3.2v-.2l.2-.3h-.2l-.3.3M20.2 118.6v-.3l-.5-.7-.8-.5-.7.2-1 .5-.3.3-.2.5.7-.8h1.8l.5.5.2.3v.2l.3-.2M66.5 117.6v-.3l-.5-.2h-.5l.2.2-.2.5-.3.3-.7.2h.7l.5-.2.8.2h.5l1-.2.7-.8.3-.2v-.5l-.3-.3-.2-.2h-1.3v.5h.3v-.3h.7v.5l-.2.5-1 .5-.5.3-.3-.3h.3v-.2M64.2 117.3h.8l.5-.2h-1.3v.2M57.2 117.8h-.5v.5l2.5-.7 2.5-.8h-2l-1.7.5-.8.5M49.7 114.8l.5-.2.5-.5h-1v.2l-1.2.8-1.2 1v.2h-.5v-.5h-3l-1.8.8-.8.2-.5-.2-.2-.2-.8-.2h-1l-1.8.2.5.5h.2l1-.2H40l.5.5-1.2.2h-1v.2h.2l1.2.2.8-.2.5-.5 1.2.5h1.5l.5-.2.5-.2.2-.2.5-.2h1.2l.2.2.2-.2 2.5-.5 2.8-.5-2.2-.2v-.2l-.2.5h-1.2l.5-.5.5-.6m-5.7 2.1l-.8.4-.8-.4H42l1.1-.4 1.5-.4-.6.8zM56.5 117.1v.5l3-1 3.2-1.3-3.2.5-1.5.3-1.5.7v.3M27.4 116.6l-.5-.5-.2-.3-.5.3 1.2.5M57 115.3l-.5.3v.5l1.7-.8 1.8-.5 4-.7-6 1-1 .2M68.5 115.3l.6.3h.6l-.6-.3h-.6M57 114.1l-1 .5-1 1 2.5-1 2.2-.5 2.5-.5 2.5-.3H62l-2.5.3h-1.3l-1.2.5M73.3 114.6l-.3.5h.3v-.5M72.4 114.5l-.2.3h-.3v.3h.8v-.3l.3-.3h-.6M69.2 114.3h.8v.3h-.8zM55 113.6l1 .2.2-.2-.2-.3h-.8l-1 .3-.7.5-.5.5 1.2-.8.8-.2M56.5 111.3l-.5.3-1 .2-1.5 1.5h-1l-.3.3-.2.5-.3.2.5-.2.8-.5h.7l.5-.8 1-.5.8-.2h1.2v-.3l-.2-.2-.5-.3M28.2 112.1l-.2-.5-1-1h-.5l.8 2 .2.8.8.8.5.2h.5l.5-.2.2-.5v-.2l-.5.5h-.8l-.5-.5-.5-.5-.5-.8v-.8l.5.8.5.8 1 .2h1v-1l.2-.2-.2-.5-.2-.8-.5-.8-1.2-1.5-.2 1v1.2l.2 1 .5.8h-.2l-.4-.3m.2-2l-.2-1 .5.8.5 1 .5.8.2 1-.8-.5-.5-1-.2-1.1zM115.3 112.3l-.3 1.5.8-2 .5-1 1-1 .7-.5 1-.5h2v-.5l-.5-.2h-1.2l-1 .2-1.5 1-1 1.5-.5 1.5M69.7 113.1v.3h.9l-.6-.3h-.3M58.5 112.8l-.5-.2-.8.2-.5.5.5-.2H59l-.3-.3h-.2M138.3 111.1l-.5-.3h-.5l-.5.3h-.5l-.3.2-.2.3-.5.2 2.2.3 1.3.2 1 .5-.3-.5-.2-.5-1-.7M60.5 112.6l.7-.3 1.3-1 1.2-.7.8-.3h.5v-.2l-.3-.3h-.2l-1.3.5-1 1-1.2.8-1.3.7.8-.2M60.7 111.1l-1 .2h1.8l-.3-.2h-.5M41.5 101.6l-1.8 1-.2.1.7-.4 1.3-.7"/><path fill="#333740" d="M37 102.3v-1.2l.2-.8-1.5 2-.5 1-.2.5v.5l.2.5-.2.2-.2.5-.2.2-.2.8.2.5v.5l-.2.5-.2.8-.2 1 .5-1 .5-1 .8-.8 1-.5 1.2.2.5.2.5.5h-.5l-1-.5H37l.2.2-.5.5-.8.2-.8.5-.2.5-.2.5.2.2h.2l.5-.2 1-.8.2-.2.2-.2.2-.8h.8v.8l-.2.5v.2l.2.2v-.5l.2-.5.2.2v.2l-.2.2v.5l-.2.2.2.2.8.8.8.2 1.8.5.2-.2-.8-1.2.8.2.5.2h1.2l-1-1.2-.5-.5-.8-.2h-1l-.5.2h-.2l.8.5.5.5-1-.2h-.5l-.2.2-.2-.5v-1l1.2-.2h.8l.8.2 1.2.8 1.5 1h1.5l1-.5h.1l-.2-.2-.5-.2-.2-.2-.5-.2H43l-.8-.2-.2-.2-.2-.2h2.5l.8-.5h1v-.2l-1.5-.8h-1l-2.2 1.5-.8-.2-.5-.2-.8-.2-1-.8.2-.2h.5l1 .5h1.2l2.2-.5-2-1-1-.2h-1l-.5.2-.2.5-.5.2-.5-.2.5-.5v-.5H40l.5-.2.5-.2-.8-.2-.5-.2h-.5l-1 .2 1.3-1.1-.5.3h-.2l-.2-.2.2-.2v-.8l.2-.2.8.2.8-.2 1.2-.5.5.2v.5l1 .5 1.2.2H46l1.2-.2-1.8-1-2-.5 1-1.2.5-1.5-1.8 1.2-1 .5-.5 1-1.2.5h-.8l-.5-.8.2-.8.5-.8 1-1.2v.8l-.2.8-.5.8-.5.5.2.2h.2l.8-.2-.5-.2.5-.8.2-.8.2-1.5-1.2 1.2-.8 1-.2.8-.2.2v.2l.2.2-.2.2-.2-1.5v-1.2l-.5.8-.5 1-.2 1-.2 1 .2.2v-.2l.5.5.2.5-.2.2-.5.2v-1l-.2.2-.2-.2h-.2l-.5.2-.2.8-.2.2h-.5l.5-1.5 1-1v1l.1-.2m-.9 6.4l-.8.7v-.4l.4-.4 1.3-.6-.9.7zm5.1.2l.4.3.9 1-2.1-1.2.8-.1zm-1.7 1.3h.6l1.2.9h-.6l-.6-.3-1.2-.6h.6zm4.6-1.3l.6.1 1.5.5-1.6.1-.9-.1-.6-.4 1-.2zm-1-1.8l1.2-.4.8.4-1.2.4h-1.5l.7-.4zm-3.6-1.8h1.1l2.2.6h-1.1l-.7.3-2.2-.6.7-.3zm-.2-1.3h.6l-.6.3-.6-.3h.6zm4.3-2.6h1.1l1.9.8h-2.1l-1.8-.5.9-.3zm-1.2-1.1l.5-.6 1.4-.8-.8 1.4-1.4.8.3-.8zm-4.4 1.3l-.2-.8.2-.8.5-.5v2.8l-.2-.2-.3-.5zm-.7 3l.5-.5.2.2-.8.8v.8l-.8.2-.8.5 1-1.3.7-.7zm-1 .1v-.8l-.8.5 1-1 .5.2-.2.2h.2v.5l-1 1v-.2l-.8 1-.5.8v-.8l.2-.5.8-1h.2v.5l.4-.4zM88.7 108.6l1.1 1.2-1.1-1.5v.3M90.2 105.6l-.2 1.2-.2.5v.8h-.6l-.2-.3-.3.3.5.2.6.3.4 1.2v-1h.3l.3.3v-.3l-.6-.2-.2-.3v-1.2l.2-.5.3-.3.3.5v1.5l.4-.2v-1.5l-.2-.5-.5-.5h-.3"/><path fill="#333740" d="M37.5 109.6h.2l-.2-.3v.3M32.5 106.8v.5h.8l.2-.2.5-.8.2-1 .5-1-.8.2-.8.5-.5 1-.1.8m.3-.5l.3-.3.8-1-1.1 2v-.7zM81 103.1l-.8.7-.2.8-.3 1v1l.3-1.3 1-1.5.7-.5.8-.2H81M79 104.1v-.5h-.3v.7l.3.8v-1M34 101.8l-.2.2-.5 1-.2.8v.5h.8l.8-.5.8-1.2.5-1.2h-1.2l-.8.4m1.2-.2l-.5.8-.2.5-.2.8-.8.2v-.8l.5-1 .5-.5h.7zM41.7 102.3h-1.2l-.5.5v.2h-.2l1 .5 1 .2h2l.8-.2-1-.5-1-.5-.9-.2m1 1.3h-.9l-1.5-.7h2.4l.6.3-.6.4zM6.2 91.6v-1.8l-.5-.8-.2-1v-.8l.2-.8.5-1 2.5.2 2.5-.2 1-.2h.5l.5-.2 1.2-1.2.5-.8v-.8h1.5l1.2-.5 1.2-.5 1-1 .8-1.5.2-1.8v-1.8l-.5-1.5-.8-1-1-1-1.2-.8-1.2-.5-1-.2h-1l-.8.2-1 .5-1.8.8-.8.5-1 .2-.5-.2-.2-.5v-1l.2-.8.5-.5 1.2-.8h4l1-.2 1.3-.5.5-.5.2-.5h-.5l-.5.5-.5.2-.5.2.5-.5.2-.5v-1.5l-.7-.6-.8-.4-1.2-.2-2.2-.3-1-.4-.6-.3-.4-.5V62l.2-.5.5-.4.3-.4.1.3H8.9l.8-.5.5-.5H8.6l.6-.2.5-.2.2-.2.2-.2h-.7l-.6-.1 1.1-.4.5-.8-.5.2L9 58l.6-.2.7-.4.3-.2.2-.1-.9.2-.8-.1.5-.2.6-.2.8-.8-.8.2h-.5l1.5-1 1.5-.2h1.8l1.5.2 3.5 1 1.5.5 1.5.2 1.2.5h1.2l2.5.5 1.8-.2 1.5-.2 3.2-.8 3.2-1 3-1 1.8-.8 2-.2 2-.2h1.8l2 .2 1.8.5 1.8.8 1.5 1-1.5-.5-.8-.2h-.8l1.8.8 1 .8.5.2.2.5-1.5-.8-1.8-.5 1.8 1 1 .8.8.8.5.5h-.2l-1-.5-1-.8-2.2-.8 2.2 1.2 1 .5.8 1-.2-.2-1.5-.5-1-.2-.8-.2 2.5 1.2 1 .8 1 1.2h-.2l-.8-.8-1.2-.8-1-.2-1.2-.2 1.8.8 1.5 1 1.2 1.2 1 1.7v1l.2 1 .2-2-.2-1.8-.5-3.8-.8-1.8-1.2-1.5-1.5-1.2-1.8-.8-1.2-.5-1.5-.5h-2.8l-2.5.2-2.5.5-5.2 1.8-2.5 1-2.5.8h-1.8l-.5-.2.5-.2.2-.2v-.2l.5-.5.2-.5.2-1.2v-1.5l-.2-1.2-1.5 1.8-1 2v1.2l.5 1h-2.8l-3-.5-2.8-.8-2.5-.8.5-.5.5-.5.8-.5.5-.5 1-1.2.5-3H21l-1 1-1 .8-1.2 1-.8 1-.2.5v.8l-.2 1-1-.2-1-.2h-2l-2 .8-1.9.3-.5 1.8-.2 1.8v1.8l.4 1.6-1 .5-1.2.8-1 1-.8 1.2-.5.8-.5 2 .2 1 .5 2 .6 1.7.8 1 1 .8 1 .5 1.2.2 2 1 .8.5 1 .8.2.5v.5l-2-.2-1 .2-1 .5-1 .8-.2.8v1.8H5.7l-1 .2-.8.5-.2.5-.3.1v1.5l.2.8 1 1.8.2 1.5-.2.8-.2.5-.7.1-.5-.2-.2-.2V91l.2-.8.5-.5h.8v-.2l-.2-.2h-.9l-.8.2-.2.2-.2.5-.2 1 .5.8.8.5 1 .2.8-.2.5-.2.6-.7m22.8-38l1.3-1.8V53l-.3 1.3-.5 1.2-1 1.2-.3-1.5.8-1.6zm-11.8.1l.3-1.1 1.1-1.1 1.1-.8 1.1-1.1v1.1l-.5 1.1-2.9 2.6-.2-.7zm-6.7 31.5H9.3l-.1-.4h1.2l.6.3.3.3-.8-.2zm0-1.5l-.2.3-.5-.2v-.5l.2-.5.8-.5 1-.2h1v.5l-.5.4-.8.5-1 .2zm2.2 0l-1.3.6-.7-.2 1.1-.5.9.1zm-.8 1.3h-.8l.8-.4.8-.4-.8.8zm1.8-1l-1.4 1 1.4-1.6v.6zm0-1.7l-.7 1.1-.5-.2.6-.6.2-.7.1-1 .3 1.4zm-.4-3.4l-.8-1.1-1.2-.9-1.1-1-1.4-.8-1.4-.9-.4-.8-.4-1.3.2-1.3.4 1.6.8 1 1 .8 1 .8 2 1.6 1.3 1.1.5.8.4.9.2 1.3-.4 1.2-.2-1.6-.5-1.4zm1.4 3.5l-.4.8-.4.4V83l.6-1 .2.4zm-3.6-10l1.3-.8 1.6-.5.8-.1h.8l1.2.3 1.3.7 1 .8.8 1.3.5 1.6V77l-.3 1.6-.3.8-.3.5-.8.8-1 .5-1.3.4h-1l-.1-.9.5-.3 1-.2.9-.5.7-.7.4-.7.3-1.1V76l-.3-1.1-.7-.8-.6-.5-.9-.5-1.1-.2-1.3.2-1.3.6-.7.4-.2.7L9.4 73l1.7-.6zm3.8 6.1l-.8-1.2-.7-1.3-1-1 1-.8 1.2-.5h1.3l1.2.2.8.8.5 2-.2 1-.5 1-.3.3-.5.5-1 .2h-.8l-.2-1.2zM8 72.1l.5.6.9.8 2.6 1.6.9.9.7 1.1.8 1.3.4 1.4.2 1.2v.5l-.5.3.1-1.4-.4-1.4-.5-1.1-1.1-1.1-1.9-1.7-2.2-1.8-.7-.9-.4-1-.2-1 .9-.7-.1 1.4v1zm-2.6 2l-.5-1-.3-1 .1-1.6.5-1.3 1.2-1.3 1.3-.9 1.5-1h-1l-.9.4-1.5 1.2-1.9 2 .6-2.2 1.2-1.8 1.1-1.1 1.4-.8.3-.3h.3l.5.3.5.5.8.3 1.5.3 1.5.3.5.3.8.3.3.5.3.8-1.3 1 .3.3-1.5.3H9.5l-.8.5-.5-.1-1 1-1.1.7-.5 1.3v1.3l.5 1.5-.7-.7zm7.4 4.8l-1.1-1.1-1.8-1.2-.7-.5-1.2-.5-.7-.3-.6-.7-.5-1.3.1-1.8.4 1.5.6 1.1 1.4.9 1.8 1.3 1.7 1.3.9 1 .4.8.1 1.1-.8-1.6zm-4.7 4.2l-.1-.6.2-1 .7-.7.8-.4 1.1-.2 1.2.2 1 .1v.8h-1.5l-1.5.4-.6.5-.2.7.1.8H8.1v-.6zm.8.8l.7.2v.4l-1.5-.2h-.4l1.2-.4zm-1.2.7l1.2.4v.4l-1.1-.1H7l.7-.7zm-1.4-.7h.4l.5.4H5.8l.5-.4zm-.7.9l1.4-.1-.2.6-.6-.1-.7.2.1-.6zM5 87.2v.5h-.6v-.5l.6-.6v.6zm-1.2-.7v-1.1l.6.6-.6.5zm.6-2l.7.7h-.7v-.7zm.7 1.6h-.5l.5-.5.5.5h-.5z"/><path fill="#333740" d="M10.9 88.1l.8-.5-.2-.2H11l-.2.2-.2.5-.2.5v.5l.5.5.8.5.5.2.8-.2.5-.2.2-.5.5-1.2-.2-.8-.5-.8-1.5-.8h-.2v.5l-.5-.2h-.5l-.8.2.8.5.8.2.8.5.8.5.2.8-.2.2-.2.2h-1.2l-.2-.2v-.9m1.2-.6l-.8-.4-.6-.3.9-.2.8.5.3.8-.2.7-.4-1.1zM77.6 86.9l.5-.4h-.5v.4M50.5 68.9l-1.8-.8-1.5-1-2.5-1.8-3.1-2.2-1.5-.5-.7-.2-.4.1-.3.3 1.8.5 1.7.7 3.5 2.5 1.7 1.2 1.7.9 1.8.8h2l.8-.1h.3l-1.8-.1-1.7-.3"/><path fill="#333740" d="M39 65.5l.5-.8.2-.2h.5l1.5.5 1.5 1 2.8 2 1.5 1 1.2.8 1.8.8h1.8l1.5-.2 1.5-.5 1-.8 1-1.2.2-1v-1l-.3-.9-.2-1-.8-1-.8-.8-1-.8-1-.5-2.4-.4-2.5-.5h-4l-2 .2-2 .5-3.8 1-3.7 1.6-2.3.7h-2.5l-2.5-.2-2.5-.5-4.7-1.3-2.5-.7-2.2-.5h-2.2l-1 .2-.2.2-.5.5v.5l.2.2 2-.2 2 .2 2.2.5 1.8.5v-.2l-.4-.2-2.7-.7-1.2-.5H12l-.8.2h-1v-.5h.2l1.5-.2h1.5l2.7.8 3 .8 2.8 1 2.8.8 3 .5h1.5l3-.5 1.5-.8 1.8-.5 2-1 1.8-.5h1l1 .2 2.2 1 1.7 1.2 3.3 2.5 1.5 1 2 .5.8.2 1.2-.2 1-.2 1-.5.5-.5.5-.2.2.2-.5.8-.7.6-1 .5-1 .2h.2l.2.2-1.7.3-1.9.1-1.5-.5-2.1-1.2-2.2-1.6-2.8-2-1-.5-1.2-.5-2.3-.5-1.7.5-.8.5-.8.5-.4.8-.3.7v1.8l.2.8.5.8 1.2 1 1.2 1 .5.5.2.5.2 1.2-.2.8-.2.2-.8.2H36l-1.2-.2-1.2-.8-1-1-2-2.2-1.2-1-1-.8-1.5-.2h-1.5l-.8.2-.6.2-.8 1-.5 1.2-.2 1.5.2 1.2.5 1 1.2.8h1.2l.5-.2.5-.5.2-1-.2-.8-.6-.7.2.5.2.8v.5l-.2.2-.2.3h-.5l-.5-.5-.5-.8-.2-.8V71.4l.8-.8.5-.2h.4l1 .5 1 .8 3.5 3.5 1.8 1.5 1.2.5 1.5.5h1.5l1.7-.8.8-.9.5-1 .2-1v-1l-.2-1-.7-.9.4.2.5.2.2.2.8.4.9 1.1v.8l-.2 1-.8.8-1.6 1.5-.8 1-.5.7-.5 1.2.2 1.2.2 1 .5 1.2 1 .5.8.2h1l.8-.2.3-.1.5-.2.5-.5.2-.5.8-1.2.5-1.2.5-.5 1-.5.8.8v1l-.2.2-.8.2h-.5l.5.5h.8l.8-.5.5-1.5-.2-.5-.2-.8-.5-.5-1-.2h-1l-.5.5-.8.8-.8 1.5-.9.6-.5.8H42l-.5-.5-.5-.8.2-1 .2-.5.5-.8 1-.8 1-.5 1-.8.8-1 .3-.6v-2l-.5-1-.8-1-1-.8-2.2-1.2-2-1.2-.5-1v-1.3m9.9-4.6l2 .3 2 .2 1.8 1-.2 1-.3.6-.2.3-1.2.2h-1l-.8-.2-1-.5-1.4-1.2-1.6-1.7h1.9zM46 61l.3.2.5.2 1.4 1.4 1.5 1.2 1.5.8.9.2h.8l1.3-.2.5-.5.4-.9.2-.6.4.2.2.5-.3.8-.7.7-.9.5-1 .2h-1.2l-1-.2-.9-.4-1-.7-1.5-1.5-.8-1.2-.9-.7h.3zm-2.4-.2l1 .5 1 .5 1.8 1.5 2.1 1.7 1.4.9 1.4.2 1.2-.2 1.1-.4 1-.6.8-1h.2v.8l-.5.5-1 .9-1.2.5-1.5.4-1.2-.2-1.2-.5-1-.5-1.9-1.8-1.8-1.5-1-.8-1-.8.3-.1zm13.1 5.4l-.4.8-1 .8-.7.2-1.6.2-.7-.1-1.3-.4-1.8-.8-1.5-1-3.2-2.5-1.5-1-1.2-1v-.2l1.5.5 1.7.8 2.3 2 1 1.2 1.2.8 1.2.8 1.8.2 1.7-.4 1.5-.8.3.4.2-.8.5-.5.2-.2-.2 1zM46.6 78.3l-.4.4h-.4l.8-.4zm-1.7 1l.7-.4-.3.7v.4H45l-.1-.7zM43 83.1h.4v.4H43v-.4zm1.2-.8v-.7l.7-.7-.7 1.4zm-.5-.6v-.4l.3-.2.8-1.3v.7l-.4.4-.4.2-.3.6v.3l-.8.4-.4.4-.4.4h-.4l2-1.5zM41 83.6h.5v.5H41v-.5zm-2.6-15.3l.8.7 2.3 1.3 1.3.8 1 .8 1.1 1L45 74l-.1 1-.4.5-.7.3.7-1.2v-.5l-.2-.8-.6-1-1.1-.9-2.4-1.4-1-.5-1-.6-.8-1-.4-1.2.3-1.4.6-.8.9-.6-1 1.2-.2 1 .1.7.7 1.5zm1.8 5.6l-.2 1-.6 1-.7.6-1.1.5-1.5.1-1.4-.3-1.4-.7-.9-.7-.9-.9-1.6-1.7-1.7-1.6-.9-.8-1-.5-1.1-.1-1 .6-.5.8-.2.8v.8l.4 1.1.6.7 1.3.6h-1l-.9-.5-.7-.7-.2-1.1.1-.9.2-.8.4-.9.8-.8 1-.4.9-.1 1.2.2 1.1.6 1.3 1.1 2.5 2.7 1.3 1.1 1.1.6.9.3.9.1.8-.1.7-.3.5-.6.4-.6.1-.7-.3-1-.5-.8-1.4-1.2-1-.7-.8-.6-.5-1.1v-1.3l.2-.9.4-.7.9-.8.8-.5 1.2-.1-1.4 1.2-.3.8-.5.8v1.3l.4.8.7.7 1 .9 1.1.9.5.7.5 1.1v1zm2.9.7l.1-.8-.2-.9-.7-.7-1-.8-2.3-1-1.4-.8-.9-1.1-.5-1.2.2-.7.1-.9.3-.8.5-.5 1-.8-.5.5-.6.7-.4 1.2-.1.9.7 1.4.8.8 1.2.8.9.6 1.3.6 1.4.8 1.1 1.2.1 1.4-.4.8-.5.5-.9.2.7-1.4zm0 1.5l1.4-.3-1.6 1.1-.8.6h-1l1.3-1.1.7-.3zm-4.4 4.4v-.8h.5l-.5 1.7v-.9zm.7 2.8l-.7-1.6.7.8v.8zm0-3.9H39v-.7l.4-.4h.4l-.4.7v.4zm.5 2.2h-.4V80l.4-.5h.4l-.4 1v1.1zm0 1.6h.4v.5h-.4v-.5zm.7-4.3l-.4.4.4-1.1.7-.4-.3.7-.4.4zm.2 2v.9l-.4-.5.4-.4zm.9 2.2l-.7-1.2.7.6v.6zm-1.1-2.6v-.7l.3-.3.3-.3-.6 1.3zm.5-3.2l-1.5.9 1.2-1.2.6-.6.9-.3-1.2 1.2zm1.2.9l-1.1.7.7-1.1.7-.4h.7l-1 .8zm2.3-1.4l-1.1.6h-.9l1.4-1 1-.5-.4.9zm-5-8.5l.9.5 1.9 1 .8.5 1 .8.8.9.6 1.1.1 1.1v.9l-.4.7-.4-.1.2-.8.2-.9-.1-1-.4-.8-1.3-1.3-1.6-1-3.3-1.8-.7-1.2v-1.2l.4-.8 1-.9-.6 1.1-.2.9.1.7.3.7.7.9z"/><path fill="#333740" d="M12.4 63l2 .3 3.8 1.2v-.2l-.3-.3-2.5-.7-2.7-.5h-1.5l-1.3-.3.5.5h2M73.7 69h.8l-.1-.1-.7.1M75 68.8l-.3.2h-.2l.2.3.3.2-.1 2.6.3-.8.3-2-.3-.3-.2-.2M77 70.3v-.5l-.3-.3H76l-.5-.2 1.5 1M65.6 71.2l-.6-.6-.3-.3h-.3l.6.6.6.3M66.2 69.9l-.3 1.1.6-1.1.3-.3v-.5l-.3.5-.3.3M103.8 67.5l-.5 1.3-.2 1.5.5-1.5.7-1 .5-1.3.8-1.2-1 1-.8 1.2M16.9 66.3h-.2v.2l.2.3h.8v-.3l-.5-.2h-.3M17.9 65.8l-.5-.3-1-.2.3.5.2.2h.5l.5.3v-.5"/><path fill="#333740" d="M17.9 65l-1.5-.7-1.8-.7-1.9-.2-1.8.1 1.5.3h1.4l1.3.3.6.2.5.5 1.7.5V65M21.9 61l-.2.5-.3.3-.5.2-.5-.2 1 .5 1.3.2.2-.2V62h-.5l-.2-.2v-.5l.2-.8v-.7l1.3 1.7 1.2 1.5.8-3.5v-.2l.2-.3.5.3.3-.3v-.2h-1.3l-1-.3v.3l.3.2h.7l-.2 1.3-.3 1-.7-1-.5-1.3-1-1-.5-.2h-.5l.2.7.3.5-.3 1v1M31.4 62h-.2l-.5-.2-.5-.5-.5 1.7.7-.5h.8l1-.2h.3l.5-.5.2-.5v-.5l-.5-.5-1-.5-.5-.3-.3-.5v-.2l.3-.3.5-.2.5.2v.5l.5-.2.3-.3-.5-.5H32l-1.1.3-.2.2-.5.3V60l.7.5.8.5.5.5-.2.5h-.6M19.9 57l-.8-.2h-.8l-.6.2-.5.5-.8 1v.8l.2.8.5 1 .8.2.5.2h.8l.8-.2.5-.2.2-.8.2-1.5-.2-1-.8-.8m-.1 2l-.5 1.5-.3.3-.5.2-.3-.2-.5-.2.3-.2h-.3l-.3-.5V59l.5-1.2.3-.5h.5l.8.2.3.8v.7zM36 57h-1l-1 .5-.5.8v1.5l.2 1 .3.2.2.2.8.2 1-.2.5-.2.5-1 .2-1.2v-.5l-.2-.5-1-.8m.2 2.6v.8l-.3.5h-.5l-.5-.3-.5-.3v-2.6l.5-.5h.5l.5.8.3.8v.8zM11.9 57.8v.7l-.2.8v.2l-.5.3v.2l1.5.5.2-.2V60h-.2l-.3-.2h-.2v-.5l.2-.8V58l.3-.2.7 1.5 1 1.5 1-3.8v-.2h.5v-.3l-1.7-.5v.3h.2l.5.2-.2 1.3-.3 1-1.7-2.8h-1.5v.5h.2l.5.3v1M39.5 55.8l-1.3.2-1.2.5.2.3h.5v.2l.5 1.5.5 1.3-.7.2-.3.3v.2l1.8-.7 2-.8.5-1.7-.3.5-.2.2-.8.8-.5.2h-.5l-.7-2.7.2-.3.3-.2M48 57.3l-.8.7-.5.8.5-.3.8.3.5.2h.5l.5-.2.5-.5.2-.5v-.5l-.5-.8-.7-.7-.8-1 .5-.3h.5l.3.3.2.5.3.5.5-.5v-.5l-.5-.3-.5-.2h-1.3l-.5.5-.2.7.5.8 1.2 1.2.3.8-.3.2h-.5L48 58v-.7M43.5 55h.2v-.2l-1.5.2-1.2.3v.2h.7l.5 1 .5 2 .5.3.8.2.7-.2.8-.5.5-.8v-.7l-.3-2 .3-.3h.2l.3-.2h-1l-.8.2v.3h.8l.2 2.7-.5.8-.5.2h-.2l-.8-.7-.2-.8-.5-1.7.2-.3h.3M112.8 51.8l-.2.8v.8l.4 1.6.2 1.5.2.2.8-1.2.5-1.2v-3l1 1.5.8 1.8.5 1-.2 1V58l.5.5.5-1v-1.8l-.2-.8-1-1.8-1-1.5v-.5l1 .8 1 .5h2.2v-.2l-1-1-1.2-.8-1.5-.2h-1.8l-1-.8-.8-.8.5.5.2.5.2.2-.5.8-.1 1.2m3.3-1.2l1.3.4 1 .4.7 1.1-1-.4-1.3-.4-1.9-1.1h1.2zm-2.9 1.2l.3-1.2.8 1.1.2 1.5-.3 1.4-.6 1.2-.3-2.6c-.1 0-.1-1.4-.1-1.4zM64.2 54.6h-.4l-1.4-.4 1.4.8v1.5l.4-.8h.5l.5.4-.5-.8-.5-.7M123.8 53.8l1-2 .5-2.2.5-2-.5.8-.8.8-1 .8-.8.8-.8 1-.2 1.2v1.5l.5 1.2 1.6-1.9m-1.5-.3l.2-1.2.2-1 .8-.8 1.2-.8v.5l-1.2 2.2-1.2 2.2v-1.1zM22.2 54.5l-.5.8h2.2l1-.2 1-.5 1.8-1.2 1.5-1.5v-.2H28l-1.2.2-2 .5-1.5 1 .5-1.5.2-1.8-.2-1.5-.6-1.6-.5.2-.2.2v.6l-.2.5-.2 1v.8l.2 2 .2.8v.8l-.3.6m1.3-.8l1.4-.8 1.7-.6 1.7-.3v.3l-1.1.8-1.4.8-1.7.7-1.7.5 1.1-1.4zm-1.2-4.6l.5-1.4.5 2.2v1.4l-.3 1.6-.4-1.7-.3-1.1v-1zM107.8 49l.5 1 .2 1.2.5-1 .2-1.2-.2-1.2-.8-1-.5-.5h-.2V46l-1.2-.5-.5-.2H104l-1 .5-1 .8-1 .5h1.2l.2.2 3.2-.2h.5l.2-.2.5-.2.2.2V48l.8 1m.2-2l.5.6.3.8v.8l-.2 1.3-.2-.7-.9-1.8v-1.3l.5.3zm-1.2-.7l-2 .5h-2.2l.8-.8 1.2-.2h1l1.2.2v.3z"/><path fill="#333740" d="M104.5 48.8l-1.2.8-.5.5-.2.8 1.8-.5.6-.4.8-.8.8-1 .2-.8V47l-1 1-1.3.8m1.4-.1l-.8.9-1 .4-1.1.1 3.2-2.2-.3.8zM123 49l.5-.2.8-.2.5-.5.5-.5v-1.2l-.5-1.2-.8 2-1 1.8m1.9-1.7l-.4.7-.8.4 1.2-2.5v1.4zM121.5 47.8l-.2.8 1.5-1.2.8-.8.5-.8.2-.8v-.5l-.5-.8-.5-1-.3-.7-.2.5v.5l-.2.5-.2.2-2.8.5h-1.2l-1.2.2 1 .8.8.5h2.2l1.2-.8-.5 1.8-.4 1.1m.2-3l-.8.4-1.2.1-.9-.1-.7-.6 3.6-.5v.7zm1 .5l.3-2.3.7 1.2v1.2l-.7 1.2-1 1.2.7-2.5zM58.5 46l-.8-.2.8 1 .5.5.2.7-.2-1.5-.5-.5M42.2 42.8l-2 1h.2l2.2 1.2 1.2.5 1.2.2h1l1 .2-.8-.8-.2-.6-1.5-1.5-1.2-.2h-1.1m2.3.9l1 .7.3.3.3.5h-1.4l-1.4-.5-2.4-1 .8-.5h1.1l.9.1.8.4zM72.7 45.8h.6l-.6-.3h-.8l.8.3M64.2 43.1l.7-.6.5-1-.2-1-.5-1.2-.2-1v-.5l.2-.2.5-1v-1l-.2-.8-.5-.5-.8-.5-1.5-1-.5-.8-.2-.8h-.2L62 33l.2 1.8.2 1 .2.8.8.8.8.5-.5.1-.5.5-.5 1-.2 2.2-.2 1L62 44l.8-.4.7-.1.7-.4m-.8-6.5l-.5-1.1-.7-2.4 1.5 1.1 1 .9.2 1.1-.5 1.2-1-.8zm-.8 6.5l.2-.8.2-.5v-1.5l.2-1.4.5-.5.5-.5v1l.2 1.3.3.9-.1.7-.2.5-.9.5-.9.3zM72.8 44.8l.3-.3h-.9l.3.3h.3M72.4 43.3h-.2l-.3.2h.3l.2-.2M92.3 42.7l.5.6.3.2.7.2-.3-.2-.7-1.1-.5.3M55.5 37.8l1.5 1h.5l.5.2 1.2-.2 1-.5 1-.2-1-.5-1-.5-1-.8L57 36l-.8-.2-.7.2-1 .2-.5.6 1.5 1m-.1-1.3h.6l1.6.2 2.5 1.1-.8.2-.5.3-1.5-.1-1.3-.7-1.3-.8.7-.2zM50.7 33l1.2 1 1.2 1 1 1-.5-1.2-.5-2.5-.5-1-.5-.8-.6-.5-1.5-.8v2.5l.2.8.5.5m.9-2.4l.9.9.6 1.5.3 1.2-1.2-.6-1.5-1.6-.4-1 .1-1.1 1.2.7zM124.5 26.7l-1 .8 1.8 1 2 .5h2l1-.2 1-.2-1.5-1-.8-.6-.8-.2-1.2-.2h-1.2l-1.3.1m2.9.4l1.6.5 1.3.5-1.6.3h-1.6l-1.6-.5-1.3-.5 1.6-.3h1.6zM6.4 21.7l.5 1.5 1 1.5-1.7-.2H4.4l-.8.2-.8.5-.7.8-.2.8 1.2.2 1.5-.2 1.8-.2.5-.2.7-.5 1-.5-.2-.5v-1.2l.2-1v-.8L8.1 20l-.8-1.2-1-1.2-.2.2v.2l.2.8-.2 1.5.3 1.4m0 4.3l-1.2.2-2.5.2.8-1 1.2-.4h1.8l1.3.2-1.4.8zm.3-7.1l.8 1.2.5 1.2v1.2L7.8 24l-1-1.9-.4-1.6.3-1.6z"/><path fill="#333740" d="M5.4 21.2l-1.5-1.5-2-.8-1.5-1.2.8 2 1 2 .5.8.7.5 1.2.8 1.3.2h1l-.5-.8-.2-1-.8-1m0 2.3l-1-.5-1.2-.9-.8-1.1-.7-1.5 1.5.5 1.2.9 1.1 1.2.7 1.5-.8-.1zM110.3 9.2l1.2.5-.5-.5-.5-.8-.2-.8-.5-.5-.5-.5-.8-.2-1.2-.2L106 6h-1.5l.2.8.8.8 1.5 1 2.2.5 1.1.1M106 7.4l-1.1-.8h1.6l1.3.3 1.3.8.5.3.5.8-2.8-.8-1.3-.6z"/><path fill="#333740" d="M112 12.2l-1.2-1.2-1.8-1-.8-.5h-.8l-.4-.3v-.7l-.7.5-.5.5-.5.2-.5.5-.2 1-.5 2.5-.2.8-.2.5v.5l.8-.5.5-.5.8.8.8.8.5.8.8.8 1.2.5 1.2.2 1.2.2.5.2.5.5-.2.2h-.2l-1.8-.8-2-.5-1.8.5-1 .5-.8.8 1.8.5 3 .8 1-.2 1-.5.5-.6.5-.2h.5l.5.2.2.2.5.2h1.2l.8-.2 1.5-1 1.2-.8.8-.2h.8l.2-.2v-.5l.2-.2h.2l.5-.8.5-1v-2l-.5-2-.5-1.8-.2 1-.5 1-.8 2-.2 2-1-1-1.2-.5-.5-.2h-.5l-.2-.2-.2-.2.8-.2.8-.2 1.5-.2.8-.5.2-.8.5-.8v-1L120 9V6.5l-1 1.8-1.2 1.8-1.5 2-1 1.8 1.5 2.2.8 1 1 1H115l-.2.2-.2-.2.5-1.2.2-1.2v-1.2l-.2-1.5h-.2l-.5 1.2-1 1-.8 1.2-.5 1.2-.2-.8V16l-.5-1-.5-.8-.8-.5-.8-.5-.5-.2-.5-.5-.5-.2-.5-.5.5 1.5.5 1.5-3.2-.2v-.2l.8-.2.5-.5.5-1v-1.2l.2-1.5.8.8 1.5 2 .8 1 .8.5h2.2l.8-1 .5-.5.2-.8.2-1.2-.4-1.8-.2-1.2-.5-1.2h-.5l-1 3.8-.3 1.8m-1.1 8.3h-2.5l-1.7-.3-1.7-.3 1.4-.7 1.4-.3h1.4l1.4 1h.8l-.5.6zm5.4-8l1.9-2.1 1.2-1.6h.3v1.6l-.3.5-.2.8-.9.6-2 .6v-.4zm4 1.4l1.1-3.2.4 1.9.1 1.5-.1 1.5-.4 1-.6.5-.4-.9-.2-1 .1-1.3zm-3 2.1l-.6-1.1-.8-.6 1.1.3 1.4.8 1.9 2.2-.2.1-.6.1-.7-.4-.6-.6-.9-.8zm-1.7 2.3h2.9l-.9.3-.6.6-.9.6-.9.2h-.9l-.7-.2-.7-.3 1.2-.6 1.5-.6zm-3.1-.4l.8-2 1.5-1.9.1 1.4-.6 1.8-.7 1.2-1.1.8v-1.3zm-4.5-4.7l1 .2.8.5 1.3 1.4.4 1.6.3 1.5-.5-1-.8-1.2-.8-.8-1.2-.5-.2-1-.3-.7zm-.6 2l1.7.6 1.1.9 1.1 1.5-.6-.3-.8-.3-1.1-.3-1.1-.6-2-1.9 1.7.4zm-1.2-5v1.4l-.3 1.1-.3.6-.3.3-1.2.9.6-1.4.3-1.4.6-1.4.9-1.1-.3 1zm5.9 3.3h-.5l-1-.3-.8-.5-.5-.8-.5-.8-.3-.8 1 .3 1 .8 1.8 1.8-.2.3zm.9-3.1l.3-1.3.3-1.6.5 1.3v1.6l-.3 1.6-.8 1.3-.3-1.3.3-1.6zM34.2 9.2l-.8.2-1.2.8-.7.8-.8.8-.2 1v1l-.8-1.2-.7-.9-2.3-1.7h-.3l.5 2.5.8 1 .8.5 1 .8.8.7.2-.2v-1l1-.2.8-.5.8-.5.5-.8.8-1.8.5-1.5h-.2l-.5.2m-6.1 4.1l-.9-1.2-.3-1.3 1.2.9 1 1 .7 1 .3 1-2-1.4zm5.6-2.6l-.6 1.5-2.2 1.8-.3.2.4-1.7.5-.8.8-.8.8-.8.8-.2.5-.5-.7 1.3zM18.2 9.7l.5 1.5.8.8.8 1 1 .5h1V13l-.2-.8-.2-.8-.5-.4-1-1.2-2.5-1.5h-.2l.5 1.4m1.8.2l1 1.3 1 2.1-1.4-.6-1.1-1.4-.4-.6-.5-1.6 1.4.8zM20.9 8.7l.2.8.5 1 .8.8.8.5.2-.2.2-.5v-1l-.2-1.5-.7-1.6-2-2.5-.5-.2v.5l.2 2 .5 1.9m.9-2l.9 1.4.6 1.5v1.6l-1.5-1.4-1-2.9-.3-1.9 1.3 1.7z"/><path fill="#333740" d="M25.9 6.7l.5 1.8.8 1 1 .8 2 1.2v-.8l-.3-.7-.8-1.5-.8-1.2-1-1-1.2-.8-1.5-.2.8.7.5.7m1.5.3l1 1 1.2 2.5-1.2-.8-1.2-1-.5-1.2-.8-1.5 1.5 1zM56.2 8.7V10l-.5 1.2 1.2-.5 1-.8.8-1 .5-1 .2-1.2-.2-.7-.2-.3-1.8 1-.5 1-.5 1m1.5-1.5l.5-.5.5-.2v1.2L58 9l-.8 1-1 .8.8-2.3.7-1.3zM8.9 5.2l.5.5.8.8.5.5.5.2.8.2.7.6h.8l1-.2.5 1 1 1.2v.2l.2.2.5.5V7.2L16.4 6l-.7-1.2-.5-1-.2-1.5h-.2L13.9 6l.2 1.2-1-1.2-1.2-.8-1.5-.5-1.7-.2.2.5v.2m5.7.3l.2-1.8.6 1.5.7 1.5.2 3.1-.9-1.2-.8-1.7V5.5zm-4-.3l1.4.5 1.2.8.9 1.1-1.6-.2-1.4-.7-1.8-1.9 1.3.4z"/><path fill="#333740" d="M13.2 8.7l-1.5-.5H9.9l1 1 1 1 1.2.5h2.3l.2-.2-.5-.8-.8-.5-1.1-.5m.5 1.7l-1-.2-1-.7-1-.7 1.7.2 1.6.5 1 .8-1.3.1zM116.3 8.7l.5.5.2.2.5-.5.5-.5.2-1.2V5.5l-.2-1.8-.8-1.5-1-1.3.2 1-.2 1.3-.5 2.2.2 2.2.4 1.1m.6-6.1l.6.6.3.9v1.5l-.6 3.4-.3-.3-.6-3.5.6-2.6zM43.2 3l.2 1.8.6 1.7.2.8.5.7.5.5.8.2.5.3.5.5.2-.5h1.5l1.3-.5 1-1 1.8-1.8-2.3.3-1 .2-1 .2 1.2-1.2 1-1.2.8.2.8.5.5.5 1 .2.7.2.8.1-1.3.5-1.2.5-1 1-.3.6-.3.7 2.5-.9 1.5-.6.8-.3.5-.8.8-1.1-1.6-1.6-1.1-.3-1.6-.2-2.2.5.2-1.5.8-1.5-.8.5-.8.2-1.3.9L47.8 4l-.5 1.5-.3.7.2 1 .5-.5.5-.2-.7 1.2-.5.8v-.8L46.7 6l-.5-1.5-.2-.8-.5-.5-.8-.5-.7-.5-1.5-.8.5.8.2.8m12.4 3.6l-1.1.7-1.2.5-1.3.5.2-.5.2-.2.5-.5 2-.8 1.8-.8-1.1 1.1zm-2.8-3l1.1.2 1.2.3.9.5.5.8-1.2-.1-1.5-.2-.8-.3-1.4-.9 1.2-.3zm-4.9 2.5l-.6.7.3-1.4.9-1.7.9-1.2 1.5-.9-.3.8-.3 1-.6 1.2-1 1.1-.8.4zM47.7 8l.7-.9 1-.4 2.2-.4L49.8 8l-1 .6-1.3.2.2-.8zm-3.6-5.1l1.2 1 .7 1.3.4 1.8.3 1.7-.6-.6-1.1-.3-.9-2.1-.1-1.5-.5-1.6.6.3zM35.5 4l1.2 1 1.3.7-.3.3-2.2-.2h-1.2l-1 .5-.5.5-.5.8-.3.4-.2.8h2l1-.2 3-2 .8-.2 1-.2v-.5l-.2-.2-.4-.3-.5-1-.5-.7L36.7 2l-1-.5-1 .2-2 .5 1.5.8 1.3 1m-.4 3.7l-1.3.4-1.3.1.9-1.5 1-.6h2.1l.7.2-2.1 1.4zm-.3-5.6H36l.4.2.7.7.7 1 1.1 1.6-1.9-.9-.8-1-.6-.5-.8-.4-.8-.4.8-.3zM81.7 5.7l.8 2.3.8.8.7-2.6.2-1.5-.2-1.2-.2-.8-.5-.5-1.3-.7v.8L81.7 4v1.7m.8-3.7l.8 1.1.3 1.1v1.7l-.3 1.4-.3.3-.2-.6-.3-.6-.3-1.4.3-3zM103.3 2h.2l1 1.5 1.2 1 1.5 1h.8l1 .2.5-.2h.2l.2.2 1.8 2.8v-.8l-1.4-2.5-.3-1.5-.2-1.5V2l1.5 1.5.4.7.3 1 .3 1.5v2l.5-1.8V6l-.2-1-.2-.8-.5-1-1.4-1.2L109 .7l.2 1.5v1.2l.2 1v.8l-1-2-1.2-1-1.5-.5-1.7-.2h-1.2l.2.2.3.3m2 .1l1.3.5 1.3.9L109 5l-1.6-.3-1.3-.7-1.3-1.1-1.1-1.1 1.6.3z"/><path fill="#333740" d="M30.2 5.5h2.5l1.8-.2 1.4-.3-2.2-1.2-1.2-.5-1.6-.3-1.2.2-1.5.5-.5.3.8.8 1.7.7m-.6-1.9l.7-.1 1.5.1 1.6.6 1.1.6-1.4.2-1.4.2-1.6-.1-1.6-1 1.1-.5z"/><path fill="#FFF" d="M103.3 57c.3.1.7.4.7.7"/><path fill="#FF8200" d="M2.9 156.2c2.2 0 3-.5 3-2.9v-13.4c0-2.4-.8-2.9-3-2.9v-.6h16.8l.2 4.5h-.6c-.3-2.5-1.5-3.2-3.8-3.2h-5.3c-1.3 0-1.3.4-1.3 2.1v5.7h5.9c1.9 0 2.5-.8 2.7-2.8h.6v6.8h-.6c-.2-1.9-.8-2.8-2.7-2.8H8.9v6.4c0 1.9.1 2.5 1.4 2.5h5.9c2.5 0 4.1-1.6 4.8-3.9l.5.2-1.5 5H2.9v-.7"/><path fill="#FF8200" d="M21.4 156.2c2.1-.1 2.8-.5 2.8-2.8v-13.5c0-2.3-.8-2.7-2.8-2.8v-.6h8.9v.6c-2.2 0-3 .5-3 2.9v13c0 1.6.1 2.6 1.7 2.6h4c3 0 4.4-1.3 5.6-4.1l.7.1-1.7 5.2H21.4v-.6M39.8 150.8h.6c1.1 2.6 2.9 5.4 5.9 5.4 2 0 3.7-1.3 3.7-3.3 0-1.6-1.6-3.1-4.2-4.9-3.3-2.4-5.4-3.8-5.4-6.4 0-3.4 2.5-5.5 5.6-5.5 2.2 0 3 .9 4.2.9.5 0 .6-.3.5-.7h.6l.6 6.1h-.6c-.8-2.6-2.5-5.2-5.3-5.2-1.7 0-3.1 1.4-3.1 3.2 0 1.9 1.9 3.2 5 5 2.5 1.5 5 3.4 5 6.2 0 3.2-2.6 5.8-6 5.8-2 0-4.2-.9-4.7-.9-.3 0-.7.2-.8.6h-.6l-1-6.3"/><path fill="#FF8200" d="M52.9 156.2c2.2 0 3-.5 3-2.9v-13.4c0-2.4-.8-2.9-3-2.9v-.6h16.8l.2 4.5h-.6c-.3-2.5-1.5-3.2-3.8-3.2h-5.3c-1.3 0-1.3.4-1.3 2.1v5.7h5.9c1.9 0 2.5-.8 2.7-2.8h.6v6.8h-.6c-.2-1.9-.8-2.8-2.7-2.8H59v6.4c0 1.9.1 2.5 1.4 2.5h5.9c2.5 0 4.1-1.6 4.8-3.9l.5.2-1.5 5H52.9v-.7M81.1 157h-.4l-5.4-12.5c-.9-2.1-1.7-4.2-2.8-6.1-.5-.8-1.3-1.3-2.3-1.3v-.6h8.3v.6c-.8 0-2.3 0-2.3 1.1 0 .4.9 2.4 1.7 4.3l4.1 9.7 4.9-11.4c.6-1.4.8-2.1.8-2.7s-.7-1-2.1-1.1v-.6h5.9v.6c-.3.1-.7.1-1 .3-1.1.6-2.1 3.6-2.6 4.8L81.1 157"/><path fill="#FF8200" d="M91.4 156.2c2.2 0 3-.5 3-2.9v-13.4c0-2.4-.8-2.9-3-2.9v-.6h9.1v.6c-2.2 0-3 .5-3 2.9v13.4c0 2.4.8 2.9 3 2.9v.6h-9.1v-.6M101.8 156.2c2.2 0 3-.5 3-2.9v-13.4c0-2.4-.8-2.9-3-2.9v-.6h16.8l.2 4.5h-.6c-.3-2.5-1.5-3.2-3.8-3.2h-5.3c-1.3 0-1.3.4-1.3 2.1v5.7h5.9c1.9 0 2.5-.8 2.7-2.8h.6v6.8h-.6c-.2-1.9-.8-2.8-2.7-2.8h-5.9v6.4c0 1.9.1 2.5 1.4 2.5h5.9c2.5 0 4.1-1.6 4.8-3.9l.5.2-1.5 5h-17.2l.1-.7"/><path fill="#FF8200" d="M126.5 139c0-1.4.3-1.5 2.2-1.5 2.8 0 5.3 1 5.3 4.3 0 3.6-2.9 4.6-5.9 4.6h-1.6V139m14.4 17.2c-1.3-.4-1.7-.7-2.5-1.6l-6.2-7.6c3-.6 5.1-2.2 5.1-5.6 0-4.8-4.3-5-7.8-5h-9.2v.6c2.2 0 3 .5 3 2.9v13.4c0 2.4-.8 2.9-3 2.9v.6h9.1v-.6c-2.2 0-3-.5-3-2.9v-5.6h2.6l7.3 9.1h4.5l.1-.6z"/></svg>
