<svg xmlns="http://www.w3.org/2000/svg" width="328.3" height="50.7" viewBox="0 0 328.3 50.7"><path fill="#F89834" d="M0 48.1c5.3 0 7.2-1.1 7.2-6.9V9.4c0-5.7-1.9-6.9-7.2-6.9V1.1h39.9l.6 10.6h-1.3c-.7-5.9-3.6-7.6-9.1-7.6H17.4c-3 0-3 .8-3 4.9v13.6h14.1c4.6 0 6-2 6.5-6.7h1.3v16.3H35c-.4-4.6-1.9-6.7-6.5-6.7H14.4v15.2c0 4.4.3 5.9 3.3 5.9h14.1c6 0 9.7-3.9 11.5-9.4l1.3.5L41 49.6H0v-1.5z"/><path fill="#F89834" d="M44.1 48.1c4.9-.3 6.8-1.2 6.8-6.7V9.3c0-5.5-1.8-6.5-6.8-6.7V1.1h21.1v1.4c-5.3 0-7.2 1.1-7.2 6.9v31c0 3.9.1 6.2 4.1 6.2h9.5c7.1 0 10.5-3.1 13.3-9.8l1.6.3-4.1 12.4H44.1v-1.4zm43.6-12.9H89c2.7 6.2 6.9 12.8 14.1 12.8 4.7 0 8.7-3.1 8.7-8 0-3.9-3.9-7.3-9.9-11.7C94.1 22.7 89 19.4 89 13c.1-8 6.2-13 13.5-13 5.3 0 7.1 2.2 10 2.2 1.1 0 1.3-.6 1.1-1.8h1.3l1.5 14.5h-1.3c-1.9-6.2-6-12.3-12.7-12.3-4.1 0-7.5 3.2-7.5 7.6 0 4.6 4.6 7.5 11.9 11.9 6 3.6 11.9 8 11.9 14.9 0 7.7-6.2 13.7-14.2 13.7-4.8 0-9.9-2-11.1-2-.8 0-1.7.5-1.8 1.6h-1.4l-2.5-15.1zM119 48.1c5.3 0 7.2-1.1 7.2-6.9V9.4c0-5.7-1.9-6.9-7.2-6.9V1.1h39.9l.6 10.6h-1.3c-.7-5.9-3.6-7.6-9.1-7.6h-12.6c-3 0-3 .8-3 4.9v13.6h14.1c4.6 0 6-2 6.5-6.7h1.3v16.3h-1.3c-.4-4.6-1.9-6.7-6.5-6.7h-14.1v15.2c0 4.4.3 5.9 3.3 5.9h14.1c6 0 9.7-3.9 11.5-9.4l1.3.5-3.6 11.9H119v-1.5zm66.9 2h-1L172 20.3c-2.1-4.9-4-9.9-6.7-14.6-1.1-2-3.2-3.2-5.5-3.2V1.1h19.8v1.4c-1.9 0-5.6 0-5.6 2.7 0 .9 2.1 5.8 3.9 10.2l9.7 23 11.6-27c1.4-3.2 1.8-5 1.8-6.4 0-1.5-1.6-2.3-5.1-2.5V1.1H210v1.4c-.8.1-1.6.3-2.5.7-2.5 1.3-5.1 8.5-6.2 11.3l-15.4 35.6zm24.7-2c5.3 0 7.2-1.1 7.2-6.9V9.4c0-5.7-1.9-6.9-7.2-6.9V1.1h21.6v1.4c-5.3 0-7.2 1.1-7.2 6.9v31.9c0 5.8 1.9 6.9 7.2 6.9v1.4h-21.6v-1.5zm24.6 0c5.3 0 7.2-1.1 7.2-6.9V9.4c0-5.7-1.9-6.9-7.2-6.9V1.1h39.9l.6 10.6h-1.3c-.7-5.9-3.6-7.6-9.1-7.6h-12.7c-3 0-3 .8-3 4.9v13.6h14.1c4.6 0 6-2 6.5-6.7h1.3v16.3h-1.3c-.4-4.6-1.9-6.7-6.5-6.7h-14.1v15.2c0 4.4.2 5.9 3.3 5.9H267c6 0 9.7-3.9 11.5-9.4l1.3.5-3.6 11.9h-40.9l-.1-1.5z"/><path fill="#F89834" d="M328.3 48.1c-3-.8-4.1-1.6-5.9-3.9l-14.7-18.1C315 24.6 320 21 320 13c0-11.3-10.1-11.9-18.5-11.9h-21.9v1.4c5.3 0 7.2 1.1 7.2 6.9v31.9c0 5.8-1.9 6.9-7.2 6.9v1.4h21.6v-1.4c-5.3 0-7.2-1.1-7.2-6.9V27.9h6.1l17.4 21.6h10.8v-1.4zM294 7.2c0-3.3.8-3.5 5.2-3.5 6.6 0 12.6 2.3 12.6 10.3 0 8.6-6.9 11-14.1 11H294V7.2z"/></svg>