<svg xmlns="http://www.w3.org/2000/svg" viewBox="0 0 480.2 129.9"><path fill="#100E0F" d="M92.5 55.6H52.1c-1 0-1.9.8-1.9 1.9v19.7c0 1 .8 1.9 1.9 1.9h15.7v24.5s-3.5 1.2-13.3 1.2c-11.5 0-27.6-4.2-27.6-39.6s16.8-40.1 32.5-40.1c13.6 0 19.5 2.4 23.2 3.6 1.2.4 2.3-.8 2.3-1.9l4.5-19.1c0-.5-.2-1.1-.7-1.5C87.2 5.2 78 0 54.6 0 27.6 0 0 11.5 0 66.6c0 55.1 31.6 63.3 58.3 63.3 22.1 0 35.5-9.4 35.5-9.4.6-.3.6-1.1.6-1.4V57.5c0-1.1-.9-1.9-1.9-1.9zM300.5 6.6c0-1-.8-1.9-1.9-1.9h-22.7c-1 0-1.9.8-1.9 1.9v43.9h-35.4V6.6c0-1-.8-1.9-1.9-1.9H214c-1 0-1.9.8-1.9 1.9v118.9c0 1 .8 1.9 1.9 1.9h22.7c1 0 1.9-.9 1.9-1.9V74.6H274l-.1 50.9c0 1 .8 1.9 1.9 1.9h22.8c1 0 1.9-.9 1.9-1.9V6.6z"/><g fill="#100E0F"><path d="M135.4 22.2c0-8.2-6.6-14.8-14.7-14.8s-14.6 6.6-14.6 14.8c0 8.2 6.6 14.8 14.6 14.8 8.1 0 14.7-6.6 14.7-14.8zM133.8 100.4V45.5c0-1-.8-1.9-1.9-1.9h-22.7c-1 0-2 1.1-2 2.1v78.6c0 2.3 1.4 3 3.3 3h20.4c2.2 0 2.8-1.1 2.8-3 .1-4.2.1-20.7.1-23.9z"/></g><path fill="#100E0F" d="M386.8 43.8h-22.5c-1 0-1.9.9-1.9 1.9V104s-5.7 4.2-13.9 4.2c-8.1 0-10.3-3.7-10.3-11.7V45.7c0-1-.8-1.9-1.9-1.9h-22.9c-1 0-1.9.9-1.9 1.9v54.7c0 23.6 13.2 29.4 31.3 29.4 14.9 0 26.9-8.2 26.9-8.2s.6 4.3.8 4.8c.3.5.9 1 1.7 1l14.6-.1c1 0 1.9-.9 1.9-1.9V45.6c0-.9-.8-1.8-1.9-1.8zM448.5 41.2c-12.8 0-21.5 5.7-21.5 5.7V6.6c0-1-.8-1.9-1.9-1.9h-22.8c-1 0-1.9.8-1.9 1.9v118.9c0 1 .8 1.9 1.9 1.9h15.8c.7 0 1.3-.4 1.6-1 .4-.6 1-5.5 1-5.5s9.3 8.8 27 8.8c20.7 0 32.6-10.5 32.6-47.2-.1-36.6-19-41.3-31.8-41.3zm-8.9 66.9c-7.8-.2-13.1-3.8-13.1-3.8V66.7s5.2-3.2 11.7-3.8c8.1-.7 15.9 1.7 15.9 21.1-.1 20.4-3.6 24.5-14.5 24.1zM199.1 43.6h-17V21.1c0-.9-.4-1.3-1.4-1.3h-23.2c-.9 0-1.4.4-1.4 1.3v23.3s-11.6 2.8-12.4 3c-.8.2-1.4 1-1.4 1.8v14.6c0 1.1.8 1.9 1.9 1.9h11.9v35.2c0 26.1 18.3 28.7 30.7 28.7 5.7 0 12.4-1.8 13.5-2.2.7-.2 1.1-.9 1.1-1.7v-16.1c0-1-.9-1.9-1.9-1.9-1 0-3.5.4-6.2.4-8.4 0-11.2-3.9-11.2-8.9V65.8h17c1 0 1.9-.8 1.9-1.9V45.5c-.1-1-.9-1.9-1.9-1.9z"/></svg>