<svg viewBox="0 0 612 243.1"><path fill="none" d="M0 1.1h612v242H0z"/><path fill="#EF5025" d="M6 242.1H0v-48h9.8l12 40h.2l12.1-40H45v48h-6v-43h-.1l-13.6 43h-5.9l-13.3-43H6v43m56 0v-48h25v5H69v16h17v5H69v17h19v5H62m45-14v1.4c0 6.6 4.2 8.7 8.2 8.7 4.9 0 8.7-2.1 8.7-7.9 0-10.8-21.9-9.6-21.9-24.2 0-8.6 6.1-13.2 14.3-13.2 8.9 0 13.9 4.3 13.5 14.2h-6.5c.1-5.3-1.6-8.8-7.5-8.8-3.7 0-7.5 1.9-7.5 7.2 0 10.7 21.9 9.2 21.9 24.6 0 10.3-7.1 13.6-15.1 13.6-14.4.1-14.4-10.9-14.2-15.5h6.1m43-.1v1.4c0 6.6 4.2 8.7 8.2 8.7 4.9 0 8.7-2.1 8.7-7.9 0-10.8-21.9-9.6-21.9-24.2 0-8.6 6.1-13.2 14.3-13.2 8.9 0 13.9 4.3 13.5 14.2h-6.5c.1-5.3-1.6-8.8-7.5-8.8-3.7 0-7.5 1.9-7.5 7.2 0 10.7 21.9 9.2 21.9 24.6 0 10.3-7.1 13.6-15.1 13.6-14.4.1-14.4-10.9-14.2-15.5h6.1"/><path fill="none" d="M0 .1h611v243H0V.1z"/><path fill="#EF5025" d="M200 194.1h7.5l15.6 48h-7.4l-3.3-11h-17.8l-3.5 11h-6.8l15.3-48.2m3.7 5.2h-.1l-7.6 26h15.6l-7.9-26zm56.1 7.6c0-5.7-2.3-8.8-8.6-8.8-1.9 0-8.9.3-8.9 10.4v16.1c0 10.9 3.2 13.6 9.1 13.6 4.5 0 7.6-1.2 8.9-2.2V221h-9v-5h15v22.7c-4 2.1-8.6 3.5-14.8 3.5-10.2 0-15.2-5.1-15.2-18.1v-15.3c0-9.3 5-15.3 15.2-15.3 10.4 0 15.4 3.7 15 13.5H259m25 35.1v-48h25v5h-19v16h17v5h-17v17h19v5h-25m80-48h8.1l15.6 48h-7.4l-3.3-11h-17.8l-3.5 11h-6.8l15.3-48.2m3.8 5.2h-.1l-7.6 26h15.6l-7.9-26zm55.4 7.6c0-5.7-2.3-8.8-8.6-8.8-1.9 0-8.9.3-8.9 10.4v16.1c0 10.9 3.2 13.6 9.1 13.6 4.5 0 7.6-1.2 8.9-2.2V221h-9v-5h15v22.7c-4 2.1-8.6 3.5-14.8 3.5-10.2 0-15.2-5.1-15.2-18.1v-15.3c0-9.3 5-15.3 15.2-15.3 10.4 0 15.4 3.7 15 13.5H424m24 35.1v-48h25v5h-19v16h18v5h-18v17h20v5h-26m74-48v48h-10.5l-17.4-42h-.1v42h-5v-48h8.8l19.1 41h.1v-41h5m37.8 13c.1-2.8-.1-5.6-1.3-7.1-1.2-1.6-4-2.1-5.2-2.1-4.9 0-6.8 3.1-7 3.8-.2.5-1.3 1.8-1.3 10.2V225c0 12 3.7 13.4 8.2 13.4 1.8 0 7.2-.7 7.3-10.2h6.1c.3 15.4-10 15.4-13 15.4-5.7 0-14.6-.4-14.6-19.4v-13.8c0-13.8 5.7-17.8 14.8-17.8s12.6 5 12.1 14.5H560m45-13h5.9L598 223.8v18.3h-6v-18.3l-12.7-29.7h6.8l9.2 23.2 9.5-23.2"/><path fill="none" d="M0 1.1h612v242H0V1.1z"/><defs><path id="message-a" d="M0 1.1h612v242H0z"/></defs><clipPath id="message-b"><use xlink:href="#message-a" overflow="visible"/></clipPath><path clip-path="url(#message-b)" fill="#EF5025" d="M204 26.7c-2.8-2.8-3.2-5.4-3.1-7.1.3-3.1 2.5-4.9 3.2-5.8.7-.7 9.2-9.5 9.8-10.2 2.3-2.4 4.7-3.6 7.3-3.6 3.9 0 6.6 2.8 7.2 3.7 2.6 2.6 45.9 45.8 50 49.6 1.8 1.6 2.8 3.6 2.8 5.8.2 3.7-2.4 6.6-2.7 6.9-2 2-47.7 48.8-51.4 52.2-2 1.9-4.1 2.3-5.4 2.3-3.2 0-5.4-2.1-5.6-2.4l-12.8-12.8c-2.2-2.2-2.7-4.5-2.6-6 .1-3.1 2.2-5.3 2.6-5.7.9-.9 28.1-27.2 32.4-31.6.8-.8 1.2-1.4 1.2-1.9s-.6-1.2-.7-1.2M207 18.1h.5s-1.1 1-1.1 1.8c0 .9.7 2 1.4 2.7l31.8 31.9c1 .9 2.6 2.2 2.9 4.9.2 1.6-.1 4.1-2.7 6.8-4.5 4.6-31.5 30.8-32.7 32l-.1.1s-.8.8-.8 1.7c0 .5.3 1.2 1 1.8l12.9 12.9c.2.2.9.7 1.6.7.2 0 .7 0 1.5-.8 3.6-3.4 49.7-50.5 51.4-52.2.7-.8 2.1-2.9.2-4.7-4.4-4-48.1-47.7-50.4-50.1 0 0-1.5-1.9-3.3-2-1 0-2 .6-3.2 1.8"/><defs><path id="message-c" d="M0 1.1h612v242H0z"/></defs><clipPath id="message-d"><use xlink:href="#message-c" overflow="visible"/></clipPath><path clip-path="url(#message-d)" fill="#EF5025" d="M221 6.1v-6h22.4c2-.1 8.2-.4 12.7 4 3.6 3.6 47.7 47.8 48.1 48.2s3.5 3.7 3.4 8.2c0 2.7-1.2 5.2-3.4 7.4-5.6 5.5-46.7 46.3-48 47.6-.6.6-5 5-12.1 5-5.2 0-17.9.1-21.9.1-.8 0-1.3-.3-.2-.3V115c-.9 0 16-.1 22.2-.1 4.9 0 7.8-3.1 8-3.2l.1-.1c.4-.4 42.4-42.2 48.1-47.7 1.1-1.1 1.7-2.2 1.7-3.4 0-2.2-1.7-4.1-1.8-4.1-1.8-1.8-43.8-45-48.3-48.4-2.7-2-6.3-2.3-8.1-2.2"/><path fill="none" d="M0 .1h611v243H0V.1z"/><path fill="#EF5025" d="M279 56.1h26v6h-26v-6z"/><path fill="none" d="M0 1.1h612v242H0V1.1z"/><g><defs><path id="message-e" d="M0 1.1h612v242H0z"/></defs><clipPath id="message-f"><use xlink:href="#message-e" overflow="visible"/></clipPath><path clip-path="url(#message-f)" fill="#EF5025" d="M306.4 26.7c-2.8-2.8-3.2-5.4-3.1-7.1.3-3.1 2.5-4.9 3.2-5.8.7-.7 9.2-9.5 9.8-10.2 2.3-2.4 4.7-3.6 7.3-3.6 3.9 0 6.6 2.8 7.2 3.7 2.6 2.6 45.9 45.8 50 49.6 1.8 1.6 2.8 3.6 2.8 5.8.1 3.7-2.4 6.6-2.7 6.9-2 2-47.7 48.8-51.4 52.2-2 1.9-4.1 2.3-5.4 2.3-3.2 0-5.4-2.1-5.6-2.4l-12.8-12.8c-2.2-2.2-2.7-4.5-2.6-6 .1-3.1 2.2-5.3 2.6-5.7.9-.9 28.1-27.2 32.4-31.6.8-.8 1.2-1.4 1.2-1.9s-.6-1.2-.7-1.2M310 18.1c-.1 0-1.2 1-1.2 1.8 0 .9.7 2 1.4 2.7L342 54.5c1 .9 2.6 2.2 2.9 4.9.2 1.6-.1 4.1-2.7 6.8-4.5 4.6-31.5 30.8-32.7 32l-.1.1s-.8.8-.8 1.7c0 .5.3 1.2 1 1.8l12.9 12.9c.2.2.9.7 1.6.7.2 0 .7 0 1.5-.8 3.6-3.4 49.7-50.5 51.4-52.2.7-.8 2.1-2.9.2-4.7-4.4-4-48.1-47.7-50.4-50.1 0 0-1.5-1.9-3.3-2-1 0-2 .6-3.2 1.8"/><g><defs><path id="message-g" d="M0 1.1h612v242H0z"/></defs><clipPath id="message-h"><use xlink:href="#message-g" overflow="visible"/></clipPath><path clip-path="url(#message-h)" fill="#EF5025" d="M324 6.1v-6h21.9c2-.1 8.2-.4 12.7 4 3.6 3.6 47.7 47.8 48.1 48.2s3.5 3.7 3.4 8.2c0 2.7-1.2 5.2-3.4 7.4-5.6 5.5-46.7 46.3-48 47.6-.6.6-5 5-12.1 5-5.2 0-17.9.1-21.9.1-.8 0-1.3-.3-.7-.3v-5.2h22.6c4.9-.3 7.8-3.4 8-3.5l.1-.1c.4-.4 42.4-42.2 48.1-47.7 1.1-1.1 1.7-2.2 1.7-3.4 0-2.2-1.7-4.1-1.8-4.1-1.8-1.8-43.8-45-48.3-48.4-2.7-2-6.3-2.3-8.1-2.2"/></g></g><path fill="none" d="M0 .1h611v243H0V.1z"/><path fill="#EF5025" d="M381 56.1h26v6h-26v-6z"/><path fill="none" d="M0 1.1h612v242H0V1.1z"/></svg>
