<svg xmlns="http://www.w3.org/2000/svg" viewBox="0 0 512 512"><path fill="#FFF" d="M127.2 126.2L78 385.1h76.6l11.8-62.3H397l37.3-196.6H127.2z"/><g fill="#544285"><path d="M476.5 256.1c21.2-19.1 30.6-49.5 21.1-78.5-9.2-28.4-35.5-47.8-63.2-51.4l-37.3 196.6H166.5l-11.8 62.3H78.1c-5.5 27.6 4.3 58.6 28.6 76.3 24.6 17.9 56.5 18.6 81.2 4.3 11.6 26.1 37.7 44.4 68.1 44.4s56.6-18.2 68.2-44.3c24.7 14.3 56.6 13.7 81.2-4.2s35-47.9 29.1-75.9c28.4-3 53.8-22.1 63.2-51.1 9.2-28.9 0-59.4-21.2-78.5z"/><path d="M344.4 193.4H192l-11.9 62.3h152.4"/></g><path fill="#AC51A3" d="M434.4 126.2c5.2-27.4-5-58.1-29-75.6-24.6-17.9-56.5-18.6-81.2-4.3C312.7 20.3 286.6 2 256.1 2c-30.4 0-56.6 18.2-68.2 44.3-24.7-14.3-56.6-13.7-81.2 4.2s-35 47.9-29.1 75.9c-28.4 3-53.8 22.1-63.2 51.1-9.4 28.9-.2 59.4 21 78.5-21.1 19-30.4 49.4-21 78.4 9.2 28.5 35.8 47.3 63.6 50.7l49.2-258.9h307.2z"/></svg>