<svg xmlns="http://www.w3.org/2000/svg" width="137.8" height="44" viewBox="0 0 137.8 44"><title>black_horizontal_alt</title><g fill="#252A2E"><path d="M70.3 8.5c0-2.9-2.2-4.4-4.7-4.4h-6.2v14h3.2v-4.8h2.7c3.2.1 5-2.1 5-4.8zm-3.3.2c0 1.2-.8 2-1.8 2h-2.6v-4h2.6c1 .1 1.8.8 1.8 2zm11.5 1.5V7.1h-1c-1.1 0-2.2.5-2.7 1.4V7.1h-3v11.1H75v-5.9c0-1.5.9-2.1 2.4-2.1.4-.1 1.1 0 1.1 0zm6.3 8.1c3.2 0 5.5-1.9 5.5-5.7 0-3.8-2.3-5.7-5.5-5.7s-5.5 1.9-5.5 5.7c0 3.8 2.3 5.7 5.5 5.7zm0-8.9c1.3 0 2.3.9 2.3 3.2 0 2.3-1 3.2-2.3 3.2-1.3 0-2.3-.9-2.3-3.2 0-2.3 1-3.2 2.3-3.2zm13.1 8.7v-2.6s-.7.1-1.3.1c-.7 0-.9-.2-.9-.9V9.5H98V7h-2.3V4.1h-3.1V7H91v2.5h1.6v5.3c0 2.1.3 3.3 2.9 3.3 1.3.1 2.4 0 2.4 0zm6.4.2c3.2 0 5.5-1.9 5.5-5.7 0-3.8-2.3-5.7-5.5-5.7s-5.5 1.9-5.5 5.7c0 3.8 2.3 5.7 5.5 5.7zm0-8.9c1.3 0 2.3.9 2.3 3.2 0 2.3-1 3.2-2.3 3.2-1.3 0-2.3-.9-2.3-3.2-.1-2.3 1-3.2 2.3-3.2zm14 4.6c-.2 1.3-1.1 1.8-2.1 1.8-1.3 0-2.3-.9-2.3-3.2 0-2.3 1-3.2 2.3-3.2 1 0 1.8.5 2 1.9h3.1c-.3-2.9-2.3-4.4-5.1-4.4-3.2 0-5.5 2-5.5 5.7 0 3.8 2.3 5.6 5.5 5.6 2.8 0 4.8-1.5 5.1-4.3h-3zm9.4 4.3c3.2 0 5.5-1.9 5.5-5.7 0-3.8-2.3-5.7-5.5-5.7s-5.5 1.9-5.5 5.7c0 3.8 2.3 5.7 5.5 5.7zm0-8.9c1.3 0 2.3.9 2.3 3.2 0 2.3-1 3.2-2.3 3.2-1.3 0-2.3-.9-2.3-3.2 0-2.3 1-3.2 2.3-3.2zm10.1 8.7V3.3h-3.1v14.8h3.1zm-68.5 22v-2.8h-6.8V26.1h-3.2v14h10zm8.3-4.2c0 .9-.6 2.1-2.5 2.1-1.2 0-1.5-.7-1.5-1.2 0-.7.5-1.1 1.3-1.3.8-.2 2.7-.4 2.7-.4v.8zm-6.7-3.2h3c0-.4.1-1.4 1.9-1.4 1.5 0 1.8.5 1.8 1.3v.4l-3.6.5c-1 .1-3.5.8-3.5 3.3 0 2.2 1.7 3.5 4 3.5 1.9 0 2.7-.6 3.2-1.1v1H81s-.2-.8-.2-1.6v-6c0-1.6-.9-3.6-4.9-3.6-4.3-.1-5 2.1-5 3.7zm14.9 7.4V39c.6.7 1.5 1.2 2.8 1.2 3 0 5.1-1.9 5.1-5.7 0-3.8-2.1-5.7-4.9-5.7-1.2 0-2.4.5-2.9 1.2v-4.7h-3.1v14.8h3zm2.4-8.7c1.3 0 2.3.9 2.3 3.2 0 2.3-1 3.2-2.3 3.2-1.5 0-2.3-.7-2.3-3.2-.1-2.5.8-3.2 2.3-3.2zm13.1 1h3c0-.9-.4-3.4-4.8-3.4-2.6 0-4.7 1.2-4.7 3.5 0 2.6 2.1 3.1 4.5 3.4l.6.1c.9.1 1.7.3 1.7 1 0 .8-.9 1.1-1.8 1.1-1.1 0-2-.3-2-1.4h-3.1c0 .6.3 3.6 4.9 3.6 4.1 0 5.1-2 5.1-3.7 0-4.5-6.8-2.7-6.8-4.4 0-.8.8-1 1.6-1 1.1 0 1.8.4 1.8 1.2zM20.7 32.5c.5.3.9.9.9 1.5v9.4c0 .5-.4.8-.9.5l-8.2-4.7c-.5-.3-.9-.9-.9-1.5v-9.4c0-.5.4-.8.9-.5l8.2 4.7zm12.6-8.3c0 .5-.4 1.2-.9 1.5l-8.2 4.7c-.5.3-.9 0-.9-.5v-9.4c0-.5.4-1.2.9-1.5l8.2-4.7c.5-.3.9 0 .9.5v9.4zm-1.8-12.5c.5.3.5.7 0 1l-8.1 4.7c-.5.3-1.3.3-1.7 0L1.9 5.9c-.5-.3-.5-.7 0-1L10.1.2c.5-.3 1.3-.3 1.7 0l19.7 11.5zM9.9 36.6c0 .5-.4.8-.9.5L.8 32.4c-.5-.3-.9-.9-.9-1.5V8c0-.6.4-.8.9-.5L20.7 19c.5.3.9 1 .9 1.5v9.4c0 .5-.4.8-.9.5l-10-5.8c-.5-.3-.9 0-.9.5v11.5zm25.2-22.9c0-.5.4-1.2.9-1.5l8.2-4.7c.5-.3.9 0 .9.5v22.9c0 .6-.4 1.2-.9 1.5L24.3 43.9c-.5.3-.9.1-.9-.5V34c0-.5.4-1.2.9-1.5l10-5.8c.5-.3.9-.9.9-1.5l-.1-11.5zm-9.9-7.8c-.5-.3-.5-.7 0-1L33.4.2c.5-.3 1.2-.3 1.7 0l8.2 4.7c.5.3.5.7 0 1l-8.2 4.7c-.5.3-1.2.3-1.7 0l-8.2-4.7z"/></g></svg>