<svg xmlns="http://www.w3.org/2000/svg" viewBox="0 0 561.8 499.8"><circle fill="#00AD93" cx="280.9" cy="249.4" r="50.2"/><path fill="none" stroke="#00AD93" stroke-width="24" stroke-miterlimit="10" d="M280.9 147.4c67.4 0 129.9 9.7 177.1 25.9 56.8 19.6 91.8 49.2 91.8 76.1 0 28-37 59.5-98.1 79.7-46.1 15.3-106.9 23.3-170.8 23.3-65.6 0-127.6-7.5-174.3-23.4-59-20.2-94.6-52.1-94.6-79.6 0-26.6 33.4-56.1 89.4-75.6 47.4-16.5 111.5-26.4 179.5-26.4z"/><path fill="none" stroke="#00AD93" stroke-width="24" stroke-miterlimit="10" d="M192.1 198.7C225.8 140.4 265.4 91 303 58.2c45.4-39.5 88.5-54.9 111.8-41.5 24.2 14 33 61.8 20.1 124.8-9.8 47.6-33.2 104.2-65.2 159.6-32.8 56.8-70.2 106.8-107.4 139.3-47 41.1-92.4 55.9-116.2 42.2-23.1-13.3-31.9-56.9-20.8-115.2 9.4-49.3 32.8-109.8 66.8-168.7z"/><path fill="none" stroke="#00AD93" stroke-width="24" stroke-miterlimit="10" d="M192.2 301.3C158.4 243 135.5 184 125.9 135c-11.5-59-3.4-104.1 19.9-117.6 24.2-14 70.1 2.2 118.1 44.9 36.4 32.3 73.7 80.8 105.7 136.2 32.8 56.7 57.5 114.2 67 162.6 12.1 61.2 2.3 108-21.5 121.7-23.1 13.3-65.2-.8-110.2-39.5-38-32.6-78.6-83.2-112.7-142z"/></svg>