<svg xmlns="http://www.w3.org/2000/svg" viewBox="0 0 543.4 150.3"><path fill="#CA602B" d="M244.6 61.6c6.3 1.6 14.4 3.7 20.6 10.4 4.3 4.7 6.5 10.8 6.5 17.1 0 14.2-11.2 29.7-36.4 29.7-12.4 0-20.3-4.1-24.4-6.9-6.9-4.7-11.2-10.8-14.7-19.1l11.8-4.1c2.2 8.8 10.6 19.3 27.3 19.3 16.7 0 24.6-9 24.6-19.1 0-12.6-12.8-15.7-20.8-17.3-3.7-.8-7.7-1.6-11.6-2.4-9-2-25.2-6.1-25.2-25 0-10 5.7-27.1 34.8-27.1 9.6 0 17.3 2.2 22.6 5.5 8.8 5.3 11.2 13.4 12 16.5l-11.6 2.8c-.6-2.6-1.8-7.3-8.3-11-4.1-2.4-9.6-3.5-15.3-3.5-7.3 0-22.4 1.8-22.4 16.3 0 10.6 9.6 13.2 20.3 15.7l10.2 2.2zM360.7 58.1c-1-8.5-3.7-16.9-10.2-23-4.1-3.7-10.6-7.3-20.1-7.3-16.7 0-28.9 11.8-31.1 30.3h61.4zm13.6 32.6c-1.4 3.5-4.1 9-9.2 14.7-2.8 3.1-12.2 13.4-33.2 13.4-32.2 0-46.2-24.6-46.2-51.7 0-32.2 21.2-50.1 44.8-50.1 29.3 0 44.6 25.6 43.8 50.9H299c-.2 5.1.2 12.6 3.1 20.1 7.7 19.9 25.8 19.9 29.9 19.9 10.6 0 22.8-3.7 31.1-20.3l11.2 3.1zM463.7 58.1c-1-8.5-3.7-16.9-10.2-23-4.1-3.7-10.6-7.3-20.1-7.3-16.7 0-28.9 11.8-31.1 30.3h61.4zm13.7 32.6c-1.4 3.5-4.1 9-9.2 14.7-2.8 3.1-12.2 13.4-33.2 13.4-32.2 0-46.2-24.6-46.2-51.7 0-32.2 21.2-50.1 44.8-50.1 29.3 0 44.6 25.6 43.8 50.9h-75.3c-.2 5.1.2 12.6 3.1 20.1 7.7 19.9 25.8 19.9 29.9 19.9 10.6 0 22.8-3.7 31.1-20.3l11.2 3.1zM508.4 116.3h-11.8V19.2h11.8v15.5c6.1-12.8 16.3-17.1 28.3-17.1 2.8 0 4.3.2 6.7.6V29c-3.7-.6-4.1-.6-7.3-.6-3.3 0-12.8.2-19.9 7.7-7.5 8.3-7.5 18.3-7.7 38.3l-.1 41.9z"/><path fill="#00AEBD" d="M153.4 61.9v.2c.2 0 .4 0 .6-.1v-.1h-.6zm-4.5-21.7c-.1 0-.1 0-.2.1.1.1.1.2.2.4.1 0 .2-.1.2-.1-.1-.2-.2-.3-.2-.4M23.5 55.7c-.1 0-.1.1-.2.1.1.1.2.3.3.4l.1-.1c-.1-.1-.2-.2-.2-.4m121.3-12.9l-.1.1c.1.1.3.2.4.3l.1-.1c-.2-.1-.3-.2-.4-.3M28.4 67.2c0 .1.1.1.1.2.1 0 .2 0 .2-.1.1-.1.1-.2.1-.3-.1 0-.3.1-.4.2m30.5 5.9V73h-.6v.2c.2-.1.4-.1.6-.1m-.8 72.4c.1-.2.2-.4.1-.4-.1-.1-.2-.1-.3-.2 0 .1.1.3.2.6m68.6-15.6c.2.1.4.1.6.1v-.1c-.2-.1-.4 0-.6 0M122.8 8.6c0 .1-.1.2-.1.3h.2c.1 0 .1-.1.1-.2 0 0-.1 0-.2-.1M45.2 75.5v.1h.6v-.1h-.6m11.4 69.3s-.1.1-.2.1c.1.2.2.3.3.5.1 0 .1-.1.2-.1-.1-.2-.2-.4-.3-.5m-1 .1c-.1.1-.2.1-.2.2s.1.2.1.3c.1-.1.2-.1.2-.2.1-.1 0-.2-.1-.3M54 13c0 .1-.1.1-.1.2.2.1.3.2.5.3 0-.1.1-.1.1-.2-.2-.1-.4-.2-.5-.3m51.5 121.6v-.2c-.2 0-.4 0-.5.1v.2c.2-.1.4-.1.5-.1m56.3-75.7c0 .1-.1.1-.1.2.2 0 .4.1.6.1-.2-.1-.3-.2-.5-.3m-99.2 84.7c-.1.2-.2.3-.2.4l.3.3c0-.2-.1-.4-.1-.7M20.3 77.4v-.2c-.2 0-.5.1-.7.1v.1h.7zM121.8 7.8h-.1v.8h.1v-.8zM48.6 126.2c.1 0 .1-.1.2-.1-.1-.1-.2-.3-.3-.4 0 0-.1 0-.2.1.1.1.2.2.3.4m.1-122.4c0-.1 0-.2-.1-.3-.2.1-.5.2-.7.3v.1c.4 0 .6-.1.8-.1m41.8 64c.1 0 .1.1.2.1.1-.2.2-.5.3-.7-.1 0-.1 0-.2-.1-.1.2-.2.4-.3.7m69.2-3.9c.1-.1.1-.2.2-.3l-.6-.3c0 .1-.1.2-.1.2.1.1.3.3.5.4m-99.4 8.8c0 .1 0 .1.1.2.3 0 .6-.1.9-.1v-.2c-.4 0-.7 0-1 .1m32.2 44c.1.1.1.1 0 0 .3-.1.5-.3.7-.5l-.2-.2c-.1.3-.3.5-.5.7M32.8 61.4s-.1-.1-.1-.2c-.2.1-.4.3-.6.4 0 .1.1.1.1.2.2-.1.4-.3.6-.4m26.5 79.8H59c0 .3.1.6.1.9h.2v-.9zm86.8-62.9v.3c.3 0 .5-.1.8-.1v-.1l-.8-.1zM168 59.9v.2h.6v-.2h-.6zm-56.9-48l-.1-.1-.6.6c.3-.1.5-.3.7-.5M16 76.7h.2v-.5h-.3c.1.2.1.4.1.5m103.7-73c.1 0 .2.1.3.1.1-.3.1-.6.2-.9h-.3c-.1.3-.1.5-.2.8M57.4 8.2h-.2v.7h.2v-.7M55.2 12c0-.1.1-.2.1-.3-.3-.1-.6-.2-1-.3 0 .1 0 .1-.1.2.4.2.7.3 1 .4M13.7 81.3c-.1-.1-.2-.2-.3-.2-.2.2-.3.4-.5.6l.2.2.6-.6m45.9 58h-.3c0 .3.1.5.1.8h.2v-.8zM24.4 55.6c.1 0 .1-.1.2-.1-.1-.1-.1-.3-.2-.4-.1-.1-.2-.2-.4-.3l-.1.1c.2.3.4.5.5.7m114.2 78c.1 0 .2.1.3.1l.3-.9c-.1 0-.2-.1-.2-.1-.2.3-.3.6-.4.9M14.4 79.8c.1.1.2.1.3.2.1-.2.2-.5.3-.7-.1 0-.1-.1-.2-.1-.1.2-.3.4-.4.6m20.4-3.2v.1c.4 0 .8 0 1.2-.1v-.1h-1.2v.1zm98.1 54.2c.1-.4.1-.7.2-1.2-.5.5-.6.7-.2 1.2M24.4 70.2c0-.1-.1-.1-.1-.2-.3.2-.6.4-1 .6 0 .1.1.1.1.2.4-.3.7-.5 1-.6m35.8 72c-.1 0-.2 0-.3.1.1.2.1.4.2.6h.2c0-.2-.1-.4-.1-.7m5.7-3.2c-.1.1-.2.2-.4.3.2.2.3.4.5.5.1-.1.3-.2.3-.2-.1-.2-.2-.4-.4-.6M13 78.4l-.2.2c.3.2.6.4.9.7.1-.1.1-.2.2-.3l-.9-.6m30.5-2.6v-.1c-.4.1-.8.1-1.3.2v.2c.4-.1.9-.2 1.3-.3M1.7 77.9c-.1 0-.2.1-.4.1.1.2.2.5.3.7 0 0 .2-.1.3-.1 0-.2-.1-.4-.2-.7m63.6 66.3l.3-.3-.8-.8-.2.2c.2.3.5.6.7.9m-2.5 3.3c0-.7 0-.7-.6-1 .2.4.4.7.6 1M3.4 78.2c0 .1-.1.1-.1.2.3.3.6.6 1 .9l.1-.1-1-1m7.2 4.1c.1-.1.1-.2.2-.3-.3-.2-.6-.4-1-.6 0 .1-.1.1-.1.2.3.2.6.4.9.7m52.3 55.1c.3.3.6.8 1.3.8-.4-.7-.8-.8-1.3-.8M42.8 56.9c-.9.2-.9.2-1.3.9.5-.4.9-.6 1.3-.9m7.8-42.6c0-.1.1-.2.1-.2l-1.2-.6c0 .1-.1.2-.1.2.5.3.9.4 1.2.6M14.5 77.1c-.3-.1-.7-.2-1-.3.2.5.4.9 1 .3m102.7-65h.3c.1-.6.1-.6-.3-1.5v1.5m29.2 33.7v-.3h-1.3v.2c.5 0 .9 0 1.3.1M42.9 11.3c-.1.1-.2.1-.3.2.2.5.5 1 .7 1.5.1 0 .2-.1.3-.1-.2-.6-.4-1.1-.7-1.6m-7.8 64v.3c.5-.1 1.1-.2 1.5-.3h-1.5zm86.5-71.4c-.1 0-.2 0-.3.1 0 .3 0 .7.1 1.1.4-.2.6-.3.8-.5-.2-.3-.4-.5-.6-.7m21.6 59.3c0 .1 0 .2.1.3l1.5-.3c0-.1 0-.2-.1-.3-.4.1-1 .2-1.5.3m-27.5-51.3h.3c-.1-.6-.2-1.1-.3-1.7h-.1v1.7h.1zm-20.4 56c.1-.7-.2-1-1-1.1.4.4.7.7 1 1.1m-33.9 74c.5-.3.4-.6.2-.9 0-.1-.2-.1-.4-.1 0 .4.1.7.2 1M164 63.2c0-.1.1-.2.1-.2-.6-.2-1.1-.4-1.7-.7 0 .1-.1.2-.1.3l1.7.6zm-5.8 0c-.7-.7-.7-.7-1.5-.6l1.5.6M11.8 71.1c0-.1.1-.3.1-.4l-1.5-.3v.1c.4.2.9.4 1.4.6m45.9 76.7c.4 1 .4 1 1.2 1-.5-.4-.9-.7-1.2-1M44.5 10.5c.1 1 .1 1 1.1 1.1-.4-.3-.7-.6-1.1-1.1M47 3c-.8.1-1.4.4-1.6 1.1.5-.4 1.1-.8 1.6-1.1m8.8 137.2c-.3-.5-.5-.8-.7-1 0 0-.3.1-.3.2-.2.4.1.7 1 .8m57.8-124.8c.1 0 .2.1.3.1.2-.6.4-1.2.5-1.7-.1 0-.1 0-.2-.1-.2.5-.4 1.1-.6 1.7m-60.5-1c0-.1.1-.2.1-.3-.5-.1-.9-.3-1.4-.4.5.3.7 1 1.3.7m91.9 25l-.2.2 1 1 .2-.2-1-1m5.4 23v.2c.7-.1 1.3-.2 2-.4v-.3c-.7.2-1.4.4-2 .5M51.2 5.5c0-.1.1-.2.1-.3-.6-.3-1.3-.5-1.9-.8 0 .1-.1.2-.1.3.6.2 1.3.5 1.9.8M131 64v.4c.5.1 1.1.1 1.5-.5-.4.1-1 .1-1.5.1M25.4 57c.9.1 1.4-.1 1.8-.5 0-.1-.1-.2-.1-.3-.6.2-1.1.5-1.7.8m131.8 1c.3-.3.5-.6.7-1-.4-.1-.7-.2-.8-.2-.2.4-.5.7.1 1.2m10.7 3l-.5.5c.2.2.4.4.5.4.2 0 .4-.3.4-.5l-.4-.4M54.6 6.8c-.2.1-.5.2-.9.4.7.2 1 .8 1.7.6-.3-.3-.5-.6-.8-1M3.2 76.4c0 .1 0 .1 0 0 .5.6 1 1.2 1.6 1.7 0-.1.1-.1.2-.2-.6-.4-1.2-.9-1.8-1.5m60.4 67c.2.9.8 1.2 1.4 1.6-.4-.9-.4-.9-1.4-1.6m3.9-2.1c0-.4 0-.6-.1-.7-.1-.2-.3-.4-.5-.5 0 0-.4.2-.4.3 0 .2.1.5.2.7.2 0 .4.1.8.2m-19.6-17.2c-.4-.6-.4-1.4-1.5-1.7.4.9.8 1.4 1.5 1.7M23.2 54.5c.1-.8.3-1.5.4-2.2-.6.6-.9 1.2-.4 2.2m29.6 20v-.2c-1 .1-2.1.2-3.1.3v.2c1-.1 2-.2 3.1-.3m114.5-11.8c-.3.3-.6.5-.9.8 0 .1.1.2.1.3.3 0 .6 0 .8-.1.2-.2.5-.6 0-1m-53-50.4c-.4-.3-.8-.5-1.2-.9 0 1 0 1 1.2.9M148 71.7l.2.2c.7-.6 1.5-1.2 2.2-1.7l-.2-.2c-.7.5-1.4 1.1-2.2 1.7M50.1 10.6c0-.1.1-.1.2-.2-.9-.5-1.9-1-2.8-1.5 0 .1-.1.1-.1.2l2.7 1.5M13.6 75c.1-.1.1-.2.2-.3-.5-.3-1.1-.6-1.6-.9 0 .1-.1.1-.1.2.5.3.7 1.1 1.5 1m146.7-12.1c0-.1.1-.1.1-.2-1-.4-1.9-.8-2.9-1.2 0 .1-.1.1-.1.2 1 .4 1.9.8 2.9 1.2M2 79.5c0 .9.4 1.6 1.3 1.9-.4-.6-.8-1.3-1.3-1.9m111.8-68.7h.3V7h-.1c-.1 1.2-.2 2.5-.2 3.8M55.9 142.7c.4.4.3 1.2 1.1 1.4 0-1.1-.1-1.2-1.1-1.4m1.5 0c.1-1.2 0-1.2-.9-1.8-.1.7.2 1.2.9 1.8M46.6 11.9c.4.7 1 1.1 2 1.4-.5-1-1.3-1.2-2-1.4m47.5 59v-.3c-.7.1-1.4.1-2.3.2.9.7 1.6.4 2.3.1m67.4-4.4c1.3.5 1.5.5 2.4-.5-.9.2-1.5.3-2.4.5m-33.9-1.7c-.8.1-1.3.3-1.9.3-.5.1-1.1 0-1.6.1.6.5 2.2.3 3.5-.4m-117 20H6.5c1.5.6 2.8.2 4.1 0M8 83c-.3-.2-.7-.4-1-.5-.4-.1-.8.1-1.2.1 1.1.9 1.2.9 2.2.4M115.2 3.8c.5-.5.7-1.2.5-2-.9.5-.7 1.2-.5 2M2.1 77.1c0-.8-.1-1.5-.1-2.5-.9 1.6-.9 1.8.1 2.5m4.1-6.8c-1.6-.3-2.2-.1-2.7.9.9-.3 1.7-.6 2.7-.9M54 142.5c-.1 0-.2.1-.3.1 0 1.3.3 1.7 1.3 1.5-.4-.6-.7-1.1-1-1.6m7.7-4.3c-.8.7-.7 1.3.3 1.9.4-.8 0-1.3-.3-1.9m-13.6-15.8c.2.3.5.5.6.8.2.3.2.7.3 1.1.1.3.3.5.4.8.1-1.3.1-2.4-1.3-2.7m88.8 7.5c.1 0 .2.1.3.1.4-1.1.8-2.2 1.1-3.4-.1 0-.2-.1-.2-.1-.6 1-.9 2.2-1.2 3.4m5.9-2.4c0 .3-.1.7 0 .8.7.4.4.9.2 1.5-.1.3-.1.7-.2 1 1-1.2 1-2 0-3.3m-1.8 1.6c.5-.6.8-1.1.4-1.5-.2-.2-.7-.4-.8-.3-.2.3-.3.7-.6 1.2.5-.3.7-.4 1-.5v1.1zM12.7 71c.6.9 1.6 1.3 2.6 1.5-.7-.8-1.6-1.2-2.6-1.5m52.6 75.3c-.7-.3-.6-1.4-1.5-1.4-.1.9.4 1.9 1 2 .1-.1.3-.3.5-.6m70.6-19.2c.1 0 .2 0 .2.1.3-1 1.2-1.7.8-3-.3.2-.5.3-.6.4-.1.8-.3 1.6-.4 2.5m-81.6 13.2c-.6 1.1-.5 1.4.7 2.1.4-1 .3-1.2-.7-2.1m15.8-4.2c-1.1.8-2.2 1.5-3.4 2.4 1.1 0 2-.6 3.4-2.4m84.1-68.2c1-.7 1.9-1.3 3.1-2.1-.5-.1-.7-.2-.8-.1-1 .4-1.7 1.2-2.3 2.2M148 44.7c1.4-.5 1.8-1.2 1.7-2.9-.5 1-1 1.8-1.7 2.9M118.2 2c-.1 1.2-.1 2.2-.2 3.2h.2c.3-.9.6-1.9.9-2.9-.2-.1-.5-.2-.9-.3m24.2 61.5c-1.2.1-2.2 0-3.1.9 1.3.4 2.1-.1 3.1-.9M53.7 4.9c.1-.1.1-.2.2-.2-1.1-.8-2.2-1.4-3.7-1.1 1.2.4 2.3.8 3.5 1.3m85.6 130c1.4-.2 2.4-1.1 2.7-2.4-.9.9-2 1.2-2.7 2.4M28 53c.1-.1.2-.1.3-.2-.1-.8-.7-1.1-1.3-1.4s-1.2-.5-1.8-.1c-.1 0 0 .3.1.6.4-.2.7-.3 1-.5.6.6 1.1 1.1 1.7 1.6m80.9 15.2c-3-.4-4-.2-4.9.6 1.8-.2 3.4-.4 4.9-.6m53.5-6.8c0-.1.1-.2.1-.3-1.9-.8-3.8-1.6-5.7-2.3 0 .1-.1.2-.1.2 2 .8 3.8 1.6 5.7 2.4M114.8 10c.1-1.4.3-3.2.4-5h-.3c-.1.2-.2.4-.2.5.1 1.6.1 3.3.1 4.5M26 67.9c-2.8 1.3-4 2.1-4.6 3.1.8-.5 1.5-1 2.3-1.4.7-.4 1.5-.8 2.3-1.7m89.1-1.8c.9.1 1.7.2 2.6.3.6 0 1.1-.2 1.2-.9-1.3 0-2.6.1-3.8.6m-79.5-3.8c-.1-.1-.1-.3-.2-.4-.4.1-.7.2-1.1.4-1.9 1.1-2.1 1.3-2.4 2.2 1.3-.7 2.5-1.4 3.7-2.2m81.8-61c-1.4-.8-1.4-.8-2.2-.2.6.1 1.1.2 1.6.3-.1 1.2-.3 2.2-.4 3.3h.2c.3-1.1.5-2.2.8-3.4M45 126.5c0 .1-.1.1-.1.2.2.2.3.5.5.7.6.8 1.5 1 2.2.3.2-.1.2-.4.3-.6 0-.1-.2-.3-.4-.3s-.5.1-.6.3c-.1.1-.2.4-.3.7-.6-.5-1.1-.9-1.6-1.3m27.8-88.3c-.1-.1-.1-.2-.2-.3-1.8.9-3.5 2.1-5.1 3.2 0 .1.1.2.1.2 1.7-1 3.5-2 5.2-3.1M8 71.8c.9 1 1.9 1.8 3 2.4-.6-1.2-1.2-2.5-3-2.4m148.5-12c1.1 1.1 3.7 2.2 4.9 2-1.8-.7-3.3-1.6-4.9-2M47.7 126c-.4-.6-.6-1-.9-1.4-.4-.6-.8-1.3-1.3-1.9-.3-.4-.6-.3-.9 0 .6 1.1 1.7 2.4 3.1 3.3m23.9 15c2 0 3.9-.6 5.8-1.2-2 .3-4 .3-5.8 1.2M25.8 66c-2 .7-3.3 2.2-4.7 3.6 1.6-1 3.2-2.1 4.7-3.2V66M6 71.8c.4.9 3.9 3.7 5 4.1-.8-.7-1.6-1.4-2.4-2.2-1.3-1.3-2-1.8-2.6-1.9m127-6.7v.3c1.9.3 3.6-.4 5.5-.8-.7-.1-1.5-.2-2.2-.1-1.1.1-2.2.4-3.3.6m-75.3 80.6c0 .4-.1.6 0 .7.8.8 1.6 1.7 2.4 2.4.2.1.6 0 .8 0 0-.1.1-.2.1-.3-1-.8-2-1.7-3.3-2.8M14.1 83.6c.5 1.4 3.6 5.3 4.5 5.8-1.4-2.2-3-4-4.5-5.8m-6-6.6l-.2.2 3.9 3.6c.4.4.7.4 1-.3-1.6-1.1-3.2-2.3-4.7-3.5M54 8.5l.2-.2c-.1-.1-.2-.1-.3-.2l-6.6-3.3c-.1-.1-.4.1-.6.1v.2c2.4 1.2 4.8 2.3 7.3 3.4m4.3 98.1c0-.1.1-.2.1-.3-.4-3.3-.9-6.6-1.3-9.9l-.1-.1h-.3c.3 3.5.8 6.9 1.6 10.3M43.6 54.2c0 .1.1.1.1.2.2-.1.4-.1.5-.2 1.6-.9 3.1-1.9 4.7-2.8.7-.4 1.4-.9 2.1-1.4.2-.1.2-.3.3-.5l-.2-.2c-2.5 1.6-5 3.3-7.5 4.9m46 15.8c-1.1-.2-8.3 1-10.1 1.7 1.1.2 9.3-1.3 10.1-1.7m-66.8 8.7v.3c.8 0 1.6.1 2.4 0 2.2-.3 4.4-.7 6.6-1 .9-.1 1.8-.3 2.7-.5v-.2c-3.9.4-7.8.9-11.7 1.4m23-72.8c-.5.7-.2.9.3 1.2 1.5.7 2.9 1.4 4.4 2.1 1.1.5 2.1 1 3.2 1.4 0-.1.1-.1.1-.2-2.6-1.5-5.2-3-8-4.5m122.6 53.2c.1-.1.2-.1.3-.2-.6-.8-.4-2.2-2-2.2-.1 0-.3-.2-.4-.3-.7-1.1-1.9-.9-2.9-.9.2.2.5.3.7.5.7.6 2 .7 2.1 2 0 .2.4.3.6.4.5.3 1 .5 1.6.7M4.8 72.7c.5 1.3 6.2 6.2 8.3 7.1-2.5-2.3-5-4.6-7.6-6.8-.1-.2-.4-.2-.7-.3m107.6 59.7v-.3c-4.8 1-9.6 2-14.4 2.9 0 .1 0 .2.1.3 4.7-.9 9.5-1.9 14.3-2.9M68.6 6.5v-.3H58c.1.9.6.8 1.1.8 3.1-.2 6.3-.4 9.5-.5M58.4 137.4c.6.4 1.1.6 1.6.9-.1-.7-.1-1.1-.2-1.5-.9-.3-2.7-.1-3.4.4-.4.2-1 .4-.8 1.2.4-.6.4-.6 1.2-.6-.3 1.3-.5 2.5.9 3.2 1.1-1-.6-1.5-.4-2.4.4.2.7.3 1.2.5 0-.7 0-1.1-.1-1.7M10.2 80.6l-5.7-6.3c-.2-.2-.4-.2-.6-.4-.5.6-.5 1.1 0 1.6 1.9 1.9 3.9 3.7 6.3 5.1M58.6 9.3c5.7-.9 11.2-1.9 16.7-2.8v-.2c-5.6.4-11.2.9-16.9 1.3.1.6.2 1 .2 1.7M33.5 110c-1.1-2.4-12.7-18-14.2-19 4.2 6.8 9 13 14.2 19M18 76.8c.2 0 .4.1.6.1 3-.3 6-.7 9-1.1 6.1-.8 12.1-1.5 18.2-2.3 2.1-.3 4.2-.5 6.3-.8.4 0 .7-.2 1.2-.4-.2-1.8-.3-3.5-.5-5.2-.6.1-.9.1-1.3.2-2.9.6-5.7 1.2-8.6 1.9-4.2 1.1-8.5 2.2-12.7 3.3-3.9 1.1-7.8 2.2-11.6 3.3-.6.2-.8.4-.6 1m140.3-10c-.4.4-.7.5-.8.7-.2.8-.9 1.1-1.4 1.5-1.9 1.4-3.7 2.7-5.5 4.1-.5.3-.6.7-.5 1.3.1.6.1 1.2 0 1.8-.4 1.7-1.7 2.5-3.2 3-.8.3-1.1.7-1.2 1.4-.2 1.4-.5 2.8-.6 4.3-.5 4.8-.8 9.7-1.4 14.5-.5 4.7-1.2 9.4-1.8 14.2-.1.5 0 1.1-.3 1.5-.9 1.1-.5 2.5-.9 3.7.2-.2.3-.3.4-.5.7-2.5 1.4-4.9 2.1-7.4.3-.9.3-2 .9-2.6.9-.9 1.1-2.1 1.6-3.1 2.1-5.5 4.2-11.1 6.2-16.7 1.3-3.5 2.5-7 3.8-10.6 1-2.8 2-5.5 3-8.3.2-.5.3-1 .4-1.7-.3.2-.5.3-.7.4-.2-.5-.2-.9-.1-1.5M99.9 51.5c.8-.1 1.3-.1 1.8-.2 2.4-.6 4.7-1.2 7-1.8 4-1 8.1-1.9 12.1-2.9 2.8-.7 5.5-1.2 8.3-2 4-1.1 8-2.3 12-3.4 1.3-.4 1.7-1.3.8-2.4-1.4-1.8-2.8-3.6-4.3-5.2-2.5-2.8-5.1-5.6-7.7-8.4-1.4-1.6-2.8-3.2-4.6-4.4l-.6-.6c-1.7-2-3.5-3.9-5-5.9-.8-1-1.7-1.3-2.8-1.1-.3 0-.7.2-1 .2-.7 0-1 .3-1.2.9-.5 1.4-1 2.8-1.6 4.1-.2.5-.1 1.4-1 1.3 0 0-.2.5-.1.5.5.4.1.6-.2.9-.2.3-.4.6-.6 1-.6 1.8-1.2 3.5-1.8 5.3-.3.8-.6 1.7-.9 2.5-.3.8-.7 1.6-.9 2.5-.2.8-1.2 1.3-.8 2.3 0 .1-.1.2-.2.3-.2.2-.5.5-.6.7l-1.8 4.5c-1.3 3.8-2.8 7.4-4.3 11.3M51.8 39.6c.2 0 .3.1.3 0l6.9-3.3c2.4-1.2 4.7-2.4 7-3.6 3.9-2 7.7-4 11.6-5.9 2.9-1.4 5.6-2.9 8.3-4.7 3.4-2.2 6.9-4.3 10.4-6.2 4.2-2.3 8.4-4.4 12.7-6.6.2-.1.6-.3.6-.6.1-1.1.2-2.2.3-3.5-.6 0-1-.1-1.4-.1h-8.7c-4.6.1-9.2.3-13.8.5-1.3.1-2.6.1-3.9.3-3.5.4-6.9.9-10.3 1.4L60.1 9.1c-1 .2-1.6.5-1.9 1.6-.7 2.3-2.4 3.8-4.5 4.8-1.1.5-2.3.8-3.6 1.2-.1 7.9.5 15.4 1.7 22.9m62.3 26.7c0-.1-.1-.2-.1-.3-5.1.7-10.3 1.3-15.4 2 2.6-.6 5.2-1 7.8-1.4 1.6-.3 3.3-.5 4.9-.7 1.7-.2 3.4-.5 5.1-.7l9.3-1.2c2.1-.3 4.2-.7 6.3-.9.7-.1 1.4.1 2 0 1.8-.1 3.6-.3 5.3-.5 2.1-.2 4.2-.5 6.3-.7l3.6-.6c1.5-.2 3-.3 4.4-.4.7-.1 1-.3 1-1 0-1.5.5-2.9 1.5-4.1.1-.1.1-.3.2-.4-.1-.2-.1-.3-.2-.4-2.5-2.8-4.9-5.6-7.4-8.4-.4-.4-.8-.4-1.2-.3-1.4.5-2.8.2-3.9-.8-.7-.6-1.1-1.4-1.3-2.3-.1-.4-.3-.8-.5-1.4-1.5.4-2.9.8-4.3 1.2-3.8 1-7.5 2.2-11.3 3.1-7.3 1.8-14.5 3.5-21.8 5.2-1.3.3-2.5.7-3.8 1.1-.4.1-1.1.6-1.1.9 0 1-.5 1.7-.8 2.5-.8 2-1.6 3.9-2.5 5.8-.1.2-.3.5-.4.7-.1 0-.2-.1-.3-.1.7-3 2-5.9 2.9-9.1-2 .6-3.8 1.1-5.6 1.6-4.4 1.4-8.8 2.7-13.2 4.2-3.1 1-6.1 2.4-9.2 3.4-4.5 1.6-9.2 2.8-13.9 3.8-.6.1-1.2.3-1.9.5.1 1.6.2 3.2.3 4.7 0 .6.4.9 1 .8.4 0 .8 0 1.2-.1v.2c-.2.1-.3.2-.6.3h.9c1.1-.1 2.3 0 3.1-.5 1.1-.6 2-.1 3-.3 2.1-.4 4.2-.7 6.3-.9.4-.1.9.1 1.3.1.3 0 .7-.1 1-.2.1 0 .3-.2.4-.2 1.1.4 2.3.1 3.4-.1.5-.1 1-.2 1.5.3-1.8.3-3.5.6-5.3.8 5.6-.3 11.1-1.6 16.7-2.3.2-.6.3-1 .4-1.5.6-2.2 3.7-3 5.5-1.5.8.6 1.5 1.3 2.3 2-.1.2-.3.4-.5.6 0 .1.1.2.1.2.5-.1 1.1-.3 1.7-.4 2.5-.4 4.9-.7 7.4-1l5.7-.6c1.2-.2 2.1-.1 2.7-.7M80.2 29.7c-1.4.6-2.4 1.6-3.5 2.5 1.3-.6 2.6-1.2 3.5-2.5.9-.5 1.8-1 2.7-1.6 3.3-2.1 6.3-4.5 9.7-6.3 2.1-1.1 3.9-2.8 5.8-4.2v-.2c-.4.1-.8.3-1.2.4.4-.3.8-.7 1.2-.9l7.8-4.8c.7-.5 1.5-.9 2.2-1.4-1 .2-1.9.7-2.8 1.1-6.1 3.1-12.2 6.3-17.9 9.9-2.2 1.4-4.4 2.8-6.8 4.1-3.7 2-7.6 3.9-11.4 5.8L64.7 34c-2.7 1.3-5.4 2.7-8.1 4-1.3.7-2.6 1.4-4 2-.7.3-.9.9-.8 1.6.2 1.7.4 3.5.6 5.2 0 .2.1.4.2.6.3-.1.5-.1.7-.3 2.2-1.3 4.5-2.6 6.7-4 2.7-1.7 5.4-3.5 8.1-5.4 5.9-4.3 11.7-8.6 17.6-12.9 1.5-1.1 3.2-2 4.7-2.9-.4.3-.7.7-1.1 1-2.2 1.5-4.4 3-6.5 4.6-.9.8-1.7 1.5-2.6 2.2M94 23.4c-.4.2-.8.4-1.2.7.1.1.1.2.2.3.3-.4.6-.7 1-1 .4-.2.7-.3 1.1-.5.4-.2.8-.4 1.2-.5-.8.6-1.6 1.3-2.5 1.9-2.8 1.9-5.7 3.8-8.5 5.8-1.9 1.4-3.8 2.9-5.7 4.3-3.9 2.7-7.8 5.3-11.7 7.9l-11.1 7.2c-.8.5-1.7.9-2.6 1.3l1.2-1.2c-1.3.3-1.6.5-2.1 1.4.3-.1.6-.1.9-.2-.5.6-1.1 1-1 2 .5 4 .8 8 1.2 12 0 .4.1.7.2 1.1.3 0 .6 0 .8-.1 3.2-.8 6.3-1.7 9.5-2.4 2.7-.6 5.3-1.7 7.9-2.8 1.4-.6 2.8-1.1 4.2-1.6 3-1 6-2 9-2.9 4-1.3 8-2.5 12.1-3.7.5-.1.9-.3 1-.8.5-1.7 1-3.3 1.5-5 .2-.7.5-1.4.8-2.1.2-.4.4-.7.6-1.1.7-1.7 1.3-3.4 2-5.1 1.7-4.5 3.4-9 5.1-13.4.6-1.6 1.1-3.3 1.9-4.7 1.2-2.2 2-4.5 2.9-6.8-.3-.2-.6-.3-.8-.5-.7-.6-1.3-.5-2 0-.8.6-1.6 1.1-2.4 1.7-1.3.8-2.6 1.5-3.8 2.3L98 21.7c-.5.3-1 .5-1.6.8.4-.3.7-.7 1.1-1 1.3-1 2.7-1.9 4-2.9.2-.1.4-.4.5-.6-.3-.1-.4-.1-.5 0-1.9 1.2-3.8 2.5-5.7 3.7-.8.3-1.4.9-1.8 1.7m42.1 59.9c-.2 0-.3 0-.5.1-1.8.6-3.1 2.1-4.4 3.4-.1.1-.1.4-.2.6-.8.7-1.6 1.4-2.3 2.2-.3.3-.6.7-.8 1.1-.6.9-1.4 1.4-2.3 1.8-.7-.5-1.1.1-1.5.5-.7.6-1.4 1.2-2.1 1.6-1.1.7-1.8 1.8-3.2 2 .2-.2.3-.4.5-.5 1.6-1.3 3.3-2.5 4.9-3.8 1.2-.9 2-2.2 3.4-2.9.7-.4 1.3-1.1 1.9-1.7.3-.3.6-.5.4-1.1-2.3 1.8-4.5 3.6-6.8 5.4-.1-.3-.2-.4-.3-.6-.3.1-.6.2-.9.2 1.3-1 2.5-2 3.8-3 2.4-1.9 4.8-3.8 7.2-5.6 1-.8 1.8-1.9 3.2-2.2.1.3.4.3.6.2 1.7-1.3 3.4-2.6 5-4 0 0-.2-.3-.3-.5.2-.6.4-1.3.5-1.9.2-2.8 2.1-4.1 4.7-3.2.6.2 1.1.1 1.5-.3 1.4-1.1 2.9-2.1 4.3-3.2 1.2-.9 2.5-1.9 3.9-2.9-.5-.6-.9-1.1-1.3-1.6-.9.2-1.8.5-2.6.6l-8.4 1.2c-.4.1-.8.1-1.1.1-.7 0-1.4 0-2.1.1-2.3.4-4.7.9-7 1.3-2.8.5-5.5.8-8.4.6-.8-.1-1.6-.1-2.4 0-2.8.3-5.7.5-8.5.9-3 .4-6.1.8-9.1 1.2-1 .1-2 .2-3 .4-.5.1-1-.5-1.4.1 0 .1-.4 0-.5-.1-.6-.6-1.3-.4-1.9-.1-1 .4-2.1.9-3 1.5-1.2.8-2.5 1.1-3.9.5-.9-.4-1.8-.6-2.8-.4-2.5.4-5.1.7-7.6.9-3.1.2-6.2.4-9.2.9-5.1.9-10.2 1.5-15.4 2.3-.4.1-.7.1-1.3.3.1 2.4.2 4.7.4 7 .3 2.9.9 5.7 1.2 8.6.6 5.4 1.2 10.7 1.8 16.1.5 5.4.9 10.7 1.5 16.1.4 3.9 1.1 7.7 1.7 11.6.3 1.8.5 2 2.4 2.2.2-.4.4-.9.6-1.4 1.1-3.2 2.1-6.4 3.3-9.5.8-2.1 1.8-4 2.7-6 .1-.2.3-.4.5-.6l.2.2c0 1.3-.7 2.4-1.2 3.7-.1-.3-.2-.4-.3-.7-.3.8-.6 1.4-.8 2-.6 1.7-1.2 3.5-1.8 5.3-.1.3-.3.5-.4.8l-2.1 6c-.1.2-.1.5-.1.8 1.1.3 1.7-.5 2.4-1 1.3-.9 2.4-2 3.6-3 1.1-.9 2-1.9 3.2-2.7 1.9-1.3 3.6-2.9 5.4-4.5.7-.7 1.6-1.2 2.4-1.8.5-.1.9-.4.9-.9.4-.4.7-.8 1.1-1.2.8-.7 1.7-1.4 2.6-2.2-.1.2-.2.4-.3.7 0 0 .1 0 .1.1.2-.2.4-.5.7-.7.2-.1.4-.1.6-.3 2.1-1.8 4.1-3.5 6.2-5.3.9-.8 1.7-1.6 3-2-1 .9-1.9 1.8-2.9 2.7l.1.1 1.2-.6.3.3c.1 1.1-1.3.8-1.4 1.7 0 .1-.3.1-.4.2-.5.3-1.1.5-1.5.8-1.4 1.1-2.8 2.2-4.2 3.2-1.7 1.3-3.4 2.5-5 3.9-.8.8-1.6 1.5-2.5 2.2-1.5 1.2-3 2.4-4.5 3.7-.3.3-.5.7-.8 1-.5.6-1 1.2-1.5 1.7l.1.1c.8-.5 1.6-1 2.4-1.6 0 .1.1.1.1.2l-8.4 6.9c.2.5.4 1 .6 1.4 1.6-.3 3.1-.5 4.6-.8 1.3-.3 2.6-.8 3.9-1.1 3.4-.8 6.9-1.5 10.3-2.1 2.6-.5 5.3-1 7.9-1.5 4-.8 8-1.7 12-2.5 1.5-.3 3.1-.6 4.6-.9 1.9-.4 3.8-.7 5.7-1.1 1.6-.3 3.1-.8 4.7-1.1 1.7-.4 3.5-.7 5.2-1 .3-.1.6.1.9 0 1.3-.1 2.7-.3 3.1-1.3.8-2.5 2.9-3.3 5.2-3.7.8-.2 1.6-.2 2.4-.3.1-.3.2-.6.2-.8 1-4.8 1.6-9.6 2.1-14.5.2-2.5.5-5.1.7-7.6 0-.3.2-.6.3-.8-.3 2.6-.5 5.1-.4 7.7.2-1.5.4-2.9.5-4.4l.9-8.7.9-9c.2-1.9.4-3.7.6-5.6.1-.7 0-1.2-.6-1.3-.5.4-1.2.5-1.3.9-.3.8-1 1-1.6 1.4-1.6 1.2-3.3 2.4-4.9 3.6-1.2.9-2.2 2-3.7 2.3.4-.4.8-.8 1.3-1.2.5-1 1.2-1.6 2-2.3 1.8-1.1 3.7-2.2 5.1-3.9-.5-.4-.8-.3-1 0-.4.8-1 1.2-1.8 1.5-.3.1-.4.4-.7.6-.4.3-.7.7-1.1 1-.1.3-.3.6-.5.8m23-28.6c-.5.3-1 .5-.8 1.3.4-.1.8-.1 1.3-.2-.7-.2-.8-.6-.5-1.1 1.3.5 2.6 1.1 4 1.7 0-.1.1-.2.1-.3-1-.7-2-1.3-3.2-1.6-.3-.1-.6.2-.9.2M45.3 55.8c-.3.1-.7.1-.8.5.1.1.1.2.2.2.2-.3.4-.5.6-.7.5-.2 1-.4 1.5-.7 1.3-.8 2.5-1.6 3.7-2.4.3-.2.5-.4.8-.6 0-.1-.1-.1-.1-.2-2 1.3-4 2.6-5.9 3.9m3.8-44.4c-1.2-.8-2.4-1.5-3.8-1.9.1.4.3.6.5.8.7.4 1.3.7 2 1 .4.1.9 0 1.3.1.4 1.2 1.6 1 2.4 1.5 0-.1.1-.2.1-.3-.8-.4-1.7-.8-2.5-1.2M163.2 65c-.6-.2-1.2-.5-1.8-.7.5.5.9 1.1 1.8.7.4.1.9.2 1.3.4 1 .4 1 .5 1.7-.5-.2-.1-.4-.2-.6-.2-.7 0-1.5-.1-2.2-.1-.1-.1-.2.2-.2.4M28.4 76.5c-1.6.1-3.2.1-4.8.2v.4c1.7-.3 3.3-.5 4.8-.6 1.8-.3 3.7-.3 5.5-.8-.1-.1-.3-.2-.4-.1-1.6.2-3.2.5-4.9.7 0-.1-.1.1-.2.2m25-67.4c.7.7 1.5 1.2 2.6 1.4-.5-.8-.5-.8-2.6-1.4-.6-.5-1.2-.7-1.9-.9 0 .1-.1.2-.1.3.7.1 1.4.4 2 .6m3.9 37.3c1.2-.4 2.3-1 3-2.1.2-.1.5-.2.7-.3l4.8-3.3c.9-.6 1.8-1.2 2.6-1.8.2-.1.3-.3.4-.5l-.2-.2c-3 1.7-5.8 3.7-8.6 5.7-.4.3-.9.5-1.3.8-1.8.8-5.3 3-5.9 3.9.6-.3 1-.6 1.3-.8.7-.4 1.3-.7 2-1.1.3-.2.6-.3.9-.5.1.1.2.1.3.2m62-35.5c.1.2.2.4.2.6 1.1-.6 1.1-.6.9-1.4-.1.6-.5.9-1.1.8-.1-.5-.3-1.1-.4-1.7-.1 0-.1 0-.2.1.2.5.4 1 .6 1.6M29.2 63.4c.4-.2.8-.4 1.3-.6-.1-.1-.1-.2-.2-.3-.4.3-.7.6-1.1.9-.5.2-1 .5-1.5.7.1.1.1.2.2.3.4-.3.9-.6 1.3-1m132.4-6.6c.4.3.8.5 1.3.8 0-.1.1-.2.1-.3-.4-.2-.9-.4-1.4-.5-.3-.1-.6-.2-.9-.4 0 .1 0 .2-.1.2.4.1.7.1 1 .2M60.3 146.1c-.1 0-.2 0-.3.1.1.1.2.3.3.4 0 0 .1 0 .1-.1s-.1-.3-.1-.4c.2-.8.2-.8-.5-1.2.2.5.3.8.5 1.2M26.6 68.5c.3-.1.5-.2.8-.4-.1-.1-.1-.2-.2-.2-.1.2-.4.4-.6.6-.3.2-.7.3-1 .5 0 .1.1.2.1.2.2-.1.4-.1.7-.2-.6.5-1.2 1.2-2 1.6-1.9 1.2-3.9 2.3-5.8 3.4-.1 0-.2.1-.2.1-.2.3-.4.6-.4.8 0 .4.5.4.8.3.5-.1.9-.2 1.3-.4 2-.6 4-1.3 6-1.8 3.6-.9 7.2-1.8 10.7-2.7 4-1 8.1-2 12.1-3l3.6-.9c.1-2.6-.9-12.9-1.2-13.7-.2.1-.5.2-.7.3l-9.3 6c-4 2.7-7.9 5.4-11.9 8.1-1 .7-2 1.2-3.1 1.8.1 0 .2-.2.3-.4m16.6 56.4c0-.2-.1-.4-.1-.7.1 0 .2-.1.2-.1.6.6 1.2 1.3 1.8 1.9.1-.1.2-.1.3-.2-.5-.8-.9-1.6-1.4-2.4-.6.1-1.2.2-1.8.4.4-.4.7-.8 1.1-1.2-.2-.3-.5-.7-.7-1-2.6-3-5.3-5.9-7.8-8.9-2.9-3.5-5.9-6.9-8.6-10.6-2.8-3.8-5.5-7.7-8.2-11.5l-4.2-6c-.1-.2-.2-.3-.4-.5-.3.1-.5.2-.7.3-2.4 1.6-4.9 1.6-7.5.5C1.1 83.2-.9 79.2.4 75c.3-.9 1-1.8 1.5-2.6.3-.4.6-.8.8-1.3.5-.9 1.2-1.4 2.2-1.5h.3c2.2.1 4.4.2 6.6.4 1.7.1 3.2.9 4.6 1.9l.9-.6c1.5-1.2 3.1-2.4 4.6-3.6 1.5-1.1 2.8-2.4 4.4-3.4 1.9-1.2 4-2.2 6-3.4 3.1-1.9 6.2-3.8 9.2-5.7 2.8-1.8 5.6-3.7 8.4-5.5.4-.3.8-.5 1.2-.8.2-.2.4-.6.4-.8 0-2.2-.2-4.3-.6-6.6-.5.3-.9.5-1.3.7-3 1.6-5.9 3.3-8.9 4.8-2 1-4.1 1.8-6.2 2.7-1.4.6-2.9 1.3-4.3 2-.2.1-.4.3-.7.4.5.7 1.1 1.2 1 2.2-.3 2.1-2 4-4.1 4.3-1.2.2-2.2-.2-2.9-1.3-.4-.8-.8-1.6-1-2.4-.4-1.5.2-2.8 1.4-3.7 1.2-.9 2.5-.6 3.8-.2.4.1.7.4 1.2.7 1.9-.9 3.9-1.8 5.8-2.7 1.3-.6 2.6-1.1 3.8-1.7 1.8-.8 3.5-1.7 5.2-2.6 2-1 3.9-2.1 5.8-3.2.9-.5 1.2-1 1.1-2-.2-1-.2-2-.4-3.1-.1.3-.1.7-.2 1h-.1c-.1-2.5-.2-5-.4-7.5-.4-4-.8-7.9-1.2-11.9-.1-.5-.2-.9-.7-1.1-.5-.2-.9-1-1.6-.6-2.1-.8-3.8-3.4-3.8-5.7 0-1.8.6-3.3 1-4.9.5-1.7 1.9-2.7 3.6-3 3.8-.8 7.1.3 9.9 2.8.5.4 1 .6 1.6.6 4.4 0 8.8.1 13.1-.1 4.7-.1 9.3-.5 14-.7 5.1-.2 10.1-.3 15.2-.4 2.2-.1 4.5-.2 6.7-.3h1.9c.6 0 .9-.3 1.1-.8.2-.6.5-1.3.9-1.8s.9-.9 1.4-1.3c.4-.3.8-.5 1.2-.7.8.1 1.7.2 2.6.2 2.7 0 4.5 1.5 6.1 3.4.4.4.6.9.9 1.4 1 1.5 1.1 2.9.2 4.5-.9 1.6-1.9 2.9-3.7 3.7.7.9 1.3 1.7 2 2.5 1.5 1.8 2.9 3.7 4.6 5.3 3.2 3 5.8 6.5 8.8 9.6.5.5.9 1.3 1.8 1.4.1 0 .2.2.2.2 1.6 2.4 3.6 4.4 5.6 6.4 1-.7 2-1.2 3.4-.9 1.5.4 2.5 1.3 3.4 2.4 1.3 1.6 1 3.4-.9 5.9 2.6 3 5.3 6 7.9 8.9 1.2-.4 2.3-.9 3.4-1.1.7-.2 1.5-.2 2.3-.1 2.2.4 4.1 1.3 5.6 3 1.1 1.2 1.7 2.7 1.3 4.3-.5 2.3-1.6 4.2-3.6 5.5-.8.6-1.7.9-2.7 1-.8.1-1.6-.1-2.3.5-.1.1-.5-.1-.9-.2-.7 1.7-1.4 3.4-2 5.1-1.6 4.8-3.2 9.7-4.6 14.6-1.4 4.8-2.7 9.7-4.1 14.6-.2.8-.5 1.5-1 2.2 1-3.9 2-7.9 3-11.8-.1 0-.1 0-.2-.1l-.9 2.1c-1.4 3.8-2.8 7.7-4.1 11.5-1.4 4-2.8 8.1-4.2 12.2-.5 1.5-.9 3.1-1.3 4.7-.2.8-.1 1.5.5 2.1.6.5 1 1.3 1.5 2 .1-.2.3-.4.5-.6.6.1.7.5.8 1 .7 2.4 0 4.5-1.6 6.4-1.2 1.4-2.8 2.4-4.7 2.4-.1 0-.1-.1-.4-.1.6-.2 1-.3 1.6-.5-.2-.3-.3-.4-.5-.6-.6.5-1.6-.3-2 .6l-.4.8c-.5-.2-.9-.3-1.4-.5 0-.6-.1-1.1-.6-1.6-.3-.4-.3-1-.4-1.5-.1-.4-.1-.8-.2-1.2-.4.9.3 2.1-1.1 2.7-.5-1.1-1.6-1.9-1.2-3.2.2 0 .4.1.6.1 0-.6-.2-.8-.8-.7-1.2.2-2.3.5-3.5.7-.5.1-1 .6-1.4-.2 0-.1-.5 0-.7 0-1.7.3-3.3.7-5 1-.3.1-.6.1-.9-.1.3-.1.7-.3 1-.4v-.2c-.9.2-1.7.4-2.8.6.4.1.6.1 1 .3-.7.2-1.2.4-1.7.5-4.3.9-8.6 1.9-13 2.8-.4.1-1-.1-1.6-.2-.1.1-.2.3-.3.4-.2.2-.2.2-.7-.1-.2-.1-.4-.1-.6-.1-2 .4-3.9.8-5.9 1.2l-10.2 2.1c-.4.1-.9 0-1.1.7 0 .2-.7.4-1 .3-.7-.4-1.2-.1-1.8.1-2.2.6-4.3 1.2-6.5 1.7-1.7.4-3.5.7-5.2 1.2.3 0 .5.1 1.1.2-.4.2-.6.3-.8.3-.7.2-1.5.4-2.2.7-.5.2-.7 1.1-.4 1.8-.8 1.3-2 2.3-3.2 3.2-.5.4-1.3.4-1.9.7-.4.1-.7.4-1.1.6-1.8-.4-3.7-1.2-5.5-2.1-1.4-.7-2.2-1.7-2.3-3.1-.2-1.3 0-2.6.2-3.9.1-.6.6-1.1.9-1.7.2-.5.4-1.1.6-1.8 1.1-.3 1.9-1.6 3.4-1.5 1.2.1 2.5-.3 3.9.3-.1-1-.3-1.9-.4-2.9-.2.3-.3.5-.4.7-.5-.4-.5-1-.5-1.6 0-1.7 0-3.3-.2-4.9-.3-2.3-.7-4.5-1-6.8-.5-3.4-1-6.9-1.5-10.3-.4-3.1-.9-6.1-1.3-9.2-.3-2.1-.4-4.2-.7-6.2-.2-1-.2-2 0-3v-.1c-.1-.6-1.2-1-.2-1.7-.1-.7-.3-1.3-.3-2 0-1 .1-1.9.1-2.9 0-1.2 0-2.5-.4-3.5-.7-1.9-.7-4-1.2-6.1H52c-5.2.6-10.4 1.2-15.5 2.1-4.1.7-8.2 1-12.3 1.5-.5.1-1 .2-1.5.2-.4 0-.8-.3-1.2-.7-1.5.4-3 .8-4.5 1.3-.3.1-.7.3-.9.6-.5.7-.9 1.5-1.4 2.4.8 1 1.8 2.2 2.7 3.3 2 2.6 4.1 5.2 6.1 7.9 2.9 3.9 5.6 8 8.6 11.9 3.4 4.6 7 9 10.9 13.2.3.3.7.6.2 1.2-.1.1 0 .5.1.7.2.3.5.6.8.9.5-.2.9-.3 1.4-.5 1.2-.4 2.4-.1 3.4.5.9.5 1.4 2.2 1.1 3.3-.1.4-.3.9-.5 1.3-1 2.3-3.4 3.1-5.7 1.8.1-.3.3-.6.5-1.1-.9-.3-1.5-.9-1.5-1.8 0-.7.3-.9.4-1.1.3 1 .3 1.1 1.3 1.8-.5-.7-.9-1.3-1.3-1.8"/><path fill="#00AEBD" d="M87.1 139.4c.6-.2 1.1-.3 1.7-.5 0 .1.1.2.1.3-.6.2-1.1.4-1.7.6 0-.2-.1-.3-.1-.4M54.5 81.7c.1.4.1.8.2 1.1h-.2c-.1-.4-.1-.8-.2-1.1h.2M99.4 136.3c-.6.1-1 .2-1.5.2.5-.3.5-.3 1.5-.2M71.6 119.6c.3-.9.6-1.9 1-2.8 1.4-3.3 2.8-6.7 4.1-10 .2-.5.4-1 1-1.1-.5 1.1-.9 2.2-1.4 3.2-.9 2-1.7 4.1-2.6 6.1-.5 1.3-1 2.7-1.6 4-.1.2-.2.4-.4.7 0 0-.1 0-.1-.1M95.2 114.9c1.1-1 2.1-2 3.6-2.3-.8 1.2-1.9 2.2-3.3 2.6l-.3-.3M75.9 131c.1.1.3.2.6.4-.5.3-1 .5-1.4.7.3-.4.5-.8.8-1.1M58.5 45.2l-1.2 1.2H57c.5-.5 1-.8 1.5-1.2M86.4 83.8c-.8 1.8-1.6 3.7-2.3 5.5-1.3 3.3-2.6 6.6-3.8 10-.6 1.9-1.5 3.7-2.2 5.6h-.3c.1-.4.1-.8.3-1.2 1-2.7 1.9-5.4 2.9-8.1l4.2-10.5c.3-.5.4-1.2 1.2-1.3zM113.1 98.1c-.3.4-.7.7-1.1 1.1-4.1 3.3-8.2 6.6-12.3 10-1.8 1.5-3.5 3-5.3 4.4-.3.3-.7.4-1.1.6 1-.9 1.9-1.9 2.9-2.8 3.9-3.3 7.8-6.6 11.8-9.9 1.1-.9 2.1-1.8 3.2-2.8.6-.4 1.2-.7 1.9-.6"/><path fill="#00AEBD" d="M86.4 83.9c-.5-.4-.3-.8-.1-1.3.8-1.9 1.4-4 2.6-5.6 1-1.4 1.3-3.1 2.3-4.5.1-.1.2-.1.4-.3-1.2 4.2-3.7 7.7-5.2 11.7M87.1 120.3h-.5c.2-.3.4-.6.6-.8 1.9-1.7 3.7-3.4 5.6-5 .2-.2.4-.2.7-.3-.3.3-.5.7-.9 1-1.6 1.4-3.2 2.8-4.7 4.2-.3.3-.5.6-.8.9M121.8 91.6c-.4.7-1 1.2-1.9 1.4.7-.4 1.3-.9 1.9-1.4M114.9 96.8c-.6.4-1.2.9-1.8 1.3.6-.4 1.2-.9 1.8-1.3M137.5 79.7c-.5.3-.9.7-1.4 1 .4-.3.9-.6 1.4-1M67.7 130c.4.2.4.4 0 .9v-.9zM138.8 78.7c-.4.3-.8.5-1.2.8.4-.3.6-.8 1.2-.8M140.1 77.7l-1.2.9c.2-.5.5-.9 1.2-.9M141.5 76.4c-.4.3-.7.5-1.1.8.3-.2.7-.5 1.1-.8M98.8 112.7c.3-.4.5-.9.9-1.2.9-.8 1.9-1.5 2.9-2.3.2-.2.3-.5.6-.9.6.2 1 0 1-.7.5-.2 1-.3 1.4-.6 1.7-1.3 3.5-2.7 5.1-4.1 1.5-1.2 2.9-2.5 4.4-3.7.4-.3.9-.6 1.4-.9-.1.2-.1.4-.3.6-1.6 1.4-3.1 2.7-4.7 4-1.6 1.3-3.1 2.7-4.8 3.9-2.3 1.7-4.5 3.6-6.8 5.3-.3.3-.7.4-1.1.6"/><path fill="#00AEBD" d="M116.4 98.4c.6-.8 1.4-1.4 2.3-1.8-.5.8-1.2 1.5-2.3 1.8M118.2 98.1l1.5-1.5.2.2c-.4.6-.9 1.1-1.7 1.3zM118.2 98.1l-1 1c-.1-.1-.1-.2-.2-.2.2-.6.8-.6 1.2-.8M131.4 87.2c.4-.3.7-.5 1.1-.8-.1.5-.4 1-1.1.8M96.9 55.1c0-.6 0-1 .5-1.3.3.7.1 1-.5 1.3M95.8 58l-.3 1.2c-.1 0-.2 0-.3-.1l.3-1.2c.2.1.3.1.3.1M95.9 18.8c-.9.5-1.8 1-2.6 1.6.6-.9 1.5-1.4 2.6-1.6M93.2 20.3c-.5.7-1.3 1.1-2.2 1.3.8-.4 1.5-.9 2.2-1.3M122.1 92.5c-.2.3-.4.5-.6.8-.1-.1-.2-.1-.3-.2 0-.5.3-.6.9-.6"/></svg>