<svg viewBox="0 0 485 182" xmlns="http://www.w3.org/2000/svg" style="background:#fff"><g fill="none" fill-rule="evenodd"><path d="M175.19 104.862l-.074-.972H167l.045 1.093c.5 12.177 8.71 20.243 23.31 20.243 13.924 0 23.393-7.235 23.393-18.186 0-5.922-2.054-10.112-5.97-12.974-3.01-2.2-6.61-3.442-12.582-4.737-.4-.087-.814-.176-1.313-.28-.295-.063-1.357-.285-1.3-.273-10.844-2.273-14.283-4.248-14.283-10.13 0-6.08 4.973-9.953 13.314-9.953 8.115 0 13.244 4.956 13.482 12.758l.032 1.018H213.184l-.024-1.074c-.28-12.16-8.44-20.346-21.63-20.346-12.927 0-21.462 7.778-21.462 17.85 0 5.905 2.052 10.017 5.973 12.764 2.988 2.093 6.448 3.203 12.552 4.435l.94.187.933.185c5.776 1.142 8.324 1.848 10.65 3.2 2.885 1.678 4.317 4.075 4.317 7.788 0 6.447-5.42 10.122-14.91 10.122-9.085 0-14.723-4.556-15.333-12.72zM230.757 60v-1.05h-8.064v65.1h8.064V111.767l8.488-8.267 15.16 20.132.314.418h10.031l-1.278-1.685L244.96 97.98l17.073-16.992 1.802-1.794H252.875l-.308.31-21.81 21.964V60zm75.348 44.394h.986l.062-.985c.01-.174.027-.46.043-.805.012-.273.023-.54.03-.79.01-.273.013-.52.013-.74 0-13.178-8.73-22.89-21.63-22.89-12.877 0-22.05 10.338-22.05 23.395 0 13.436 8.758 23.478 22.134 23.478 10.114 0 17.928-6 20.743-15.104l.42-1.36h-8.381l-.248.7c-1.768 4.98-6.554 8.288-12.45 8.288-7.708 0-13.082-5.294-14.05-13.188h34.378zm-34.134-6.972c1.36-7.068 6.56-11.76 13.638-11.76 7.295 0 12.33 4.538 13.43 11.76h-27.068zM333.7 86.334h1.05v-7.14H324.922V67.014h-8.064V79.194h-8.148v7.14h8.148v25.158c0 8.253 4.28 12.726 12.138 12.726 1.37 0 2.554-.082 3.546-.22.614-.085 1.037-.173 1.27-.238l.77-.214v-7.477l-1.273.276c-.052.01-.155.032-.302.06-.25.046-.528.093-.826.137-.763.112-1.52.184-2.218.197l-.212.002c-3.442 0-4.83-1.617-4.83-5.67V86.334h8.778zm25.074 38.724c11.162 0 19.043-7.063 21.022-17.058l.248-1.254H371.91l-.207.78c-1.695 6.38-6.297 10.056-12.93 10.056-8.275 0-13.985-6.53-13.985-15.918 0-9.462 5.7-16.002 13.986-16.002 6.632 0 11.234 3.677 12.93 10.056l.207.78h8.134l-.248-1.254c-1.98-9.995-9.86-17.058-21.022-17.058-12.966 0-22.134 10.41-22.134 23.478 0 12.996 9.18 23.394 22.134 23.394zM394.894 60v-1.05h-8.064v65.1h8.064V97.716c0-7.704 4.69-12.222 11.802-12.222 6.794 0 10.206 3.933 10.206 11.382v27.174h8.064V95.7c0-10.522-6.516-17.514-17.262-17.514-5.53 0-9.973 2.026-12.81 4.933V60z" fill="#000"/><path d="M67.903 50.83l27-2.83 27 2.83 20.903 27.836L94.903 134 47 78.666 67.903 50.83z" fill="#FDB300"/><path fill="#EA6C00" d="M66.403 78.666L94.903 134 47 78.666M123.404 78.666L94.904 134l47.903-55.334"/><path fill="#FDAD00" d="M66.403 78.666h57L94.903 134"/><path fill="#FDD231" d="M94.903 48l-27 2.83-1.5 27.836M94.903 48l27 2.83 1.5 27.836"/><path fill="#FDAD00" d="M142.807 78.666L121.904 50.83l1.5 27.836M47 78.666L67.903 50.83l-1.5 27.836"/><path fill="#FEEEB7" d="M94.903 48l-28.5 30.666h57"/></g></svg>