<svg viewBox="0 0 201.6 82.1"><path fill="#00AEEF" d="M27.9 0C12.5 0 0 12.4 0 27.8s12.5 27.8 27.8 27.8c15.4 0 27.8-12.5 27.8-27.8C55.7 12.4 43.2 0 27.9 0zm76.7 0h-36c-3.6 0-6.5 2.9-6.5 6.5v42.8c0 3.6 2.9 6.5 6.5 6.5h36c3.6 0 6.5-2.9 6.5-6.5v-43c-.1-3.5-3-6.3-6.5-6.3zm58.3 0h-33.6c-1.8 0-3.3 1.5-3.3 3.3 0 1 .4 1.8 1.1 2.4l36.6 36.6c.6.7 1.5 1.1 2.4 1.1 1.8 0 3.3-1.5 3.3-3.3V5.9c-.4-3.3-3.1-5.9-6.5-5.9zm32.2 0h-10.3c-3.6 0-6.5 2.9-6.5 6.5v42.8c0 3.6 2.9 6.5 6.5 6.5h10.3c3.6 0 6.5-2.9 6.5-6.5V6.4c0-3.5-2.9-6.4-6.5-6.4zm-32.6 50l-36.6-36.6c-.6-.7-1.5-1.1-2.4-1.1-1.8 0-3.3 1.5-3.3 3.3v34.2c.3 3.3 3.1 5.9 6.4 5.9h33.7c1.8 0 3.3-1.5 3.3-3.3 0-.9-.4-1.8-1.1-2.4zM9.7 81.8V68.2H4.8v-2.5h12.6v2.5h-4.9v13.6H9.7zm21.1 0v-7.1h-8.4v7.1h-2.8V65.7h2.8v6.6h8.4v-6.6h2.8v16.1h-2.8zm5.5 0V65.7h11v2.5h-8.2v4.2h8v2.5h-8v4.5h8.2v2.5l-11-.1zm19.5-8c0-4.8 3.4-8.3 8.2-8.3s8.2 3.5 8.2 8.3-3.4 8.3-8.2 8.3-8.2-3.5-8.2-8.3zm13.5 0c0-3.3-2.1-5.8-5.3-5.8-3.3 0-5.3 2.5-5.3 5.8s2.1 5.8 5.3 5.8c3.2 0 5.3-2.5 5.3-5.8zm19.2 8V69.4l-4.9 12.4h-1.2l-5-12.4v12.4h-2.8V65.7h4L83 76.8l4.3-11.1h4v16.1h-2.8zm16.8 0l-8.4-11.5v11.5h-2.8V65.7H97l8.2 11.2V65.7h2.8v16.1h-2.7zm5.7 0V65.7h2.8v16.1H111zm11.1-8c0-5.1 3.8-8.3 8.5-8.3 3.1 0 5.2 1.5 6.5 3.3l-2.3 1.3c-.9-1.2-2.4-2.2-4.2-2.2-3.2 0-5.6 2.4-5.6 5.8s2.4 5.8 5.6 5.8c2.7 0 4.3-1.8 4.7-4h-5.7V73h8.8c0 5.5-2.9 9-8 9-4.5.1-8.3-3.2-8.3-8.2zm27.3 8l-3.6-6H143v6h-2.8V65.7h7.1c3.2 0 5.3 2.1 5.3 5 0 2.8-1.9 4.4-3.8 4.7l4 6.3-3.4.1zm.2-11.1c0-1.5-1.2-2.5-2.8-2.5h-3.9v5.1h3.9c1.7 0 2.8-1 2.8-2.6zm4.6 3.1c0-4.8 3.4-8.3 8.2-8.3s8.2 3.5 8.2 8.3-3.4 8.3-8.2 8.3-8.2-3.5-8.2-8.3zm13.5 0c0-3.3-2.1-5.8-5.3-5.8-3.3 0-5.3 2.5-5.3 5.8s2.1 5.8 5.3 5.8 5.3-2.5 5.3-5.8zm5.1 1.6v-9.7h2.9v9.7c0 2.6 1.4 4.2 4.1 4.2 2.7 0 4.1-1.7 4.1-4.2v-9.7h2.9v9.7c0 4-2.3 6.7-7 6.7s-7-2.7-7-6.7zm16.4 6.4V65.7h7.1c3.4 0 5.2 2.3 5.2 5s-1.9 5-5.2 5H192v6l-2.8.1zm9.5-11.1c0-1.5-1.1-2.6-2.7-2.6h-3.9v5.1h3.9c1.5.1 2.7-.9 2.7-2.5z"/></svg>