<svg xmlns="http://www.w3.org/2000/svg" viewBox="0 0 116.4 30.8"><title>Group + Group</title><path d="M45.988 27.566l-.8 1.4h-.6l3.2-5.2 1.4 5.2h-.6l-.4-1.4h-2.2zm1.5-2.5l-1.2 2h1.7l-.5-2zM94.388 25.166c-.3-.4-.8-.7-1.4-.7-1.1 0-2.2 1-2.3 2-.2 1.1.6 2 1.7 2 .6 0 1.2-.3 1.6-.7l-.1.7c-.5.3-1 .5-1.6.5-1.4 0-2.4-1.1-2.2-2.5.2-1.4 1.6-2.6 3-2.6.6 0 1 .2 1.4.5l-.1.8M94.388 27.466c.1-.9 1-1.6 1.9-1.6.9 0 1.5.7 1.4 1.6-.1.9-1 1.6-1.9 1.6-.9 0-1.5-.7-1.4-1.6m.6 0c-.1.6.3 1.1.9 1.1.7 0 1.2-.5 1.3-1.1.1-.6-.3-1.1-.9-1.1-.7-.1-1.2.5-1.3 1.1M98.888 26.266c.2-.3.5-.4.8-.4.4 0 .7.2.8.5.2-.3.6-.5 1-.5.8 0 .9.6.8 1.3l-.3 1.9h-.5l.3-1.8c.1-.4.1-.9-.4-.9-.6 0-.8.6-.8 1l-.3 1.6h-.5l.3-1.7c.1-.4.1-.9-.4-.9-.6 0-.8.6-.9 1.1l-.3 1.6h-.5l.5-3.1h.5l-.1.3M103.588 26.366c.3-.3.7-.5 1.2-.5.9 0 1.4.8 1.2 1.6-.1.9-.8 1.6-1.8 1.6-.4 0-.8-.2-1-.5l-.3 2.2h-.5l.8-4.8h.4v.4zm-.2 1c-.1.6.2 1.2.8 1.2.7 0 1.1-.5 1.2-1.2.1-.6-.2-1.1-.9-1.1-.6 0-1.1.6-1.1 1.1zM109.188 28.966h-.6l.1-.4c-.3.3-.7.5-1.2.5-.9 0-1.4-.8-1.2-1.6.1-.9.8-1.6 1.8-1.6.4 0 .8.2 1 .5l.1-.4h.5l-.5 3zm-2.3-1.6c-.1.6.2 1.2.8 1.2.7 0 1.1-.5 1.2-1.2.1-.6-.2-1.1-.9-1.1-.6 0-1.1.6-1.1 1.1zM110.688 26.266c.3-.3.6-.5 1-.5.9 0 1 .6.8 1.3l-.3 1.8h-.5l.3-1.7c.1-.5.1-.9-.5-.9-.7 0-.9.7-1 1.2l-.2 1.5h-.5l.5-3.1h.5l-.1.4M112.888 25.866h.7l.8 2.2 1.4-2.2h.6l-3.1 4.8h-.7l1.3-2-1-2.8M76.388 24.066c-.1 1-.9 1-1.6 1h-.4l.3-1.8c0-.1.1-.2.2-.2h.2c.5 0 1 0 1.2.3.1.1.2.4.1.7m-.3-2.5h-2.7c-.2 0-.3.1-.4.3l-1.1 6.9c0 .1.1.3.2.3h1.4c.1 0 .2-.1.3-.2l.3-2c0-.2.2-.3.4-.3h.9c1.8 0 2.8-.9 3.1-2.6.1-.7 0-1.3-.3-1.7-.5-.5-1.2-.7-2.1-.7M56.888 24.066c-.1 1-.9 1-1.6 1h-.4l.3-1.8c0-.1.1-.2.2-.2h.2c.5 0 1 0 1.2.3.1.1.1.4.1.7m-.4-2.5h-2.7c-.2 0-.3.1-.4.3l-1.1 6.9c0 .1.1.3.2.3h1.3c.2 0 .3-.1.4-.3l.3-1.9c0-.2.2-.3.4-.3h.9c1.8 0 2.8-.9 3.1-2.6.1-.7 0-1.3-.3-1.7-.5-.5-1.1-.7-2.1-.7M62.888 26.566c-.1.7-.7 1.2-1.5 1.2-.4 0-.7-.1-.9-.3-.2-.2-.3-.5-.2-.9.1-.7.7-1.2 1.5-1.2.4 0 .7.1.9.4.2.1.3.5.2.8m1.8-2.5h-1.3c-.1 0-.2.1-.2.2l-.1.4-.1-.1c-.3-.4-.9-.5-1.6-.5-1.5 0-2.7 1.1-2.9 2.6-.1.8.1 1.5.5 2s1 .7 1.7.7c1.2 0 1.8-.7 1.8-.7l-.1.4c0 .1.1.3.2.3h1.2c.2 0 .3-.1.4-.3l.8-4.7c0-.2-.1-.3-.3-.3M82.388 26.566c-.1.7-.7 1.2-1.5 1.2-.4 0-.7-.1-.9-.3-.2-.2-.3-.5-.2-.9.1-.7.7-1.2 1.5-1.2.4 0 .7.1.9.4.2.1.3.5.2.8m1.9-2.5h-1.3c-.1 0-.2.1-.2.2l-.1.4-.1-.2c-.3-.4-.9-.5-1.6-.5-1.4 0-2.7 1.1-2.9 2.6-.1.8.1 1.5.5 2s1 .7 1.7.7c1.2 0 1.8-.7 1.8-.7l-.1.4c0 .1.1.3.2.3h1.2c.2 0 .3-.1.4-.3l.7-4.6c0-.2-.1-.3-.2-.3M71.688 24.066h-1.3c-.1 0-.2.1-.3.2l-1.8 2.6-.8-2.5c0-.2-.2-.3-.4-.3h-1.3c-.1 0-.2.1-.2.3l1.5 4.2-1.4 1.9c-.1.1 0 .4.2.4h1.3c.1 0 .2-.1.3-.2l4.4-6.3c.1-.1 0-.3-.2-.3M85.788 21.766l-1.1 7.1c0 .1.1.3.2.3h1.1c.2 0 .3-.1.4-.3l1.1-6.9c0-.1-.1-.3-.2-.3h-1.3c-.1-.1-.2 0-.2.1"/><g><path d="M0 14.786v-2h1.6v-9.4H0v-2h6.4c2.9 0 4.7 1.3 4.7 3.6 0 1.5-.9 2.4-2.1 2.9 1.7.4 2.8 1.6 2.8 3.1 0 2.4-2 3.8-5.2 3.8H0zm3.8-11.4v3.6h2.4c1.8 0 2.7-.6 2.7-1.8 0-1.2-1-1.8-2.8-1.8H3.8zm0 9.4h2.7c2.1 0 3.2-.7 3.2-2s-1.1-2-3.3-2H3.8v4zM23.5 7.786c-.2-.8-.8-1.2-1.6-1.2-1.8 0-3.6 1.3-3.6 3.7v2.5h3.5v2H14v-2h2.2v-5.9h-1.8v-2h3.9v1.7c.6-1.2 2-2 3.7-2 2 0 3.2 1.1 3.5 2.6l-2 .6M34.3 9.086v-.6c0-1.4-1.1-2-2.4-2-1.2 0-2.2.5-3 1.2l-1.4-1.5c1-.9 2.3-1.6 4.4-1.6 2.6 0 4.5 1.3 4.5 3.8v4.4h1.5v2h-3.6v-1c-.6.9-2 1.4-3.5 1.4-2.1 0-3.9-1-3.9-3.1 0-2.4 2.5-3.3 4.7-3.3 1.1-.1 2 .1 2.7.3m0 1.7c-.7-.2-1.7-.4-2.6-.4-1.3 0-2.6.4-2.6 1.6 0 .9.8 1.3 1.9 1.3 1.6 0 3.3-.8 3.3-2.2v-.3M50.7 12.786v2H40.4v-2h4.3v-5.9h-3.3v-2h5.4v7.9h3.9zm-6.3-12.8h2.4v3h-2.4v-3zM53.2 12.786h1.6v-5.9h-1.5v-2h3.5v1.3c.6-1 1.9-1.6 3.5-1.6 2.3 0 3.9 1.4 3.9 3.6v4.6h1.6v2h-5.3v-2h1.6v-4c0-1.7-1.1-2.2-2.1-2.2-1.6 0-3.2 1.2-3.2 2.9v3.3h1.6v2h-5.3v-2M68.7 6.886H66v-2h2.7v-3.5h2.1v3.6h5v2h-5v4.1c0 1.5 1.1 2.1 2.4 2.1 1.2 0 2.2-.6 2.9-1.4l1.4 1.4c-.9 1-2.4 1.9-4.4 1.9-2.6 0-4.5-1.4-4.5-4v-4.2M89 7.786c-.2-.8-.8-1.2-1.6-1.2-1.8 0-3.6 1.3-3.6 3.7v2.5h3.5v2h-7.9v-2h2.2v-5.9h-1.8v-2h3.8v1.7c.6-1.2 2-2 3.7-2 2 0 3.2 1.1 3.5 2.6l-1.8.6M103.2 13.286c-1.1 1.1-2.9 1.8-5 1.8-3.4 0-5.8-2.2-5.8-5.2s2.3-5.2 5.5-5.2 5.5 2.4 5.5 5.6v.3h-8.8c.4 1.6 1.8 2.6 3.6 2.6 1.5 0 2.8-.6 3.6-1.4l1.4 1.5zm-8.5-4.4h6.3c-.3-1.4-1.6-2.4-3-2.4-1.7 0-3 1-3.3 2.4zM116.2 13.286c-1.1 1.1-2.9 1.8-5 1.8-3.4 0-5.8-2.2-5.8-5.2s2.3-5.2 5.5-5.2 5.5 2.4 5.5 5.6v.3h-8.8c.4 1.6 1.8 2.6 3.6 2.6 1.5 0 2.8-.6 3.6-1.4l1.4 1.5zm-8.4-4.4h6.3c-.3-1.4-1.6-2.4-3-2.4-1.7 0-3 1-3.3 2.4z"/></g></svg>