<svg xmlns="http://www.w3.org/2000/svg" width="1153" height="553" viewBox="0 0 1153 553"><style>.st0{fill:#292929;} .st1{fill-rule:evenodd;clip-rule:evenodd;fill:#74CDD6;} .st2{fill-rule:evenodd;clip-rule:evenodd;fill:#FFFFFF;}</style><path class="st0" d="M614.9 139.7c0-8.6 5.2-13.1 13.1-13.1 7.9 0 13.1 4.5 13.1 13.1v107.6c0 8.6-5.2 13.1-13.1 13.1-7.9 0-13.1-4.5-13.1-13.1V139.7zm59.2-13.9c7.5 0 13.6 6.1 13.6 13.6s-6.1 13.6-13.6 13.6-13.6-6.1-13.6-13.6c-.1-7.5 6-13.6 13.6-13.6M661 175c0-7 2.9-13.1 13.1-13.1s13.1 6.1 13.1 13.1v72.3c0 7-2.9 13.1-13.1 13.1s-13.1-6.1-13.1-13.1V175zm44.6 0c0-7.9 3.6-13.1 11.8-13.1 8.3 0 11.8 5.2 11.8 13.1v3.4h.4c7.4-9.7 16.9-16.5 31.8-16.5 15.8 0 33 7.9 33 34.4v50.9c0 7-2.9 13.1-13.1 13.1s-13.1-6.1-13.1-13.1v-45.7c0-10.6-5.2-18.1-16.5-18.1-9.2 0-19.9 7.5-19.9 20.6v43.2c0 7-2.9 13.1-13.1 13.1s-13.1-6.1-13.1-13.1V175zm150-13.1c21.9 0 38.2 12.4 38.2 24.6 0 7.5-5.6 11.3-12.2 11.3-12.4 0-7.9-15.4-26.7-15.4-10.2 0-22.2 7-22.2 30.7 0 16.3 7.7 26.9 22.1 26.9 18.3 0 14.4-16.9 28.2-16.9 6.6 0 10.9 4.8 10.9 10 0 11.5-12.9 27.3-39.8 27.3-32.3 0-47.5-19.9-47.5-47.4-.2-30.1 16.9-51.1 49-51.1m92.9 0c31.6 0 48.4 21.5 48.4 49.2 0 26.2-12.7 49.3-48.4 49.3s-48.4-23.1-48.4-49.3c0-27.7 16.8-49.2 48.4-49.2m0 79.1c15.6 0 22.2-14 22.2-30 0-17-7-29.8-22.2-29.8s-22.2 12.7-22.2 29.8c0 16 6.6 30 22.2 30M1011.5 139.7c0-8.6 5.2-13.1 13.1-13.1 7.9 0 13.1 4.5 13.1 13.1v107.6c0 8.6-5.2 13.1-13.1 13.1-7.9 0-13.1-4.5-13.1-13.1V139.7zm44.6 35.3c0-7.9 3.6-13.1 11.8-13.1 8.3 0 11.8 5.2 11.8 13.1v3.4h.4c7.4-9.7 16.9-16.5 31.8-16.5 15.8 0 33 7.9 33 34.4v50.9c0 7-2.9 13.1-13.1 13.1s-13.1-6.1-13.1-13.1v-45.7c0-10.6-5.2-18.1-16.5-18.1-9.1 0-19.9 7.5-19.9 20.6v43.2c0 7-2.9 13.1-13.1 13.1s-13.1-6.1-13.1-13.1V175zM614.9 298.2c0-8.6 5.2-13.1 13.1-13.1 7.9 0 13.1 4.5 13.1 13.1v107.6c0 8.6-5.2 13.1-13.1 13.1-7.9 0-13.1-4.5-13.1-13.1V298.2zm89.1 22.2c31.6 0 48.4 21.5 48.4 49.2 0 26.2-12.7 49.3-48.4 49.3s-48.4-23.1-48.4-49.3c0-27.6 16.8-49.2 48.4-49.2m0 79.1c15.6 0 22.2-14 22.2-30 0-17-7-29.8-22.2-29.8s-22.2 12.7-22.2 29.8c0 16 6.6 30 22.2 30m106-79.1c31.6 0 48.4 21.5 48.4 49.2 0 26.2-12.7 49.3-48.4 49.3s-48.4-23.1-48.4-49.3c0-27.6 16.8-49.2 48.4-49.2m0 79.1c15.6 0 22.2-14 22.2-30 0-17-7-29.8-22.2-29.8s-22.2 12.7-22.2 29.8c0 16 6.6 30 22.2 30m61.5-66.7c0-8.1 3.8-12.4 11.8-12.4 7.7 0 11.8 4.3 11.8 12.4v4.1h.4c4.3-11.1 14.9-16.5 27.6-16.5 21.9 0 41.1 16 41.1 49.9 0 25.1-12.7 48.6-40.4 48.6-12 0-21-4.8-25.8-13.3h-.4v35c0 8.6-5.2 13.1-13.1 13.1-7.9 0-13.1-4.5-13.1-13.1V332.8zm45.8 8.1c-15.2 0-21 13.6-21 28.5 0 13.5 5 29.2 21 29.1 16.7 0 20.8-16.9 20.8-29.1 0-15.4-6.8-28.2-20.8-28.5"/><path class="st1" d="M280.7 3.9C130.4 3.9 8.1 126.2 8.1 276.5s122.3 272.6 272.6 272.6c151.2 0 273.5-122.3 273.5-272.6S431.9 3.9 280.7 3.9"/><path class="st2" d="M268.1 187.7v92.1c-.2 7.3-2.4 14.2-6 20-1.4 2.8-2.8 5-3.7 6.4-1.5 2.4-50.2 71.8-50.2 71.8l-19.8 28c-11.3 16.1-27 17.7-41.8 7.4-14.8-10.4-18.7-25.6-7.4-41.8 0 0 36.1-51.7 52-74.4 3.8-5.5 6.5-9.3 7.2-10.3.3-.4.5-.7.7-1 5.4-7.1 8.7-15.8 9-25.2V156.6c0-19.7 11.9-30 30-30s30 10.3 30 30v31.1zm147.7 225.6c-14.8 10.4-30.5 8.8-41.8-7.4l-19.8-28s-48.8-69.4-50.2-71.8c-.9-1.4-2.2-3.6-3.7-6.4-3.6-5.9-5.8-12.7-6-20V156.4c0-19.7 11.9-30 30-30s30 10.3 30 30v104.2c.2 9.5 3.5 18.2 9 25.2l.7 1c.7 1 3.3 4.8 7.2 10.3 15.9 22.7 52 74.4 52 74.4 11.2 16.2 7.4 31.4-7.4 41.8"/></svg>