<svg xmlns="http://www.w3.org/2000/svg" xmlns:xlink="http://www.w3.org/1999/xlink" viewBox="0 0 2819 2918"><circle fill="none" stroke="#FFF" stroke-width="73.756" stroke-miterlimit="10" cx="1402.4" cy="1557.4" r="1320.6"/><circle fill="#1C6497" stroke="#FFF" stroke-width="52.683" stroke-miterlimit="10" cx="1402.4" cy="1557.4" r="1320.6"/><path fill="#3AABC6" d="M2106.8 2478.4H499.1l78.7-129.6c6.9-11.4 775.5-1153.8 775.5-2117.3h98.3c0 963.5 768.6 2105.9 775.5 2117.3l78.7 129.6h-199zm-1214-185.8H1912c-121-219.2-360.2-688.3-509.6-1216.5-149.4 528.3-388.6 997.3-509.6 1216.5z"/><path fill="#FDDA00" d="M1908.7 2316.8H753.1l56.6-120.3c5-10.6 557.4-1070.8 557.4-1965h70.6c0 894.2 552.4 1954.4 557.4 1965l56.5 120.3h-142.9zm-872.6-172.4h732.6c-87-203.4-258.9-638.8-366.3-1129-107.4 490.2-279.3 925.5-366.3 1129z"/><path fill="#F68521" d="M1766.3 2270.3H935.7l40.7-117.6c3.6-10.4 409.1-1046.9 409.1-1921.2h33.9c0 874.3 405.5 1910.8 409.1 1921.2l40.7 117.6h-102.9z"/><path fill="#DF572F" d="M1402.4 231.5c0 902.6-262.3 1954.5-262.3 1954.5h524.6s-262.3-1051.9-262.3-1954.5z"/><defs><path id="a" d="M1401.6 257.8c712.4 0 1289.9 580.8 1289.9 1297.3 0 341-129.4 654.8-343.3 886.4-235.5 254.9-573.3 410.9-946.5 410.9-387.9 0-738-171.3-974.4-443.9-197.8-228-315.4-527.1-315.4-853.5-.2-716.3 577.3-1297.2 1289.7-1297.2z"/></defs><clipPath id="b"><use xlink:href="#a" overflow="visible"/></clipPath><g clip-path="url(#b)"><ellipse fill="#1C6497" cx="1404.7" cy="3044.1" rx="1253.6" ry="905.3"/><defs><ellipse id="c" cx="1404.5" cy="3044.1" rx="1253.4" ry="905.3"/></defs><clipPath id="d"><use xlink:href="#c" overflow="visible"/></clipPath><path clip-path="url(#d)" fill="#A5CF5A" d="M3479 2757.1c-23.2 6.7-40.2 26.3-43.8 50.1-7.6 50.6-26.7 135.4-70.5 158-63.6 32.8-117.8 79.9-119.5 147 0 0-2.6 52.6 40.3 53.8 25.9.7 42.2-16.4 51-30 4.6-7.2 7.7-15.3 8.9-23.8 1.3-9.4 5.6-24.2 19.4-22.8 20.2 2 11.1 32.3 11.1 32.3s-9.6 116.8 46.7 110.9c66.7-7 22-108 134.3-124.7 79.2-11.8-8 22.9-26.2-26.6s-37.1-148.2-6.4-173.8 42.7-28 62.8-22.6c9 2.4 13.3 11.8 15.4 21.5 2.8 13.3.6 27.1-5.5 39.2-8.9 17.5-25.4 47-45.4 69-12.1 13.3-14.4 27.9-12.9 40.6 2.9 23.6 20.9 42.3 43.7 49.4 24.5 7.7 60.2 7.6 92.6-35 39.8-52.4 162.7-108.5 231.6-137 27.8-11.5 43.1-41.2 36.6-70.6l-13.6-61c-5-22.6-22.3-40.6-44.7-46.4-69.7-18.2-214.5-56.2-209.1-56.2 5.4.1-128.3 38.9-196.8 58.7z"/><g clip-path="url(#d)" fill="#A5CF5A"><path d="M1300.3 3371.8c-2.2-2.2-5.2-3.4-8.3-3.4h-47c-3.1 0-6.1-1.2-8.3-3.4l-49.9-49.9c-2.2-2.2-5.2-3.4-8.3-3.4h-47c-3.1 0-6.1-1.2-8.3-3.4l-106.6-106.6c-2.2-2.2-5.2-3.4-8.3-3.4h-47c-3.1 0-6.1-1.2-8.3-3.4l-49.9-49.9c-2.2-2.2-5.2-3.4-8.3-3.4H791.1c-3.1 0-6.1 1.2-8.3 3.4l-21.5 21.5c-2.2 2.2-5.2 3.4-8.3 3.4h-47c-3.1 0-6.1-1.2-8.3-3.4l-135-135c-2.2-2.2-5.2-3.4-8.3-3.4h-47c-3.1 0-6.1-1.2-8.3-3.4l-49.9-49.9c-2.2-2.2-3.4-5.2-3.4-8.3v-47c0-3.1 1.2-6.1 3.4-8.3l49.9-49.8c2.2-2.2 5.2-3.4 8.3-3.4h160.5c3.1 0 6.1-1.2 8.3-3.4l209.3-209.4c9.1-9.1 21.4-14.2 34.3-14.2 23.5 0 46.1-9.3 62.7-26l72.9-72.9c9.4-9.4 22-14.6 35.3-14.6 23.1 0 45.3-9.2 61.6-25.5 17.2-17.2 17.2-45.2 0-62.4l-.3-.3c-16.1-16.2-38-25.2-60.9-25.2-11.6 0-21.1-9.4-21.1-21.1 0-19.7-15.9-35.6-35.6-35.6-13.5 0-26.5 5.4-36.1 14.9l-83.6 83.6c-23.9 23.9-62.7 23.9-86.7 0l-35.9-35.9c-18.9-18.9-19-49.7 0-68.6 14.3-14.4 33.8-22.4 54.1-22.4h7.2c11.5 0 22.5-4.6 30.6-12.7l1.3-1.4c9.2-9.2 21.6-14.3 34.6-14.3h7.3c18.7 0 36.7-7.4 49.9-20.7l7.9-7.9c15.5-15.5 40.8-15.5 56.3 0l60.7 60.7c13.6 13.6 35.7 13.6 49.3 0l10.1-10.1c14.1-14.1 22-33.2 22-53.2v-7.4c0-11.6-4.6-22.8-12.8-31l-6.1-6.1c-20.9-20.9-20.9-54.8 0-75.7l16.3-16.3c21.9-21.9 6.4-59.3-24.6-59.3h-81.5c-3.1 0-6.1 1.2-8.3 3.4l-106.6 106.6c-2.2 2.2-5.2 3.4-8.3 3.4h-47.1c-3.1 0-6.1 1.2-8.3 3.4l-45 45c-4.6 4.6-12 4.6-16.6 0l-45-45c-2.2-2.2-5.2-3.4-8.3-3.4H620.8c-3.1 0-6.1 1.2-8.3 3.4l-49.9 49.9c-2.2 2.2-5.2 3.4-8.3 3.4H393.9c-3.1 0-6.1-1.2-8.3-3.4l-21.5-21.5c-2.2-2.2-5.2-3.4-8.3-3.4H195.3c-3.1 0-6.1 1.2-8.3 3.4l-21.5 21.5c-2.2 2.2-5.2 3.4-8.3 3.4h-47c-3.1 0-6.1 1.2-8.3 3.4L-28.3 2367c-4.6 4.6-4.6 12 0 16.6l16.7 16.7c2.2 2.2 5.2 3.4 8.3 3.4h47c3.1 0 6.1-1.2 8.3-3.4l49.9-49.8c2.2-2.2 5.2-3.4 8.3-3.4h103.7c3.1 0 6.1 1.2 8.3 3.4l49.9 49.8c2.2 2.2 3.4 5.2 3.4 8.3v103.8c0 3.1-1.2 6.1-3.4 8.3l-49.9 49.9c-2.2 2.2-3.4 5.2-3.4 8.3v47c0 3.1-1.2 6.1-3.4 8.3l-49.9 49.9c-2.2 2.2-3.4 5.2-3.4 8.3v47c0 3.1 1.2 6.1 3.4 8.3l106.6 106.7c2.2 2.2 3.4 5.2 3.4 8.3v47c0 3.1 1.2 6.1 3.4 8.3l163.3 163.4c2.2 2.2 5.2 3.4 8.3 3.4h47.1c3.1 0 6.1 1.2 8.3 3.4l106.6 106.6c2.2 2.2 5.2 3.4 8.3 3.4h47c3.1 0 6.1 1.2 8.3 3.4l21.5 21.5c2.2 2.2 3.4 5.2 3.4 8.3v46.9c0 3.1-1.2 6.1-3.4 8.3l-21.5 21.6c-2.2 2.2-3.4 5.2-3.4 8.3v103.8c0 3.1 1.2 6.1 3.4 8.3l21.5 21.5c2.2 2.2 3.4 5.2 3.4 8.3v47c0 3.1 1.2 6.1 3.4 8.3l135 135c2.2 2.2 3.4 5.2 3.4 8.3v274c0 3.1 1.2 6.1 3.4 8.3l49.9 49.9c2.2 2.2 3.4 5.2 3.4 8.3v103.7c0 3.1 1.2 6.1 3.4 8.3l49.9 49.9c2.2 2.2 5.2 3.4 8.3 3.4h40.1c6.5 0 11.7-5.2 11.7-11.7v-40.2c0-3.1-1.2-6.1-3.4-8.3l-21.5-21.5c-2.2-2.2-3.4-5.2-3.4-8.3v-47.1c0-3.1 1.2-6.1 3.4-8.3l78.2-78.2c2.2-2.2 3.4-5.2 3.4-8.3v-47.1c0-3.1 1.2-6.1 3.4-8.3l106.6-106.6c2.2-2.2 3.4-5.2 3.4-8.3v-47c0-3.1 1.2-6.1 3.4-8.3l106.6-106.7c2.2-2.2 3.4-5.2 3.4-8.3v-47c0-3.1 1.2-6.1 3.4-8.3l49.8-49.9c2.2-2.2 3.4-5.2 3.4-8.3v-47c0-3.1-1.2-6.1-3.4-8.3l-49.3-49.7zM1555.2 2256.6c8-8 18.9-12.5 30.2-12.5h18.2c13.3 0 26.1-5.3 35.5-14.7l102.2-102.2c13.8-13.8 13.8-36.1 0-49.8-2.2-2.2-5.2-3.4-8.3-3.4h-418.6c-19.5 0-38.2 7.8-52 21.6l-14.1 14.1c-11.6 11.6-11.6 30.5 0 42.2 4.7 4.7 11 7.3 17.6 7.3h32.7c8.9 0 17.4 3.5 23.6 9.8 11.9 11.9 18.5 28 18.5 44.8v2.4c0 18-7.1 35.2-19.8 47.9l-4.7 4.7c-17.8 17.8-17.8 46.5 0 64.3 15.8 15.8 37.1 24.6 59.4 24.6h2.9c12.2 0 23.9-4.8 32.5-13.4l25.5-25.5c11.4-11.4 26.9-17.8 43-17.8h12.4c12.2 0 24-4.9 32.6-13.5l30.7-30.9zM2485.9 3529c-4.6-4.6-12-4.6-16.6 0l-73.3 73.4c-2.2 2.2-3.4 5.2-3.4 8.3v103.8c0 3.1 1.2 6.1 3.4 8.3l16.6 16.6c4.6 4.6 12 4.6 16.6 0l16.6-16.6c2.2-2.2 3.4-5.2 3.4-8.3v-47.1c0-3.1 1.2-6.1 3.4-8.3l49.9-49.9c2.2-2.2 3.4-5.2 3.4-8.3v-47c0-3.1-1.2-6.1-3.4-8.3l-16.6-16.6zM3422.2 3443.9l-4.9-4.9c-2.2-2.2-5.2-3.4-8.3-3.4h-47c-3.1 0-6.1-1.2-8.3-3.4l-146.8-146.8c-7.4-7.4-20-2.2-20 8.3v23.6c0 3.1 1.2 6.1 3.4 8.3l135 135c2.2 2.2 5.2 3.4 8.3 3.4h80.3c10.4-.1 15.7-12.7 8.3-20.1zM3494.1 3237h-40.2c-6.5 0-11.7 5.3-11.7 11.7v40.1c0 3.1-1.2 6.1-3.4 8.3l-45 45.1c-4.6 4.6-4.6 12 0 16.6l16.7 16.7c2.2 2.2 5.2 3.4 8.3 3.4h47c3.1 0 6.1-1.2 8.3-3.4l21.5-21.5c2.2-2.2 3.4-5.2 3.4-8.3v-47.1c0-3.1 1.2-6.1 3.4-8.3l16.6-16.6c4.6-4.6 4.6-12 0-16.6l-16.7-16.6c-2.1-2.2-5.1-3.5-8.2-3.5zM3595.8 3208.7c-6.5 0-11.7 5.2-11.7 11.7v33.3c0 6.5 5.3 11.7 11.7 11.7h33.2c6.5 0 11.7-5.3 11.7-11.7v-33.3c0-6.5-5.2-11.7-11.7-11.7h-33.2zM3782.6 4003c-10.5 0-15.7 12.6-8.3 20 4.6 4.6 12 4.6 16.5 0 7.5-7.3 2.3-20-8.2-20zM3834.6 3350.5h-47.1c-3.1 0-6.1 1.2-8.3 3.4l-16.6 16.6c-4.6 4.6-12 4.6-16.6 0l-28.5-28.5c-7.4-7.4-20-2.1-20 8.3v23.6c0 3.1 1.2 6.1 3.4 8.3l21.5 21.5c2.2 2.2 5.2 3.4 8.3 3.4h47c3.1 0 6.1 1.2 8.3 3.4l49.9 49.8c2.2 2.2 5.2 3.4 8.3 3.4h47c3.1 0 6.1 1.2 8.3 3.4l5 5c7.4 7.4 20 2.2 20-8.3v-23.6c0-3.1-1.2-6.1-3.4-8.3l-78.3-78.3c-2.2-1.9-5.1-3.1-8.2-3.1zM3928 3722.8c-2.2-2.2-3.4-5.2-3.4-8.3v-47.1c0-3.1-1.2-6.1-3.4-8.3l-21.5-21.5c-2.2-2.2-3.4-5.2-3.4-8.3v-103.8c0-3.1-1.2-6.1-3.4-8.3l-16.6-16.6c-4.6-4.6-12-4.6-16.6 0l-16.6 16.6c-2.2 2.2-3.4 5.2-3.4 8.3v47.1c0 3.1-1.2 6.1-3.4 8.3l-16.6 16.6c-4.6 4.6-12 4.6-16.6 0l-68.5-68.5c-4.6-4.6-12-4.6-16.6 0l-16.7 16.7c-2.2 2.2-5.2 3.4-8.3 3.4h-47c-3.1 0-6.1 1.2-8.3 3.4l-106.6 106.6c-2.2 2.2-5.2 3.4-8.3 3.4h-47.1c-3.1 0-6.1 1.2-8.3 3.4l-49.8 49.9c-2.2 2.2-3.4 5.2-3.4 8.3v103.8c0 3.1-1.2 6.1-3.4 8.3l-16.6 16.6c-4.6 4.6-4.6 12 0 16.6l16.6 16.6c2.2 2.2 5.2 3.4 8.3 3.4h103.8c3.1 0 6.1-1.2 8.3-3.4l49.9-49.8c2.2-2.2 5.2-3.4 8.3-3.4h47c3.1 0 6.1 1.2 8.3 3.4l106.6 106.6c2.2 2.2 5.2 3.4 8.3 3.4h47c3.1 0 6.1-1.2 8.3-3.4l135-135c2.2-2.2 3.4-5.2 3.4-8.3v-47c0-3.1-1.2-6.1-3.4-8.3l-21.9-21.4zM3717.5 2717.9l-11.8-11.8c-4.6-4.6-12-4.6-16.6 0l-96.8 96.9c-4.6 4.6-4.6 12 0 16.6l11.8 11.8c4.6 4.6 12 4.6 16.6 0l96.8-96.9c4.6-4.6 4.6-12 0-16.6z"/><path d="M3206 3082.1v107.2c0 3.2 1.3 6.3 3.5 8.6l93 93c7.6 7.6 20.7 2.2 20.7-8.6v-20.8c0-5.5-2.2-10.8-6.1-14.6l-73.3-73.3c-4.7-4.7-4.7-12.4 0-17.1l12.2-12.2c4.7-4.7 12.4-4.7 17.1 0l41.4 41.5c4.7 4.7 12.4 4.7 17.1 0l46.5-46.5c2.3-2.3 3.6-5.4 3.6-8.6v-48.6c0-3.2-1.3-6.3-3.6-8.6l-46.5-46.5c-4.7-4.7-4.7-12.4 0-17.1l46.5-46.5c2.3-2.3 5.4-3.5 8.6-3.5h48.6c3.2 0 6.3-1.3 8.6-3.6l51.5-51.5c2.3-2.3 3.5-5.4 3.5-8.6V2789c0-3.2-1.3-6.3-3.5-8.6l-51.5-51.5c-2.3-2.3-3.5-5.4-3.5-8.6v-48.6c0-3.2 1.3-6.3 3.5-8.6l17.2-17.2c4.7-4.7 12.4-4.8 17.2 0l17.2 17.2c2.3 2.3 5.4 3.6 8.6 3.6h48.6c3.2 0 6.3-1.3 8.6-3.5l51.5-51.5c2.3-2.3 3.5-5.4 3.5-8.6v-107.2c0-3.2-1.3-6.3-3.6-8.6l-93.1-93c-7.6-7.6-2.2-20.7 8.6-20.7h83c3.2 0 6.3-1.3 8.6-3.5l46.5-46.5c4.7-4.7 12.4-4.7 17.1 0l117.3 117.3c7.6 7.6 20.7 2.2 20.7-8.6v-83c0-3.2 1.3-6.3 3.5-8.6l75.8-75.8c4.7-4.7 4.7-12.4 0-17.1l-46.5-46.5c-2.3-2.3-5.4-3.5-8.6-3.5h-400.3c-3.2 0-6.3-1.3-8.6-3.5l-22.2-22.2c-2.3-2.3-5.4-3.5-8.6-3.5h-224.4c-3.2 0-6.3-1.3-8.6-3.5l-22.3-22.2c-2.3-2.3-5.3-3.5-8.6-3.5h-165.8c-3.2 0-6.3-1.3-8.6-3.5l-51.6-51.5c-2.3-2.3-5.4-3.5-8.6-3.5h-224.5c-3.2 0-6.3 1.3-8.6 3.6l-51.4 51.5c-2.3 2.3-5.4 3.6-8.6 3.6h-48.6c-3.2 0-6.3 1.3-8.6 3.6l-51.5 51.5c-2.3 2.3-5.4 3.6-8.6 3.6h-224.5c-3.2 0-6.3 1.3-8.6 3.6l-34.1 9.5c-29.6 8.2-61.4 8.2-90.1-2.9-2.8-1.1-5.6-2.3-8.4-3.6-9.3-4.3-19.4-6.6-29.9-6.6h-70.8c-36.1 0-70.7 14.3-96.2 39.8l-83.6 83.6c-12.8 12.8-12.8 33.5 0 46.3 3.7 3.7 4.6 9.3 2.3 14l-43 85.4c-7.4 14.7-22.5 24-39 24h-15.3c-10.5 0-20.6 4.2-28.1 11.6-10.8 10.8-14.6 26.9-9.8 41.4l9.2 27.7c6 18-7.4 36.6-26.3 36.6h-49.3c-18.2 0-35 9.8-43.9 25.7-9.2 16.3-10.1 36-2.4 53.1l.9 2c9.9 22.1 31.9 36.3 56.1 36.3 12.1 0 23.6-4.8 32.2-13.3l86.7-86.7c11-11 26-17.2 41.6-17.2h3c20.8 0 41.4 3.4 61 10.1l33.8 11.5c14.7 5 30.9 1.2 41.9-9.7l.4-.4c6.5-6.5 16.8-6.5 23.2 0 3.8 3.8 8.1 8.2 12.7 12.8 21.8 22 51.5 34.3 82.5 34.3 6.6 0 12.9 2.6 17.6 7.3l17.4 17.4c21.8 21.7 51.3 34 82 34h57.1c6.7 0 12.1 5.4 12.1 12.1v41.5c0 3.2-1.3 6.3-3.5 8.6l-22.2 22.2c-2.3 2.3-5.4 3.5-8.6 3.5h-31.8l36.8 66.1v-1.4c0-3.9 1.5-7.6 4.3-10.4l4.3-4.3c7.6-7.6 20.7-2.2 20.7 8.6v24.3c0 3.2 1.3 6.3 3.6 8.6l110.2 110.2c2.3 2.3 3.5 5.4 3.5 8.6v48.6c0 3.2 1.3 6.3 3.5 8.6l17.2 17.2c4.7 4.7 12.4 4.7 17.1 0l17.2-17.2c2.3-2.3 5.4-3.5 8.6-3.5h48.6c3.2 0 6.3-1.3 8.6-3.5l105.1-105.1c4.7-4.7 4.7-12.4 0-17.1l-46.6-46.5c-2.3-2.3-5.4-3.5-8.6-3.5h-48.5c-3.2 0-6.3-1.3-8.6-3.5l-46.5-46.5c-4.7-4.7-4.7-12.4 0-17.1l12.2-12.2c4.7-4.7 12.4-4.7 17.1 0l46.5 46.5c2.3 2.3 5.4 3.6 8.6 3.6h48.6c3.2 0 6.3 1.3 8.6 3.5l22.2 22.2c2.3 2.3 5.4 3.5 8.6 3.5H2732c3.2 0 6.3 1.3 8.6 3.5l80.9 80.8c2.3 2.3 3.6 5.4 3.6 8.6v48.6c0 3.2 1.3 6.3 3.5 8.6l51.5 51.5c2.3 2.3 3.5 5.4 3.5 8.6v48.6c0 3.2 1.3 6.3 3.5 8.6l17.2 17.2c4.7 4.7 12.4 4.7 17.2 0l17.2-17.2c2.3-2.3 3.5-5.3 3.5-8.6v-107.2c0-3.2 1.3-6.3 3.5-8.6l80.8-80.8c2.3-2.3 5.4-3.5 8.6-3.5h48.6c3.2 0 6.3 1.3 8.6 3.6l110.1 110.2c2.3 1.2 3.6 4.2 3.6 7.5zM1991.4 3051.6c-3.2 0-6.3-1.3-8.6-3.5l-22.3-22.2c-2.3-2.3-5.4-3.5-8.6-3.5h-48.6c-3.2 0-6.3 1.3-8.6 3.6l-17.2 17.2c-4.7 4.7-12.4 4.7-17.1 0l-17.2-17.2c-2.3-2.3-5.4-3.5-8.6-3.5H1786c-3.2 0-6.3-1.3-8.6-3.6-35.2-35.3-83-55.1-132.9-55.1h-3c-23.3 0-45.7 9.3-62.1 25.8-2.3 2.3-5.4 3.6-8.6 3.6-34.3 0-67.3 13.6-91.6 37.9l-51.9 51.9c-36.3 36.3-56.7 85.5-56.7 136.9V3369c0 3.2 1.3 6.3 3.5 8.6l110.2 110.1c2.3 2.3 5.4 3.5 8.6 3.5h107.2c3.2 0 6.3-1.3 8.6-3.5l22.3-22.2c2.3-2.3 5.3-3.5 8.6-3.5h48.6c3.2 0 6.3 1.3 8.6 3.5l22.3 22.2c2.3 2.3 3.6 5.4 3.6 8.6v107.2c0 3.2 1.3 6.3 3.5 8.6l80.8 80.8c2.3 2.3 3.5 5.4 3.5 8.6v48.6c0 3.2-1.3 6.3-3.5 8.6l-22.2 22.3c-2.3 2.3-3.5 5.3-3.5 8.6v107.2c0 3.2 1.3 6.3 3.5 8.6l22.2 22.2c2.3 2.3 3.5 5.4 3.5 8.6v48.6c0 3.2 1.3 6.3 3.6 8.6l22.2 22.2c2.3 2.3 3.6 5.4 3.6 8.6v48.6c0 3.2 1.3 6.3 3.6 8.6l51.5 51.5c2.3 2.3 5.4 3.5 8.6 3.5h48.6c3.2 0 6.3-1.3 8.6-3.5l110.2-110.1c2.3-2.3 3.6-5.4 3.6-8.6v-48.5c0-3.2 1.3-6.3 3.5-8.6l139.4-139.5c2.3-2.3 3.5-5.4 3.5-8.6v-49c0-3.2-1.3-6.3-3.6-8.6l-22.2-22.2c-2.3-2.3-3.6-5.4-3.6-8.6v-107.2c0-3.2 1.3-6.3 3.5-8.6l168.8-168.7c2.3-2.3 3.5-5.4 3.5-8.6V3386c0-6.7-5.4-12.1-12.1-12.1h-100.1c-3.2 0-6.3-1.3-8.6-3.5l-51.6-51.5c-2.3-2.3-3.6-5.4-3.6-8.6v-48.6c0-3.2-1.3-6.3-3.5-8.6l-80.8-80.8c-2.3-2.3-3.5-5.3-3.5-8.6v-46.1l-36.8-66.1h-75.4zM4188.1 3909.5l-33.2 33.3c-2.2 2.2-3.4 5.2-3.4 8.3v23.6c0 10.4 12.6 15.7 20 8.3l33.2-33.3c2.2-2.2 3.4-5.2 3.4-8.3v-23.6c.1-10.4-12.6-15.6-20-8.3zM4103.1 3994.7l-4.2 4.2c-2.7 2.7-6.3 4.2-10 4.2h-46.1c-3.1 0-6.1 1.2-8.3 3.4l-45 45c-4.6 4.6-4.6 12 0 16.6l11.8 11.8c4.6 4.6 12 4.6 16.6 0l45-45.1c2.2-2.2 5.2-3.4 8.3-3.4h40.2c6.5 0 11.7-5.3 11.7-11.7V4003c0-10.5-12.6-15.7-20-8.3z"/></g></g><path fill="#1C6497" d="M1289 334.9h226.8v160.2H1289z"/><path fill="#1C6497" d="M1465.7 377.6h13.1v-38H1326v38h13.4c18-13.4 39.7-21.2 63.1-21.2s45.1 7.8 63.2 21.2z"/><path fill="#FFF" d="M2120.9 684.7c-8.4 0-15.2-6.8-15.2-15.2 0-1-.8-1.7-1.7-1.7-.9 0-1.7.8-1.7 1.7 0 8.4-6.8 15.2-15.2 15.2-.9 0-1.7.8-1.7 1.7 0 .9.8 1.7 1.7 1.7 8.4 0 15.2 6.8 15.2 15.2 0 1 .8 1.7 1.7 1.7 1 0 1.7-.8 1.7-1.7 0-8.4 6.8-15.2 15.2-15.2.9 0 1.7-.8 1.7-1.7 0-.9-.8-1.7-1.7-1.7M856.8 1161.7c-24.4-4.6-33.4-17.5-37.3-37.3-.4-2.3-1.9-4.2-4.2-4.2-2.3 0-3.7 1.9-4.2 4.2-4.9 22.1-14.5 31-37.3 37.3-2.2.6-4.2 1.9-4.2 4.2 0 2.3 2 3.6 4.2 4.2 24.1 6.6 34 15.9 37.3 37.3.4 2.3 1.9 4.2 4.2 4.2 2.3 0 3.8-1.9 4.2-4.2 3.4-21.1 14.6-33.3 37.3-37.3 2.3-.4 4.2-1.9 4.2-4.2 0-2.3-1.9-4.2-4.2-4.2M2143.3 961.1c-24.4-4.6-33.4-17.5-37.3-37.3-.4-2.3-1.9-4.2-4.2-4.2-2.3 0-3.7 1.9-4.2 4.2-4.9 22.1-14.5 31-37.3 37.3-2.2.6-4.2 1.9-4.2 4.2 0 2.3 2 3.6 4.2 4.2 24.1 6.6 34 15.9 37.3 37.3.4 2.3 1.9 4.2 4.2 4.2 2.3 0 3.8-1.9 4.2-4.2 3.4-21.1 14.6-33.3 37.3-37.3 2.3-.4 4.2-1.9 4.2-4.2 0-2.3-1.9-4.2-4.2-4.2M1917.6 1173.5c-13.8-2.6-18.8-9.9-21-21-.3-1.3-1.1-2.4-2.4-2.4-1.3 0-2.1 1.1-2.4 2.4-2.8 12.5-8.2 17.5-21 21-1.3.3-2.4 1.1-2.4 2.4 0 1.3 1.1 2 2.4 2.4 13.6 3.7 19.2 9 21 21 .2 1.3 1.1 2.4 2.4 2.4 1.3 0 2.2-1.1 2.4-2.4 1.9-11.9 8.2-18.7 21-21 1.3-.2 2.4-1.1 2.4-2.4 0-1.4-1.1-2.4-2.4-2.4M2454.4 1163.6c-13.8-2.6-18.8-9.9-21-21-.3-1.3-1.1-2.4-2.4-2.4-1.3 0-2.1 1.1-2.4 2.4-2.8 12.5-8.2 17.5-21 21-1.3.3-2.4 1.1-2.4 2.4 0 1.3 1.1 2 2.4 2.4 13.6 3.7 19.2 9 21 21 .2 1.3 1.1 2.4 2.4 2.4 1.3 0 2.2-1.1 2.4-2.4 1.9-11.9 8.2-18.7 21-21 1.3-.2 2.4-1.1 2.4-2.4-.1-1.3-1.1-2.4-2.4-2.4M796.3 676.3c-27.9-5.2-38.1-19.9-42.5-42.5-.5-2.6-2.1-4.8-4.8-4.8-2.6 0-4.2 2.2-4.8 4.8-5.6 25.2-16.5 35.3-42.5 42.5-2.5.7-4.8 2.2-4.8 4.8 0 2.6 2.3 4.1 4.8 4.8 27.5 7.5 38.8 18.1 42.5 42.5.4 2.6 2.1 4.8 4.8 4.8 2.7 0 4.4-2.2 4.8-4.8 3.9-24 16.7-37.9 42.5-42.5 2.6-.5 4.8-2.2 4.8-4.8 0-2.6-2.2-4.8-4.8-4.8M1764.2 780.6c-27.9-5.2-38.1-19.9-42.5-42.5-.5-2.6-2.1-4.8-4.8-4.8-2.6 0-4.2 2.2-4.8 4.8-5.6 25.2-16.5 35.3-42.5 42.5-2.5.7-4.8 2.2-4.8 4.8 0 2.6 2.3 4.1 4.8 4.8 27.5 7.5 38.8 18.1 42.5 42.5.4 2.6 2.1 4.8 4.8 4.8 2.7 0 4.4-2.2 4.8-4.8 3.9-24 16.7-37.9 42.5-42.5 2.6-.5 4.8-2.2 4.8-4.8-.1-2.7-2.2-4.8-4.8-4.8M1076.7 867.6c-17.3-3.2-23.7-12.4-26.5-26.5-.3-1.6-1.3-3-3-3-1.6 0-2.6 1.4-3 3-3.5 15.7-10.3 22-26.5 26.5-1.6.4-3 1.3-3 3 0 1.6 1.4 2.6 3 3 17.1 4.7 24.1 11.3 26.5 26.5.3 1.6 1.3 3 3 3s2.7-1.4 3-3c2.4-15 10.4-23.6 26.5-26.5 1.6-.3 3-1.3 3-3s-1.4-3-3-3M490.6 992.2c-15.8-2.9-21.6-11.3-24.1-24.1-.3-1.5-1.2-2.7-2.7-2.7-1.5 0-2.4 1.2-2.7 2.7-3.2 14.3-9.4 20-24.1 24.1-1.4.4-2.7 1.2-2.7 2.7 0 1.5 1.3 2.3 2.7 2.7 15.6 4.2 22 10.3 24.1 24.1.2 1.5 1.2 2.7 2.7 2.7 1.5 0 2.5-1.2 2.7-2.7 2.2-13.6 9.5-21.5 24.1-24.1 1.5-.3 2.7-1.2 2.7-2.7 0-1.5-1.2-2.7-2.7-2.7M1382.6 362h36.9v15.6h-36.9z"/><path fill="#7DB4D3" d="M1291.4 93.5h226.8v159.4h-226.8zM1518.2 476.1h-226.8c0-69.2 50.8-125.4 113.4-125.4 62.6 0 113.4 56.2 113.4 125.4z"/><path fill="#1C6497" d="M1328.2 333.9H1481v38h-152.8z"/><path fill="#7DB4D3" d="M632.8 405.6h467.1l197.7-165.9-197.7-166H632.8v166"/><path fill="#1C6497" d="M690.1 121.7h398.7v235.9H690.1z"/><path fill="none" stroke="#7DB4D3" stroke-width="10.974" stroke-miterlimit="10" d="M995.9 98.3L713.2 381"/><path fill="none" stroke="#7DB4D3" stroke-width="32.922" stroke-miterlimit="10" d="M1061.8 98.3L779 381"/><path fill="#7DB4D3" d="M2169.4 405.6h-467.1l-197.7-165.9 197.7-166h467.1v166"/><path fill="#1C6497" d="M1719.8 121.7h398.7v235.9h-398.7z"/><path fill="none" stroke="#7DB4D3" stroke-width="10.974" stroke-miterlimit="10" d="M2026.1 98.3L1743.3 381"/><path fill="none" stroke="#7DB4D3" stroke-width="32.922" stroke-miterlimit="10" d="M2091.9 98.3L1809.2 381"/><path fill="#916FB1" d="M1238.6 121.7h332.1v235.9h-332.1z"/><path fill="#B79DCA" d="M1271.6 154.5h266.3V192h-266.3z"/><circle fill="#7DB4D3" cx="1404.8" cy="271.6" r="29.7"/><path fill="none" d="M1965.7 1556.5c-11.4 0-22.5 2.7-32.4 7.6-1 5-1.5 10.2-1.5 15.4 0 21 8.3 40.9 23.3 55.8 15.1 14.9 35.1 23.1 56.3 23.2 7.9 0 15.7-1.2 23.1-3.4 3.1-8.1 4.8-16.7 4.8-25.7 0-19.4-7.7-37.8-21.5-51.6-14-13.7-32.5-21.3-52.1-21.3z"/><path fill="#084361" stroke="#084361" stroke-width="63.22" stroke-linecap="round" stroke-linejoin="round" stroke-miterlimit="10" d="M1797.7 1561.3c-4.7-13.3-11-24.8-19.3-34.8 1.5-3.2 2.7-6.3 3.8-9.3 4.7-13.8 7.2-28.7 7.2-44.2 0-15.9-2.7-30.9-8-44.4-5.7-14.7-14.8-28.1-26.3-38.8-11.3-10.5-25.5-18.8-41.1-23.8-13.8-4.4-28.6-6.6-45.2-6.6H1518.1l-.6 64.5v344.8h139.9c16.5 0 31.2-2.2 44.9-6.7 15.3-5 29.2-13.1 40.3-23.5 4.5-4.2 8.5-9 12.2-14 2-2.2 3.8-4.5 5.6-6.8 6.3-6.9 11.8-14.5 16.1-22.8 1.2-1.8 2.3-3.7 3.3-5.6l.6-.9c7-8.8 12.8-18.6 16.9-29.2 2.5-40.9 6.4-88.7 9.9-126.8-4 9.2-7.3 18.9-9.5 28.9z"/><path fill="#084361" stroke="#084361" stroke-width="63.22" stroke-linecap="round" stroke-linejoin="round" stroke-miterlimit="10" d="M2512.5 1720.6c-1-1.8-2-3.4-2.8-4.8-1.7-3.1-3.2-5.6-4.8-8.1l-19.9-31.2c-26.6-41.7-54.2-84.8-81.7-127.1-3-4.6-2.8-5.2-.4-9 24.2-37.9 48.4-76.6 71.9-114.1l20-32c1.7-2.7 3.3-5.5 5.1-8.7l3-5.3 8.7-15h-68.2c-13.9 0-27.6-.1-41.3-.3h-.7c-11.2 0-75 54.9-78.4 58.5-10-15.6-19.9-31-29.9-46.1-2.9-4.3-10-11.7-18.8-11.9-18.8-.3-37-.4-52.3-.4h-63.6l-32 37.8 8 13.1h-3.4c-34.9-33.7-80.9-52.3-129.8-52.3h-.1c-50 0-96.9 19.3-132.1 54.3-13.3 13.2-24.4 28-33 44.1-3.9 6.1-7.3 12.4-10.4 18.9-1.8 3.2-3.5 6.5-5.1 9.8-2.4 3.5-4.7 7.2-6.8 10.9-6.7 9.5-12.2 19.7-16.7 30.2-3.4 38.1-7.4 86-9.9 126.8.1-.2.2-.3.2-.5 1.2-3 2.2-6.2 3.1-9.4 8.1 26.6 22.8 51.1 43.2 71.3 32.5 32.3 75.8 50.1 121.9 50.1 35.6 0 69.4-10.7 98-30.3 3.6-2.1 7.2-4.1 10.6-6.5 13.2-7.4 25.4-16.7 36.6-27.4 11.7-7.3 22.7-15.9 32.7-25.9 31.5-31.1 50.2-71.5 53.9-115 5.2 8.1 10.4 16.2 15.7 24.2 3.3 5 3.3 6.6.3 11.3-23.8 37.3-47.6 75.4-70.7 112.2l-20.6 32.8c-1.4 2.2-2.6 4.4-4.1 7l-2.5 4.3-8.1 13.9h57.4c14.2 0 31-.3 48.3-.3 10.8 0 71.4-32.3 84.3-46.3.4-.4.6-.9.9-1.4 7.8 12.1 15.6 24.2 23.4 36.2 3.4 5.2 8.9 11.3 16.1 11.5 18.2.3 36.1.4 51.1.4H2435.9l85.5-35.6-8.9-14.7zm-488.1-95.6c-7.4 2.2-15.2 3.4-23.1 3.4-21.2 0-41.2-8.3-56.3-23.2-15-14.9-23.3-34.8-23.3-55.8 0-5.2.5-10.4 1.5-15.4 10-4.9 21-7.6 32.4-7.6 19.6 0 38 7.6 52 21.4 13.8 13.8 21.5 32.1 21.5 51.6.1 8.9-1.6 17.5-4.7 25.6z"/><ellipse fill="#084361" stroke="#084361" stroke-width="21.152" stroke-miterlimit="10" cx="2204.9" cy="1626.2" rx="8.5" ry="10.1"/><ellipse fill="#FDDA00" cx="1024.5" cy="1735.7" rx="40.1" ry="44"/><path fill="#084361" stroke="#084361" stroke-width="63.22" stroke-linejoin="round" stroke-miterlimit="10" d="M1196.5 1464.8c-10.4-22.7-22.3-41.5-37.9-58-15.5-16.4-35.2-29.4-56.7-37.5-20.4-7.7-43.2-11.7-67.8-11.7h-.1c-24.7 0-47.6 4-68.1 11.8-21.6 8.2-41.2 21.3-56.8 37.9l-1 1.1c-15.2 16.4-26.7 36.2-34.1 58.9-3.9 12-6.6 24.7-8.3 38.1 0-.1-.1-.2-.1-.3-5.1-11-11.2-21.2-18.3-30.2-3-3.8-6.2-7.5-9.5-11-.3-.4-.6-.9-.9-1.3-3.2-4.1-6.6-8.1-10.3-11.8-.1-.2-.2-.3-.3-.5l-.3-.3c-2.5-3.9-5.1-7.9-7.9-11.5-.2-.3-.5-.5-.7-.8-2.4-3.8-4.9-7.6-7.6-11-2.2-2.8-4.6-5.4-7-8-1-1.3-1.8-2.8-2.8-4.1-13.6-17.5-31.1-31.8-50.6-41.4-21-10.4-46.1-15.9-72.6-15.9-32.7 0-62.8 7.5-87.1 21.8-7.2 4.2-14.2 9.2-20.8 14.9-9.4-8.2-19.7-15.1-30.8-20.5-21-10.4-46.1-15.9-72.5-15.9-32.6 0-62.7 7.5-87 21.7-17.1 9.9-32.3 23.7-43.9 39.9-13.7 19-23 41-28.5 67-3.4 16.5-5.1 33.9-5.2 53.1V1737l85.5 35.5h106.3v-182.2c0-8.8.7-17.3 1.9-24.5 1.1-6.4 2.8-12.3 4.8-17 1.5-3.4 3.1-6.4 5-8.8 2.3-2.9 4.5-4.8 7.4-6.5v1.1l-.1 192.3v10l69.3 35.5h106.8v-182.2c0-6.1.3-15.3 1.9-24.4 1.1-6.4 2.8-12.2 4.8-16.9 1.5-3.4 3.1-6.3 5-8.7 2.9-3.6 5.5-5.8 9.7-7.7 3.7-1.7 8.1-2.8 13.2-3.5.2 2.9.4 5.7.4 8.4v198.4l53.1 35.7h106.8v-22.1l2.6 22.1H1005v-96.3h91.8v58.4l24.5 35.8h98.9V1587c0-23.6 2-46.6-4.4-65.8-.5-1.8-18.4-53.8-19.3-56.4zm-160.3 60.1c7.4-2.9 16.6-4.3 27.1-4.3 10.6 0 19.8 1.5 27.3 4.3.2.1.3.2.5.2h-55.4c.1-.1.3-.2.5-.2z"/><path fill="#084361" stroke="#084361" stroke-width="63.22" stroke-linecap="round" stroke-linejoin="round" stroke-miterlimit="10" d="M1509.4 1540.5c.5-3.4.9-6.8 1.1-10.3.2-1.8.5-3.5.7-5.3 1.5-8.8 2.3-17.9 2.3-27.4 0-18.9-3.1-36.6-9.3-52.5-6.6-17.1-17.1-32.6-30.5-45-13.1-12.2-29.7-21.8-47.9-27.7-16.5-5.3-34.3-7.9-54.4-7.9h-139.7v370.5l-1.4 34.6h126.1V1674h20.7c18.3 0 34.5-2.4 49.6-7.4 16.6-5.4 31.7-14.2 43.7-25.5 12.2-11.3 21.8-25.7 27.9-41.5 3.9-10.1 6.4-21 7.6-32.5.6-3.3 1-6.7 1.4-10.1 1.1-5.4 1.7-10.9 2.1-16.5z"/><g><path fill="#FFF" d="M514 1734l.1-199.8c-.1-4.8-.8-14.7-3.4-25.4-2.6-10.6-6.7-20.1-11.5-26.7-3.2-4.3-6.5-7.5-10.5-9.9-4.6-2.7-11.7-5.9-26-6-11.9 0-21.3 1.7-28.8 5.2-5.3 2.5-8.8 5.4-12.4 10.1-2.3 3-4.3 6.6-6 10.6-2.4 5.6-4.3 12.4-5.6 19.8-1.4 8.2-2.2 17.7-2.2 27.7V1734H302.3v-194.4c0-19.1 1.7-36.3 5.1-52.7 5.3-25.6 14.4-47.2 27.8-65.9 11.3-15.8 26-29.3 42.5-39 23.6-13.9 52.8-21.2 84.7-21.2 25.7 0 50.1 5.4 70.5 15.5 12 5.9 23.1 13.7 33.1 23.1 7.4-6.9 15.3-12.7 23.5-17.6 23.6-13.9 52.9-21.3 84.8-21.3 25.8 0 50.2 5.4 70.6 15.6 18.9 9.3 35.8 23.3 48.9 40.4 7.4 9.6 13.9 20.3 19.2 32.1 5.9 12.8 10.4 26.9 13.6 41.7 3.3 15.6 5 31.5 5 47.1v195.5H725.8v-195.5c0-9-1.3-19.6-3.5-28.4-2.6-10.6-6.6-20-11.5-26.6-3.2-4.3-6.5-7.5-10.4-9.9-4.5-2.7-11.6-5.9-25.8-6-11.9 0-21.2 1.7-28.7 5.2-5.2 2.5-8.7 5.3-12.4 10-2.2 2.9-4.3 6.5-6 10.6-2.4 5.5-4.3 12.3-5.6 19.7-1.8 10.3-2.2 20.7-2.2 27.7V1734H514z"/><path fill="#0A4361" d="M674.3 1365.6c25.3 0 48.7 5.2 68.4 15 18.2 9 34.5 22.4 47.2 38.9 7.2 9.3 13.5 19.8 18.6 31.1 5.7 12.5 10.2 26.2 13.3 40.7 3.2 15.3 4.9 30.8 4.9 46v190.5h-95.9v-190.5c0-9.3-1.3-20.4-3.6-29.6-2.7-11.2-7.1-21.3-12.3-28.3-3.6-4.8-7.3-8.4-11.8-11.2-5.1-3.1-13-6.6-28.4-6.7-12.6 0-22.7 1.9-30.8 5.6-6 2.8-10.1 6.2-14.2 11.5-2.5 3.2-4.7 7.2-6.7 11.7-2.5 5.9-4.6 13.1-5.9 20.8-1.9 10.7-2.3 21.4-2.3 28.5V1729H519l.1-194.8c-.1-5-.8-15.4-3.6-26.6-2.7-11.2-7.1-21.3-12.3-28.4-3.6-4.9-7.3-8.5-11.9-11.2-5.1-3.1-13.1-6.7-28.6-6.8-12.7 0-22.8 1.9-31 5.7-6 2.9-10.2 6.2-14.3 11.5-2.5 3.3-4.8 7.3-6.7 11.8-2.5 5.9-4.6 13.1-5.9 20.8-1.5 8.5-2.3 18.3-2.3 28.6V1729h-95.3v-189.4c0-18.7 1.6-35.6 5-51.6 5.2-24.9 14-45.9 26.9-64 10.9-15.2 25-28.2 41-37.5 22.8-13.5 51.2-20.6 82.1-20.6 25.2 0 48.6 5.2 68.3 15 12.9 6.4 24.8 15 35.3 25.5 8.1-8 16.8-14.8 26.1-20.2 22.9-13.5 51.4-20.6 82.4-20.6m0-10.1c-32.8 0-63 7.6-87.4 22-7.3 4.3-14.3 9.3-20.9 15.1-9.4-8.3-19.8-15.3-30.9-20.8-21.1-10.5-46.2-16-72.7-16-32.7 0-62.9 7.6-87.2 21.9-17.1 10-32.3 24-44 40.3-13.7 19.3-23.1 41.4-28.6 67.7-3.5 16.7-5.2 34.3-5.2 53.7V1739h115.3v-199.4c0-9.7.7-19 2.1-26.8 1.2-7 3-13.4 5.2-18.6 1.6-3.7 3.4-6.9 5.5-9.6 3.1-4 6-6.3 10.6-8.6 6.7-3.1 15.5-4.7 26.6-4.7 13 .1 19.3 2.9 23.4 5.3 3.3 2.1 6.1 4.7 9 8.6 4.5 6.1 8.2 14.9 10.7 24.9 2.7 10.6 3.2 20.7 3.3 24.5l-.1 194.5v10h115.9v-199.4c0-6.8.4-16.9 2.1-26.8 1.2-7 3-13.4 5.2-18.6 1.6-3.8 3.4-7 5.4-9.6 3.1-4 6-6.3 10.6-8.5 6.7-3.1 15.4-4.7 26.5-4.7 12.9.1 19.2 2.9 23.2 5.3 3.3 2 6.1 4.7 8.9 8.5 4.4 6 8.2 14.8 10.6 24.8 2.1 8.5 3.4 18.7 3.4 27.3v200.5h115.9v-200.5c0-15.9-1.7-32.1-5.1-48.1-3.2-15.2-7.9-29.6-14-42.8-5.5-12.1-12.2-23.2-19.8-33.1-13.6-17.7-31.1-32.1-50.7-41.8-21.1-10.5-46.3-16.1-72.8-16.1z"/></g><g><path fill="#FFF" d="M866.8 1731.8v-193.6c0-26.1 3.3-49 10.2-70.1 7.3-22.6 18.6-42.2 33.6-58.3l.5-.5c15.1-16.2 34.2-29 55.1-37 19.9-7.7 42.3-11.6 66.5-11.6 24.1 0 46.4 3.9 66.3 11.5 20.9 7.9 39.9 20.6 55 36.7 15.2 16.1 26.6 35.6 34 58 6.8 20.6 10.2 43.8 10.2 69.1v194.7h-97.4v-103.2H964.1V1732l-97.3-.2zm233.9-201.8c-.4-12.5-2.2-23.4-5.2-32.6-3-9-6.9-15.9-12.4-21.7-5.4-5.7-11.3-9.6-19-12.6-8.7-3.3-19.3-5-31.5-5-12.1 0-22.7 1.7-31.4 5.1-7.8 3-13.7 7-19.2 12.8l-.3.3c-5.3 5.8-9.2 12.8-12.2 21.9-2.9 8.9-4.6 19.5-5.2 31.7l136.4.1z"/><path fill="#0A4361" d="M1032.7 1365.7c22.6 0 44.4 3.4 64.5 11.1 20.1 7.7 38.4 19.8 53.2 35.4 15 15.9 26 35.2 32.9 56.1 6.9 21 10 43.6 10 67.5v189.7H1106v-103.2H959.1v104.5h-87.4v-188.6c0-24.4 3.1-47.3 10-68.6 6.9-21.2 17.9-40.8 33-56.9 14.8-15.8 33.1-28 53.3-35.8 20.2-7.8 42-11.2 64.7-11.2m-54.3 106.8c-5.5 5.9-10.1 13.4-13.6 24.1-3.2 10-5.3 22.8-5.6 38.3h146.5c-.1-16-2.2-29.1-5.5-39.2-3.5-10.4-7.9-17.7-13.5-23.6-5.9-6.1-12.3-10.5-20.9-13.8-8.6-3.3-19.4-5.4-33.3-5.4-13.8 0-24.6 2.1-33.2 5.4-8.4 3.5-14.9 7.9-20.9 14.2m54.3-116.9c-24.8 0-47.7 4-68.3 12-21.6 8.3-41.3 21.5-57 38.3l-1 1.1c-15.2 16.5-26.7 36.6-34.2 59.6-7 21.6-10.4 45.1-10.4 71.7v198.6h107.4v-104.4h126.7v103.2h107.3V1536c0-25.8-3.5-49.6-10.5-70.7-7.2-21.8-18-40.9-32.4-56.9v-.1l-2.7-2.9c-15.6-16.6-35.3-29.7-56.9-37.9-20.4-7.9-43.3-11.9-68-11.9zm-47.3 124.1l.3-.3c5-5.3 10.4-8.9 17.4-11.6 8.1-3.1 18-4.7 29.5-4.7 11.6 0 21.5 1.6 29.7 4.7 7 2.7 12.3 6.2 17.2 11.4 4.8 5.2 8.4 11.5 11.2 19.8 2.4 7.3 4 16.1 4.7 26H969.7c.7-9.6 2.3-18.1 4.6-25.2 2.8-8.5 6.3-14.8 11.1-20.1z"/></g><path fill="#FFF" d="M1237.9 1731.8v-364.4h133.5c19.6 0 36.9 2.6 53 7.8 17.6 5.7 33.5 15 46.2 26.8 12.8 11.9 22.9 27 29.3 43.6 6 15.5 9 32.8 9 51.3 0 18.4-3 35.6-8.9 51.1-6.3 16.5-16.3 31.6-29 43.5-12.5 11.8-28.3 21.1-45.6 26.8-16 5.2-33.1 7.8-52.4 7.8h-27.7v105.8h-97.4l-10-.1zm135-203.1c10.8 0 17.8-1.6 21.8-2.9 5.2-1.8 7.6-3.6 9.3-5.2 2.3-2.2 3.6-4.2 4.9-7.5 1.6-4.2 2.4-9.7 2.4-16.2s-.8-11.9-2.5-16.1c-1.3-3.3-2.7-5.4-5.1-7.7-1.7-1.5-4.2-3.4-9.7-5.2-4.2-1.4-11.5-3-22.7-3h-26.2v63.9h27.8z"/><path fill="#0A4361" d="M1371.4 1372.4c17.9 0 35.1 2.2 51.5 7.5 16.3 5.3 31.6 13.8 44.3 25.7 12.4 11.5 22 26 28 41.7 6.1 15.7 8.7 32.5 8.7 49.5 0 16.9-2.6 33.6-8.6 49.3-6 15.6-15.5 30.1-27.8 41.7-12.5 11.8-27.7 20.4-43.7 25.7-16.1 5.3-33.1 7.6-50.8 7.6h-32.7v105.8h-97.5v-354.4h128.6m-31.1 161.2h32.7c10.2 0 17.9-1.4 23.4-3.1 5.5-1.9 8.7-3.9 11.2-6.3 2.7-2.6 4.5-5.2 6.2-9.4 1.6-4.1 2.8-9.9 2.8-18.1 0-8.1-1.2-13.9-2.8-18-1.6-4.1-3.5-6.8-6.3-9.5-2.5-2.3-5.8-4.5-11.6-6.4-5.7-1.9-13.7-3.2-24.3-3.2H1340.4l-.1 74m31.1-171.3h-148.6v374.4h127.5V1631h22.7c19.8 0 37.4-2.6 53.9-8.1 18-5.9 34.5-15.6 47.5-27.9 13.2-12.4 23.7-28.1 30.3-45.4 6.1-16 9.2-33.8 9.2-52.9s-3.1-37-9.4-53.1c-6.6-17.2-17.2-33-30.5-45.4-13.1-12.4-29.8-22-48-27.9-16.7-5.3-34.5-7.9-54.6-7.9zm-21.1 107.4h21.1c10.7 0 17.5 1.5 21.3 2.7 4.5 1.5 6.5 3 7.9 4.2 1.8 1.7 2.7 3.1 3.8 5.8 1.4 3.6 2.1 8.4 2.1 14.3 0 5.8-.7 10.8-2.1 14.5-1.1 2.8-2.2 4.2-3.7 5.7-1.2 1.1-3.1 2.5-7.4 4-3.6 1.2-10.1 2.6-20.2 2.6h-22.7l-.1-53.8z"/><g><path fill="#FFF" d="M1531.4 1729.7v-367.3h138.3c16.1 0 30.4 2.1 43.8 6.5 14.9 4.8 28.6 12.8 39.4 22.9 11 10.2 19.7 23.2 25.1 37.3 5.1 13.1 7.6 27.6 7.6 43 0 15.1-2.3 29.5-6.9 43-1.3 3.7-2.9 7.6-5 11.9 9.2 10.6 16.1 22.9 21 37.4 4.9 14.8 7.5 30.7 7.5 47.2 0 16.7-2.7 32.4-8.1 46.5-5.8 15.2-15 29-26.7 40l-.6.5c-11.4 10.6-25.7 19-41.3 24.1-14.4 4.7-29.9 7.1-47.2 7.1l-146.9-.1zm146.9-97.4c8.9 0 14.3-1.4 16.7-2.2 3.4-1.1 4.7-2.2 5.6-3 1-1 1.7-1.9 2.5-4 .8-1.9 1.7-5.6 1.7-11.6 0-4.8-.7-9.9-1.8-14.1-1.1-4-2.5-6.5-2.8-6.9-.8-.7-2.2-1.7-5.6-2.8-2.6-.8-8.2-2.3-17.6-2.3h-48.1v46.8l49.4.1zm-7.4-144.5c7.3 0 11.3-1.1 12.7-1.6 1.1-.4 1.7-.7 2.1-.9.2-.4.5-1 .7-1.8.8-2.3 1.7-6.6 1.7-11.4 0-4.5-.7-6.9-1.1-8-.4-.9-.4-.9-1-1.5-.1-.1-.6-.5-2.8-1.3-1.9-.6-6.1-1.7-13.5-1.7h-41v28.1l42.2.1z"/><path fill="#0A4361" d="M1799.4 1562.8c5.1 15.3 7.7 31.7 7.8 48.7 0 17.3-2.9 33.6-8.5 48.2-6 15.9-15.6 30.4-27.8 41.9l-1.1 1c-11.9 10.9-26.5 19.4-42.7 24.7-14.9 4.9-30.9 7.3-48.8 7.3h-151.8v-377.3h143.2c16.6 0 31.5 2.2 45.4 6.7 15.6 5.1 29.9 13.4 41.2 24 11.6 10.8 20.7 24.3 26.3 39.2 5.3 13.7 8 28.9 8 44.9 0 15.6-2.5 30.7-7.2 44.7-1.1 3-2.3 6.1-3.8 9.4 8.5 10.5 15.1 22.5 19.8 36.6zm-2.2 48.7c0-15.3-2.3-30.7-7.2-45.6-4.5-13.2-11.4-26.3-22.3-38.2 2.4-4.7 4.6-9.5 6.2-14.3 4.7-13.6 6.7-27.4 6.7-41.4 0-13.9-2.2-27.9-7.3-41.3-5.1-13.2-13.3-25.6-23.8-35.5-10.8-10.1-23.9-17.4-37.5-21.8-13.6-4.4-27.7-6.2-42.3-6.2h-133.2v357.3h141.8c15.7 0 31.1-2 45.7-6.8 14.6-4.8 28.6-12.6 40-23.5h.1c11.2-10.5 19.9-23.8 25.3-38.1 5.5-14.2 7.8-29.3 7.8-44.6z"/><path fill="#FFF" d="M1707.9 1596.1c1.2 4.4 2 10 2 15.4-.1 6.4-1 10.7-2.1 13.4-1.1 2.7-2.1 4.1-3.8 5.8-1.5 1.4-3.4 2.7-7.4 4.1-3.9 1.3-10 2.4-18.2 2.4h-54.5v-56.9h53.1c8.7 0 15 1.2 19.2 2.5 4.2 1.4 6.2 2.8 7.7 4.2l.3.3c.7 1.1 2.5 4.3 3.7 8.8zm-8 15.4c0-4.3-.6-9.1-1.7-12.8-.6-2.3-1.3-4-1.8-4.8-.6-.4-1.5-.9-3.3-1.5-2.3-.7-7.4-2-16-2h-43.2v36.9h44.5c8.2 0 13-1.2 15.1-1.9 2.7-.9 3.4-1.6 3.5-1.7.7-.7 1-1 1.5-2.3.5-1.4 1.4-4.4 1.4-9.9zM1691.7 1462.4c.7 1.7 1.5 4.7 1.5 9.7 0 5.1-.9 9.9-2 13-.5 1.6-1.1 2.7-1.4 3.2l-.2.4-.1.1-.5.4c-.7.5-1.8 1-3.7 1.7-2.9 1-7.6 1.9-14.4 1.9h-47.1v-38.2H1669.8c7.1 0 12.1 1 15.1 2s4.1 1.8 4.7 2.4c1 1.1 1.4 1.7 2.1 3.4zm-8.5 9.7c0-2.9-.4-4.7-.6-5.6-.3-.1-.5-.2-.9-.3-1.2-.5-5-1.5-12-1.5h-35.8v18.1h37.1c6.5 0 9.9-1 11-1.3.6-2.1 1.2-5.6 1.2-9.4z"/></g><g><path fill="#FFF" d="M2003.5 1731.9c-48.8 0-94.6-19-128.9-53.4-34.5-34.4-53.5-80.2-53.4-128.9 0-48.7 18.9-94.5 53.4-129 34.4-34.4 80.1-53.4 128.9-53.4 48.9 0 94.7 19 129 53.4 34.5 34.4 53.4 80.2 53.4 129s-18.9 94.5-53.4 128.9c-34.4 34.4-80.2 53.4-129 53.4zm0-267.4c-22.7 0-44 8.9-60.1 24.9-16 16.1-24.9 37.4-24.9 60.1 0 22.6 8.9 44 24.9 60.1 16.1 16 37.4 24.8 60.1 24.9 22.6 0 44-8.9 60.1-24.9 16-16.1 24.9-37.4 24.9-60.1 0-22.7-8.9-44-24.9-60.1-16.1-16-37.5-24.9-60.1-24.9z"/><path fill="#0A4361" d="M2003.5 1372.1c48.8 0 93.4 19.9 125.3 52 32 32 52 76.6 52 125.4 0 48.8-19.9 93.4-52 125.4-31.9 32-76.5 52-125.3 52h-.1-.1c-48.8 0-93.4-19.9-125.3-52-32-31.9-52-76.6-52-125.4 0-48.8 19.9-93.5 52-125.4 31.9-32 76.5-52 125.4-52h.1m0 267.4c25 0 47.2-10 63.6-26.4s26.3-38.6 26.4-63.6c0-25-10-47.2-26.4-63.6s-38.6-26.3-63.6-26.4c-25 0-47.2 10-63.6 26.4s-26.3 38.6-26.4 63.6c0 25 10 47.2 26.4 63.6s38.6 26.4 63.6 26.4m0-277.4c-50.2 0-97.3 19.5-132.6 54.9-35.4 35.3-54.9 82.4-54.9 132.5 0 50.1 19.5 97.1 54.9 132.5 35.3 35.4 82.3 54.9 132.4 54.9 50.2 0 97.3-19.5 132.6-54.9 35.4-35.3 54.9-82.4 54.9-132.5 0-50.1-19.5-97.2-54.9-132.5-35.2-35.4-82.3-54.9-132.4-54.9zm0 267.4c-21.3 0-41.4-8.4-56.6-23.4-15.1-15.1-23.4-35.2-23.4-56.5 0-21.3 8.3-41.4 23.4-56.5 15.1-15.1 35.2-23.4 56.6-23.4 21.3 0 41.4 8.4 56.5 23.5 15.1 15.1 23.4 35.2 23.4 56.5 0 21.3-8.4 41.4-23.5 56.6-15 14.8-35.1 23.1-56.4 23.2z"/></g><g><path fill="#FFF" d="M2166.4 1732.7l7.1-12.3c1.6-2.8 2.9-5.1 4.4-7.5l22.8-36.6c25.3-40.8 50.7-81.6 76.4-122.2 4.4-6.9 4.3-10.8-.4-17.9-23.8-36.5-47.5-74-70.5-110.2l-23.8-37.5c-1.4-2.3-2.8-4.5-4.5-7.5l-7.5-12.5 54.4-.1c17.8 0 35.3.1 52.8.4 6.2.1 12.1 5.9 14.6 9.7 12.9 19.7 25.6 39.6 38.7 60.2l8.8 13.9c1.1-1.6 2.1-3.2 3.1-4.8l10.5-16.8c10.5-16.8 21.4-34.2 31.7-51.5 4.7-7.9 10.7-11.3 20.1-11.3 14.5.2 28.3.3 42.4.3l59.4-.1-7.3 12.8c-1.8 3.3-3.4 6-5 8.7l-19.4 31.2c-23.7 38.2-48.3 77.8-72.8 116.5-3.6 5.7-3.5 8.6.4 14.6 27.3 42.3 54.3 84.8 81.2 127.4l20.7 32.6c1.5 2.4 2.9 4.8 4.5 7.7l7.4 12.8h-53.1c-18.7 0-37.1-.1-55.5-.4-5.9-.1-10.8-6.5-13.2-10.2-15.2-23.5-30.3-47.2-45.7-71.6l-8.3-13.1-30.5 48.8-6.8 10.9c-5.4 8.8-11.1 18-17 26.8-2.8 4.1-8.6 8.5-14 8.6-17.4.3-34.9.3-52.7.3l-53.4-.1z"/><path fill="#0A4361" d="M2405 1373.3h.6c13.9.2 27.7.3 41.8.3 16.6 0 33.4-.1 50.8-.1-3.3 5.8-5.5 9.9-8 13.9-30.6 49.3-61.1 98.6-92.2 147.6-4.9 7.7-4.3 12.7.4 20 34.3 53.1 68 106.6 101.9 159.9 2.3 3.6 4.3 7.4 7.4 12.7h-44.4c-18.7 0-37-.1-55.4-.4-3.1-.1-7-4.6-9.1-7.9-19.3-29.9-38.3-59.9-58.3-91.4-12 19.2-23.3 37.3-34.7 55.5-7.8 12.6-15.4 25.3-23.7 37.6-2.1 3.1-6.5 6.3-10 6.3-17.4.3-34.8.3-52.6.3h-44.6c2.9-5 4.8-8.6 7-12.1 35.4-56.8 70.5-113.8 106.4-170.3-34.6-52.8-68.1-106.3-101.9-159.5-2.1-3.3-4.1-6.7-7.4-12.3 15.5 0 30.6-.1 45.5-.1 17.8 0 35.3.1 52.7.4 3.6.1 8.3 4 10.5 7.4 17.1 26.1 33.7 52.5 51.6 80.5 3-4.4 5.3-7.7 7.5-11.2 14.2-22.7 28.6-45.3 42.3-68.4 4.1-6.5 8.6-8.7 15.9-8.7m0-10c-11.2 0-18.7 4.2-24.4 13.8-10.3 17.3-21.1 34.6-31.7 51.4-3.1 5-6.3 9.9-9.4 14.9l-4.6-7.3c-13.2-20.8-25.8-40.5-38.7-60.3-2.9-4.4-10-11.8-18.8-12-18.9-.3-37.4-.4-52.9-.4h-63.2l9.2 15.2 2.9 4.9c1.8 3 3.2 5.3 4.6 7.6 8 12.5 15.9 25 23.8 37.5 23 36.2 46.7 73.7 70.5 110.3 3.6 5.5 3.6 7.3.3 12.5-25.7 40.6-51.5 82.1-76.4 122.2l-22.7 36.6c-1.5 2.4-2.9 4.8-4.5 7.6l-2.7 4.7-8.7 15H2219.5c15.5 0 33.9 0 52.8-.3 7.5-.1 14.6-5.6 18.1-10.7 6-8.9 11.7-18.1 17.2-27 2.2-3.6 4.5-7.3 6.7-10.9 8.7-13.9 17.3-27.7 26.3-42l4.1 6.4c15.7 24.7 30.5 48 45.8 71.6 3.6 5.6 9.6 12.4 17.4 12.5 19.8.4 39.2.4 55.6.4H2525.3l-8.8-15.1c-1.1-1.9-2.1-3.6-3-5.2-1.7-3-3.1-5.4-4.6-7.9l-20.7-32.6c-26.5-41.8-53.9-85.1-81.3-127.4-3-4.6-2.8-5.4-.4-9.2 24.5-38.7 49.1-78.2 72.8-116.5l19.4-31.2c1.7-2.7 3.3-5.5 5.1-8.9l3-5.3 8.6-15h-68.1c-14 0-27.8-.1-41.6-.3l-.7.4z"/></g><path fill="#084361" d="M1611.6 1440v57.6h46.2c15.9 0 28.8-12.9 28.8-28.8v-.1c0-15.9-12.9-28.8-28.8-28.8h-46.2zM1611.6 1568.7v71.4h61c19.7 0 35.7-16 35.7-35.7v-.1c0-19.7-16-35.7-35.7-35.7h-61zM1376.8 1544h-48.2v-94.8h52.5c25 0 45.3 20.3 45.3 45.3 0 27.4-22.2 49.5-49.6 49.5zM1105.8 1549.6H959.6v-32.8c0-40.4 32.7-73.1 73.1-73.1 40.4 0 73.1 32.7 73.1 73.1v32.8z"/></svg>