<?xml version="1.0" encoding="utf-8"?>
<!-- Generator: Adobe Illustrator 18.1.1, SVG Export Plug-In . SVG Version: 6.00 Build 0)  -->
<svg version="1.1" id="Layer_1" xmlns="http://www.w3.org/2000/svg" xmlns:xlink="http://www.w3.org/1999/xlink" x="0px" y="0px"
	 viewBox="0 100 300 100" enable-background="new 0 100 300 100" xml:space="preserve">
<linearGradient id="SVGID_1_" gradientUnits="userSpaceOnUse" x1="51.8" y1="150.25" x2="246.425" y2="150.25" gradientTransform="matrix(0.2885 0 0 -0.2885 0 193.4135)">
	<stop  offset="0" style="stop-color:#536DFE"/>
	<stop  offset="0.7408" style="stop-color:#43CEFF"/>
</linearGradient>
<path fill="url(#SVGID_1_)" d="M70.2,146.6l-10.5-18.2c-1.2-2.2-3.6-3.5-6.1-3.5H43H32.5c-2.5,0-4.8,1.3-6.1,3.5l-10.5,18.1
	c-1.3,2.2-1.3,4.9,0,7l5.3,9.1c0,0,0,0.1,0,0.1l7.6,12.6h24.8c2.5,0,4.8-1.4,6.1-3.5l10.5-18.2C71.4,151.4,71.4,148.7,70.2,146.6z
	 M19.4,148.5L30,130.4c0.5-0.9,1.5-1.5,2.5-1.5h7L23,157.5l-3.5-6.1C18.9,150.6,18.9,149.5,19.4,148.5z M49.7,142.7l4.2,7.4
	l-12.1,21.1h-8.6L49.7,142.7z M66.6,151.5l-10.5,18.2c-0.5,0.9-1.5,1.5-2.5,1.5h-7l11.5-20.1c0.1-0.2,0.2-0.4,0.2-0.6c0,0,0,0,0,0
	c0,0,0-0.1,0-0.1c0,0,0,0,0-0.1c0,0,0-0.1,0-0.1s0,0,0-0.1s0-0.1,0-0.1c0,0,0,0,0-0.1c0,0,0-0.1,0-0.1v0c0,0,0-0.1,0-0.1v0
	c0,0,0-0.1,0-0.1c0,0,0,0,0-0.1c0,0,0-0.1,0-0.1c0,0,0,0,0-0.1c0,0,0-0.1,0-0.1v0c0-0.1-0.1-0.3-0.2-0.4l-6.6-11.5
	c-0.1-0.1-0.2-0.3-0.3-0.4c-0.4-0.4-0.9-0.6-1.4-0.6l0,0l0,0c-0.1,0-0.2,0-0.3,0c0,0-0.1,0-0.1,0c-0.5,0.1-0.9,0.3-1.2,0.7
	c0,0,0,0,0,0l0,0c-0.1,0.1-0.1,0.1-0.1,0.2l-18.3,31.6l-4.3-7.5l18.9-32.7h9.3c1,0,2,0.5,2.5,1.5l10.5,18.2
	C67.1,149.5,67.1,150.6,66.6,151.5z"/>
<g>
	<g>
		<path fill="#999CAB" d="M108,135.8v28.6h-1c-0.2,0-0.3,0-0.4-0.1c-0.1-0.1-0.2-0.2-0.3-0.3l-18.5-24.8c0,0.4,0.1,0.8,0.1,1.2v24.1
			H86v-28.6h1c0.2,0,0.3,0,0.4,0.1c0.1,0.1,0.2,0.1,0.3,0.3l18.5,24.7c0-0.4-0.1-0.8-0.1-1.2v-24L108,135.8L108,135.8z"/>
		<path fill="#999CAB" d="M121.9,143.9c1.4,0,2.7,0.3,3.9,0.8c1.1,0.5,2.1,1.2,2.9,2.1c0.8,0.9,1.4,2,1.8,3.3
			c0.4,1.3,0.6,2.7,0.6,4.3s-0.2,3-0.6,4.3c-0.4,1.3-1,2.3-1.8,3.3c-0.8,0.9-1.7,1.6-2.9,2.1c-1.1,0.5-2.4,0.7-3.9,0.7
			s-2.7-0.2-3.9-0.7c-1.1-0.5-2.1-1.2-2.9-2.1c-0.8-0.9-1.4-2-1.8-3.3c-0.4-1.3-0.6-2.7-0.6-4.3s0.2-3,0.6-4.3
			c0.4-1.3,1-2.4,1.8-3.3c0.8-0.9,1.8-1.6,2.9-2.1C119.1,144.2,120.4,143.9,121.9,143.9z M121.9,163.1c1.2,0,2.2-0.2,3.1-0.6
			c0.9-0.4,1.6-1,2.2-1.8c0.6-0.8,1-1.7,1.4-2.8c0.3-1.1,0.4-2.3,0.4-3.6c0-1.3-0.1-2.5-0.4-3.6c-0.3-1.1-0.8-2-1.4-2.8
			c-0.6-0.8-1.4-1.4-2.2-1.8c-0.9-0.4-1.9-0.6-3.1-0.6c-1.2,0-2.2,0.2-3.1,0.6c-0.9,0.4-1.6,1-2.2,1.8c-0.6,0.8-1,1.7-1.4,2.8
			c-0.3,1.1-0.5,2.3-0.5,3.6c0,1.4,0.1,2.6,0.5,3.6c0.3,1.1,0.8,2,1.4,2.8c0.6,0.8,1.4,1.4,2.2,1.8
			C119.6,162.9,120.7,163.1,121.9,163.1z"/>
		<path fill="#999CAB" d="M161.7,144.3l-6.7,20.1h-1.4c-0.2,0-0.4-0.1-0.5-0.4l-5.5-16.3c-0.1-0.2-0.1-0.4-0.2-0.6
			c-0.1-0.2-0.1-0.4-0.1-0.6c-0.1,0.4-0.2,0.8-0.3,1.2l-5.6,16.3c-0.1,0.3-0.2,0.4-0.5,0.4h-1.4l-6.7-20.1h1.4
			c0.2,0,0.3,0.1,0.5,0.1c0.1,0.1,0.2,0.2,0.2,0.3l5.1,15.8c0.1,0.3,0.1,0.6,0.2,0.9c0.1,0.3,0.1,0.6,0.2,0.9
			c0.1-0.3,0.2-0.6,0.2-0.9c0.1-0.3,0.2-0.6,0.3-0.9l5.4-16c0.1-0.3,0.3-0.4,0.6-0.4h0.8c0.3,0,0.5,0.1,0.6,0.4l5.3,16
			c0.1,0.3,0.2,0.6,0.3,0.9c0.1,0.3,0.1,0.6,0.2,0.8c0.1-0.3,0.1-0.6,0.2-0.8c0.1-0.3,0.1-0.6,0.2-0.9l5.1-15.8
			c0.1-0.1,0.1-0.3,0.3-0.3c0.1-0.1,0.3-0.1,0.4-0.1C160.4,144.3,161.7,144.3,161.7,144.3z"/>
		<path fill="#999CAB" d="M179.6,139.3c-0.1,0.2-0.3,0.3-0.5,0.3c-0.2,0-0.4-0.1-0.7-0.4c-0.3-0.3-0.7-0.5-1.1-0.8
			c-0.5-0.3-1.1-0.6-1.8-0.8c-0.7-0.3-1.6-0.4-2.6-0.4s-2,0.1-2.7,0.4c-0.8,0.3-1.4,0.7-2,1.2c-0.5,0.5-0.9,1.1-1.2,1.8
			c-0.3,0.7-0.4,1.4-0.4,2.1c0,1,0.2,1.8,0.6,2.4c0.4,0.6,1,1.2,1.6,1.6c0.7,0.4,1.4,0.8,2.3,1.1c0.9,0.3,1.7,0.6,2.6,0.9
			c0.9,0.3,1.8,0.6,2.6,1c0.9,0.3,1.6,0.8,2.3,1.4c0.7,0.5,1.2,1.2,1.6,2c0.4,0.8,0.6,1.8,0.6,2.9c0,1.2-0.2,2.3-0.6,3.4
			c-0.4,1.1-1,2-1.8,2.8c-0.8,0.8-1.7,1.4-2.9,1.8c-1.1,0.5-2.4,0.7-3.9,0.7c-1.9,0-3.5-0.3-4.9-1c-1.4-0.7-2.5-1.6-3.6-2.7l0.6-0.9
			c0.2-0.2,0.3-0.3,0.6-0.3c0.1,0,0.3,0.1,0.5,0.2c0.2,0.2,0.4,0.3,0.7,0.6c0.3,0.2,0.6,0.5,1,0.8c0.4,0.3,0.8,0.5,1.3,0.8
			c0.5,0.2,1.1,0.4,1.7,0.6c0.6,0.2,1.4,0.2,2.2,0.2c1.1,0,2.1-0.2,3-0.5c0.9-0.3,1.6-0.8,2.2-1.4c0.6-0.6,1.1-1.3,1.4-2.1
			c0.3-0.8,0.5-1.7,0.5-2.6c0-1-0.2-1.8-0.6-2.5c-0.4-0.7-1-1.2-1.6-1.6c-0.7-0.4-1.4-0.8-2.3-1.1c-0.9-0.3-1.7-0.6-2.6-0.9
			c-0.9-0.3-1.8-0.6-2.6-1c-0.9-0.3-1.6-0.8-2.3-1.4c-0.7-0.5-1.2-1.2-1.6-2c-0.4-0.8-0.6-1.8-0.6-3.1c0-1,0.2-1.9,0.5-2.8
			c0.4-0.9,0.9-1.7,1.6-2.4c0.7-0.7,1.6-1.2,2.6-1.6c1-0.4,2.2-0.6,3.5-0.6c1.5,0,2.8,0.2,4,0.7c1.2,0.5,2.2,1.2,3.2,2.2
			L179.6,139.3z"/>
		<path fill="#999CAB" d="M185.9,153.5v0.4c0,1.5,0.2,2.8,0.5,4c0.3,1.2,0.8,2.1,1.5,2.9c0.6,0.8,1.4,1.4,2.3,1.8
			c0.9,0.4,1.9,0.6,3.1,0.6c1,0,1.9-0.1,2.6-0.3c0.7-0.2,1.4-0.5,1.9-0.8c0.5-0.3,0.9-0.5,1.2-0.8c0.3-0.2,0.5-0.3,0.6-0.3
			c0.2,0,0.3,0.1,0.4,0.2l0.5,0.6c-0.3,0.4-0.8,0.8-1.3,1.1c-0.5,0.3-1.1,0.7-1.8,0.9c-0.7,0.3-1.4,0.5-2.1,0.6
			c-0.8,0.1-1.5,0.2-2.2,0.2c-1.4,0-2.6-0.2-3.8-0.7c-1.1-0.5-2.1-1.2-2.9-2.1c-0.8-0.9-1.4-2-1.9-3.4s-0.7-2.9-0.7-4.6
			c0-1.4,0.2-2.8,0.6-4c0.4-1.2,1-2.3,1.8-3.1c0.8-0.9,1.7-1.6,2.9-2.1c1.1-0.5,2.4-0.8,3.8-0.8c1.1,0,2.2,0.2,3.1,0.6
			c1,0.4,1.8,1,2.5,1.7c0.7,0.8,1.3,1.7,1.7,2.8c0.4,1.1,0.6,2.3,0.6,3.8c0,0.3,0,0.5-0.1,0.6c-0.1,0.1-0.2,0.2-0.4,0.2L185.9,153.5
			L185.9,153.5z M199.3,152.3c0-1.1-0.1-2-0.5-2.9c-0.3-0.9-0.7-1.6-1.3-2.2c-0.5-0.6-1.2-1-2-1.4c-0.7-0.3-1.6-0.5-2.5-0.5
			c-1,0-2,0.2-2.8,0.5c-0.8,0.3-1.5,0.8-2.1,1.4c-0.6,0.6-1.1,1.3-1.4,2.2c-0.4,0.8-0.6,1.8-0.7,2.9L199.3,152.3L199.3,152.3z"/>
		<path fill="#999CAB" d="M218.8,147c-0.1,0.1-0.1,0.1-0.2,0.2s-0.1,0.1-0.3,0.1c-0.1,0-0.3-0.1-0.5-0.3c-0.2-0.2-0.5-0.4-0.9-0.6
			c-0.4-0.2-0.9-0.4-1.5-0.6c-0.6-0.2-1.3-0.3-2.1-0.3c-1.2,0-2.2,0.2-3.1,0.6c-0.9,0.4-1.6,1-2.3,1.8c-0.6,0.8-1.1,1.7-1.4,2.8
			c-0.3,1.1-0.5,2.3-0.5,3.7c0,1.4,0.2,2.7,0.5,3.8c0.3,1.1,0.8,2,1.4,2.8s1.3,1.3,2.2,1.7c0.9,0.4,1.8,0.6,2.9,0.6
			c1,0,1.8-0.1,2.4-0.3c0.7-0.2,1.2-0.5,1.6-0.8s0.7-0.5,1-0.8c0.2-0.2,0.4-0.3,0.6-0.3s0.3,0.1,0.4,0.2l0.5,0.6
			c-0.3,0.4-0.7,0.8-1.2,1.1c-0.5,0.3-1,0.7-1.6,0.9c-0.6,0.3-1.2,0.5-1.9,0.6c-0.7,0.1-1.4,0.2-2.2,0.2c-1.3,0-2.5-0.2-3.5-0.7
			c-1.1-0.5-2-1.1-2.7-2c-0.7-0.9-1.4-2-1.8-3.2c-0.4-1.3-0.6-2.7-0.6-4.4c0-1.5,0.2-2.9,0.6-4.2c0.4-1.3,1-2.4,1.8-3.3
			c0.8-0.9,1.7-1.6,2.9-2.1c1.1-0.5,2.4-0.8,3.9-0.8c1.3,0,2.5,0.2,3.5,0.6c1,0.4,1.9,1,2.7,1.7L218.8,147z"/>
		<path fill="#999CAB" d="M238.9,144.3v20.1h-1.1c-0.3,0-0.5-0.2-0.6-0.5l-0.2-3c-0.9,1.2-2,2.1-3.2,2.8c-1.2,0.7-2.6,1-4.1,1
			c-1.1,0-2.1-0.2-2.9-0.5c-0.8-0.3-1.5-0.9-2.1-1.5c-0.5-0.7-1-1.4-1.2-2.4c-0.3-0.9-0.4-2-0.4-3.1v-12.8h1.9v12.8
			c0,1.9,0.4,3.4,1.3,4.4s2.2,1.6,3.9,1.6c1.3,0,2.5-0.3,3.7-1c1.1-0.7,2.2-1.6,3-2.8v-15.1C236.9,144.3,238.9,144.3,238.9,144.3z"
			/>
		<path fill="#999CAB" d="M246.3,149.1c0.3-0.8,0.7-1.6,1.1-2.2s0.9-1.2,1.4-1.6s1.1-0.8,1.7-1c0.6-0.2,1.4-0.3,2.1-0.3
			c0.4,0,0.8,0,1.2,0.1c0.4,0.1,0.7,0.2,1.1,0.4l-0.2,1.3c-0.1,0.2-0.2,0.3-0.4,0.3c-0.2,0-0.4-0.1-0.8-0.1
			c-0.3-0.1-0.7-0.1-1.3-0.1c-0.8,0-1.5,0.1-2.1,0.3c-0.6,0.2-1.1,0.6-1.6,1.1c-0.5,0.5-0.9,1.1-1.2,1.8s-0.7,1.5-1,2.4v13h-1.9
			v-20.1h1c0.2,0,0.4,0.1,0.5,0.1c0.1,0.1,0.1,0.3,0.2,0.5L246.3,149.1z"/>
		<path fill="#999CAB" d="M257.3,153.5v0.4c0,1.5,0.2,2.8,0.5,4c0.3,1.2,0.8,2.1,1.5,2.9c0.6,0.8,1.4,1.4,2.3,1.8
			c0.9,0.4,1.9,0.6,3.1,0.6c1,0,1.9-0.1,2.6-0.3s1.4-0.5,1.9-0.8c0.5-0.3,0.9-0.5,1.2-0.8c0.3-0.2,0.5-0.3,0.6-0.3
			c0.2,0,0.3,0.1,0.4,0.2l0.5,0.6c-0.3,0.4-0.8,0.8-1.3,1.1c-0.5,0.3-1.1,0.7-1.8,0.9c-0.7,0.3-1.4,0.5-2.1,0.6s-1.5,0.2-2.2,0.2
			c-1.4,0-2.6-0.2-3.8-0.7s-2.1-1.2-2.9-2.1c-0.8-0.9-1.4-2-1.9-3.4c-0.4-1.3-0.7-2.9-0.7-4.6c0-1.4,0.2-2.8,0.6-4
			c0.4-1.2,1-2.3,1.8-3.1c0.8-0.9,1.7-1.6,2.9-2.1c1.1-0.5,2.4-0.8,3.8-0.8c1.1,0,2.2,0.2,3.1,0.6c1,0.4,1.8,1,2.5,1.7
			c0.7,0.8,1.3,1.7,1.7,2.8c0.4,1.1,0.6,2.3,0.6,3.8c0,0.3,0,0.5-0.1,0.6s-0.2,0.2-0.4,0.2L257.3,153.5L257.3,153.5z M270.7,152.3
			c0-1.1-0.1-2-0.5-2.9c-0.3-0.9-0.7-1.6-1.3-2.2c-0.5-0.6-1.2-1-2-1.4c-0.7-0.3-1.6-0.5-2.5-0.5c-1,0-2,0.2-2.8,0.5
			c-0.8,0.3-1.5,0.8-2.1,1.4c-0.6,0.6-1.1,1.3-1.4,2.2c-0.4,0.8-0.6,1.8-0.7,2.9L270.7,152.3L270.7,152.3z"/>
	</g>
	<g>
		<path fill="#999CAB" d="M273.5,135.7h4.8v0.6h-2v5.2h-0.7v-5.2h-2V135.7z M285.8,135.7v5.8h-0.6V137l0.1-0.4l-2.2,3.8
			c-0.1,0.1-0.1,0.2-0.3,0.2h-0.1c-0.1,0-0.2-0.1-0.3-0.2l-2.2-3.8l0.1,0.4v4.5h-0.6v-5.8h0.6c0.1,0,0.1,0,0.1,0
			c0,0,0.1,0.1,0.1,0.1l2.2,3.7c0,0.1,0.1,0.1,0.1,0.1c0,0.1,0,0.1,0.1,0.1c0-0.1,0-0.1,0.1-0.1c0-0.1,0.1-0.1,0.1-0.1l2.2-3.7
			c0-0.1,0.1-0.1,0.1-0.1s0.1,0,0.1,0H285.8z"/>
	</g>
</g>
</svg>
