<svg xmlns="http://www.w3.org/2000/svg" width="1000" height="700.243"><path d="M416.223 76.763c32.22-33.57 77.074-54.39 126.683-54.39 65.945 0 123.48 36.772 154.12 91.36 26.625-11.896 56.097-18.513 87.106-18.513 118.94 0 215.368 97.267 215.368 217.247 0 119.994-96.428 217.26-215.368 217.26-14.516 0-28.704-1.45-42.422-4.225-26.982 48.128-78.398 80.645-137.413 80.645-24.704 0-48.07-5.706-68.877-15.853-27.35 64.338-91.077 109.45-165.347 109.45-77.344 0-143.26-48.94-168.563-117.576-11.058 2.35-22.513 3.572-34.268 3.572C75.155 585.74.5 510.317.5 417.262c0-62.36 33.542-116.806 83.378-145.936-10.26-23.61-15.967-49.666-15.967-77.06C67.91 87.25 154.79.5 261.95.5c62.914 0 118.827 29.913 154.275 76.263" fill="#00a1e0"/><path d="M145.196 363.11c-.627 1.636.227 1.978.427 2.263 1.878 1.366 3.785 2.348 5.706 3.443 10.188 5.408 19.808 6.988 29.87 6.988 20.492 0 33.214-10.9 33.214-28.448v-.34c0-16.224-14.36-22.116-27.835-26.37l-1.752-.57c-10.16-3.3-18.927-6.148-18.927-12.836v-.356c0-5.72 5.124-9.933 13.065-9.933 8.823 0 19.297 2.933 26.043 6.66 0 0 1.978 1.282 2.703-.64.4-1.024 3.815-10.217 4.17-11.213.385-1.082-.298-1.88-.995-2.306-7.7-4.68-18.344-7.882-29.358-7.882l-2.05.014c-18.756 0-31.848 11.328-31.848 27.565v.34c0 17.12 14.443 22.67 27.977 26.542l2.177.668c9.862 3.03 18.358 5.635 18.358 12.58v.34c0 6.348-5.522 11.073-14.43 11.073-3.458 0-14.487-.07-26.398-7.6-1.438-.838-2.277-1.45-3.387-2.12-.584-.37-2.05-1.01-2.69.926l-4.04 11.214zM445.194 363.11c-.626 1.636.228 1.978.427 2.263 1.88 1.366 3.787 2.348 5.708 3.443 10.19 5.408 19.81 6.988 29.87 6.988 20.493 0 33.215-10.9 33.215-28.448v-.34c0-16.224-14.36-22.116-27.835-26.37l-1.75-.57c-10.162-3.3-18.928-6.148-18.928-12.836v-.356c0-5.72 5.123-9.933 13.064-9.933 8.823 0 19.297 2.933 26.042 6.66 0 0 1.978 1.282 2.704-.64.4-1.024 3.814-10.217 4.17-11.213.384-1.082-.3-1.88-.996-2.306-7.7-4.68-18.344-7.882-29.358-7.882l-2.05.014c-18.756 0-31.848 11.328-31.848 27.565v.34c0 17.12 14.444 22.67 27.978 26.542l2.177.668c9.862 3.03 18.372 5.635 18.372 12.58v.34c0 6.348-5.536 11.073-14.444 11.073-3.457 0-14.486-.07-26.397-7.6-1.438-.838-2.292-1.422-3.373-2.12-.37-.24-2.106-.91-2.704.926l-4.042 11.214zM649.995 328.74c0 9.92-1.85 17.73-5.493 23.253-3.6 5.465-9.05 8.126-16.65 8.126-7.613 0-13.035-2.648-16.58-8.127-3.585-5.507-5.406-13.334-5.406-23.253 0-9.905 1.82-17.703 5.407-23.168 3.544-5.408 8.966-8.04 16.58-8.04 7.598 0 13.05 2.632 16.663 8.04 3.63 5.465 5.48 13.263 5.48 23.168m17.105-18.386c-1.68-5.678-4.297-10.688-7.784-14.857-3.486-4.184-7.898-7.543-13.135-9.99-5.22-2.434-11.398-3.672-18.328-3.672-6.945 0-13.12 1.238-18.343 3.672-5.238 2.447-9.65 5.806-13.15 9.99-3.473 4.184-6.09 9.193-7.785 14.857-1.665 5.65-2.504 11.825-2.504 18.386 0 6.56.84 12.75 2.505 18.386 1.694 5.664 4.298 10.673 7.8 14.857 3.485 4.184 7.91 7.528 13.134 9.905 5.236 2.376 11.397 3.586 18.342 3.586 6.93 0 13.092-1.21 18.33-3.586 5.222-2.377 9.648-5.72 13.134-9.905 3.487-4.17 6.105-9.18 7.785-14.857 1.68-5.65 2.52-11.84 2.52-18.386 0-6.546-.84-12.737-2.52-18.386" fill="#fff"/><path d="M807.568 357.47c-.57-1.665-2.177-1.04-2.177-1.04-2.49.955-5.136 1.837-7.954 2.278-2.86.442-6.005.67-9.378.67-8.282 0-14.857-2.463-19.567-7.33-4.724-4.867-7.37-12.736-7.342-23.38.028-9.692 2.362-16.978 6.56-22.528 4.17-5.522 10.516-8.354 18.984-8.354 7.058 0 12.437.812 18.073 2.59 0 0 1.352.584 1.992-1.18 1.494-4.156 2.604-7.13 4.198-11.698.456-1.295-.654-1.85-1.053-2.007-2.22-.867-7.457-2.276-11.413-2.874-3.7-.57-8.027-.868-12.837-.868-7.187 0-13.59 1.224-19.07 3.672-5.464 2.433-10.103 5.792-13.775 9.976-3.67 4.184-6.46 9.193-8.325 14.857-1.85 5.65-2.79 11.854-2.79 18.414 0 14.188 3.83 25.658 11.386 34.054 7.57 8.426 18.94 12.71 33.768 12.71 8.766 0 17.76-1.78 24.22-4.327 0 0 1.24-.597.698-2.035l-4.198-11.598zM837.497 319.238c.81-5.507 2.334-10.09 4.682-13.662 3.542-5.422 8.95-8.396 16.55-8.396 7.598 0 12.622 2.99 16.222 8.396 2.39 3.572 3.43 8.354 3.843 13.662h-41.298zm57.592-12.11c-1.453-5.48-5.053-11.015-7.415-13.548-3.73-4.013-7.372-6.817-10.987-8.382-4.724-2.02-10.388-3.36-16.593-3.36-7.23 0-13.79 1.21-19.112 3.716-5.336 2.504-9.82 5.92-13.334 10.175-3.516 4.24-6.163 9.29-7.842 15.026-1.693 5.707-2.547 11.926-2.547 18.486 0 6.674.883 12.893 2.633 18.486 1.765 5.635 4.583 10.602 8.397 14.715 3.8 4.14 8.695 7.385 14.558 9.648 5.82 2.25 12.893 3.416 21.02 3.402 16.72-.057 25.53-3.785 29.157-5.792.64-.356 1.253-.982.484-2.775l-3.786-10.602c-.57-1.58-2.177-.996-2.177-.996-4.142 1.537-10.033 4.298-23.766 4.27-8.978-.015-15.638-2.662-19.808-6.803-4.284-4.24-6.375-10.474-6.745-19.268l57.905.057s1.522-.03 1.68-1.51c.056-.625 1.99-11.896-1.723-24.945M373.762 319.238c.825-5.507 2.334-10.09 4.682-13.662 3.543-5.422 8.95-8.396 16.55-8.396 7.6 0 12.623 2.99 16.237 8.396 2.378 3.572 3.417 8.354 3.83 13.662H373.76zm57.577-12.11c-1.452-5.48-5.038-11.015-7.4-13.548-3.73-4.013-7.372-6.817-10.987-8.382-4.724-2.02-10.388-3.36-16.593-3.36-7.215 0-13.79 1.21-19.112 3.716-5.336 2.504-9.82 5.92-13.334 10.175-3.515 4.24-6.162 9.29-7.84 15.026-1.68 5.707-2.548 11.926-2.548 18.486 0 6.674.882 12.893 2.632 18.486 1.765 5.635 4.583 10.602 8.396 14.715 3.8 4.14 8.695 7.385 14.558 9.648 5.82 2.25 12.894 3.416 21.02 3.402 16.72-.057 25.53-3.785 29.158-5.792.64-.356 1.252-.982.484-2.775l-3.77-10.602c-.585-1.58-2.193-.996-2.193-.996-4.14 1.537-10.017 4.298-23.778 4.27-8.966-.015-15.626-2.662-19.795-6.803-4.284-4.24-6.376-10.474-6.746-19.268l57.906.057s1.523-.03 1.68-1.51c.056-.625 1.992-11.896-1.737-24.945" fill="#fff" fill-rule="evenodd"/><path d="M248.6 357.153c-2.262-1.807-2.575-2.263-3.344-3.43-1.138-1.78-1.722-4.312-1.722-7.528 0-5.094 1.68-8.752 5.166-11.214-.042.016 4.98-4.34 16.793-4.182 8.296.113 15.71 1.337 15.71 1.337v26.327h.015s-7.358 1.58-15.64 2.078c-11.783.71-17.02-3.4-16.977-3.387m23.04-40.686c-2.348-.17-5.393-.27-9.036-.27-4.967 0-9.763.626-14.26 1.836-4.525 1.21-8.595 3.102-12.096 5.606-3.515 2.518-6.347 5.734-8.396 9.548-2.05 3.814-3.088 8.31-3.088 13.35 0 5.122.882 9.576 2.647 13.22 1.766 3.656 4.313 6.702 7.558 9.05 3.216 2.348 7.186 4.07 11.797 5.11 4.54 1.038 9.69 1.564 15.326 1.564 5.936 0 11.856-.484 17.59-1.466 5.68-.967 12.652-2.376 14.587-2.817 1.92-.457 4.056-1.04 4.056-1.04 1.437-.356 1.323-1.893 1.323-1.893l-.028-52.953c0-11.612-3.102-20.22-9.207-25.558-6.076-5.322-15.027-8.012-26.597-8.012-4.34 0-11.327.598-15.51 1.437 0 0-12.652 2.45-17.86 6.52 0 0-1.14.71-.513 2.304l4.098 11.015c.513 1.422 1.893.938 1.893.938s.442-.17.954-.47c11.143-6.062 25.232-5.877 25.232-5.877 6.26 0 11.07 1.254 14.316 3.744 3.16 2.42 4.767 6.077 4.767 13.79v2.447c-4.982-.71-9.55-1.123-9.55-1.123" fill="#fff"/><path d="M738.668 286.63c.442-1.308-.483-1.934-.868-2.077-.982-.384-5.905-1.423-9.705-1.665-7.272-.44-11.313.783-14.928 2.405-3.586 1.623-7.57 4.24-9.79 7.215v-7.044c0-.982-.698-1.765-1.666-1.765H686.87c-.967 0-1.665.782-1.665 1.764v86.367c0 .968.797 1.765 1.765 1.765h15.213c.968 0 1.75-.797 1.75-1.764v-43.147c0-5.792.642-11.57 1.922-15.2 1.253-3.585 2.96-6.46 5.066-8.523 2.12-2.05 4.526-3.486 7.16-4.298 2.688-.825 5.662-1.095 7.77-1.095 3.03 0 6.36.782 6.36.782 1.11.127 1.736-.556 2.106-1.566.996-2.647 3.814-10.573 4.354-12.153M595.874 246.603c-1.85-.57-3.53-.954-5.72-1.366-2.22-.4-4.868-.598-7.87-.598-10.474 0-18.728 2.96-24.52 8.793-5.763 5.807-9.677 14.644-11.64 26.27l-.712 3.914h-13.15s-1.593-.057-1.935 1.68l-2.15 12.053c-.155 1.138.343 1.864 1.88 1.864h12.793l-12.978 72.463c-1.01 5.835-2.178 10.63-3.473 14.273-1.267 3.587-2.505 6.276-4.042 8.24-1.48 1.878-2.875 3.273-5.294 4.084-1.992.67-4.298.982-6.816.982-1.395 0-3.26-.228-4.64-.512-1.366-.27-2.092-.57-3.13-1.01 0 0-1.495-.57-2.092.924-.47 1.24-3.885 10.617-4.298 11.77-.4 1.152.17 2.05.896 2.32 1.708.597 2.975.995 5.294 1.55 3.216.754 5.935.797 8.482.797 5.322 0 10.19-.754 14.216-2.206 4.042-1.467 7.57-4.014 10.702-7.458 3.373-3.728 5.493-7.627 7.514-12.964 2.006-5.265 3.728-11.81 5.094-19.44l13.05-73.814h19.07s1.607.057 1.935-1.694l2.164-12.04c.142-1.152-.342-1.863-1.893-1.863h-18.513c.1-.413.94-6.93 3.06-13.064.91-2.604 2.618-4.725 4.055-6.176 1.423-1.423 3.06-2.434 4.853-3.017 1.836-.598 3.928-.882 6.22-.882 1.735 0 3.457.2 4.752.47 1.793.384 2.49.583 2.96.725 1.892.57 2.15.014 2.52-.896l4.424-12.154c.457-1.31-.667-1.864-1.066-2.02M337.194 371.835c0 .968-.697 1.75-1.665 1.75h-15.356c-.967 0-1.65-.782-1.65-1.75v-123.58c0-.968.683-1.75 1.65-1.75h15.355c.967 0 1.664.782 1.664 1.75v123.58z" fill="#fff" fill-rule="evenodd"/></svg>