<svg id="Layer_1" xmlns="http://www.w3.org/2000/svg" viewBox="0 0 1000 310"><style>.st0{fill:#02A1E0;} .st1{fill:#84929B;} .st2{fill:#FEFEFF;}</style><path class="st0" d="M80.6 7.5c20.8-9.4 45.3-9.9 66.5-1.6 14.6 5.7 27.5 15.5 37 27.9 9.1-9.4 20.5-16.6 33-20.5 18.7-6 39.7-4.4 57.3 4.4 14.4 7 26.2 18.6 34.2 32.5 27.2-12.2 60.1-10.6 85.8 4.5 20.4 11.7 36.2 31.3 43.4 53.7 7.5 23.1 6 49.1-4.3 71.1-10.2 22-29 39.9-51.6 48.7-16.9 6.7-35.7 8.3-53.5 4.8-9 15.8-24.1 28.1-41.7 33-16.4 4.8-34.4 3.1-49.7-4.2-10.2 24.2-32.9 42.6-58.8 47.1-17.5 3.2-36.1.5-51.8-8-17.1-9-30.6-24.6-37.4-42.7-8.3 1.5-16.7 2-25.1.8-18.8-2.5-36.5-12.7-48.1-27.8-9.5-12-15-27-15.8-42.3v-8C1.2 156 15.4 132.5 36.9 120c-10.5-23.7-9.2-52.2 3.3-75C49 28.6 63.5 15.1 80.6 7.5z"/><path class="st1" d="M517.4 86.9c3.2 0 6.4-.1 9.6 0V141c.1 8.2-.4 16.3.8 24.4-3 0-6 0-9 .1-.3-2.8-.6-5.7-.7-8.5-2.9 4.2-7.1 7.7-12.1 9-8.4 2.2-18.4 1.3-24.8-5.2-6.9-7-8.7-17.4-8-26.9.6-9.2 5.1-18.8 13.4-23.4 9.7-5.4 22.9-3.8 30.9 4-.2-9.2 0-18.4-.1-27.6zM711 86.9h9.6v78.6h-9.7c.2-26.2.1-52.4.1-78.6z"/><path class="st2" d="M248 111.1c4.7-3.6 11-3.2 16.5-1.9-.8 2.2-1.5 4.5-2.4 6.7-2.8-.3-6.1-1.3-8.6.6-2.8 2.1-3.1 5.9-4 9 3.1 0 6.3 0 9.4.1-.4 2.3-.9 4.6-1.4 6.9h-9.1c-1.9 11.2-3.9 22.4-5.9 33.6-1.1 5.3-2.4 11-6.7 14.7-4.6 3.8-11.3 3.6-16.7 1.7.8-2.1 1.6-4.2 2.4-6.4 2.9.4 6.3 1.4 8.8-.7 2.4-2.4 3.1-6 3.8-9.2 2.1-11.2 4-22.5 6.1-33.7-2.2 0-4.4 0-6.7-.1l1.2-6.9c2.2 0 4.3-.1 6.5-.1 1-5.2 2.4-10.9 6.8-14.3z"/><path class="st1" d="M540.8 120.8c3.3-6.7 9.8-11.7 17.2-12.9 8.3-1.5 17.9 0 23.7 6.5 6.5 7 7.9 17.1 7.3 26.3-14 .1-28.1 0-42.1.1.8 6.6 3.4 13.8 9.8 16.8 8.6 3.8 18.6 1.4 26.1-3.7 1.5 2.1 2.9 4.2 4.4 6.2-9.3 6.5-21.5 8.9-32.3 5.4-8.6-2.7-14.7-10.7-16.5-19.4-1.8-8.4-1.4-17.5 2.4-25.3zM652.1 120.1c3.4-6.4 9.8-11.1 17-12.2 8.2-1.4 17.8 0 23.6 6.5 6.5 7 7.8 17.1 7.3 26.3-14 .1-28.1 0-42.1.1.7 6.6 3.3 13.9 9.8 16.8 8.6 3.8 18.6 1.4 26.1-3.7 1.5 2.1 2.9 4.2 4.4 6.3-9.4 6.5-21.7 8.9-32.7 5.3-8.6-2.8-14.5-10.9-16.3-19.6-1.7-8.7-1.2-18 2.9-25.8zM751.2 108.2c9-1.9 19.2-1 26.6 5 6.3 4.9 9.4 12.9 9.9 20.7.7 9.1-1.5 19-8.2 25.6-5.6 5.6-13.7 7.9-21.5 7.5-8.2-.1-16.5-3.8-21.3-10.6-5.9-8.3-6.7-19.4-4.5-29.1 2.1-9.3 9.6-17.2 19-19.1zM807.7 117.5c6.7-10.7 22.2-13 32.7-6.9 8.3 5 11.9 15.1 12.2 24.4.6 10.1-2.7 21.3-11.2 27.5-9.9 7.2-24.3 5.6-33.4-2.2.4 10.8.1 21.5.2 32.3h-9.6c.1-23.5 0-47 0-70.4 0-4.4-.3-8.8-.8-13.1h9.2c.3 2.7.5 5.5.7 8.4zM864 122.1c2.9-7 9.4-12.6 16.9-14.1 8.3-1.7 18.1-.5 24.2 5.8 6.9 7 8.3 17.4 7.7 26.7-14 .1-28.1 0-42.1.1.7 6.6 3.3 13.8 9.7 16.8 8.6 3.8 18.6 1.4 26.2-3.7 1.5 2.1 2.9 4.2 4.4 6.3-9.3 6.5-21.6 8.9-32.6 5.4-8.2-2.7-14.1-10.3-16.1-18.5-1.8-8.2-1.5-17 1.7-24.8zM941 110c4.2-2.6 9.4-2.9 14.2-2.4-.2 2.7-.4 5.5-.5 8.2-4.3-.1-8.9-.1-12.6 2.4-5.2 3.5-7.5 9.9-7.5 15.9-.1 10.5 0 20.9 0 31.4h-9.7v-44.4c0-4-.3-8.1-.7-12.1h9.1c.3 2.9.6 5.8.7 8.8 1.9-3.1 3.9-6.1 7-7.8zM971.4 108.6c9.4-2.8 19.9-.9 28 4.6-1.5 2-2.9 4-4.3 6.1-6.4-3.8-14.6-6.2-21.7-2.9-5 2.2-5.2 10.3-.3 12.8 6.6 3.6 14.8 3.4 20.9 8 3.2 2.1 5.2 5.6 6.1 9.4v6.2c-1.2 6.4-6.5 11.2-12.6 13-9.9 2.9-21.2.9-29.5-5.2l4.5-6c6.8 4.4 15.7 6.8 23.3 3.3 5.7-2.6 6.3-12.2.4-14.9-6.8-3.4-14.9-3.5-21-8.1-5.1-3.6-6.4-10.7-4.6-16.3 1.6-5.1 6-8.5 10.8-10z"/><path class="st2" d="M140.8 109.1h8.3c.1 18.8.1 37.5 0 56.3h-8.3v-56.3z"/><path class="st1" d="M591.9 108.9h10.3c5.7 15.7 11.2 31.5 16.8 47.2 5.4-15.7 10.8-31.5 16.3-47.2 3.3 0 6.6 0 10-.1-7.2 18.8-14 37.8-21.2 56.6-3.6 0-7.2 0-10.7-.1-7-18.8-14.3-37.6-21.5-56.4z"/><path class="st2" d="M496.4 115.6c7.6-1.7 16.3 1.2 20.8 7.7.5 4.6.1 9.2.2 13.8.1 5.2 0 10.8-3.2 15.1-5.5 8.5-19.6 9.8-26.2 1.9-5.1-6.1-5.6-14.6-4.7-22.2 1.1-7.2 5.6-14.7 13.1-16.3zM551.3 120.3c4.7-6.2 14.3-7.2 20.8-3.5 5.6 3.4 7.3 10.2 7.8 16.3-11 .1-22.1 0-33.1 0 .5-4.5 1.5-9.2 4.5-12.8zM662.2 120.3c4.7-6.2 14.3-7.2 20.9-3.4 5.5 3.4 7.2 10.2 7.8 16.3-11 .1-22.1 0-33.2 0 .6-4.6 1.6-9.3 4.5-12.9zM753.5 115.8c5.3-1.2 11.2-1 15.9 1.8 5.2 3.2 7.7 9.5 8.3 15.4.6 6.7-.1 14-4 19.7-5.1 7.4-16.2 8.4-23.7 4.5-7.8-4.6-9.6-14.8-8.9-23.1.3-7.8 4.3-16.5 12.4-18.3zM813.2 120.2c5-5.3 13.6-6.7 20.1-3.5 5.6 2.9 8.4 9.2 9.1 15.2.9 7.6.1 16.2-5.3 22.2-5 5.6-13.5 6.2-20.2 3.8-3.4-1.3-6.2-3.7-8.9-6.1.2-6.3 0-12.6.1-19 .1-4.5 1.8-9.2 5.1-12.6zM875.2 120.3c4.7-6.2 14.3-7.1 20.8-3.4 5.6 3.4 7.2 10.2 7.8 16.3-11 .1-22.1 0-33.1 0 .5-4.6 1.5-9.3 4.5-12.9zM72 126.1c7.1-2.9 15.6-1.6 22 2.6-.9 2-1.7 4.1-2.6 6.1-4.2-2-8.7-3.6-13.4-3.3-2.6.1-5.4 2.4-4.8 5.2 1.1 2.7 4.2 3.5 6.7 4.4 4.8 1.6 10.5 2.9 13.5 7.5 3.3 5.7.5 13.9-5.6 16.3-7.9 3.2-17.1 1.2-24.2-3.3.8-2.2 1.6-4.5 2.5-6.7 5 3.1 11.1 5.9 17.1 4.2 3-.8 4.9-5.3 1.9-7.3-5.5-3.6-13.1-3.2-17.7-8.3-4.7-5.4-2-14.8 4.6-17.4zM101.2 128.5c5-3.1 11-4 16.8-3.8 4 .2 8.3 1.2 11.1 4.2 2.8 2.9 3.4 7.1 3.4 11 0 7.9-.1 15.9 0 23.8-8.7 2.1-18.3 4.3-26.9.7-8.1-3.6-8.5-16.3-1.4-21.1 5.8-4.3 13.5-3.6 20.3-2.8-.3-2.8-.3-6.4-3.3-7.7-5.7-2.4-12.2-.5-17.5 2-.9-2.1-1.7-4.2-2.5-6.3zM159.6 132.6c5.9-9.6 21.8-11 28.7-1.8 3.7 4.8 3.7 11.1 3.4 16.8-8.9.2-17.8 0-26.7.1.6 3.5 1.3 7.6 4.7 9.6 5.7 3.2 12.7 1.8 18.5-.2l2.4 6.3c-6.5 3.1-14.2 3.6-21.2 1.9-6-1.5-10.9-6.5-12.2-12.6-1.6-6.6-1.2-14.1 2.4-20.1zM204.3 126.4c7.2-3.4 16-1.9 22.6 2.2-.9 2.1-1.7 4.2-2.5 6.2-4.7-2.1-10-4.3-15.2-2.9-2.8.8-4.2 4.7-1.7 6.6 5.4 3.8 12.9 3.6 17.6 8.5 5 5.3 2.4 15.1-4.2 17.8-7.9 3.4-17.2 1.3-24.3-3.1.9-2.2 1.5-4.5 2.4-6.7 4 2.3 8.2 4.6 13 4.7 2.8.3 6.4-.6 7.3-3.6.9-2-.7-4.1-2.4-4.9-5.4-2.7-12.2-2.8-16.5-7.5-4.6-5.3-2.3-14.4 3.9-17.3zM271.4 125.7c6.4-2 14.2-1.1 19.2 3.7 4 3.7 5.6 9.3 5.8 14.6.2 5.2-.6 10.6-3.5 15-6.5 9.9-23.3 9.9-29.9.1-3.9-5.8-4.2-13.3-2.9-20 1-6.1 5.4-11.5 11.3-13.4zM317.4 125.6c3.3-.8 6.6-.2 9.9.4-.8 2.3-1.6 4.6-2.5 6.9-3.1-.2-6.7-.7-9.3 1.5-3 2.2-3.8 6.2-3.9 9.7-.2 7.1 0 14.3-.1 21.4-2.8 0-5.6 0-8.3-.1.1-13.2.1-26.5 0-39.8 2.7-.1 5.5-.1 8.2-.1 0 .9-.1 2.7-.1 3.6 1.9-1.3 3.8-2.9 6.1-3.5zM335.5 128.5c6.8-5.2 16.2-4.6 23.8-1.9-.8 2.1-1.6 4.3-2.4 6.4-4.5-.9-9.4-2.1-13.8-.1-4.2 1.9-5.9 6.8-6.2 11.1-.3 4.7.6 10.4 4.9 13.2 4.6 3 10.5 2 15.4.5.8 2.2 1.6 4.4 2.5 6.5-7 2.4-15 3.2-21.8-.1-6-2.9-9.2-9.6-9.5-16-.7-7.1 1.2-15.1 7.1-19.6zM364.4 133.6c5.2-10.3 21.7-12.4 29-3.2 3.9 4.8 4.2 11.3 3.6 17.2-8.9.1-17.8 0-26.6.1.6 3.7 1.4 8 5.1 9.9 5.6 2.9 12.4 1.6 18-.5.8 2.1 1.7 4.2 2.5 6.3-6.4 3.1-13.8 3.6-20.7 2.1-5.8-1.3-10.8-5.7-12.4-11.4-2-6.7-1.7-14.2 1.5-20.5z"/><path class="st0" d="M167.3 135.4c2.8-4.8 10.7-5.3 14-.9 1.5 1.9 1.8 4.4 2.5 6.7H165c.8-1.9 1.3-4 2.3-5.8zM274.2 132.3c4.1-1.6 9.6-.3 11.5 3.9 2.6 5.7 2.6 12.8.1 18.5-2.6 5.9-12.1 6.4-15.4.9-2.4-4.1-2.5-9.1-2.1-13.7.5-3.8 2.1-8.1 5.9-9.6zM373 135c3-4.4 10.3-4.7 13.6-.6 1.7 1.9 2 4.5 2.6 6.8-6.2.1-12.5 0-18.7 0 .7-2.1 1.2-4.3 2.5-6.2zM110.8 147.8c4.2-2.1 9-1.2 13.5-.8v11.8c-4.5.6-9.4 1.8-13.8-.3-4.1-2.1-3.8-8.8.3-10.7z"/></svg>