<svg id="Layer_1" xmlns="http://www.w3.org/2000/svg" viewBox="0 0 652 182.2"><style>.st0{fill:#147355;} .st1{fill:#085B4F;} .st2{fill:#49985C;} .st3{fill:#5DA563;} .st4{fill:#FFFFFF;}</style><g id="Ebene_3"><path class="st0" d="M0 0h652v182.2H0z"/><path class="st1" d="M42.5 0h26.1v182.2H42.5z"/><path class="st2" d="M68.6 0h29.6v182.2H68.6z"/><path class="st3" d="M98.2 0h17.7v182.2H98.2z"/><path class="st0" d="M115.9 0h29.6v182.2h-29.6zM145.5 0h26.1v182.2h-26.1z"/><path class="st3" d="M171.6 0h10.3v182.2h-10.3z"/><path class="st1" d="M181.9 0h24.9v182.2h-24.9z"/><path class="st2" d="M206.8 0h20.5v182.2h-20.5z"/><path class="st0" d="M227.3 0h24.9v182.2h-24.9zM252.3 0h42.6v182.2h-42.6z"/><path class="st2" d="M294.9 0h14.5v182.2h-14.5z"/><path class="st1" d="M309.4 0h24.9v182.2h-24.9z"/><path class="st0" d="M334.3 0h25.6v182.2h-25.6zM360 0h25v182.2h-25z"/><path class="st3" d="M385 0h17.2v182.2H385z"/><path class="st0" d="M402.2 0h24.9v182.2h-24.9z"/><path class="st1" d="M427.1 0H453v182.2h-25.9z"/><path class="st2" d="M453 0h24.9v182.2H453zM477.9 0h17.3v182.2h-17.3z"/><path class="st0" d="M495.2 0h24.9v182.2h-24.9z"/><path class="st3" d="M520.1 0h14.5v182.2h-14.5z"/><path class="st1" d="M534.7 0h24.9v182.2h-24.9z"/><path class="st0" d="M559.6 0h24.9v182.2h-24.9z"/><path class="st2" d="M584.5 0h24.9v182.2h-24.9z"/></g><g id="Type"><path class="st4" d="M143.8 140.7h-20.4L107 91.8l-16.4 48.9H70.4L42.5 41.5h26.1l13.3 52.4 16.4-52.4H116l16.4 52.4 13.3-52.4h26.1l-28 99.2zM181.9 140.7V41.5h24.9v99.2h-24.9zM227.3 140.7V41.5h24.9V119h42.6v21.7h-67.5zM374.4 131c-7 6.8-16.8 9.8-27.4 9.8h-37.6V41.6H347c10.5 0 20.4 2.9 27.4 9.8 11.8 11.6 10.5 24.2 10.5 39.9 0 15.4 1.3 28.1-10.5 39.7zm-17.1-62.2c-2.3-3.3-5.7-5.6-12-5.6h-11v55.7h11c6.3 0 9.7-2.2 12-5.6 2-2.8 2.7-5.4 2.7-22.3 0-16.6-.7-19.4-2.7-22.2zM495.2 140.7V41.5h24.9v99.2h-24.9zM584.5 63.2v77.5h-24.9V63.2h-24.9V41.5h74.8v21.7h-25zM465.6 91.1c4.1-2.5 12.4-6.4 12.4-20.3 0-19-13.5-29.3-31.6-29.3h-44.2v99.2h44.2c18.1 0 31.6-10.3 31.6-29.3 0-13.9-8.3-17.8-12.4-20.3zm-38.5-27.7h16.8c6.8 0 9.1 4.6 9.1 8.8s-2.3 8.6-9.1 8.6h-16.8V63.4zm16.8 55.4h-16.8v-17.4h16.8c6.8 0 9.1 4.5 9.1 8.6 0 4.2-2.3 8.8-9.1 8.8z"/></g></svg>