<svg xmlns="http://www.w3.org/2000/svg" viewBox="0 0 500 228.7"><g fill="#FF4A00"><path d="M0 180l51.8-80.5H6.1c-.4-2.3-.6-4.9-.6-7.7 0-2.7.2-5.2.6-7.5h73.8l1 2.5-52.1 80.7h48.9c.4 2.6.6 5.2.6 7.9 0 2.6-.2 5-.6 7.3H1L0 180zM149.3 117.9c0-7.5-1.9-12.8-5.8-15.7-3.8-2.9-9.4-4.4-16.7-4.4-4.5 0-8.7.4-12.6 1.1-3.9.7-7.7 1.6-11.4 2.8-2.4-4.2-3.6-9.3-3.6-15.1 4.3-1.4 9.1-2.5 14.4-3.3 5.2-.8 10.3-1.2 15.1-1.2 12.8 0 22.5 2.9 29.1 8.7 6.6 5.8 10 15.1 10 27.9v61.5c-4.5 1-9.9 2.1-16.3 3.2s-12.9 1.6-19.6 1.6c-6.3 0-11.9-.6-17-1.7-5-1.2-9.3-3-12.8-5.6-3.5-2.6-6.2-5.8-8.1-9.8-1.9-4-2.9-8.8-2.9-14.4 0-5.5 1.1-10.3 3.4-14.5 2.2-4.1 5.3-7.6 9.1-10.4 3.8-2.7 8.2-4.8 13.2-6.1 5-1.3 10.2-2 15.7-2 4.1 0 7.4.1 10.1.3 2.6.2 4.8.4 6.6.7v-3.6zm0 18.6c-1.9-.3-4.3-.5-7.3-.8-2.9-.3-5.4-.4-7.5-.4-7.9 0-14 1.5-18.1 4.4-4.2 2.9-6.2 7.4-6.2 13.4 0 3.8.7 6.8 2.1 9 1.4 2.2 3.2 3.8 5.3 5 2.1 1.1 4.4 1.9 7 2.1 2.6.3 5 .4 7.3.4 2.9 0 6-.2 9.1-.5 3.1-.3 5.9-.8 8.3-1.4v-31.2zM188.6 84.4c1.3-.3 2.6-.4 3.9-.6 1.3-.1 2.7-.2 4.1-.2 1.3 0 2.6.1 4 .2s2.7.3 4 .6c.1.3.3 1.1.5 2.4.2 1.3.4 2.8.6 4.3.2 1.5.4 3 .6 4.4.2 1.4.3 2.3.3 2.7 1.3-2 2.8-4 4.6-5.9 1.8-1.9 3.9-3.6 6.4-5.2 2.5-1.5 5.3-2.7 8.4-3.6 3.1-.9 6.6-1.3 10.4-1.3 5.7 0 11.1 1 16 2.9s9.1 4.9 12.7 8.9c3.5 4 6.3 9.1 8.2 15.3 2 6.2 3 13.5 3 22 0 16.9-4.6 30.1-13.7 39.6s-22.1 14.3-38.8 14.3c-2.8 0-5.7-.2-8.6-.6-2.9-.4-5.5-.9-7.7-1.5V228c-1.5.3-3.2.4-4.9.6-1.7.1-3.3.2-4.7.2-1.4 0-3-.1-4.7-.2-1.7-.1-3.3-.3-4.7-.6V84.4zm19 82.2c2.4.9 4.9 1.5 7.5 1.9 2.6.4 5.9.6 10 .6 4.6 0 8.8-.7 12.7-2.2 3.8-1.5 7.1-3.7 9.9-6.8 2.7-3.1 4.9-6.9 6.5-11.6 1.6-4.7 2.4-10.2 2.4-16.6 0-10.2-1.9-18.3-5.7-24.3-3.8-6-9.9-9-18.5-9-3.2 0-6.3.6-9.2 1.7-2.9 1.1-5.6 2.9-7.9 5.2-2.3 2.3-4.2 5.2-5.6 8.7-1.4 3.5-2.1 7.7-2.1 12.6v39.8zM300 99.3h-12.5c-.3-1-.4-2.2-.6-3.5-.1-1.3-.2-2.7-.2-3.9 0-1.3.1-2.6.2-3.9.1-1.3.3-2.5.6-3.5h31.1v98.4c-1.4.3-3 .4-4.7.6-1.7.1-3.3.2-4.7.2-1.3 0-2.8-.1-4.5-.2-1.7-.1-3.3-.3-4.7-.6V99.3zM359.5 138.2c.3 10.7 3 18.6 8.3 23.6 5.3 5 13.1 7.5 23.5 7.5 9.1 0 17.7-1.6 25.9-4.8 1 1.9 1.9 4.2 2.5 7 .6 2.8 1 5.5 1.2 8.1-4.2 1.8-8.9 3.1-13.9 4-5.1.9-10.6 1.3-16.8 1.3-8.9 0-16.6-1.2-23-3.7-6.4-2.5-11.7-6-15.8-10.5-4.2-4.5-7.2-9.9-9.1-16.1-1.9-6.2-2.9-13-2.9-20.4 0-7.3.9-14.1 2.8-20.4 1.9-6.3 4.7-11.8 8.5-16.5 3.8-4.7 8.7-8.4 14.5-11.1 5.8-2.7 12.7-4.1 20.6-4.1 6.8 0 12.7 1.2 17.8 3.5 5.1 2.3 9.4 5.5 12.8 9.5 3.4 4 6.1 8.8 7.9 14.4 1.8 5.6 2.7 11.6 2.7 18.1 0 1.8-.1 3.7-.2 5.7s-.3 3.7-.4 5.1h-66.9zm48.7-14.2c0-3.6-.5-7-1.4-10.3-1-3.3-2.4-6.1-4.2-8.5-1.9-2.4-4.2-4.4-7.1-5.8-2.9-1.5-6.3-2.2-10.3-2.2-7.8 0-13.8 2.4-17.9 7.1-4.2 4.7-6.7 11.3-7.6 19.7h48.5zM447.9 84.4c1.4-.3 2.7-.4 4-.6 1.3-.1 2.6-.2 4-.2s2.8.1 4.2.2c1.4.1 2.7.3 3.8.6.4 1.9.8 4.4 1.1 7.6.4 3.1.6 5.8.6 8 2.7-4.3 6.2-8.1 10.6-11.3 4.4-3.2 10.1-4.8 17-4.8 1 0 2.1 0 3.2.1s2 .2 2.8.3c.3 1.2.4 2.4.6 3.6.1 1.3.2 2.6.2 4 0 1.5-.1 3.1-.3 4.8-.2 1.7-.4 3.3-.7 4.8-1-.3-2.1-.4-3.2-.4h-2.6c-3.4 0-6.7.5-9.9 1.4-3.1 1-5.9 2.7-8.4 5.1-2.5 2.4-4.5 5.8-5.9 10-1.5 4.2-2.2 9.6-2.2 16.3v48.9c-1.4.3-3 .4-4.7.6-1.7.1-3.3.2-4.7.2-1.4 0-3-.1-4.7-.2-1.7-.1-3.4-.3-4.9-.6V84.4zM336.7 26.5h-18.6l13.1-13.1c-1-1.5-2.2-2.8-3.4-4.1-1.3-1.3-2.6-2.4-4.1-3.4L310.6 19V.4c-1.7-.3-3.5-.4-5.3-.4-1.8 0-3.6.2-5.3.4V19L286.9 5.9c-1.5 1-2.8 2.2-4.1 3.4-1.3 1.3-2.4 2.6-3.4 4.1l13.1 13.1H274s-.4 3.5-.4 5.3c0 1.8.2 3.6.4 5.3h18.6l-13.1 13.1c2.1 2.9 4.6 5.4 7.5 7.5l13-13.1v18.6c1.7.3 3.5.4 5.3.4 1.8 0 3.6-.2 5.3-.4V44.6l13.1 13.1c1.4-1 2.8-2.2 4.1-3.4 1.3-1.3 2.4-2.6 3.4-4.1l-13.1-13.1h18.6c.3-1.7.4-3.5.4-5.3.1-1.8-.1-3.6-.4-5.3zm-23.4 5.3c0 2.4-.4 4.6-1.2 6.7-2.1.8-4.4 1.2-6.7 1.2-2.4 0-4.6-.4-6.7-1.2-.8-2.1-1.2-4.4-1.2-6.7 0-2.4.4-4.6 1.2-6.7 2.1-.8 4.4-1.2 6.7-1.2 2.4 0 4.6.4 6.7 1.2.8 2.1 1.2 4.3 1.2 6.7z"/></g></svg>