<?xml version="1.0" encoding="utf-8"?>
<!-- Generator: Adobe Illustrator 18.1.1, SVG Export Plug-In . SVG Version: 6.00 Build 0)  -->
<svg version="1.1" id="Layer_1" xmlns="http://www.w3.org/2000/svg" xmlns:xlink="http://www.w3.org/1999/xlink" x="0px" y="0px"
	 viewBox="0 0 380 250" enable-background="new 0 0 380 250" xml:space="preserve">
<g>
	<rect x="29" y="12.4" fill="none" stroke="#8290c8" stroke-width="6" stroke-miterlimit="10" width="80.9" height="19.8"/>
	<rect x="29" y="47.3" fill="none" stroke="#8290c8" stroke-width="6" stroke-miterlimit="10" width="80.9" height="19.8"/>
	<rect x="29" y="82.1" fill="none" stroke="#8290c8" stroke-width="6" stroke-miterlimit="10" width="80.9" height="19.8"/>
	<rect x="146.2" y="12.4" fill="none" stroke="#5AC2B1" stroke-width="6" stroke-miterlimit="10" width="23.9" height="89.5"/>
	<circle fill="none" stroke="#5AC2B1" stroke-width="6" stroke-miterlimit="10" cx="202.7" cy="84.8" r="17.4"/>
	<polygon fill="none" stroke="#F6E9CC" stroke-width="6" stroke-miterlimit="10" points="299.9,13.1 325.5,57.4 351,101.6 
		299.9,101.6 248.8,101.6 274.4,57.4 	"/>
	<polygon fill="none" stroke="#F2704B" stroke-width="6" stroke-miterlimit="10" points="300.3,42.5 313.5,65.4 326.8,88.3 
		300.3,88.3 273.9,88.3 287.1,65.4 	"/>
</g>
<path fill="#F6E9CC" stroke="#F6E9CC" stroke-width="0.9221" stroke-miterlimit="10" d="M106.4,223.3c-8.5-8.7-12.7-19-12.7-30.7
	c0-11.7,4.3-21.8,12.9-30.4c8.6-8.6,18.9-12.8,30.9-12.8c12,0,22.3,4.3,30.8,12.8c8.5,8.5,12.8,18.7,12.8,30.4
	c0,11.8-4.2,22-12.7,30.7c-8.4,8.7-18.5,13.1-30.3,13.1h-1.7C124.9,236.4,114.9,232.1,106.4,223.3z M177.4,192.9
	c0-11-3.9-20.5-11.7-28.4c-7.8-7.9-17.2-11.8-28.3-11.8c-11,0-20.5,3.9-28.3,11.8c-7.8,7.9-11.8,17.3-11.8,28.4
	c0,11,3.9,20.5,11.8,28.4c7.8,7.9,17.3,11.9,28.2,11.9c11,0,20.4-4,28.3-11.9C173.5,213.4,177.4,203.9,177.4,192.9z"/>
<path fill="#F6E9CC" stroke="#F6E9CC" stroke-width="0.9221" stroke-miterlimit="10" d="M204,160.3v76.1h-3.3v-86.7l62.9,77.2v-76
	h3.3v86.7L204,160.3"/>
<path fill="#F6E9CC" stroke="#F6E9CC" stroke-width="0.9221" stroke-miterlimit="10" d="M288,237v-87.8h58.8v3.4h-55v40h54.3v3.4
	h-54.3v41L288,237z"/>
<path fill="none" stroke="#F6E9CC" stroke-width="4.6106" stroke-miterlimit="10" d="M73.4,234.4c-22.7,0-41.1-18.4-41.1-41.1
	s18.4-41.1,41.1-41.1"/>
<line fill="none" stroke="#F6E9CC" stroke-width="2" stroke-miterlimit="10" x1="205" y1="160.1" x2="204.9" y2="236.8"/>
<line fill="none" stroke="#F6E9CC" stroke-width="2" stroke-miterlimit="10" x1="263" y1="150.5" x2="263" y2="228.1"/>
</svg>
