<svg xmlns="http://www.w3.org/2000/svg" version="1.1" x="0" y="0" viewBox="0 0 315 235" enable-background="new 0 0 315 235" xml:space="preserve"><path fill="#6622CC" d="M82.1 84.4H20.9c1 4.1 3.4 9.6 6.9 13 4.3 4.1 9.6 6.2 16.2 6.2 9 0 15.3-4.1 19.1-11.5l0.7-1.6h16.5L79.2 94c-2.6 6.9-6.9 12.9-12.7 17.2 -5.8 4.4-13.4 6.6-22.5 6.6 -11.5 0-21.1-3.9-28.4-11.5 -7.1-7.4-10.7-16.8-10.7-28 0-11.3 3.5-20.8 10.2-28.1 7.2-7.7 16.7-11.6 28.1-11.6 11.5 0 21.2 3.9 28.4 11.6 6.7 7.4 10.5 16.9 10.5 28.2V84.4z"></path><rect x="94.3" y="6.1" fill="#6622CC" width="17.3" height="112"></rect><path fill="#6622CC" d="M200.2 40.7V117h-17.3v-7.6c-5.1 5.9-13 9-22.9 9 -11.1 0-19.9-4-26.9-11.7 -6.8-7.5-10-17.1-10-28.2s3.6-20.6 10.3-28.2c7-7.7 15.6-11.7 27.2-11.7 9.4 0 17.2 3.1 22.3 9.1v-6.9H200.2z"></path><path fill="#F7B32B" d="M63.9 201.5h16.3l-0.9 2.1c-2.3 7.6-6.7 13.4-13 18 -6.6 4.7-14.5 6.9-23.4 6.9 -11.3 0-20.6-4-27.6-11.7C8.5 209.4 5 199.8 5 188.7c0-11.2 3.5-20.7 10.3-28.1 7.1-7.7 16.4-11.6 27.6-11.6 9 0 16.8 2.3 23.4 7.1 6.3 4.7 10.7 11.1 13 18.7l0.9 3.2H63.9l-0.5-1.7c-1.5-3.8-3.9-7-7.1-9.4s-6.8-3.6-11.1-3.6 -8 0.6-11 1.9c-3 1.3-5.5 3.2-7.4 5.4 -4.4 4.8-6.6 10.9-6.6 18 0 7.2 2.1 13.1 6.5 18 4.5 5 10.5 7.4 18.4 7.4 4.2 0 7.8-1.1 11.1-3.5 3.3-2.3 5.6-4.8 7.1-8.6L63.9 201.5z"></path><path fill="#F7B32B" d="M170.4 188.7c0 11.3-3.5 20.8-10.2 28.1 -7.2 7.7-16.6 11.6-28.1 11.6 -11.4 0-20.9-3.9-28.1-11.6 -6.7-7.3-10.2-16.8-10.2-28.1s3.5-20.8 10.2-28.1c7.2-7.7 16.6-11.6 28.1-11.6 11.4 0 20.9 3.9 28.1 11.6C167 168 170.4 177.4 170.4 188.7z"></path><path fill="#F7B32B" d="M253.1 183v45.9h-14.3v-45.6c0-6.2-1.9-11-5.4-14.6 -3.4-3.6-7.8-5.3-13.3-5.3 -5.6 0-10.3 1.8-14.2 5.5 -3.9 3.8-5.8 8.6-5.8 14.5v45.5h-17.3v-79.4h17.3v8.4c2-1.8 4-3.5 6.2-5 4.2-2.6 9-4 14.3-4 5.1 0 9.7 0.7 13.3 2.2 3.8 1.5 6.8 3.8 9.7 6.7C250.1 164.2 253.1 172.6 253.1 183z"></path><path fill="#F7B32B" d="M293.8 146v3.6h16.3v13.2h-16.3v66.2h-15.3v-66.2h-12.2v-13.2h12.2v-4.4c0-8.8 2.1-15.8 7.4-20.3 5.2-4.4 11.8-6.9 20.9-6.9h3.3v15.3h-3.9c-4.6 0-7.5 1.1-9.8 3.1C294.4 138.2 293.8 141.6 293.8 146z"></path></svg>
