<!-- Generator: Adobe Illustrator 19.2.0, SVG Export Plug-In  -->
<svg version="1.1"
	 xmlns="http://www.w3.org/2000/svg" xmlns:xlink="http://www.w3.org/1999/xlink" xmlns:a="http://ns.adobe.com/AdobeSVGViewerExtensions/3.0/"
	 x="0px" y="0px" width="71.2px" height="71.5px" viewBox="0 0 71.2 71.5" style="enable-background:new 0 0 71.2 71.5;"
	 xml:space="preserve">
<defs>
</defs>
<g sketch:type="MSPage">
	<path sketch:type="MSShapeGroup" style="fill:#FFFFFF;" d="M67.3,67.6h-13V57.5h13V67.6z M37.5,57.5h12.9v10.2H37.5V57.5z
		 M20.7,57.5h12.9v10.2H20.7V57.5z M3.9,57.5h12.9v10.2H3.9V57.5z M3.9,9.3h7.6c0.8,3.2,3.7,5.6,7.2,5.6c3.5,0,6.3-2.4,7.2-5.6h19.3
		c0.8,3.2,3.7,5.6,7.2,5.6c3.5,0,6.3-2.4,7.2-5.6h7.8v14.5H3.9V9.3z M15.2,7.5c0-0.8,0.3-1.5,0.7-2c0.6-0.9,1.6-1.5,2.8-1.5
		s2.2,0.6,2.8,1.5c0.4,0.6,0.7,1.3,0.7,2c0,0.7-0.3,1.3-0.6,1.9C21,10.3,20,11,18.7,11c-1.2,0-2.3-0.7-2.9-1.7
		C15.5,8.8,15.2,8.2,15.2,7.5L15.2,7.5z M48.8,7.5c0-0.8,0.3-1.5,0.7-2c0.6-0.9,1.6-1.5,2.8-1.5s2.2,0.6,2.8,1.5
		c0.4,0.6,0.7,1.3,0.7,2c0,0.7-0.3,1.3-0.6,1.9c-0.6,1-1.7,1.7-2.9,1.7c-1.2,0-2.3-0.7-2.9-1.7C49.1,8.8,48.8,8.2,48.8,7.5L48.8,7.5
		z M54.3,42.6h13v10.9h-13V42.6z M37.5,42.6h12.9v10.9H37.5V42.6z M20.7,42.6h12.9v10.9H20.7V42.6z M3.9,42.6h12.9v10.9H3.9V42.6z
		 M16.8,38.7H3.9V27.8h12.9V38.7z M33.6,38.7H20.7V27.8h12.9V38.7z M50.4,38.7H37.5V27.8h12.9V38.7z M67.3,38.7h-13V27.8h13V38.7z
		 M67.3,5.4h-7.8C58.6,2.3,55.8,0,52.4,0c-3.4,0-6.2,2.3-7.1,5.4H25.9C25,2.3,22.1,0,18.7,0c-3.4,0-6.2,2.3-7.1,5.4H3.9
		C1.8,5.4,0,7.2,0,9.3v58.3c0,2.2,1.8,3.9,3.9,3.9h63.4c2.2,0,3.9-1.8,3.9-3.9V9.3C71.2,7.2,69.5,5.4,67.3,5.4L67.3,5.4z"/>
</g>
</svg>