<!-- Generator: Adobe Illustrator 19.2.0, SVG Export Plug-In  -->
<svg version="1.1"
	 xmlns="http://www.w3.org/2000/svg" xmlns:xlink="http://www.w3.org/1999/xlink" xmlns:a="http://ns.adobe.com/AdobeSVGViewerExtensions/3.0/"
	 x="0px" y="0px" width="75.1px" height="52px" viewBox="0 0 75.1 52" style="enable-background:new 0 0 75.1 52;"
	 xml:space="preserve">
<defs>
</defs>
<path fill="#fff" d="M69.1,0H5.9C2.7,0,0,2.7,0,5.9v40.1C0,49.3,2.7,52,5.9,52h63.2c3.3,0,5.9-2.7,5.9-5.9V5.9
	C75.1,2.7,72.4,0,69.1,0z M37.1,34.5c-0.1,0.1-0.2,0.2-0.2,0.2c0,0-0.1-0.1-0.2-0.2L8.8,5.1h57L37.1,34.5z M23.7,28.2l-18.7,16V8.5
	L23.7,28.2z M27.2,31.9l5.8,6.2c1.2,1.2,2.5,1.7,3.8,1.7c1.3,0,2.7-0.6,3.8-1.8l6.8-7l18.1,15.9H9.7L27.2,31.9z M70,44.1L51,27.4
	L70,7.9V44.1z"/>
</svg>
