<?xml version="1.0" encoding="utf-8"?>
<!-- Generator: Adobe Illustrator 19.2.1, SVG Export Plug-In . SVG Version: 6.00 Build 0)  -->
<!DOCTYPE svg PUBLIC "-//W3C//DTD SVG 1.1//EN" "http://www.w3.org/Graphics/SVG/1.1/DTD/svg11.dtd">
<svg version="1.1" id="Layer_1" xmlns="http://www.w3.org/2000/svg" xmlns:xlink="http://www.w3.org/1999/xlink" x="0px" y="0px"
	 viewBox="0 0 902.1 63.6" enable-background="new 0 0 902.1 63.6" xml:space="preserve">
<linearGradient id="SVGID_1_" gradientUnits="userSpaceOnUse" x1="487.7871" y1="178.2208" x2="518.229" y2="178.2208" gradientTransform="matrix(4.489700e-11 -1 1 4.489700e-11 595.7867 518.229)">
	<stop  offset="0" style="stop-color:#57DDDD"/>
	<stop  offset="1" style="stop-color:#4056F4"/>
</linearGradient>
<path fill="url(#SVGID_1_)" d="M743.6,30.4C743.6,13.6,757.2,0,774,0c16.8,0,30.4,13.6,30.4,30.4"/>
<circle fill="#F7B32B" cx="12.5" cy="39" r="12.5"/>
<circle fill="#C200FB" cx="53" cy="9.5" r="8"/>
<linearGradient id="SVGID_2_" gradientUnits="userSpaceOnUse" x1="451.3424" y1="11.5572" x2="484.9544" y2="11.5572">
	<stop  offset="0" style="stop-color:#F7B32B"/>
	<stop  offset="1" style="stop-color:#C200FB"/>
</linearGradient>
<path fill="url(#SVGID_2_)" d="M485,3.2c0,9.3-7.5,16.8-16.8,16.8s-16.8-7.5-16.8-16.8"/>
<path fill="#57DDDD" d="M491.8,47.9c0-13.1,10.7-23.8,23.8-23.8c13.1,0,23.8,10.7,23.8,23.8"/>
<path fill="#4056F4" d="M600.3,63.4c0-9.3,7.5-16.8,16.8-16.8S634,54.2,634,63.4"/>
<circle fill="#57DDDD" cx="235.5" cy="45" r="12"/>
<path fill="#F7B32B" d="M190.6,20.3c0,13.1-10.7,23.8-23.8,23.8c-13.1,0-23.8-10.7-23.8-23.8"/>
<path fill="#4056F4" d="M100.1,48.2c-10.2,0-18.4-8.3-18.4-18.4s8.3-18.4,18.4-18.4"/>
<circle fill="#C200FB" cx="359.6" cy="17.7" r="13.3"/>
<linearGradient id="SVGID_3_" gradientUnits="userSpaceOnUse" x1="502.2612" y1="47.8963" x2="528.8477" y2="47.8963">
	<stop  offset="0" style="stop-color:#F7B32B"/>
	<stop  offset="1" style="stop-color:#C200FB"/>
</linearGradient>
<circle fill="url(#SVGID_3_)" cx="515.6" cy="47.9" r="13.3"/>
<linearGradient id="SVGID_4_" gradientUnits="userSpaceOnUse" x1="717.3616" y1="-27.2725" x2="740.0334" y2="-27.2725" gradientTransform="matrix(-1 0 0 -1 895.6945 -6.6361)">
	<stop  offset="0" style="stop-color:#57DDDD"/>
	<stop  offset="1" style="stop-color:#4056F4"/>
</linearGradient>
<circle fill="url(#SVGID_4_)" cx="167" cy="20.6" r="11.3"/>
<circle fill="#4056F4" cx="705.6" cy="43.2" r="9.2"/>
<linearGradient id="SVGID_5_" gradientUnits="userSpaceOnUse" x1="392.6613" y1="40.5943" x2="434.1528" y2="40.5943">
	<stop  offset="0" style="stop-color:#F7B32B"/>
	<stop  offset="1" style="stop-color:#C200FB"/>
</linearGradient>
<circle fill="url(#SVGID_5_)" cx="413.4" cy="40.6" r="20.7"/>
<circle fill="#F7B32B" cx="576.5" cy="18" r="7.5"/>
<circle fill="#F7B32B" cx="281.5" cy="11" r="7.5"/>
<linearGradient id="SVGID_6_" gradientUnits="userSpaceOnUse" x1="308.4364" y1="49.1975" x2="326.8573" y2="49.1975">
	<stop  offset="0" style="stop-color:#57DDDD"/>
	<stop  offset="1" style="stop-color:#4056F4"/>
</linearGradient>
<circle fill="url(#SVGID_6_)" cx="317.6" cy="49.2" r="9.2"/>
<circle fill="#57DDDD" cx="895.3" cy="13.2" r="6.8"/>
<path fill="#F7B32B" d="M878.6,38.3c0,13.1-10.7,23.8-23.8,23.8S831,51.4,831,38.3"/>
<linearGradient id="SVGID_7_" gradientUnits="userSpaceOnUse" x1="29.3615" y1="-45.2725" x2="52.0334" y2="-45.2725" gradientTransform="matrix(-1 0 0 -1 895.6945 -6.6361)">
	<stop  offset="0" style="stop-color:#57DDDD"/>
	<stop  offset="1" style="stop-color:#4056F4"/>
</linearGradient>
<circle fill="url(#SVGID_7_)" cx="855" cy="38.6" r="11.3"/>
<circle fill="#F7B32B" cx="786.5" cy="56" r="7.5"/>
<linearGradient id="SVGID_8_" gradientUnits="userSpaceOnUse" x1="289.3424" y1="-632.4427" x2="322.9544" y2="-632.4427" gradientTransform="matrix(4.489700e-11 -1 1 4.489700e-11 1297.5912 326.7056)">
	<stop  offset="0" style="stop-color:#F7B32B"/>
	<stop  offset="1" style="stop-color:#C200FB"/>
</linearGradient>
<path fill="url(#SVGID_8_)" d="M656.7,3.8c9.3,0,16.8,7.5,16.8,16.8s-7.5,16.8-16.8,16.8"/>
</svg>
