<svg xmlns="http://www.w3.org/2000/svg" version="1.1" x="0" y="0" viewBox="0 0 50 50" enable-background="new 0 0 50 50" xml:space="preserve"><path fill="#FFF" d="M25 4.5c6.7 0 7.5 0 10.1.1 2.4.1 3.8.5 4.6.9 1.2.5 2 1 2.9 1.9.9.9 1.4 1.7 1.9 2.9.3.9.8 2.2.9 4.6.1 2.6.1 3.4.1 10.1s0 7.5-.1 10.1c-.1 2.4-.5 3.8-.9 4.6-.5 1.2-1 2-1.9 2.9-.9.9-1.7 1.4-2.9 1.9-.9.3-2.2.8-4.6.9-2.6.1-3.4.1-10.1.1s-7.5 0-10.1-.1c-2.4-.1-3.8-.5-4.6-.9-1.2-.5-2-1-2.9-1.9-.9-.9-1.4-1.7-1.9-2.9-.3-.9-.8-2.2-.9-4.6-.1-2.6-.1-3.4-.1-10.1s0-7.5.1-10.1c.1-2.4.5-3.8.9-4.6.5-1.2 1-2 1.9-2.9.9-.9 1.7-1.4 2.9-1.9.9-.3 2.2-.8 4.6-.9 2.6-.1 3.4-.1 10.1-.1zM25 0c-6.8 0-7.6 0-10.3.1-2.7.2-4.5.6-6.1 1.2-1.6.7-3 1.5-4.4 2.9C2.8 5.6 2 7 1.3 8.6.7 10.2.3 12 .1 14.7 0 17.4 0 18.2 0 25s0 7.6.1 10.3c.1 2.7.5 4.5 1.2 6.1.6 1.7 1.5 3 2.9 4.4C5.6 47.2 7 48 8.6 48.7c1.6.6 3.4 1 6.1 1.2 2.7.1 3.5.1 10.3.1s7.6 0 10.3-.1c2.7-.1 4.5-.5 6.1-1.2 1.6-.6 3-1.5 4.4-2.9s2.2-2.8 2.9-4.4c.6-1.6 1-3.4 1.2-6.1.1-2.6.1-3.5.1-10.3s0-7.6-.1-10.3c-.1-2.7-.5-4.5-1.2-6.1-.6-1.7-1.5-3.1-2.9-4.4C44.4 2.8 43 2 41.4 1.3 39.8.7 38 .3 35.3.1 32.6 0 31.8 0 25 0z"/><path fill="#FFF" d="M25 12.2c-7.1 0-12.8 5.8-12.8 12.8S17.9 37.9 25 37.9 37.9 32.1 37.9 25c0-7.1-5.8-12.8-12.9-12.8zm0 21.1c-4.6 0-8.3-3.7-8.3-8.3s3.7-8.3 8.3-8.3 8.3 3.7 8.3 8.3-3.7 8.3-8.3 8.3zm16.4-21.6c0 1.7-1.3 3-3 3s-3-1.3-3-3 1.3-3 3-3 3 1.3 3 3z"/></svg>