<svg xmlns="http://www.w3.org/2000/svg" version="1.1" x="0" y="0" viewBox="0 0 92.2 92.2" enable-background="new 0 0 92.2 92.2" xml:space="preserve"><g fill="#FFF"><path d="M44.2 69.2l-7.7 7.7c-2.4 2.4-5.6 3.7-8.9 3.7s-6.5-1.3-8.9-3.7l-3.3-3.3c-2.4-2.4-3.7-5.6-3.7-8.9s1.3-6.5 3.7-8.9L29.2 42c2.4-2.4 5.6-3.7 8.9-3.7s6.5 1.3 8.9 3.7l3.8 3.8c2.4 2.4 6 2.4 8.4 0 2.4-2.4 2.4-6 0-8.4l-3.8-3.8c-4.6-4.6-10.8-7.1-17.1-7.1S25.7 29 21.2 33.6l-14.1 14C2.5 52.2 0 58.4 0 64.7c0 6.4 2.5 12.6 7.1 17.1l3.3 3.3c4.6 4.6 10.8 7.1 17.1 7.1s12.6-2.5 17.1-7.1l7.7-7.7c2.4-2.4 2.4-6 0-8.4-2.1-2-5.7-2-8.1.2z"/><path d="M82 7.1C77.4 2.5 71.2 0 64.9 0S52.2 2.4 47.6 7.1l-6.7 6.7c-2.4 2.4-2.4 6 0 8.4s6 2.4 8.4 0l6.7-6.7c2.4-2.4 5.6-3.7 8.9-3.7s6.5 1.3 8.9 3.7l3.3 3.3c2.4 2.4 3.7 5.6 3.7 8.9s-1.4 6.4-3.7 8.8l-13 12.8c-2.4 2.4-5.6 3.7-8.9 3.7s-6.5-1.3-8.9-3.7l-3-3c-2.4-2.4-6-2.4-8.4 0s-2.4 6 0 8.4l3 3c4.6 4.6 10.8 7.1 17.1 7.1 6.5 0 12.6-2.5 17.1-7.1l13-12.8c4.6-4.6 7.1-10.8 7.1-17.1s-2.5-12.7-7.1-17.2L82 7.1z"/></g></svg>