<svg xmlns="http://www.w3.org/2000/svg" version="1.1" x="0" y="0" viewBox="0 0 51.4 71.9" enable-background="new 0 0 51.4 71.9" xml:space="preserve"><path fill="#9F76FF" d="M25.7 0C11.5 0 0 11.5 0 25.7c0 10.7 15 33 24 45.3.4.6 1 .9 1.7.9s1.3-.3 1.7-.9c9-12.4 24-34.7 24-45.3C51.4 11.5 39.9 0 25.7 0zm0 42.4C16.5 42.4 9 34.9 9 25.7S16.5 9 25.7 9s16.7 7.5 16.7 16.7-7.5 16.7-16.7 16.7z"/><path fill="#9F76FF" d="M32.1 29.1H19.3c-1.6 0-2.9-1.3-2.9-2.9s1.3-2.9 2.9-2.9h12.8c1.6 0 2.9 1.3 2.9 2.9s-1.3 2.9-2.9 2.9z"/></svg>