<svg xmlns="http://www.w3.org/2000/svg" version="1.1" x="0" y="0" viewBox="0 0 93 67.9" enable-background="new 0 0 93 67.9" xml:space="preserve"><g fill="#FFF"><path d="M23.5 23.8H4.9c.3 1.2 1 2.9 2.1 4 1.3 1.2 2.9 1.9 4.9 1.9 2.7 0 4.7-1.2 5.8-3.5l.2-.5h5l-.3 1.1c-.8 2.1-2.1 3.9-3.9 5.2-1.8 1.3-4.1 2-6.8 2-3.5 0-6.4-1.2-8.6-3.5S0 25.4 0 22s1.1-6.3 3.1-8.6c2.2-2.3 5.1-3.5 8.6-3.5s6.5 1.2 8.6 3.5c2 2.3 3.2 5.1 3.2 8.6v1.8zM27.3 0h5.3v34.1h-5.3zM59.5 10.5v23.2h-5.3v-2.3c-1.6 1.8-4 2.7-7 2.7-3.4 0-6.1-1.2-8.2-3.6-2.1-2.3-3-5.2-3-8.6s1.1-6.3 3.1-8.6c2.1-2.3 4.7-3.6 8.3-3.6 2.9 0 5.2.9 6.8 2.8v-2.1l5.3.1zM18 59.5h5l-.3.6c-.7 2.3-2 4.1-4 5.5s-4.4 2.1-7.1 2.1c-3.4 0-6.3-1.2-8.4-3.6C1.1 61.9.1 58.9.1 55.6c0-3.4 1.1-6.3 3.1-8.6 2.2-2.3 5-3.5 8.4-3.5 2.7 0 5.1.7 7.1 2.2 1.9 1.4 3.3 3.4 4 5.7l.3 1h-5l-.2-.5c-.5-1.2-1.2-2.1-2.2-2.9s-2.1-1.1-3.4-1.1-2.4.2-3.3.6c-.9.4-1.7 1-2.3 1.6-1.3 1.5-2 3.3-2 5.5s.6 4 2 5.5 3.2 2.3 5.6 2.3c1.3 0 2.4-.3 3.4-1.1 1-.7 1.7-1.5 2.2-2.6l.2-.2zM50.4 55.6c0 3.4-1.1 6.3-3.1 8.6-2.2 2.3-5.1 3.5-8.6 3.5s-6.4-1.2-8.6-3.5c-2-2.2-3.1-5.1-3.1-8.6 0-3.4 1.1-6.3 3.1-8.6 2.2-2.3 5.1-3.5 8.6-3.5s6.4 1.2 8.6 3.5c2.1 2.3 3.1 5.1 3.1 8.6zM75.6 53.8v14h-4.4V53.9c0-1.9-.6-3.3-1.6-4.4-1-1.1-2.4-1.6-4-1.6-1.7 0-3.1.5-4.3 1.7-1.3 1.1-1.8 2.6-1.8 4.3v13.9h-5.3V43.6h5.3v2.6c.6-.5 1.2-1.1 1.9-1.5 1.3-.8 2.7-1.2 4.4-1.2 1.6 0 3 .2 4 .7 1.2.5 2.1 1.2 3 2 1.9 1.9 2.8 4.5 2.8 7.6zM88 42.6v1.1h5v4h-5v20.2h-4.7V47.7h-3.7v-4h3.7v-1.3c0-2.7.6-4.8 2.3-6.2 1.6-1.3 3.6-2.1 6.4-2.1h1v4.7h-1.2c-1.4 0-2.3.3-3 .9-.6.5-.8 1.5-.8 2.9z"/></g></svg>