<svg xmlns="http://www.w3.org/2000/svg" version="1.1" x="0" y="0" viewBox="0 0 90 66.6" enable-background="new 0 0 90 66.6" xml:space="preserve"><path fill="#253E81" d="M22.2 22.6H4.6c.3 1.2 1 2.8 2 3.7 1.2 1.2 2.8 1.8 4.7 1.8 2.6 0 4.4-1.2 5.5-3.3l.2-.5h4.8l-.3 1c-.7 2-2 3.7-3.7 5s-3.9 1.9-6.5 1.9c-3.3 0-6.1-1.1-8.2-3.3C1 26.8 0 24.1 0 20.8s1-6 2.9-8.1C5 10.5 7.7 9.4 11 9.4s6.1 1.1 8.2 3.3c1.9 2.1 3 4.9 3 8.1v1.8zM25.7 0h5v32.3h-5zM56.3 10v22h-5v-2.2c-1.5 1.7-3.7 2.6-6.6 2.6-3.2 0-5.7-1.2-7.8-3.4-2-2.2-2.9-4.9-2.9-8.1s1-5.9 3-8.1 4.5-3.4 7.8-3.4c2.7 0 5 .9 6.4 2.6v-2h5.1zM17 56.4h4.7l-.3.6c-.7 2.2-1.9 3.9-3.7 5.2-1.9 1.4-4.2 2-6.7 2-3.3 0-5.9-1.2-8-3.4-2-2.1-3-4.9-3-8.1 0-3.2 1-6 3-8.1 2-2.2 4.7-3.3 8-3.3 2.6 0 4.8.7 6.7 2 1.8 1.4 3.1 3.2 3.7 5.4l.3.9-4.1-2.2-.4.4c-.4-1.1-1.5-.7-2.4-1.4s-2-1-3.2-1-2.3.2-3.2.5c-.9.4-1.6.9-2.1 1.6-1.3 1.4-1.9 3.1-1.9 5.2s.6 3.8 1.9 5.2 3 2.1 5.3 2.1c1.2 0 2.2-.3 3.2-1s1.6-1.4 2-2.5l.2-.1zM47.7 52.7c0 3.3-1 6-2.9 8.1-2.1 2.2-4.8 3.3-8.1 3.3s-6-1.1-8.1-3.3c-1.9-2.1-2.9-4.8-2.9-8.1s1-6 2.9-8.1c2.1-2.2 4.8-3.3 8.1-3.3s6 1.1 8.1 3.3c1.9 2.1 2.9 4.8 2.9 8.1zM71.6 51v13.3h-4.1V51.1c0-1.8-.5-3.2-1.6-4.2-1-1-2.2-1.5-3.8-1.5-1.6 0-3 .5-4.1 1.6s-1.7 2.5-1.7 4.2v13.1h-5V41.4h5v2.4c.6-.5 1.2-1 1.8-1.4 1.2-.8 2.6-1.2 4.1-1.2s2.8.2 3.8.6c1.1.4 2 1.1 2.8 1.9 1.9 1.9 2.8 4.3 2.8 7.3zM83.3 40.4v1H88v3.8h-4.7v19.1h-4.4V45.2h-3.5v-3.8h3.5v-1.3c0-2.5.6-4.6 2.1-5.9 1.5-1.3 3.4-2 6-2h1v4.4h-1.1c-1.3 0-2.2.3-2.8.9-.6.6-.8 1.6-.8 2.9z"/><g fill="#FFF"><path d="M24.3 24.9H6.6c.3 1.2 1 2.8 2 3.7 1.2 1.2 2.8 1.8 4.7 1.8 2.6 0 4.4-1.2 5.5-3.3l.2-.5h4.8l-.3 1c-.7 2-2 3.7-3.7 5s-3.9 1.9-6.5 1.9c-3.3 0-6.1-1.1-8.2-3.3C3 29.1 2 26.4 2 23.1s1-6 2.9-8.1c2.1-2.2 4.8-3.3 8.1-3.3s6.1 1.1 8.2 3.3c1.9 2.1 3 4.9 3 8.1l.1 1.8zM27.8 2.3h5v32.3h-5zM58.3 12.3v22h-5v-2.2c-1.5 1.7-3.7 2.6-6.6 2.6-3.2 0-5.7-1.2-7.8-3.4-2-2.2-2.9-4.9-2.9-8.1 0-3.2 1-5.9 3-8.1s4.5-3.4 7.8-3.4c2.7 0 5 .9 6.4 2.6v-2h5.1zM19 58.7h4.7l-.2.6c-.7 2.2-1.9 3.9-3.7 5.2-1.9 1.4-4.2 2-6.7 2-3.3 0-5.9-1.2-8-3.4-2-2.1-3-4.9-3-8.1 0-3.2 1-6 3-8.1 2-2.2 4.7-3.3 8-3.3 2.6 0 4.8.7 6.7 2 1.8 1.4 3.1 3.2 3.7 5.4l.3.9H19l-.1-.5c-.4-1.1-1.1-2-2-2.7s-2-1-3.2-1-2.3.2-3.2.5c-.9.4-1.6.9-2.1 1.6-1.3 1.4-1.9 3.1-1.9 5.2s.6 3.8 1.9 5.2 3 2.1 5.3 2.1c1.2 0 2.2-.3 3.2-1s1.6-1.4 2.1-2.6zM49.7 55c0 3.3-1 6-2.9 8.1-2.1 2.2-4.8 3.3-8.1 3.3s-6-1.1-8.1-3.3c-1.9-2.1-2.9-4.8-2.9-8.1s1-6 2.9-8.1c2.1-2.2 4.8-3.3 8.1-3.3s6 1.1 8.1 3.3c2 2.1 2.9 4.8 2.9 8.1zM73.6 53.3v13.2h-4.1V53.4c0-1.8-.5-3.2-1.6-4.2-1-1-2.2-1.5-3.8-1.5-1.6 0-3 .5-4.1 1.6s-1.7 2.5-1.7 4.2v13.1h-5V43.7h5v2.4c.6-.5 1.2-1 1.8-1.4 1.2-.8 2.6-1.2 4.1-1.2s2.8.2 3.8.6c1.1.4 2 1.1 2.8 1.9 1.9 1.9 2.8 4.3 2.8 7.3zM85.3 42.7v1H90v3.8h-4.7v19.1h-4.4V47.5h-3.5v-3.8h3.5v-1.3c0-2.5.6-4.6 2.1-5.9 1.5-1.3 3.4-2 6-2h1v4.4h-1.1c-1.3 0-2.2.3-2.8.9-.6.6-.8 1.6-.8 2.9z"/></g></svg>