<!-- Generator: Adobe Illustrator 19.2.0, SVG Export Plug-In  -->
<svg version="1.1"
	 xmlns="http://www.w3.org/2000/svg" xmlns:xlink="http://www.w3.org/1999/xlink" xmlns:a="http://ns.adobe.com/AdobeSVGViewerExtensions/3.0/"
	 x="0px" y="0px" width="49.9px" height="68.8px" viewBox="0 0 49.9 68.8" style="enable-background:new 0 0 49.9 68.8;"
	 xml:space="preserve">
<defs>
</defs>
<g>
	<g>
		<path  d="M25,0C11.2,0,0,11.2,0,24.9c0,13.1,22.1,41.7,23,42.9c0.4,0.6,1.1,1,2,1c0.8,0,1.5-0.4,1.9-0.9
			c0.9-1.2,23.1-29.8,23.1-42.9C49.9,11.2,38.7,0,25,0z M25,4.8c11.1,0,20.2,9,20.2,20.2c0,9.1-14.5,29.8-20.2,37.4
			c-6.7-9-20.2-28.5-20.2-37.4C4.8,13.8,13.8,4.8,25,4.8z"/>
	</g>
	<g>
		<path  d="M25,11.3c-7.5,0-13.7,6.1-13.7,13.7S17.4,38.6,25,38.6c7.5,0,13.7-6.1,13.7-13.7S32.5,11.3,25,11.3
			z M25,33.8c-4.9,0-8.9-4-8.9-8.9c0-4.9,4-8.9,8.9-8.9c4.9,0,8.9,4,8.9,8.9C33.8,29.8,29.8,33.8,25,33.8z"/>
	</g>
</g>
</svg>
