<svg xmlns="http://www.w3.org/2000/svg" version="1.1" x="0" y="0" viewBox="0 0 50 42.3" enable-background="new 0 0 50 42.3" xml:space="preserve"><path fill="#FFF" d="M16.7 7.9v32.7c0 .5-.1.9-.3 1.2-.2.3-.6.5-1 .5-.3 0-.6-.1-.9-.2l-13-6.5c-.4-.2-.7-.5-1-.9s-.5-.9-.5-1.4V1.5C0 1.1.1.8.3.6.5.3.8.2 1.1.2c.3 0 .7.1 1.2.4l14.3 7.1c0 .1.1.2.1.2zm1.7 2.8l14.9 24.2-14.9-7.4V10.7zm31.6.5v29.4c0 .5-.1.8-.4 1.1-.3.3-.6.4-1.1.4s-.9-.1-1.3-.4l-12.3-6.1L50 11.2zm-.1-3.3c0 .1-2.4 4-7.2 11.7-4.8 7.8-7.6 12.3-8.4 13.6L23.5 15.5l9-14.7c.4-.5.8-.8 1.5-.8.3 0 .5.1.7.2l15.1 7.5c.1 0 .1.1.1.2z"/></svg>