<svg xmlns="http://www.w3.org/2000/svg" version="1.1" x="0" y="0" viewBox="0 0 114.9 74.5" enable-background="new 0 0 114.9 74.5" xml:space="preserve"><g fill="#FFF"><path d="M67.8 6.4c-2.1-.8-4.5-.4-6.2 1.3l-.4.5c-.4.4-.9.9-1.7 1.6-1.5 1.2-3.7 2.9-6.7 4.8-4.5 2.8-11.5 6.1-19.8 6.7H14.6c-7.8-.1-14 6.2-14.1 14 0 7.8 6.3 14.1 14.1 14.1l16.5 23.1c.5.8 1.5 1.3 2.4 1.5h.5c.8 0 1.6-.3 2.2-.8l7.5-5.8c1.6-1.2 1.8-3.4.7-5l-9.1-12.8c7.3 1.1 13.3 4 17.3 6.5 3 1.8 5.3 3.6 6.7 4.8.8.7 1.3 1.2 1.7 1.5l.5.4c1.1 1.1 2.5 1.7 4 1.7.8 0 1.5-.1 2.1-.4 2.1-.9 3.4-2.9 3.4-5.1V11.7c.2-2.2-1.1-4.3-3.2-5.3zm-27.6 58L34.3 69l-14-19.5h9.2l10.7 14.9zM33 44.7H14.6c-5.1 0-9.5-4.2-9.5-9.5 0-5.1 4.2-9.5 9.5-9.5h18.2c4.5-.3 8.7-1.3 12.4-2.6v24.3c-3.5-1.2-7.7-2.3-12.2-2.7zM66.6 59c0 .4-.3.8-.7.9-.4.1-.8 0-1.1-.1 0-.1-.1-.1-.1-.1l-.5-.5c-.4-.4-1.1-.9-2-1.7-1.6-1.3-4.1-3.2-7.3-5.1-1.5-.9-3.2-1.8-5.1-2.8V21.2c2-.9 3.7-1.8 5.1-2.8 3.2-2 5.7-3.8 7.3-5.1.8-.7 1.5-1.3 2-1.7l.7-.7c.3-.3.7-.4 1.1-.3.4.1.7.5.7.9V59z"/><path d="M34 74.5h-.5c-1.2-.2-2.2-.8-2.8-1.7L14.4 50C6.4 49.8 0 43.3 0 35.3c.1-8.1 6.5-14.5 14.4-14.5H33c8.3-.7 15.2-4 19.5-6.7 2.4-1.4 4.6-3 6.7-4.7.8-.6 1.3-1.2 1.7-1.6l.3-.5C63 5.6 65.6 5.1 68 6c2.3 1 3.8 3.3 3.6 5.8v47.1c0 2.5-1.4 4.6-3.7 5.6-.8.3-1.5.4-2.3.4-1.6 0-3.1-.7-4.3-1.9l-.5-.4c-.2-.2-.5-.4-.9-.7-.2-.2-.5-.5-.8-.7-2.1-1.7-4.3-3.3-6.7-4.7-2.8-1.8-8.6-4.9-15.9-6.2l8.4 11.8c.6.9.9 1.9.8 3-.1 1.1-.7 2-1.6 2.7l-7.5 5.8c-.8.6-1.7.9-2.6.9zM14.4 21.9C7 21.9 1.1 27.8 1 35.4 1 42.9 7.1 49 14.6 49h.3l16.6 23.3c.4.7 1.2 1.1 2 1.2h.5c.7 0 1.4-.2 1.9-.7l7.5-5.8c.7-.5 1.1-1.2 1.2-2 .1-.8-.1-1.6-.6-2.3l-9.8-13.8 1.2.2c8.1 1.2 14.4 4.6 17.5 6.5 2.4 1.5 4.7 3.1 6.8 4.8.3.3.6.5.9.7.3.3.6.5.8.7l.6.4c1 1 2.4 1.6 3.7 1.6.7 0 1.3-.1 1.9-.4 1.9-.8 3.1-2.6 3.1-4.7v-47c.1-2.1-1.1-4-3-4.8-.6-.2-1.3-.3-1.9-.3-1.4 0-2.7.6-3.7 1.6l-.3.5c-.4.5-1 1-1.8 1.7-2.1 1.7-4.4 3.3-6.8 4.8-4.4 2.7-11.5 6.1-20 6.8H33l-18.6-.1zm19.8 47.8L19.3 49h10.5l11.1 15.5-6.7 5.2zM21.3 50l13.1 18.3 5.1-4L29.3 50h-8zm44.3 10.4c-.3 0-.6-.1-.9-.2l-.3-.1V60l-.5-.5c-.3-.3-.7-.6-1.2-1l-.8-.7c-1.8-1.5-4.5-3.4-7.2-5.1-1.4-.9-3.1-1.8-5.1-2.7l-.3-.1v-29l.3-.1c2-.9 3.7-1.8 5.1-2.7 2.7-1.7 5.4-3.6 7.2-5.1.4-.3.7-.6 1-.9.4-.3.7-.7 1-.9l.6-.6c.4-.4 1-.6 1.6-.4.6.2 1 .8 1 1.4V59c0 .6-.4 1.2-1 1.4h-.5zm-.3-1c.2.1.4.1.5 0 .2-.1.3-.3.3-.4V11.6c0-.2-.1-.4-.3-.4-.2-.1-.4 0-.5.1l-.7.7c-.3.3-.7.5-1 .9-.3.3-.6.6-1 .9-1.9 1.6-4.5 3.5-7.3 5.2-1.4.9-3 1.8-4.9 2.7v27.6c1.9.9 3.5 1.8 4.9 2.7 2.8 1.7 5.4 3.6 7.3 5.2l.8.7c.5.4.9.8 1.2 1.1l.4.4c.1-.2.2-.1.3 0zM45.7 48l-.7-.2c-4.2-1.4-8.3-2.3-12.2-2.6H14.6c-5.5 0-10-4.5-10-10s4.5-10 10-10h18.2c3.9-.2 8-1.1 12.2-2.6l.7-.2V48zM14.6 26.2c-5 0-9 4-9 9s4 9 9 9H33c3.8.3 7.7 1.2 11.8 2.4V23.8c-4.1 1.4-8.1 2.2-11.9 2.4H14.6zM112 33H92.2c-1.3 0-2.4 1.1-2.4 2.4s1.1 2.4 2.4 2.4H112c1.3 0 2.4-1.1 2.4-2.4 0-1.5-1.1-2.4-2.4-2.4z"/><path d="M112 38.2H92.2c-1.6 0-2.9-1.3-2.9-2.9 0-1.6 1.3-2.9 2.9-2.9H112c1.7 0 2.9 1.2 2.9 2.9 0 1.6-1.3 2.9-2.9 2.9zm-19.8-4.7c-1.1 0-1.9.8-1.9 1.9s.8 1.9 1.9 1.9H112c1.1 0 1.9-.8 1.9-1.9 0-1.1-.8-1.9-1.9-1.9H92.2z"/><g><path d="M86.4 20.8c.5 0 1.2-.3 1.6-.7l15.7-15.7c.9-.9.9-2.4 0-3.3-.9-.9-2.4-.9-3.3 0L84.8 16.9c-.9.9-.9 2.4 0 3.3.4.4 1.1.6 1.6.6z"/><path d="M86.4 21.3c-.7 0-1.5-.3-1.9-.8-1.1-1.1-1.1-2.9 0-4L100 .8c1.1-1.1 2.9-1.1 4 0 .5.5.8 1.3.8 2 0 .8-.3 1.5-.8 2L88.3 20.5c-.4.5-1.2.8-1.9.8zM102 1c-.5 0-.9.2-1.3.5L85.2 17.2c-.7.7-.7 1.9 0 2.6.3.3.8.5 1.2.5s.9-.2 1.2-.5l15.7-15.7c.4-.4.5-.8.5-1.3s-.2-.9-.5-1.3-.8-.5-1.3-.5z"/></g><g><path d="M88 50.4c-.9-.9-2.4-.9-3.3 0-.9.9-.9 2.4 0 3.3l15.7 15.7c.4.4 1.1.7 1.6.7s1.2-.3 1.6-.7c.9-.9.9-2.4 0-3.3L88 50.4z"/><path d="M102 70.6c-.7 0-1.5-.3-1.9-.8L84.3 54c-1.1-1.1-1.1-2.9 0-4s2.9-1.1 4 0l15.6 15.7c.5.5.8 1.3.8 2 0 .8-.3 1.5-.8 2s-1.2.9-1.9.9zM86.3 50.2c-.5 0-.9.2-1.3.5-.7.7-.7 1.9 0 2.6L100.8 69c.3.3.8.5 1.2.5s.9-.2 1.2-.5c.4-.4.5-.8.5-1.3s-.2-.9-.5-1.3L87.6 50.7c-.3-.3-.8-.5-1.3-.5z"/></g></g></svg>
