<!-- Generator: Adobe Illustrator 19.2.0, SVG Export Plug-In  -->
<svg version="1.1"
	 xmlns="http://www.w3.org/2000/svg" xmlns:xlink="http://www.w3.org/1999/xlink" xmlns:a="http://ns.adobe.com/AdobeSVGViewerExtensions/3.0/"
	 x="0px" y="0px" width="114.9px" height="74.5px" viewBox="0 0 114.9 74.5" style="enable-background:new 0 0 114.9 74.5;"
	 xml:space="preserve">
<defs>
</defs>
<g>
	<g>
		<path style="fill:#FFFFFF;" d="M67.8,6.4c-2.1-0.8-4.5-0.4-6.2,1.3l-0.4,0.5c-0.4,0.4-0.9,0.9-1.7,1.6c-1.5,1.2-3.7,2.9-6.7,4.8
			c-4.5,2.8-11.5,6.1-19.8,6.7h-0.1H14.6c-7.8-0.1-14,6.2-14.1,14c0,7.8,6.3,14.1,14.1,14.1l16.5,23.1c0.5,0.8,1.5,1.3,2.4,1.5
			c0.1,0,0.4,0,0.5,0c0.8,0,1.6-0.3,2.2-0.8l7.5-5.8c1.6-1.2,1.8-3.4,0.7-5l-9.1-12.8c7.3,1.1,13.3,4,17.3,6.5
			c3,1.8,5.3,3.6,6.7,4.8c0.8,0.7,1.3,1.2,1.7,1.5l0.5,0.4l0,0l0,0c1.1,1.1,2.5,1.7,4,1.7c0.8,0,1.5-0.1,2.1-0.4
			c2.1-0.9,3.4-2.9,3.4-5.1V11.7C71.2,9.5,69.9,7.4,67.8,6.4z M40.2,64.4L34.3,69l-14-19.5h9.2L40.2,64.4z M33,44.7
			c-0.1,0-0.3,0-0.4,0h-1.8H15.8H15h-0.4c-5.1,0-9.5-4.2-9.5-9.5c0-5.1,4.2-9.5,9.5-9.5h17.8c0.1,0,0.3,0,0.4,0
			c4.5-0.3,8.7-1.3,12.4-2.6v24.3C41.7,46.2,37.5,45.1,33,44.7z M66.6,59c0,0.4-0.3,0.8-0.7,0.9c-0.4,0.1-0.8,0-1.1-0.1
			c0-0.1-0.1-0.1-0.1-0.1c-0.1-0.1-0.3-0.3-0.5-0.5c-0.4-0.4-1.1-0.9-2-1.7c-1.6-1.3-4.1-3.2-7.3-5.1c-1.5-0.9-3.2-1.8-5.1-2.8V21.2
			c2-0.9,3.7-1.8,5.1-2.8c3.2-2,5.7-3.8,7.3-5.1c0.8-0.7,1.5-1.3,2-1.7l0.7-0.7c0.3-0.3,0.7-0.4,1.1-0.3c0.4,0.1,0.7,0.5,0.7,0.9V59
			z"/>
		<path style="fill:#FFFFFF;" d="M34,74.5h-0.5c-1.2-0.2-2.2-0.8-2.8-1.7L14.4,50C6.4,49.8,0,43.3,0,35.3
			c0.1-8.1,6.5-14.5,14.4-14.5l0.2,0H33c8.3-0.7,15.2-4,19.5-6.7c2.4-1.4,4.6-3,6.7-4.7c0.8-0.6,1.3-1.2,1.7-1.6l0.3-0.5
			C63,5.6,65.6,5.1,68,6c2.3,1,3.8,3.3,3.6,5.8l0,47.1c0,2.5-1.4,4.6-3.7,5.6c-0.8,0.3-1.5,0.4-2.3,0.4c-1.6,0-3.1-0.7-4.3-1.9
			l-0.5-0.4c-0.2-0.2-0.5-0.4-0.9-0.7c-0.2-0.2-0.5-0.5-0.8-0.7c-2.1-1.7-4.3-3.3-6.7-4.7c-2.8-1.8-8.6-4.9-15.9-6.2l8.4,11.8
			c0.6,0.9,0.9,1.9,0.8,3c-0.1,1.1-0.7,2-1.6,2.7l-7.5,5.8C35.8,74.2,34.9,74.5,34,74.5z M14.4,21.9C7,21.9,1.1,27.8,1,35.4
			C1,42.9,7.1,49,14.6,49h0.3l16.6,23.3c0.4,0.7,1.2,1.1,2,1.2l0.5,0c0.7,0,1.4-0.2,1.9-0.7l7.5-5.8c0.7-0.5,1.1-1.2,1.2-2
			c0.1-0.8-0.1-1.6-0.6-2.3l-9.8-13.8l1.2,0.2c8.1,1.2,14.4,4.6,17.5,6.5c2.4,1.5,4.7,3.1,6.8,4.8c0.3,0.3,0.6,0.5,0.9,0.7
			c0.3,0.3,0.6,0.5,0.8,0.7l0.6,0.4c1,1,2.4,1.6,3.7,1.6c0.7,0,1.3-0.1,1.9-0.4c1.9-0.8,3.1-2.6,3.1-4.7V11.7c0.1-2.1-1.1-4-3-4.8
			c-0.6-0.2-1.3-0.3-1.9-0.3c-1.4,0-2.7,0.6-3.7,1.6l-0.3,0.5c-0.4,0.5-1,1-1.8,1.7c-2.1,1.7-4.4,3.3-6.8,4.8
			c-4.4,2.7-11.5,6.1-20,6.8l-0.2,0L14.4,21.9z M34.2,69.7L19.3,49h10.5l11.1,15.5L34.2,69.7z M21.3,50l13.1,18.3l5.1-4L29.3,50
			H21.3z M65.6,60.4c-0.3,0-0.6-0.1-0.9-0.2l-0.3-0.1V60l-0.5-0.5c-0.3-0.3-0.7-0.6-1.2-1l-0.8-0.7c-1.8-1.5-4.5-3.4-7.2-5.1
			c-1.4-0.9-3.1-1.8-5.1-2.7l-0.3-0.1V20.9l0.3-0.1c2-0.9,3.7-1.8,5.1-2.7c2.7-1.7,5.4-3.6,7.2-5.1c0.4-0.3,0.7-0.6,1-0.9
			c0.4-0.3,0.7-0.7,1-0.9l0.6-0.6c0.4-0.4,1-0.6,1.6-0.4c0.6,0.2,1,0.8,1,1.4V59c0,0.6-0.4,1.2-1,1.4C66,60.4,65.8,60.4,65.6,60.4z
			 M65.3,59.4c0.2,0.1,0.4,0.1,0.5,0c0.2-0.1,0.3-0.3,0.3-0.4V11.6c0-0.2-0.1-0.4-0.3-0.4c-0.2-0.1-0.4,0-0.5,0.1l-0.7,0.7
			c-0.3,0.3-0.7,0.5-1,0.9c-0.3,0.3-0.6,0.6-1,0.9c-1.9,1.6-4.5,3.5-7.3,5.2c-1.4,0.9-3,1.8-4.9,2.7v27.6c1.9,0.9,3.5,1.8,4.9,2.7
			c2.8,1.7,5.4,3.6,7.3,5.2l0.8,0.7c0.5,0.4,0.9,0.8,1.2,1.1l0.4,0.4C65.1,59.2,65.2,59.3,65.3,59.4z M45.7,48l-0.7-0.2
			c-4.2-1.4-8.3-2.3-12.2-2.6l-2.2,0H14.6c-5.5,0-10-4.5-10-10s4.5-10,10-10h18.2c3.9-0.2,8-1.1,12.2-2.6l0.7-0.2V48z M14.6,26.2
			c-5,0-9,4-9,9c0,5,4,9,9,9H33c3.8,0.3,7.7,1.2,11.8,2.4V23.8c-4.1,1.4-8.1,2.2-11.9,2.4L14.6,26.2z"/>
	</g>
	<g>
		<path style="fill:#FFFFFF;" d="M112,33H92.2c-1.3,0-2.4,1.1-2.4,2.4s1.1,2.4,2.4,2.4H112c1.3,0,2.4-1.1,2.4-2.4
			C114.4,33.9,113.3,33,112,33z"/>
		<path style="fill:#FFFFFF;" d="M112,38.2H92.2c-1.6,0-2.9-1.3-2.9-2.9c0-1.6,1.3-2.9,2.9-2.9H112c1.7,0,2.9,1.2,2.9,2.9
			C114.9,36.9,113.6,38.2,112,38.2z M92.2,33.5c-1.1,0-1.9,0.8-1.9,1.9s0.8,1.9,1.9,1.9H112c1.1,0,1.9-0.8,1.9-1.9
			c0-1.1-0.8-1.9-1.9-1.9H92.2z"/>
	</g>
	<g>
		<path style="fill:#FFFFFF;" d="M86.4,20.8c0.5,0,1.2-0.3,1.6-0.7l15.7-15.7c0.9-0.9,0.9-2.4,0-3.3c-0.9-0.9-2.4-0.9-3.3,0
			L84.8,16.9c-0.9,0.9-0.9,2.4,0,3.3C85.2,20.6,85.9,20.8,86.4,20.8z"/>
		<path style="fill:#FFFFFF;" d="M86.4,21.3c-0.7,0-1.5-0.3-1.9-0.8c-1.1-1.1-1.1-2.9,0-4L100,0.8c1.1-1.1,2.9-1.1,4,0
			c0.5,0.5,0.8,1.3,0.8,2c0,0.8-0.3,1.5-0.8,2L88.3,20.5C87.9,21,87.1,21.3,86.4,21.3z M102,1c-0.5,0-0.9,0.2-1.3,0.5L85.2,17.2
			c-0.7,0.7-0.7,1.9,0,2.6c0.3,0.3,0.8,0.5,1.2,0.5s0.9-0.2,1.2-0.5l15.7-15.7c0.4-0.4,0.5-0.8,0.5-1.3s-0.2-0.9-0.5-1.3
			S102.5,1,102,1z"/>
	</g>
	<g>
		<path style="fill:#FFFFFF;" d="M88,50.4c-0.9-0.9-2.4-0.9-3.3,0c-0.9,0.9-0.9,2.4,0,3.3l15.7,15.7c0.4,0.4,1.1,0.7,1.6,0.7
			c0.5,0,1.2-0.3,1.6-0.7c0.9-0.9,0.9-2.4,0-3.3L88,50.4z"/>
		<path style="fill:#FFFFFF;" d="M102,70.6c-0.7,0-1.5-0.3-1.9-0.8L84.3,54c-1.1-1.1-1.1-2.9,0-4c1.1-1.1,2.9-1.1,4,0l15.6,15.7
			c0.5,0.5,0.8,1.3,0.8,2c0,0.8-0.3,1.5-0.8,2C103.4,70.2,102.7,70.6,102,70.6z M86.3,50.2c-0.5,0-0.9,0.2-1.3,0.5
			c-0.7,0.7-0.7,1.9,0,2.6L100.8,69c0.3,0.3,0.8,0.5,1.2,0.5s0.9-0.2,1.2-0.5c0.4-0.4,0.5-0.8,0.5-1.3s-0.2-0.9-0.5-1.3L87.6,50.7
			C87.3,50.4,86.8,50.2,86.3,50.2z"/>
	</g>
</g>
</svg>
