<!-- Generator: Adobe Illustrator 19.2.0, SVG Export Plug-In  -->
<svg version="1.1"
	 xmlns="http://www.w3.org/2000/svg" xmlns:xlink="http://www.w3.org/1999/xlink" xmlns:a="http://ns.adobe.com/AdobeSVGViewerExtensions/3.0/"
	 x="0px" y="0px" width="38.4px" height="70.5px" viewBox="0 0 38.4 70.5" style="enable-background:new 0 0 38.4 70.5;"
	 xml:space="preserve">
<defs>
</defs>
<g>
	<path style="fill:#FFFFFF;" d="M16.2,0c0.6,0,1.2,0,1.7,0c2,0,4,0,5.9,0c1.6,0,2.9,0.6,4.1,1.6c1.4,1.2,2.4,2.6,2.6,4.4
		c0.1,0.7,0.1,1.4,0.1,2c0,3.8,0,7.6,0,11.3c0,7.1,0,14.1,0,21.2c0,1.4-0.5,2.6-1.4,3.8c-1.1,1.5-2.6,2.5-4.4,2.9
		c-0.3,0.1-0.6,0.1-0.9,0.1c-3.1,0-6.1,0-9.2,0c-2.4,0-4.2-1.2-5.7-3.1c-0.9-1.1-1.3-2.4-1.3-3.9c0-7.9,0-15.8,0-23.6
		c0-3.2,0-6.3,0-9.5c0-1.7,0.5-3.2,1.6-4.5c1.1-1.3,2.4-2.1,4-2.5c0.2,0,0.5-0.1,0.7-0.1C14.8,0,15.5,0,16.2,0z M25,23.6
		C25.1,23.6,25.1,23.6,25,23.6c0-1.6,0-3.2,0-4.8c0-3.9,0-7.7,0-11.6c0-0.5-0.2-0.9-0.5-1.2c-0.1-0.1-0.2-0.2-0.3-0.3
		c-0.2-0.1-0.3-0.1-0.5-0.1c-3,0-5.9,0-8.9,0c-0.4,0-0.6,0.1-0.9,0.4c-0.1,0.1-0.3,0.3-0.4,0.5c-0.1,0.2-0.2,0.4-0.2,0.6
		c0,3.4,0,6.7,0,10.1c0,7.8,0,15.5,0,23.3c0,0.1,0,0.2,0,0.2c0.2,0.5,0.9,1.1,1.5,1.1c2.9,0,5.8,0,8.7,0c0.4,0,0.7-0.1,1-0.4
		c0.1-0.1,0.2-0.2,0.3-0.4c0.2-0.2,0.2-0.4,0.2-0.6C25,34.7,25,29.2,25,23.6z"/>
	<path style="fill:#FFFFFF;" d="M38.4,35.1c0,3.4,0,6.9,0,10.3c0,4.6-3.4,8.6-7.9,9.2c-1,0.1-2,0.1-3,0.1c-5.4,0-10.7,0-16.1,0
		c-0.9,0-1.9,0-2.8-0.1c-3.2-0.3-5.7-1.9-7.3-4.7C0.4,48.5,0,47,0,45.3c0-5.5,0-11,0-16.5c0-1.4,0-2.8,0-4.3c0-1.2,0.6-2.1,1.7-2.4
		c1.5-0.5,3.1,0.5,3.2,2.1c0.1,1.2,0,2.5,0,3.7c0,5.7,0,11.5,0,17.2c0,2.3,1.5,4.1,3.7,4.5c0.6,0.1,1.2,0.1,1.8,0.1
		c6.2,0,12.3,0,18.5,0c2.3,0,4.1-1.5,4.5-3.8c0.1-0.3,0.1-0.7,0.1-1.1c0-6.8,0-13.6,0-20.4c0-1.3,0.8-2.3,2-2.5
		c1.2-0.2,2.3,0.5,2.7,1.6c0.1,0.3,0.1,0.6,0.1,0.9C38.4,28.1,38.4,31.6,38.4,35.1z"/>
	<path style="fill:#FFFFFF;" d="M21.6,65.6c0.9,0,1.8,0,2.7,0c3.2,0,6.4,0,9.6,0c1.3,0,2.3,0.9,2.5,2.1c0.2,1.5-0.9,2.8-2.4,2.8
		c-6,0-12,0-17.9,0c-3.8,0-7.7,0-11.5,0c-1.2,0-2.1-0.6-2.5-1.7c-0.5-1.6,0.7-3.2,2.4-3.2c2.2,0,4.5,0,6.7,0c1.8,0,3.6,0,5.4,0
		c0.2,0,0.2-0.1,0.2-0.3c0-2.2,0-8.9,0-11.1c0-1.2,0.7-2.1,1.7-2.4c1.6-0.5,3.1,0.7,3.1,2.4c0,2.2,0,9,0,11.2
		C21.6,65.4,21.6,65.4,21.6,65.6z"/>
</g>
</svg>
