<!-- Generator: Adobe Illustrator 19.2.0, SVG Export Plug-In  -->
<svg version="1.1"
	 xmlns="http://www.w3.org/2000/svg" xmlns:xlink="http://www.w3.org/1999/xlink" xmlns:a="http://ns.adobe.com/AdobeSVGViewerExtensions/3.0/"
	 x="0px" y="0px" width="235.5px" height="267.1px" viewBox="0 0 235.5 267.1" style="enable-background:new 0 0 235.5 267.1;"
	 xml:space="preserve">
<defs>
	
		<pattern  x="-348.7" y="-1209.8" width="166.9" height="288.3" patternUnits="userSpaceOnUse" id="New_Pattern_2" viewBox="0 -288.3 166.9 288.3" style="overflow:visible;">
		<g>
			<rect x="0" y="-288.3" style="fill:none;" width="166.9" height="288.3"/>
			<g>
				
					<linearGradient id="SVGID_1_" gradientUnits="userSpaceOnUse" x1="128.726" y1="-15127.1396" x2="158.146" y2="-15127.1396" gradientTransform="matrix(1 0 0 -1 4.2508 -15178.2441)">
					<stop  offset="0" style="stop-color:#F7B32B"/>
					<stop  offset="1" style="stop-color:#C200FB"/>
				</linearGradient>
				<path style="fill:url(#SVGID_1_);" d="M133-43.7c0-8.1,6.6-14.7,14.7-14.7s14.7,6.6,14.7,14.7"/>
				<path style="fill:#4056F4;" d="M162.4-44c0,8.1-6.6,14.7-14.7,14.7c-8.1,0-14.7-6.6-14.7-14.7"/>
				<circle style="fill:#C200FB;" cx="99.9" cy="-51.6" r="7.2"/>
				<path style="fill:#57DDDD;" d="M94.1-8.5c0-5.8,4.7-10.5,10.5-10.5s10.5,4.7,10.5,10.5"/>
			</g>
			<g>
				<path style="fill:#57DDDD;" d="M24.7-19.6c0,5.8-4.7,10.5-10.5,10.5S3.7-13.8,3.7-19.6"/>
				<circle style="fill:#F7B32B;" cx="22.6" cy="-58.2" r="5.9"/>
				<path style="fill:#4056F4;" d="M62.4-15.2c-8.9,0-16.1-7.2-16.1-16.1s7.2-16.1,16.1-16.1"/>
			</g>
			<g>
				<circle style="fill:#57DDDD;" cx="75.2" cy="-88.3" r="8.2"/>
				
					<linearGradient id="SVGID_2_" gradientUnits="userSpaceOnUse" x1="101.1855" y1="-15059.1436" x2="117.2809" y2="-15059.1436" gradientTransform="matrix(1 0 0 -1 4.2508 -15178.2441)">
					<stop  offset="0" style="stop-color:#57DDDD"/>
					<stop  offset="1" style="stop-color:#4056F4"/>
				</linearGradient>
				<path style="fill:url(#SVGID_2_);" d="M105.4-135.2c8.9,0,16.1,7.2,16.1,16.1s-7.2,16.1-16.1,16.1"/>
				<circle style="fill:#F7B32B;" cx="58.9" cy="-125.8" r="8.2"/>
				
					<linearGradient id="SVGID_3_" gradientUnits="userSpaceOnUse" x1="45.2736" y1="-14982.9717" x2="74.6937" y2="-14982.9717" gradientTransform="matrix(1 0 0 -1 4.2508 -15178.2441)">
					<stop  offset="0" style="stop-color:#F7B32B"/>
					<stop  offset="1" style="stop-color:#C200FB"/>
				</linearGradient>
				<path style="fill:url(#SVGID_3_);" d="M49.5-187.9c0-8.1,6.6-14.7,14.7-14.7s14.7,6.6,14.7,14.7"/>
				<path style="fill:#57DDDD;" d="M108.2-163.7c0,5.8-4.7,10.5-10.5,10.5c-5.8,0-10.5-4.7-10.5-10.5"/>
				<path style="fill:#4056F4;" d="M78.9-188.2c0,8.1-6.6,14.7-14.7,14.7s-14.7-6.6-14.7-14.7"/>
				<circle style="fill:#F7B32B;" cx="106" cy="-202.4" r="5.9"/>
				<circle style="fill:#C200FB;" cx="16.4" cy="-195.8" r="7.2"/>
				<path style="fill:#57DDDD;" d="M10.6-152.6c0-5.8,4.7-10.5,10.5-10.5s10.5,4.7,10.5,10.5"/>
				<circle style="fill:#C200FB;" cx="26.1" cy="-103.3" r="5.9"/>
				<path style="fill:#4056F4;" d="M145.9-159.4c-8.9,0-16.1-7.2-16.1-16.1c0-8.9,7.2-16.1,16.1-16.1"/>
				<path style="fill:#57DDDD;" d="M136.6-122.3c0-5.8,4.7-10.5,10.5-10.5s10.5,4.7,10.5,10.5"/>
				<circle style="fill:#4056F4;" cx="143.6" cy="-86.2" r="5.9"/>
				
					<linearGradient id="SVGID_4_" gradientUnits="userSpaceOnUse" x1="137.0089" y1="-15055.9082" x2="148.7514" y2="-15055.9082" gradientTransform="matrix(1 0 0 -1 4.2508 -15178.2441)">
					<stop  offset="0" style="stop-color:#F7B32B"/>
					<stop  offset="1" style="stop-color:#C200FB"/>
				</linearGradient>
				<circle style="fill:url(#SVGID_4_);" cx="147.1" cy="-122.3" r="5.9"/>
			</g>
			<g>
				<circle style="fill:#57DDDD;" cx="158.7" cy="-232.4" r="8.2"/>
				<circle style="fill:#F7B32B;" cx="142.4" cy="-270" r="8.2"/>
				<circle style="fill:#C200FB;" cx="109.6" cy="-247.5" r="5.9"/>
			</g>
			<g>
				
					<linearGradient id="SVGID_5_" gradientUnits="userSpaceOnUse" x1="17.7332" y1="-14914.9756" x2="33.8286" y2="-14914.9756" gradientTransform="matrix(1 0 0 -1 4.2508 -15178.2441)">
					<stop  offset="0" style="stop-color:#57DDDD"/>
					<stop  offset="1" style="stop-color:#4056F4"/>
				</linearGradient>
				<path style="fill:url(#SVGID_5_);" d="M22-279.4c8.9,0,16.1,7.2,16.1,16.1c0,8.9-7.2,16.1-16.1,16.1"/>
				<path style="fill:#57DDDD;" d="M53.2-266.5c0-5.8,4.7-10.5,10.5-10.5c5.8,0,10.5,4.7,10.5,10.5"/>
				<circle style="fill:#4056F4;" cx="60.1" cy="-230.4" r="5.9"/>
				
					<linearGradient id="SVGID_6_" gradientUnits="userSpaceOnUse" x1="53.5565" y1="-14911.7402" x2="65.2991" y2="-14911.7402" gradientTransform="matrix(1 0 0 -1 4.2508 -15178.2441)">
					<stop  offset="0" style="stop-color:#F7B32B"/>
					<stop  offset="1" style="stop-color:#C200FB"/>
				</linearGradient>
				<circle style="fill:url(#SVGID_6_);" cx="63.7" cy="-266.5" r="5.9"/>
			</g>
		</g>
	</pattern>
</defs>
<rect style="fill:url(#New_Pattern_2);" width="235.5" height="267.1"/>
</svg>
