<!-- Generator: Adobe Illustrator 19.2.0, SVG Export Plug-In  -->
<svg version="1.1"
	 xmlns="http://www.w3.org/2000/svg" xmlns:xlink="http://www.w3.org/1999/xlink" xmlns:a="http://ns.adobe.com/AdobeSVGViewerExtensions/3.0/"
	 x="0px" y="0px" width="259.6px" height="263.9px" viewBox="0 0 259.6 263.9" style="enable-background:new 0 0 259.6 263.9;"
	 xml:space="preserve">
<defs>
	
		<pattern  x="-29.8" y="-1210" width="151.4" height="150.8" patternUnits="userSpaceOnUse" id="New_Pattern" viewBox="9.8 -150.8 151.4 150.8" style="overflow:visible;">
		<g>
			<rect x="9.8" y="-150.8" style="fill:none;" width="151.4" height="150.8"/>
			<g>
				<circle style="fill:#6622CC;" cx="102.6" cy="-10.9" r="8"/>
				<path style="fill:#6622CC;" d="M128.3-16.8c0-6.6,5.3-11.9,11.9-11.9s11.9,5.3,11.9,11.9"/>
				<circle style="fill:#6622CC;" cx="140.3" cy="-16.8" r="6.7"/>
			</g>
			<g>
				<circle style="fill:#6622CC;" cx="26.9" cy="-10.9" r="8"/>
				<path style="fill:#6622CC;" d="M52.7-16.8c0-6.6,5.3-11.9,11.9-11.9s11.9,5.3,11.9,11.9"/>
				<circle style="fill:#6622CC;" cx="64.6" cy="-16.8" r="6.7"/>
			</g>
			<g>
				<circle style="fill:#6622CC;" cx="140.4" cy="-86.3" r="8"/>
				<path style="fill:#6622CC;" d="M163.3-46.7c-6.6,0-11.9-5.3-11.9-11.9s5.3-11.9,11.9-11.9"/>
			</g>
			<g>
				<circle style="fill:#6622CC;" cx="64.7" cy="-86.3" r="8"/>
				<path style="fill:#6622CC;" d="M90.5-92.2c0-6.6,5.3-11.9,11.9-11.9c6.6,0,11.9,5.3,11.9,11.9"/>
				<circle style="fill:#6622CC;" cx="102.4" cy="-92.2" r="6.7"/>
				<path style="fill:#6622CC;" d="M87.6-46.7c-6.6,0-11.9-5.3-11.9-11.9S81-70.5,87.6-70.5"/>
				<circle style="fill:#6622CC;" cx="108.7" cy="-55.5" r="4.1"/>
			</g>
			<g>
				<path style="fill:#6622CC;" d="M14.8-92.2c0-6.6,5.3-11.9,11.9-11.9s11.9,5.3,11.9,11.9"/>
				<circle style="fill:#6622CC;" cx="26.7" cy="-92.2" r="6.7"/>
				<path style="fill:#6622CC;" d="M11.9-46.7C5.3-46.7,0-52,0-58.6c0-6.6,5.3-11.9,11.9-11.9"/>
				<circle style="fill:#6622CC;" cx="33" cy="-55.5" r="4.1"/>
			</g>
			<g>
				<path style="fill:#6622CC;" d="M125.5-122.1c-6.6,0-11.9-5.3-11.9-11.9c0-6.6,5.3-11.9,11.9-11.9"/>
				<circle style="fill:#6622CC;" cx="146.5" cy="-130.9" r="4.1"/>
			</g>
			<g>
				<path style="fill:#6622CC;" d="M49.8-122.1c-6.6,0-11.9-5.3-11.9-11.9c0-6.6,5.3-11.9,11.9-11.9"/>
				<circle style="fill:#6622CC;" cx="70.9" cy="-130.9" r="4.1"/>
			</g>
		</g>
	</pattern>
</defs>
<rect style="fill:url(#New_Pattern);" width="259.6" height="263.9"/>
</svg>
