<!-- Generator: Adobe Illustrator 19.2.0, SVG Export Plug-In  -->
<svg version="1.1"
	 xmlns="http://www.w3.org/2000/svg" xmlns:xlink="http://www.w3.org/1999/xlink" xmlns:a="http://ns.adobe.com/AdobeSVGViewerExtensions/3.0/"
	 x="0px" y="0px" width="40.4px" height="40px" viewBox="0 0 40.4 40" style="enable-background:new 0 0 40.4 40;"
	 xml:space="preserve">
<defs>
</defs>
<g>
	<g>
		<path style="fill:#FFFFFF;" d="M19.8,31.4c0.5,1.7,1.3,3.8,1.5,4.8c0.5,3.5-4.4,5.2-6.4,2.4c-0.9-1.4-1-2.6-1.7-4.8
			c-2.5,0.7-3.8,1.7-5.7,1.5c-2.8-0.4-3.6-4.3-1.6-6.1c1.3-1.1,3.3-1.1,5.1-1.9c0,0-1.6-5.2-2.6-7.6c-1.9,0.6-4.6,1.7-5.8,1.5
			C1,20.5,0,19.3,0,17.7c0.1-3.3,3.8-3.5,6.2-4.5C5.6,11.3,4.6,10,4.7,7.9C4.9,5.3,8,3.7,10.3,5.4c1.1,0.8,1.8,3.5,2.5,5.6l7.5-2.5
			C19.5,5.7,17.8,3,19.9,1c1.5-1.5,4.3-1.2,5.4,0.4c1,1.5,1.1,3.3,1.7,4.8c2-0.7,4.6-2,6.5-1.3c1.6,0.5,2.3,2.6,1.9,3.9
			c-0.8,2.5-3.6,2.8-6.2,3.7l2.5,7.6c2.1-0.7,3.2-1.6,5.2-1.6c2,0,3.3,1.5,3.5,2.9c0.5,3.8-3.8,4.1-6.4,5.1c0.8,2.6,1.5,3.2,1.5,5.3
			c-0.1,3.6-4.6,4.4-6.5,1.7c-0.7-1-0.9-2.6-1.6-4.6C27.3,28.9,19.9,31.5,19.8,31.4z M25,22.4l-2.7-7.6l-7.3,2.6l2.5,7.5L25,22.4z"
			/>
	</g>
</g>
</svg>
