<!-- Generator: Adobe Illustrator 19.2.0, SVG Export Plug-In  -->
<svg version="1.1"
	 xmlns="http://www.w3.org/2000/svg" xmlns:xlink="http://www.w3.org/1999/xlink" xmlns:a="http://ns.adobe.com/AdobeSVGViewerExtensions/3.0/"
	 x="0px" y="0px" width="69.1px" height="66.2px" viewBox="0 0 69.1 66.2" style="enable-background:new 0 0 69.1 66.2;"
	 xml:space="preserve">
<defs>
</defs>
<g>
	<path style="fill:none;stroke:#FFFFFF;stroke-width:6;stroke-miterlimit:10;" d="M33,4.3c0.9-1.8,2.3-1.8,3.2,0l7.1,14.4
		c0.9,1.8,3.2,3.5,5.2,3.7l15.9,2.3c2,0.3,2.4,1.6,1,3L53.8,39c-1.4,1.4-2.3,4.1-2,6.1l2.7,15.8c0.3,2-0.8,2.8-2.6,1.9l-14.2-7.5
		c-1.8-0.9-4.6-0.9-6.4,0l-14.2,7.5c-1.8,0.9-2.9,0.1-2.6-1.9l2.7-15.8c0.3-2-0.6-4.7-2-6.1L3.8,27.8c-1.4-1.4-1-2.7,1-3l15.9-2.3
		c2-0.3,4.3-2,5.2-3.7L33,4.3z"/>
</g>
</svg>
