<!-- Generator: Adobe Illustrator 19.2.0, SVG Export Plug-In  -->
<svg version="1.1"
	 xmlns="http://www.w3.org/2000/svg" xmlns:xlink="http://www.w3.org/1999/xlink" xmlns:a="http://ns.adobe.com/AdobeSVGViewerExtensions/3.0/"
	 x="0px" y="0px" width="47.1px" height="39.4px" viewBox="0 0 47.1 39.4" style="enable-background:new 0 0 47.1 39.4;"
	 xml:space="preserve">
<defs>
</defs>
<g>
	<path fill="#fff" d="M45.8,4.5c0.3-1.2-0.1-2.5-1-3.2c-0.5-0.4-1.2-0.7-1.9-0.7c-0.5,0-1.1,0.1-1.5,0.4
		c-0.9,0.6-1.9,1-3,1.3c-2-1.5-4.4-2.4-7-2.4c-5.8,0-10.6,4.3-11.3,9.9c-4.6-1-8.8-3.5-11.8-7.2C7.7,1.9,6.8,1.5,5.9,1.5
		c-0.1,0-0.2,0-0.2,0C4.7,1.6,3.8,2.2,3.3,3c-1,1.7-1.6,3.7-1.6,5.8c0,1.4,0.2,2.7,0.7,3.9c-0.5,0.5-0.8,1.3-0.8,2
		c0,3,1.1,5.8,3,7.8c-0.1,0.5-0.1,1.1,0.1,1.6c0.7,2,1.8,3.8,3.4,5.1c-1,0.2-2,0.3-3.1,0.3c-0.5,0-1.1,0-1.7-0.1c-0.1,0-0.2,0-0.4,0
		c-1.3,0-2.4,0.8-2.8,2c-0.5,1.3,0,2.8,1.2,3.6c4.4,2.8,9.4,4.3,14.5,4.3c16.7,0,26.8-13.5,27-26.6c1.4-1.2,2.6-2.5,3.6-4
		c0.4-0.5,0.6-1.1,0.6-1.8C47.1,6,46.6,5.1,45.8,4.5z M39.8,11.3c0,0.4,0,0.7,0,1.1c0,11.1-8.5,23.9-23.9,23.9
		c-4.8,0-9.2-1.4-12.9-3.8c0.7,0.1,1.3,0.1,2,0.1c3.9,0,7.6-1.3,10.5-3.6c-3.7-0.1-6.8-2.5-7.9-5.8c0.5,0.1,1,0.2,1.6,0.2
		c0.8,0,1.5-0.1,2.2-0.3c-3.8-0.8-6.8-4.2-6.8-8.3c0,0,0-0.1,0-0.1c1.1,0.6,2.4,1,3.8,1c-2.3-1.5-3.7-4.1-3.7-7c0-1.5,0.4-3,1.1-4.2
		C10,9.7,16.2,13,23.2,13.4c-0.1-0.6-0.2-1.3-0.2-1.9C23,6.8,26.8,3,31.4,3c2.4,0,4.6,1,6.1,2.7c1.9-0.4,3.7-1.1,5.3-2
		c-0.6,2-2,3.6-3.7,4.7C40.9,8.1,42.5,7.6,44,7C42.9,8.7,41.5,10.1,39.8,11.3z"/>
</g>
</svg>
