<svg xmlns="http://www.w3.org/2000/svg" version="1.1" x="0" y="0" viewBox="0 0 92.2 75" enable-background="new 0 0 92.2 75" xml:space="preserve"><path fill="#FFF" d="M29 75c34.8 0 53.9-28.8 53.9-53.9 0-.8 0-1.6-.1-2.4 3.7-2.7 6.9-6 9.4-9.8-3.5 1.5-7.1 2.5-10.9 3 4-2.4 6.9-6.1 8.3-10.5-3.7 2.2-7.8 3.8-12 4.6-7.2-7.6-19.2-8-26.8-.8-4.9 4.6-7 11.5-5.5 18.1-15.2-.8-29.4-8-39-19.8-5 8.6-2.5 19.7 5.9 25.3-3-.1-6-.9-8.6-2.4v.2c0 9 6.4 16.8 15.2 18.6-2.7.7-5.7.8-8.5.3 2.5 7.7 9.6 13 17.7 13.1-6.7 5.3-15 8.1-23.5 8.1-1.5 0-3-.1-4.5-.3C8.6 72 18.7 75 29 75"/></svg>