<!-- Generator: Adobe Illustrator 19.2.0, SVG Export Plug-In  -->
<svg version="1.1"
	 xmlns="http://www.w3.org/2000/svg" xmlns:xlink="http://www.w3.org/1999/xlink" xmlns:a="http://ns.adobe.com/AdobeSVGViewerExtensions/3.0/"
	 x="0px" y="0px" width="71px" height="71px" viewBox="0 0 71 71" style="enable-background:new 0 0 71 71;" xml:space="preserve">
<defs>
</defs>
<path style="fill:#FFFFFF;" d="M35.5,0C15.9,0,0,15.9,0,35.5C0,55.1,15.9,71,35.5,71C55.1,71,71,55.1,71,35.5C71,15.9,55.1,0,35.5,0
	z M64.2,22.5l-15,5.6c-1.4-2.6-3.6-4.8-6.3-6.3l5.6-15C55.5,10,61.1,15.6,64.2,22.5z M35.5,47.1c-6.4,0-11.6-5.2-11.6-11.6
	C24,29.1,29.1,24,35.5,24s11.6,5.2,11.6,11.6C47.1,41.9,41.9,47.1,35.5,47.1z M22.5,6.8l5.6,15c-2.6,1.4-4.8,3.6-6.3,6.3l-15-5.6
	C10,15.6,15.6,10,22.5,6.8z M6.8,48.5l15-5.6c1.4,2.6,3.6,4.8,6.3,6.3l-5.6,15C15.6,61.1,10,55.5,6.8,48.5z M48.5,64.2l-5.6-15
	c2.6-1.4,4.8-3.6,6.3-6.3l15,5.6C61,55.5,55.5,61.1,48.5,64.2z"/>
</svg>
