<?xml version="1.0" encoding="utf-8"?>
<!-- Generator: Adobe Illustrator 18.1.1, SVG Export Plug-In . SVG Version: 6.00 Build 0)  -->
<svg version="1.1" id="Layer_1" xmlns="http://www.w3.org/2000/svg" xmlns:xlink="http://www.w3.org/1999/xlink" x="0px" y="0px"
	 viewBox="0 0 206.4 402.1" enable-background="new 0 0 206.4 402.1" width="206.4" height="402.1" preserveAspectRatio="xMaxYMax meet" xml:space="preserve">
<g>
	<rect x="173.6" y="62.9" fill="none" stroke="#59C3B3" stroke-width="2" stroke-miterlimit="10" width="22.9" height="22.9"/>
	<polygon fill="none" stroke="#8290C8" stroke-width="2" stroke-miterlimit="10" points="80.8,45.7 88.7,32 80.8,18.3 65,18.3
		57.1,32 65,45.7 	"/>
	<polygon fill="none" stroke="#F9ECCE" stroke-width="2" stroke-miterlimit="10" points="17.4,5.6 10,18.5 2.6,31.3 17.4,31.3
		32.2,31.3 24.8,18.5 	"/>
	<polyline fill="none" stroke="#F9ECCE" stroke-width="2" stroke-miterlimit="10" points="145.1,77.9 145.1,61.6 128.5,61.6
		128.5,45.5 112.4,45.5 112.4,29.3 	"/>
	<g>
		<path fill="none" stroke="#F9ECCE" stroke-width="2" stroke-miterlimit="10" d="M206,342.6c-8.1,0-8.1-9.7-16.1-9.7
			c-8.1,0-8.1,9.7-16.1,9.7c-8.1,0-8.1-9.7-16.1-9.7c-8.1,0-8.1,9.7-16.1,9.7c-8.1,0-8.1-9.7-16.1-9.7"/>
	</g>
	<rect x="182.1" y="377.7" fill="none" stroke="#59C3B3" stroke-width="2" stroke-miterlimit="10" width="22.9" height="22.9"/>
	<circle fill="none" stroke="#F3704B" stroke-width="2" stroke-miterlimit="10" cx="101.1" cy="94.8" r="17.2"/>
	<polygon fill="none" stroke="#8290C8" stroke-width="2" stroke-miterlimit="10" points="184.4,215.3 192.3,201.6 184.4,187.9
		168.5,187.9 160.6,201.6 168.5,215.3 	"/>
	<polyline fill="none" stroke="#F9ECCE" stroke-width="2" stroke-miterlimit="10" points="201.4,302 201.4,285.7 184.8,285.7
		184.8,269.6 168.7,269.6 168.7,253.3 	"/>
	<g>
		<path fill="none" stroke="#F9ECCE" stroke-width="2" stroke-miterlimit="10" d="M140.7,160c-8.1,0-8.1-9.7-16.1-9.7
			c-8.1,0-8.1,9.7-16.1,9.7c-8.1,0-8.1-9.7-16.1-9.7c-8.1,0-8.1,9.7-16.1,9.7s-8.1-9.7-16.1-9.7"/>
	</g>
	<circle fill="none" stroke="#F3704B" stroke-width="2" stroke-miterlimit="10" cx="121.1" cy="284.8" r="17.2"/>
	<rect x="34.2" y="85.3" fill="none" stroke="#F9ECCE" stroke-width="2" stroke-miterlimit="10" width="22.9" height="22.9"/>
	<polygon fill="none" stroke="#F9ECCE" stroke-width="2" stroke-miterlimit="10" points="183.4,3 174.6,18.2 165.9,33.4 183.4,33.4
		200.9,33.4 192.1,18.2 	"/>
	<polygon fill="none" stroke="#F9ECCE" stroke-width="2" stroke-miterlimit="10" points="107.4,194 98.6,209.2 89.9,224.3
		107.4,224.3 124.9,224.3 116.1,209.2 	"/>
	<polygon fill="none" stroke="#F9ECCE" stroke-width="2" stroke-miterlimit="10" points="181.1,119.9 173.7,132.7 166.3,145.5
		181.1,145.5 195.8,145.5 188.5,132.7 	"/>
</g>
</svg>
