<?xml version="1.0" encoding="utf-8"?>
<!-- Generator: Adobe Illustrator 18.1.1, SVG Export Plug-In . SVG Version: 6.00 Build 0)  -->
<svg version="1.1" id="Layer_1" xmlns="http://www.w3.org/2000/svg" xmlns:xlink="http://www.w3.org/1999/xlink" x="0px" y="0px"
	 viewBox="0 0 206.4 402.1" enable-background="new 0 0 206.4 402.1" width="206.4" height="402.1" preserveAspectRatio="xMaxYMax meet" xml:space="preserve">
<rect x="9.9" y="62.9" fill="none" stroke="#59C3B3" stroke-width="3" stroke-miterlimit="10" width="22.9" height="22.9"/>
<polygon fill="none" stroke="#5C61AB" stroke-width="3" stroke-miterlimit="10" points="125.6,45.7 117.7,32 125.6,18.3 141.4,18.3
	149.4,32 141.4,45.7 "/>
<polygon fill="none" stroke="#F9ECCE" stroke-width="3" stroke-miterlimit="10" points="189,5.6 196.4,18.5 203.8,31.3 189,31.3
	174.3,31.3 181.7,18.5 "/>
<polyline fill="none" stroke="#F9ECCE" stroke-width="3" stroke-miterlimit="10" points="61.3,77.9 61.3,61.6 77.9,61.6 77.9,45.5
	94.1,45.5 94.1,29.3 "/>
<g>
	<path fill="none" stroke="#F9ECCE" stroke-width="3" stroke-miterlimit="10" d="M0.5,332.9c8.1,0,8.1,9.7,16.1,9.7
		c8.1,0,8.1-9.7,16.1-9.7c8.1,0,8.1,9.7,16.1,9.7c8.1,0,8.1-9.7,16.1-9.7s8.1,9.7,16.1,9.7"/>
</g>
<rect x="1.5" y="377.7" fill="none" stroke="#59C3B3" stroke-width="3" stroke-miterlimit="10" width="22.9" height="22.9"/>
<circle fill="none" stroke="#F3704B" stroke-width="3" stroke-miterlimit="10" cx="105.3" cy="94.8" r="17.2"/>
<polygon fill="none" stroke="#5C61AB" stroke-width="3" stroke-miterlimit="10" points="22.1,215.3 14.2,201.6 22.1,187.9
	37.9,187.9 45.8,201.6 37.9,215.3 "/>
<polyline fill="none" stroke="#F9ECCE" stroke-width="3" stroke-miterlimit="10" points="5,302 5,285.7 21.6,285.7 21.6,269.6
	37.8,269.6 37.8,253.3 "/>
<g>
	<path fill="none" stroke="#F9ECCE" stroke-width="3" stroke-miterlimit="10" d="M65.8,150.3c8.1,0,8.1,9.7,16.1,9.7
		c8.1,0,8.1-9.7,16.1-9.7c8.1,0,8.1,9.7,16.1,9.7c8.1,0,8.1-9.7,16.1-9.7s8.1,9.7,16.1,9.7"/>
</g>
<circle fill="none" stroke="#F3704B" stroke-width="3" stroke-miterlimit="10" cx="85.3" cy="284.8" r="17.2"/>
<rect x="149.4" y="85.3" fill="none" stroke="#F9ECCE" stroke-width="3" stroke-miterlimit="10" width="22.9" height="22.9"/>
<polygon fill="none" stroke="#F9ECCE" stroke-width="3" stroke-miterlimit="10" points="23.1,3 31.8,18.2 40.6,33.4 23.1,33.4
	5.5,33.4 14.3,18.2 "/>
<polygon fill="none" stroke="#F9ECCE" stroke-width="3" stroke-miterlimit="10" points="99.1,194 107.8,209.2 116.6,224.3
	99.1,224.3 81.5,224.3 90.3,209.2 "/>
<polygon fill="none" stroke="#F9ECCE" stroke-width="3" stroke-miterlimit="10" points="25.4,119.9 32.8,132.7 40.2,145.5
	25.4,145.5 10.6,145.5 18,132.7 "/>
</svg>