<?xml version="1.0" encoding="utf-8"?>
<!-- Generator: Adobe Illustrator 18.1.1, SVG Export Plug-In . SVG Version: 6.00 Build 0)  -->
<svg version="1.1" id="Layer_1" xmlns="http://www.w3.org/2000/svg" xmlns:xlink="http://www.w3.org/1999/xlink" x="0px" y="0px"
	 viewBox="0 0 600 300" enable-background="new 0 0 600 300" xml:space="preserve">
<g>
	<path fill="#FAECCE" d="M122,20.4h84v4.9h-78.5v57.1h77.6v4.9h-77.6V141H206v4.9h-84V20.4z"/>
	<path fill="#FAECCE" d="M207.6,263.6c-9.5-9.8-14.3-21.3-14.3-34.5c0-13.2,4.8-24.5,14.5-34.2c9.7-9.6,21.3-14.4,34.8-14.4
		c13.5,0,25.1,4.8,34.7,14.4c9.6,9.6,14.4,21,14.4,34.2c0,13.2-4.8,24.8-14.2,34.6c-9.5,9.8-20.8,14.7-34,14.7h-1.9
		C228.4,278.3,217.1,273.4,207.6,263.6z M287.5,229.3c0-12.4-4.4-23-13.2-31.9c-8.8-8.9-19.4-13.3-31.8-13.3
		c-12.4,0-23,4.4-31.8,13.3c-8.8,8.9-13.2,19.5-13.2,31.9c0,12.4,4.4,23.1,13.2,32c8.8,8.9,19.4,13.4,31.8,13.4
		c12.4,0,22.9-4.5,31.8-13.4C283.1,252.4,287.5,241.7,287.5,229.3z"/>
	<path fill="#FAECCE" d="M385.4,182.1h3.7v97.5l-70.7-87v85.6h-3.7v-97.5l70.7,86.9V182.1z"/>
	<path fill="#FAECCE" d="M411.8,278.9v-98.8H478v3.8h-61.8v45h61.1v3.8h-61.1v46.2L411.8,278.9z"/>
	<polygon fill="none" stroke="#FAECCE" stroke-width="4.4737" stroke-miterlimit="10" points="424.7,26.4 449.8,85 474.8,143.5 
		424.7,143.5 374.6,143.5 399.6,85 	"/>
	<polygon fill="none" stroke="#FB7049" stroke-width="4.4737" stroke-miterlimit="10" points="424.6,64.7 438.4,96.8 452.1,128.9 
		424.6,128.9 397.1,128.9 410.9,96.8 	"/>
	<path fill="none" stroke="#FAECCE" stroke-width="4.3453" stroke-miterlimit="10" d="M170.6,276c-25.5,0-46.2-20.7-46.2-46.2
		s20.7-46.2,46.2-46.2"/>
	<path fill="#FAECCE" d="M252.6,87.2V141h78.5v4.9h-84V20.4h5.5v61.9V25.2"/>
</g>
</svg>
