<?xml version="1.0" encoding="utf-8"?>
<!-- Generator: Adobe Illustrator 18.1.1, SVG Export Plug-In . SVG Version: 6.00 Build 0)  -->
<svg version="1.1" id="Layer_1" xmlns="http://www.w3.org/2000/svg" xmlns:xlink="http://www.w3.org/1999/xlink" x="0px" y="0px"
	 viewBox="0 0 600 200" enable-background="new 0 0 600 200" xml:space="preserve">
<g>
	<line fill="none" stroke="#231947" stroke-width="4" stroke-miterlimit="10" x1="22" y1="151" x2="579" y2="151"/>
	<circle fill="none" stroke="#38D7BD" stroke-width="5" stroke-miterlimit="10" cx="48.3" cy="150.7" r="27"/>
	<circle fill="none" stroke="#FAECCE" stroke-width="5" stroke-miterlimit="10" cx="300.7" cy="150.7" r="27"/>
	<circle fill="none" stroke="#5A5AE0" stroke-width="5" stroke-miterlimit="10" cx="551.7" cy="150.7" r="27"/>
</g>
<rect x="24.3" y="22.3" fill="none" width="163.5" height="96"/>
<text transform="matrix(1 0 0 1 24.2696 35.2178)" fill="#231947" font-family="'OpenSans-Bold'" font-size="17">August 28</text>
<text transform="matrix(1 0 0 1 24.2696 74.8178)" fill="#231947" font-family="'OpenSans'" font-size="16">Speaker Applications </text>
<text transform="matrix(1 0 0 1 24.2696 94.0178)" fill="#231947" font-family="'OpenSans'" font-size="16">Open</text>
<rect x="216.3" y="22.8" fill="none" width="163.5" height="96"/>
<text transform="matrix(1 0 0 1 257 35.7256)" fill="#231947" font-family="'OpenSans-Bold'" font-size="17">October 9</text>
<text transform="matrix(1 0 0 1 220.2103 75.3256)" fill="#231947" font-family="'OpenSans'" font-size="16">Speaker Applications </text>
<text transform="matrix(1 0 0 1 277.8103 94.5256)" fill="#231947" font-family="'OpenSans'" font-size="16">Close</text>
<rect x="415.2" y="23.3" fill="none" width="163.5" height="96"/>
<text transform="matrix(1 0 0 1 486.2159 36.2264)" fill="#231947" font-family="'OpenSans-Bold'" font-size="17">October 16</text>
<text transform="matrix(1 0 0 1 448.3159 75.8264)" fill="#231947" font-family="'OpenSans'" font-size="16">Notifications sent</text>
</svg>
