<svg xmlns="http://www.w3.org/2000/svg" viewBox="0 0 215.6 46"><g fill="rgba(255, 255, 255, .75)"><path d="M112.1 0h2.9v40.3h-2.9zM106.4 8.6h2.9v31.6h-2.9zM106.4 2.9h2.9v2.9h-2.9zM83.4 8.6V40.2h17.2v2.9H83.4V46h20.1V8.6H83.4zm17.2 28.8H86.2V11.5h14.4v25.9zM60.4 8.6v2.9h17.2v8.6H60.4V40.2H80.4V8.6h-20zm17.2 28.8H63.2V23h14.4v14.4zM173.2 8.6h-4.3c-1.2 0-2.2 1-2.2 2.2v27.3c0 1.2 1 2.2 2.2 2.2h4.3c1.2 0 2.2-1 2.2-2.2V10.8c0-1.2-1-2.2-2.2-2.2zM161.7 8.6h-12.2V2.2c0-1.2-1-2.2-2.2-2.2H143c-1.2 0-2.2 1-2.2 2.2v35.9c0 1.2 1 2.2 2.2 2.2h18.7c1.2 0 2.2-1 2.2-2.2V10.8c0-1.2-1-2.2-2.2-2.2zm-6.4 23h-5.8V17.2h5.8v14.4zM213.4 17.3c1.2 0 2.2-1 2.2-2.2v-4.3c0-1.2-1-2.2-2.2-2.2h-18.7c-1.2 0-2.2 1-2.2 2.2v15.8c0 1.2 1 2.2 2.2 2.2H207v2.9h-20.1V17.3h.7c1.2 0 2.1-1 2.1-2.2v-4.3c0-1.2-1-2.2-2.1-2.2h-.7V2.2c0-1.2-1-2.2-2.2-2.2h-4.3c-1.2 0-2.2 1-2.2 2.2v35.9c0 1.2 1 2.2 2.2 2.2h33c1.2 0 2.2-1 2.2-2.2V22.3c0-1.2-1-2.2-2.2-2.2h-12.2v-2.9l12.2.1zM173.2 0h-4.3c-1.2 0-2.2 1-2.2 2.1v1.5c0 1.2 1 2.1 2.2 2.1h4.3c1.2 0 2.2-1 2.2-2.1V2.1c0-1.2-1-2.1-2.2-2.1zM117.9 8.6V40.2H138v-2.9h-17.2v-8.6H138V8.6H117.9zm17.2 17.3h-14.4V11.5h14.4v14.4z"/><g><circle cx="30.2" cy="24.4" r="10.1"/><path d="M30.2 8.6H15.8C7.1 8.6 0 15.7 0 24.4s7.1 15.8 15.8 15.8h14.4c8.7 0 15.8-7.1 15.8-15.8S38.9 8.6 30.2 8.6zm0 28.8H15.8c-7.2 0-12.9-5.8-12.9-12.9s5.8-12.9 12.9-12.9h14.4c7.2 0 12.9 5.8 12.9 12.9 0 7.1-5.8 12.9-12.9 12.9z"/></g></g></svg>