<svg xmlns="http://www.w3.org/2000/svg" xmlns:xlink="http://www.w3.org/1999/xlink" viewBox="0 0 239.7 65"><path fill="rgba(255, 255, 255, .75)" d="M44.5 18.5l10.1-.8C49.6 9 40.3 3.5 30.3 3.5c-9.8 0-18.8 5-23.9 13.5-.2.4-.5.9-.6 1.3l-.1.2 1.1 3.2 5.5 3.3.2-.6c2.9-7.3 9.9-12.1 17.8-12.1 5.3 0 10.2 2.1 13.9 6l.2.2h.1z"/><defs><path id="a" d="M44.5 18.5l10.1-.8C49.6 9 40.3 3.5 30.3 3.5c-9.8 0-18.8 5-23.9 13.5-.2.4-.5.9-.6 1.3l-.1.2 1.1 3.2 5.5 3.3.2-.6c2.9-7.3 9.9-12.1 17.8-12.1 5.3 0 10.2 2.1 13.9 6l.2.2h.1z"/></defs><use xlink:href="#a" overflow="visible" fill="rgba(255, 255, 255, .75)"/><clipPath id="b"><use xlink:href="#a" overflow="visible"/></clipPath><path clip-path="url(#b)" fill="rgba(255, 255, 255, .75)" d="M59.3 31.5c0-15.9-12.9-28.8-28.8-28.8S1.8 15.6 1.8 31.5s12.9 28.8 28.8 28.8c15.8-.1 28.7-12.9 28.7-28.8z"/><path fill="rgba(255, 255, 255, .75)" d="M19.8 5.6C14.3 7.8 9.6 11.7 6.3 17c-.2.4-.5.9-.6 1.3l-.1.2 1.1 3.2 5.5 3.3.2-.6c2-5.1 6-9 10.9-10.8l-3.5-8zm111.7 39h-8c-3.1 0-5.3-1.2-6-4.3h17.2c0-.6.1-1.3.1-1.8 0-7-3.8-13.4-12-13.4-7.2 0-12.2 5.8-12.2 12.9 0 7.6 5.5 12.8 12.9 12.8h4.1l3.9-6.2zm-8.7-14c2.9 0 4.8 2.1 5.2 5.2h-10.5c.5-3.1 2.3-5.2 5.3-5.2zm16.5-5.1h7v5c1.4-3.4 3.7-5.6 7.9-5.4v7.3h-.4c-4.7 0-7.5 2.8-7.5 8.7v9.1h-7V25.5zm67.5 19.1h-8c-3.1 0-5.3-1.2-6-4.3H210c0-.6.1-1.3.1-1.8 0-7-3.8-13.4-12-13.4-7.2 0-12.2 5.8-12.2 12.9 0 7.6 5.5 12.8 12.9 12.8h4.1l3.9-6.2zm-8.7-14c2.9 0 4.8 2.1 5.2 5.2h-10.5c.5-3.1 2.4-5.2 5.3-5.2zm16.5-5.1h7v5c1.4-3.4 3.7-5.6 7.9-5.4v7.3h-.4c-4.7 0-7.5 2.8-7.5 8.7v9.1h-7V25.5zm-48.9 10.9c0-3.3 1.7-5 4.4-5s4.2 1.7 4.2 5v13.8h7v-16c0-5.7-3.1-9.2-8.4-9.2-3.5 0-5.6 1.9-7.2 4v-3.5h-7v24.7h7V36.4zm-65.6 7.8h7.7l-4.3 6.6h-6c-9.3-.3-16.1-7.5-16.1-16.6V34c0-9.2 6.9-16.7 16.9-16.7 6.1 0 9.8 2 12.8 5l-4.5 5.2c-2.5-2.3-5-3.6-8.3-3.6-5.5 0-9.4 4.5-9.4 10.1 0 5.5 3.8 10.2 9.4 10.2m-57.5 3.4c-3.1 2-6.7 3.1-10.5 3.1-7.9 0-14.9-4.7-17.8-12.1l-.2-.6-5.5 3.3-1.1 3.2.1.2c.2.4.4.9.6 1.3 5.1 8.4 14.1 13.5 23.9 13.5s18.9-5.2 23.9-13.6c-4.1 1-10.8 1.5-13.4 1.7z"/><defs><path id="c" d="M40.8 47.6c-3.1 2-6.7 3.1-10.5 3.1-7.9 0-14.9-4.7-17.8-12.1l-.2-.6-5.5 3.3-1.1 3.2.1.2c.2.4.4.9.6 1.3 5.1 8.4 14.1 13.5 23.9 13.5s18.9-5.2 23.9-13.6c-4.1 1-10.8 1.5-13.4 1.7z"/></defs><use xlink:href="#c" overflow="visible" fill="rgba(255, 255, 255, .75)"/><clipPath id="d"><use xlink:href="#c" overflow="visible"/></clipPath><path clip-path="url(#d)" fill="rgba(255, 255, 255, .75)" d="M59.3 31.5c0-15.9-12.9-28.8-28.8-28.8S1.8 15.6 1.8 31.5s12.9 28.8 28.8 28.8c15.8-.1 28.7-13 28.7-28.8z"/><path fill="rgba(255, 255, 255, .75)" d="M12.6 38.8l-.2-.6-5.5 3.3-1.1 3.2v.3c.2.4.4.9.6 1.3 3.4 5.7 9 9.7 15 11.9l2.2-8.4c-4.9-1.9-9-5.8-11-11zm18-5.6c12.3.6 36.8-3.3 36.8-3.3l5.7-8.7s-30.5 3.3-42.2 3.3c-18.2 0-21.7-5.4-21.7-5.4-1.9-1.9-1.7-3.8-1.7-3.8-1 1.3-2.4 3.5-2.5 6.7v.2c0 1.7.6 3.3 1.8 4.5-.1 0 3.7 5.6 23.8 6.5z"/><path fill="rgba(255, 255, 255, .75)" d="M6.7 36.3c-1.3 1.2-1.8 2.8-1.8 4.5v.2c0 3.2 1.5 5.4 2.5 6.7 0 0-.2-1.9 1.7-3.8 0 0 2.4-2.5 4.9-1.5 4.1 1.6 17.6 2.5 17.6 2.5 13.4 0 28.2-3 28.2-3l5.6-8.7S47.9 36.8 32 36.8c-8.3 0-14.1-1.4-17.8-2.3-3.9-1-6.6.9-7.5 1.8z"/><g><path fill="rgba(255, 255, 255, .75)" d="M235.6 27.2c0 1.1-.9 2-2 2s-2-.9-2-2 .9-2 2-2 2 .9 2 2zm-3.6 0c0 .9.6 1.6 1.5 1.6s1.5-.7 1.5-1.6-.6-1.6-1.5-1.6c-.8 0-1.5.7-1.5 1.6zm1.2 1h-.5v-2c.2 0 .4-.1.8-.1s.5.1.7.1c.1.1.2.2.2.4s-.2.4-.4.5c.2.1.3.2.4.5.1.3.1.4.1.5h-.5c-.1-.1-.1-.3-.2-.5 0-.2-.2-.3-.4-.3h-.2v.9zm.1-1.1h.2c.3 0 .5-.1.5-.3 0-.2-.1-.3-.4-.3h-.3v.6z"/></g></svg>