<svg xmlns="http://www.w3.org/2000/svg" viewBox="0 0 344 262.2"><path fill="rgba(255, 255, 255, .75)" d="M159.4 1c3.7-.7 7.5-1.6 11.1-.5 13.9 3.7 28.3 6 41.8 11.4 5.8 3.1 11.6 6.7 16.1 11.7 2.7 2.9 4.8 6.2 7.2 9.4v2.8c-4.4-.7-7.8-4.1-8.2-8.5-3.7-2.1-8-3-11.7-5.2l-.4-2.4c-4.6-2.8-9.9-4.2-14.8-6.3-3.9-1.6-6.5-5.3-10.6-6.6-8.2-2.7-17-4.3-25.6-2.9-3.2.7-5.5 3.2-8.3 4.5-6.2-1.5-13.6-.5-18 4.6-3.1 3.4-7.7 4.5-11.6 6.7-.1.6-.2 1.8-.3 2.4.7.7 1.5 1.4 2.2 2.1-1.9 2.7-3.5 5.4-5 8.3-2.4.8-4.6 1.9-7.1 2.1-1.9-.5-3.3-2-4.9-3.1.7-1.3 1.3-2.6 1.9-3.9-3 .6-6 1.3-9 1.9 0-.7-.1-2.2-.1-2.9 3.5-1.5 7.1-2.3 10.9-2.6.4-3.3 1.9-6.3 3.8-9.1 6.6-1.4 12.7-4.1 18.3-7.8 7.2-3.3 14.9-4.3 22.3-6.1zM68.2 25.9c11.3-4.8 23.3-7.3 34.9-11.3-2.1 3.6-4.3 7.2-6.5 10.8-6.1 1.9-13 2.6-18 7-4.1 3.7-5.4 9.3-6.9 14.4-2.6 8-3.8 16.4-5.2 24.7-.7 3.6-1.6 7.2-3.6 10.3-2.1 3.1-5.2 5.3-8.1 7.4 4.5 5.4 10 10.6 11.8 17.7 1.5 8.6 2.8 17.3 5.6 25.6 1.5 5.5 3.6 11.5 8.8 14.6 4.9 2.7 10.6 3.7 15.9 5.4 1.9 3.6 4.1 7 6.1 10.4-8.1-2.5-16.3-5-24.4-7.5-8.4-2.8-17.1-6-23.4-12.5-6.1-6.8-5.8-16.5-6.8-25-1-7-.2-14.7-4.6-20.7-1.9-2.9-5.3-4.1-8.5-4.9 0-2.5 0-5 .1-7.5 5.2-.5 10-4 11.1-9.3 2.3-10.9 1.5-22.2 4.4-33 2.4-8.2 9.9-13.3 17.3-16.6zm172.9-11.1c8 2.4 16 4.9 24 7.4 7.2 2.1 14.3 5 20.3 9.5 4.1 2.9 7.1 7.4 8.1 12.4 1.9 9.6 2.4 19.4 3.5 29 .9 6 5.4 11.4 11.7 12.2v7.3c-5.6.7-10.8 4.7-11.6 10.6-1.3 10.9-1.6 22.1-4.3 32.8-3.5 9.7-13.5 14.6-22.6 17.9-9.8 3.2-19.6 6.1-29.5 8.9 2.3-3.3 4.4-6.8 6.4-10.4 7.5-2.4 16.9-3.3 21.2-10.9 3.6-7.1 5.1-15.1 7-22.8 1.8-7.2 1.3-15 5-21.6 1.8-4 5.6-6.3 8.9-8.9-4.8-5.2-10.2-10.7-12-17.9-1-8.3-3-16.4-5.2-24.5-1.6-4.9-2.9-10.3-7-13.8-5-4.3-11.9-4.8-17.9-6.9-1.9-3.4-4-6.8-6-10.3z"/><path fill="rgba(255, 255, 255, .75)" d="M180.9 18.8c8.7 2 17.7 4.2 25.1 9.4 2.2 2.9 3.1 6.5 4 10 2.2 2.8 4.7 5.3 7.3 7.8.4 2.4.9 4.8 1.4 7.2-5.9.6-11.1-2.8-15.6-6.1-3.7-3.8-7.4-7.5-11.7-10.7-3.1-.7-6.3-.4-9.4.2-.6-3.7-1.9-7.1-3-10.7.3-2.4 1.2-4.7 1.9-7.1z"/><path fill="rgba(255, 255, 255, .75)" d="M173.8 24.3c1 .2 1.9.3 2.9.5 0 4.6-.4 9.5 2.6 13.3 3.4 1.2 6.5 3.1 9.3 5.4 3.2 2.7 7.5 4.1 9.8 7.9l-2 2.8c1.3.9 2.7 1.9 4 2.8.2 1.3.5 2.6.7 3.8-4.5-.2-9.1-.6-13.4-2.2.3-2.2.7-4.3 1-6.4-1.5-1.9-2.9-3.8-4.4-5.7-2.8.2-5.6.3-8.4.3-2-2.6-4.1-5-6.4-7.3l-6.3 3.6c-2-2.6-4.1-5-6.4-7.4 3-.7 6-1.1 9-1.2 2.5-3.7 4.7-7.4 8-10.2zM24.4 39.4c7.5-3.2 15.4-5.2 23-8.2-2.2 3.3-2.9 8.5-7.4 9.3-4.7 1.4-10.1 3.1-12.1 8.2-3.8 9.6-4.9 19.9-6.7 30-.8 4.5-4.1 7.8-7.5 10.5 3.4 4 7.2 8.3 8.2 13.7 1.7 9 2.7 18.4 6.5 26.9 2.6 5.7 9.4 6.2 14.5 8.5 1.8 2.5 3.1 5.4 4.6 8.1-7-2.4-14.1-4.8-21.1-7.4-6.4-2.7-13.2-6.7-15.2-13.7-2.1-7.7-1.8-15.8-2.7-23.6-.8-4.8-3.7-9.2-8.5-10.4V86c4-.9 7.4-3.9 8-8.1 1.5-8.6.6-17.6 3.2-26 2-6.1 7.6-10 13.2-12.5zm272.3-8.2c8.9 3.6 18.5 5.6 27 10.4 4.4 2.4 8.3 6.3 9.5 11.3 1.7 8 1.7 16.2 2.9 24.2.7 4.3 3.6 8 7.9 9.1v5.4c-4 .9-7.3 3.8-7.9 8.1-1.1 8.5-1.2 17.2-3 25.6-2 7.2-9 11.2-15.4 13.9-6.9 2.5-13.9 4.9-21 6.9 1.5-2.6 3.1-5.2 4.5-7.9 5.2-2 12-2.8 14.7-8.5 3.8-9 5.1-18.8 6.5-28.5.7-5.3 3.8-9.8 7.9-13-2.9-3.3-5.7-6.7-7.4-10.8-1.2-3-1.3-6.4-1.8-9.6-.7-5.5-2.3-10.9-3.8-16.2-.9-3.4-2.8-6.6-5.8-8.4-2.4-1.3-5-1.9-7.5-2.8-4.4-.9-5.1-6-7.3-9.2z"/><path fill="rgba(255, 255, 255, .75)" d="M122.6 38.4c1.5-3.2 5-3.9 8.2-3 2.8.5 3.8 3.5 5.1 5.6 1.6 2.9 3.9 5.2 6.2 7.5 2.1.2 4.1.5 6.2.8 1.4-2.5 2.9-5 4.5-7.4 1.8.5 3.5 1 5.2 1.6.5 1 1 1.9 1.5 2.9 3.1.3 6.2-.1 9.3.5 3.3 1.4 6.8 2.4 10.4 2.5.7 2.9 1.6 5.8 2.2 8.7.5 1.6-1.1 2.8-1.7 4.2 3.1.8 6.2 2 9.4 2.4 2.5-.1 4.6-1.7 6.9-2.6 1.8 1.6 3.5 3.3 5.3 5 .7-1.5 1.5-3 2.2-4.5 4 6.3 12.4 6.2 19.1 6.7 1.2 1.4 2.8 2.6 3.5 4.4.1 2.8-.6 5.5-1 8.2-1.5-.6-3-1-4.6-1.3-.1-2-.1-4-.2-6-1.3 4-4.2 7.1-7.7 9.4-.1.8-.2 2.5-.3 3.3.9 0 2.6-.1 3.4-.1 2.1-.9 4.2-1.7 6.3-2.5.6 1.6 1.3 3.3 1.5 5-.5 2-1.6 3.8-2.5 5.7-.8 0-1.5.1-2.3.1-.1-1.1-.3-3.3-.4-4.3-1.8 2.7-3.7 5.4-5.6 8 .2 3.8-2.3 6.7-3.6 10-1.1 3.9-.7 8-2.1 11.8-.9 3.1-3.7 5.1-5.9 7.3 0 1.5 0 3 .1 4.5.9.6 1.8 1.2 2.8 1.8-.5 2.3-1.1 4.6-1.7 6.9-.7-.4-2.1-1.2-2.8-1.5-.4-1.3-.7-2.6-1.1-3.9-1.7-.9-3.4-2.4-5.5-2.2-2.7.1-4.8 2-7 3.3-4.2.3-9.4-.3-12.6 3-2 2.7-3.3 6.1-3.1 9.5 1.3 3 5 2.6 7.6 2.8 5.2.6 9.9-2.2 14.8-3.2-1.4 2.2-2.7 4.4-4 6.6 3.1.1 6.1.1 9.2.2-.4.8-1.3 2.3-1.7 3.1 3.3.7 6.6 1.2 9.9 1.5-2.7.8-5.5 2.6-8.4 1.6-3.2-.8-6.3-1.9-9.6-1.8-6 .1-12-.9-18-1.3-3.4-.3-6.5-2.1-9.8-3-1.9-.7-4-.9-5.5-2.3-1.2-1.8-1.9-4-2.7-6-5.4-4.5-8.1-11.2-13-16.3.9 5.6 2.9 11.8 8.5 14.3 0 1.1 0 2.2-.1 3.2-1.8-1.1-3.7-2.1-5-3.8-3.2-4.3-6.6-8.7-8.1-14-1-4.2-5.6-6.2-6.2-10.5-1.4-6.8-4.1-14.4-.3-20.9 2.6-4 .8-8.8.4-13.1-.5-4.2-1.9-8.3-2.7-12.5 0-3.2 2-6.3.5-9.4-1.6-3.1-3.7-5.9-5.6-8.8-2.9.1-5.8.5-8.7.8-3.7.5-7.2-1-10.4-2.6 3.8.1 7.7.1 11.4-.7-2.6-2.1-1.3-5.6-.2-8.1 1.3-2.5 4.5-2.6 6.9-3.3v-3.7c1.2 0 2.6-.1 3.2-.1z"/><path fill="rgba(255, 255, 255, .75)" d="M183.9 95.2l6 .3c.3 1.6.7 3.2 1.3 4.8-2.4-.2-4.7-.7-7-.6-1.3.7-2.5 1.6-3.7 2.4v-3c1-1.3 2.2-2.6 3.4-3.9zm8.1 6.6c2.4-1 4.9-1.9 7.4-2.7-1.1 2.5-2.3 4.9-3.5 7.4-1.1-1.7-2.5-3.3-3.9-4.7zM203.5 101c2.4.7-.9 3.9-2.3 2.6-.9-1.3 1.1-2.6 2.3-2.6zM134.3 101.8c2.3 1.4 4.6 3 6.7 4.7-1.7-.6-3.3-1-5.1-1.1-1.4-.1-2.8-.2-4.1-.2-.3.9-1 2.6-1.3 3.4h1.7l.7.7c.1.2.2.7.3 1-1.6-.4-3.2-.6-4.8-.8.9-2.1 2-4 2.9-6.1.7.2 1.4.3 2.1.5.2-.6.6-1.6.9-2.1zm52.2 2.2c1.1-.8 2.3-1.6 3.4-2.4-.5 3.6.6 7.8-1.7 11-1.2-2.7-1.7-5.7-1.7-8.6zm8.4 5.9c1.8-1.5 3.7-2.8 5.7-4-.4.8-.7 1.6-1 2.4-1.6.5-3.2 1.1-4.7 1.6z"/><path fill="rgba(255, 255, 255, .75)" d="M136.1 107.8c1.4-.3 1.9.2 1.3 1.6-1.5.3-2-.2-1.3-1.6zm-1.8 1.3l.7-.2.5.8-.4.9h-.9c0-.4.1-1.1.1-1.5zM238.5 137.3c2.5-2.3 4.5-4.9 6.7-7.5-4.1 6.1-6.6 13.2-11.6 18.6-10.1 10.5-23 17.7-36.2 23.6 0-.7.1-2 .2-2.6 2.9-2 5.8-3.9 8.9-5.7.1-1.4.3-2.9.5-4.3 3.3-2.1 5.6-5.4 7.7-8.7h6.4c2.6-3.5 6.8-5.2 9.4-8.6 2-2.6 5.7-2.6 8-4.8zm-28.3 5.1c4.3.2 8.3-1.4 12.3-2.8-1.2 2.2-2 5.1-4.7 5.9-4.2.1-8.4-.7-12.6.1-2.9.6-5.9 1-8.9.9 4.2-2.4 9-4.1 13.9-4.1zM32.5 209.9c9.5.2 19.3-.8 28.5 2.2 8.2 2.7 14.8 10.2 15.8 18.9.4 5.9.6 12.1-2.2 17.4-2.9 6.3-9.1 10.6-15.7 12.2-8.6 2.3-17.6 1.5-26.3 1.6-.1-17.4-.1-34.9-.1-52.3zm62.9 0c11.3.2 22.7-.3 34 .2-.1 2.6-.3 5.3-.5 7.9h-24c.1 4.4 0 8.9 0 13.4 6.9.1 13.8 0 20.8 0v8H105v14.7h25.6v8H95.5c-.1-17.3-.1-34.8-.1-52.2zm53.4 0h33v8c-7.8.2-15.7.1-23.5.1v13.4h20.2v8h-20.2v22.8h-9.6c.2-17.4.1-34.9.1-52.3zm49.2.2c3.3-.2 6.7-.5 10 0 1.8 1.9 3.2 4.2 4.7 6.3 7.3 10.7 15.3 21 21.8 32.3-.6-12.8-.5-25.7-.5-38.5 3.2-.2 6.5-.2 9.8-.2v52.3h-9.9c-9-12.9-18.8-25.2-26.5-38.9.5 13 .4 25.9.3 38.9h-9.4c-.6-6.7-.2-13.5-.3-20.3 0-10.7.1-21.3 0-31.9zm61.2 52.1c6.8-17.5 13.7-35 20.7-52.4h8.6c6.9 17.4 13.8 34.9 20.7 52.3H299c-1.7-4.5-3.3-9.1-5-13.6h-19.7c-1.7 4.5-3.4 9.1-5.2 13.6-3.2.1-6.5.1-9.9.1z"/><path fill="#263D83" d="M41.9 218c6.5-.1 13.8-.4 19.4 3.7 5.7 4.1 7 11.8 5.9 18.3-.6 4.6-3.2 9.1-7.4 11.4-5.5 2.7-11.8 2.7-17.9 2.7V218zm235.4 22.6c2.8-5.9 4.6-12.2 7-18.4 2 6.2 4.3 12.3 6.7 18.4h-13.7z"/></svg>