<svg xmlns="http://www.w3.org/2000/svg" viewBox="0 0 283.8 56.6"><path fill="rgba(255, 255, 255, .75)" d="M8.6 55.5C4.4 52.4 1.1 47.6.2 43.4c-.5-2.2-.3-3.8.6-7 .5-1.6.7-3.2.8-5.4l.2-3.1.6 1.4c.3.8 2.2 4.4 4.1 8C8.4 40.9 10 44 10 44.1s-.3.6-.8 1.2c-1.8 2.3-1.7 4.7.3 8l.8 1.3.6-.6c.3-.3 1-1.3 1.5-2.2.7-1.3.9-1.9.9-3.3 0-1.7 0-1.8-4.3-10.4-6.2-12.4-7.7-16.4-7.7-21.5 0-2.6 0-2.7 1.1-4.9 1.4-2.8 3.9-5.4 7.4-7.8 2-1.3 6.7-4 7.1-4 0 0-1 1.2-2.4 2.6C11.4 5.7 10 8 10 10.4c0 1.3.2 1.9 1.6 4.8.9 1.8 1.6 3.3 1.7 3.4.1.1.3-.1.6-.4.8-.8 1.1-3.3.8-5.8-.1-1.1-.2-2.1-.2-2.1.1-.1 2.1 4.6 2.8 6.5.6 1.8.7 3.1.5 7.2-.1 2.8.1 3.7 1.9 7.6 1.7 3.8 2.1 5.4 2.1 8.3 0 5.2-2.4 10.3-6.5 13.7-1.6 1.3-4.4 3-5 3 0 .1-.8-.4-1.7-1.1zM222.5 50.5c-1-.2-1.8-.9-2.4-1.9-.3-.5-2.5-5.7-4.8-11.4-2.9-7.1-4.3-10.8-4.3-11.4 0-2 2.1-3.3 4-2.5.5.2 1.1.7 1.3 1s1.8 4.3 3.6 8.9c2.9 7.6 3.6 9.3 3.7 8.9 0-.4 6.6-17.2 7-17.8.9-1.4 3.2-1.6 4.4-.4 1.4 1.4 1.4 1.4-3.7 13.5-2.5 6.1-4.8 11.4-5 11.7-.7 1-2.3 1.6-3.8 1.4zM65.7 23.4h-1.4l-5.7.1-.6.7-.6.7v23.2l.7.8c.4.4.9.8 1.2.9.6.1 1.8-.1 2.3-.5.7-.4 1-2 1-5v-3h5l3 3.8c1.7 2.1 3.4 4 3.8 4.3s1.2.5 1.9.5c1 0 1.3-.1 1.9-.9.6-.6.8-1.1.8-1.9 0-1.1-.1-1.3-3.1-4.8L74 40l1.1-.7c1.5-.9 2.7-2.2 3.4-3.7.5-1.1.6-1.8.6-3.8 0-3-.6-4.7-2.3-6.2-2.3-1.7-4.4-2.2-11.1-2.2zm-3.2 5.2l4 .1c4.4.1 5.4.4 6.1 1.8.8 1.6.3 4-1.3 5.1-.7.5-1.2.6-4.8.6l-4 .1v-7.7zm48.9 21.2c-.4-.1-1.1-.5-1.4-.9l-.6-.7-.1-11.3c-.1-12.7 0-13.1 1.6-14 1.1-.6 2.7-.3 3.6.6.4.4 2.3 3.3 4.2 6.4 1.9 3.1 3.6 5.6 3.7 5.6s1.9-2.6 3.8-5.8 3.8-6 4.1-6.4c1.3-1.3 3.9-.9 4.7.7.6 1.1.6 23.3 0 24.4-.6 1.2-2.7 1.8-4.1 1.1-1.4-.7-1.4-1.2-1.6-8.6l-.1-6.9-2.3 3.7c-2.9 4.7-3.4 5.2-4.6 5.2s-1.5-.3-4.5-5.1l-2.5-3.9-.1 7.1-.1 7.1-.7.7c-.8 1-1.9 1.3-3 1zm56.7.1c-1-.2-1.7-.7-2.1-1.4-.3-.6-.4-2.8-.4-11.9 0-12.5-.1-12.1 1.7-12.8 1.1-.5 16.6-.5 17.5-.1 1.7.8 2 2.9.7 4.2l-.8.8h-13.2v5.2h5.3c5.9 0 6.7.2 7.5 1.6.4.7.4 1 .1 1.8-.5 1.7-.7 1.8-7.1 1.8h-5.7l-.1 4.6c-.1 4.5-.1 4.6-.7 5.2-.7.8-1.9 1.2-2.7 1zm99.3-26.5c-2.7 0-3.4.1-4.2.4-2 .8-1.9.2-1.9 12.8 0 9.2.1 11.4.4 11.9.4.7 1.2 1.2 2.1 1.4.8.2 2-.3 2.7-1 .6-.6.7-.8.7-4.1l.1-3.4h5l3.2 4c3.4 4.2 4.2 4.9 5.9 4.6 1.2-.2 2.2-1.5 2.2-2.7 0-1.1-.2-1.5-2.8-4.5-1.1-1.3-1.9-2.4-1.9-2.5s.3-.4.7-.5c1.2-.5 2.9-2.4 3.6-3.8.9-2 .9-5.8 0-7.7-.8-1.7-2.5-3.3-4.4-4-1.3-.5-2-.6-7.9-.7-1.5-.2-2.6-.2-3.5-.2zm-.1 5.2l4 .1c3.2.1 4.2.2 4.9.6 2.1 1.2 2.1 4.7 0 6.3-.7.5-1.2.6-4.8.6l-4 .1v-3.8l-.1-3.9zM37.7 23.4c-2.6 0-5.1.1-5.7.4-1.8.7-1.7.4-1.7 12.9.1 10.9.1 11.3.6 11.9.3.3.9.8 1.3 1 1.2.6 11 .3 13-.3 5.9-1.8 9.4-6.1 9.9-11.8.6-6.5-3.9-12.1-10.8-13.6-1.2-.4-4-.5-6.6-.5zm-1.4 5.2l3.3.1c3.9.1 5.3.6 7 2 1.7 1.5 2.4 3.3 2.4 5.9 0 2.5-.5 3.6-2.1 5.4-.8.9-1.6 1.4-2.7 1.8-1.5.6-7.3 1.1-7.7.6-.1-.1-.2-3.7-.2-8.1v-7.7zm57.9-5.9c-1 0-1.9.4-2.6 1.2-.9 1-10.4 22.5-10.4 23.6 0 .6.2 1.1.8 1.6.6.6 1 .8 1.9.8 1.6 0 2.2-.7 3.5-3.7l1-2.4 5.9.1 5.9.1 1 2.4c1.2 2.9 1.9 3.5 3.5 3.5 1.5 0 2.7-1.1 2.7-2.4 0-1.2-9.6-22.8-10.5-23.8-.7-.7-1.7-1.1-2.7-1zm.1 7.4c.3.3 3.4 7.8 3.4 8.1 0 .2-.9.3-3.6.3-3.3 0-3.6 0-3.4-.5 1-2.4 3.5-8 3.6-7.9zm55.9-7.5c-1.1 0-2.2.5-2.8 1.3-.3.5-2.8 5.8-5.5 12-4.8 10.9-4.9 11.1-4.6 12.1.2.5.6 1.2.9 1.4.9.6 2.7.5 3.5-.2.4-.3 1.1-1.7 1.7-3l1-2.4 5.9-.1 5.9-.1 1 2.4c1.2 2.9 2 3.7 3.6 3.7 1.9 0 3.2-1.8 2.5-3.6-.2-.4-2.4-5.6-5-11.5-5-11.4-5.3-11.8-7.2-12.2-.3.3-.6.2-.9.2zm-.1 7.5c.2-.2 3.7 7.8 3.7 8.3 0 .1-1.6.2-3.5.2-2.2 0-3.5-.1-3.5-.3-.1-.3 3.1-7.9 3.3-8.2zm40 19.2c-1.9-1-1.9-.9-1.9-12.9 0-11.4 0-11.4 1.4-12.4.7-.5 1.1-.6 8.9-.6 8.6-.1 9.3 0 10 1.1.6.9.5 2.4-.2 3.2l-.6.7-6.6.1-6.6.1-.1 2.6-.1 2.6h5.5c5.2 0 5.5 0 6.3.6 1.4 1 1.7 2.5.5 3.9-.5.6-.6.6-6.4.8l-5.9.1v5.2l6.8.1 6.8.1.6.7c.9 1 .8 2.3-.1 3.4l-.8.9-8.2.1c-7.9.2-8.3.2-9.3-.4zm50.1.2c-1.7-.8-1.7-1-1.6-13.3l.1-11.1.7-.7.7-.7 8.2-.1c8.6-.1 9.3 0 10.1 1.1.7.9.5 2.5-.4 3.3l-.8.8h-13.4V34h5.6c5.4 0 5.6 0 6.5.6 1.4 1 1.7 2.5.5 3.9-.5.6-.6.6-6.5.8l-6 .1v5.2l6.9.1 6.9.1.6.7c.9 1 .8 2.3-.1 3.4l-.8.9-8.2.1c-7.1 0-8.3-.1-9-.4z"/></svg>