<svg xmlns="http://www.w3.org/2000/svg" xmlns:xlink="http://www.w3.org/1999/xlink" viewBox="0 0 192 192"><defs><path id="a" d="M0 0h192v192H0z"/></defs><clipPath id="b"><use xlink:href="#a" overflow="visible"/></clipPath><path clip-path="url(#b)" fill="rgba(255, 255, 255, .75)" d="M170.1 96c0 40.9-33.2 74.1-74.1 74.1S21.9 136.9 21.9 96 55.1 21.9 96 21.9s74.1 33.2 74.1 74.1"/><defs><path id="c" d="M0 0h192v192H0z"/></defs><clipPath id="d"><use xlink:href="#c" overflow="visible"/></clipPath><path clip-path="url(#d)" d="M190.3 102.3l-10.6-1.8c-.6-.1-1.1-.4-1.5-.7-.9-.9-1.3-2.4-1.3-3.8 0-1.5.5-3 1.3-3.9.4-.4.9-.6 1.5-.7l10.5-1.8c1.1-.2 1.8-1.2 1.7-2.3l-1-7.9c-.1-1.1-1.1-1.9-2.2-1.8l-10.6 1c-.5.1-.9 0-1.4-.2h-.1c-.1 0-.1-.1-.1-.1-1.1-.7-2-2.2-2.4-3.7-.2-1.1-.2-2.4.2-3.3v-.1c.1-.1.1-.2.2-.4.3-.4.6-.7 1.1-.9l9.8-4.4c1-.5 1.5-1.6 1-2.6l-3.1-7.4c-.4-1-1.6-1.5-2.6-1.1l-10 3.8c-.3.1-.7.2-1 .2-.2 0-.4 0-.6-.1-1-.3-2.1-1.2-2.9-2.4-.3-.5-.5-1-.7-1.5s-.5-1.8-.2-2.9c0-.1 0-.2.1-.2 0 0 0-.1.1-.1.1-.1.2-.3.3-.4.1-.2.3-.3.4-.4l8.3-6.8c.8-.7 1-1.9.3-2.8l-4.9-6.3c-.7-.9-1.9-1.1-2.8-.4l-8.7 6.2c-.1.1-.2.1-.3.2h-.1c-.1 0-.2.1-.3.1s-.1 0-.2.1c-1.3.3-3-.4-4.3-1.7l-.3-.3-.1-.1c-.4-.4-.7-.9-.9-1.4-.2-.4-.5-1.1-.5-1.8v-.3c0-.4.2-.9.5-1.3l6.2-8.7c.6-.9.5-2.1-.4-2.8l-6.3-4.9c-.9-.7-2.1-.5-2.8.3l-6.8 8.3c-.4.5-.9.8-1.4.9-.3.1-.5.1-.8.1-.9 0-1.9-.3-2.8-.8-1-.5-1.8-1.2-2.4-2.1-.2-.2-.3-.5-.4-.8-.2-.6-.2-1.3 0-1.9l3.8-10.1c.4-1-.1-2.2-1.1-2.6l-7.4-3.1c-1-.4-2.2 0-2.6 1l-4.4 9.7c-.2.5-.5.9-.9 1.1-.1.1-.2.1-.3.2-.8.4-1.7.5-2.1.5-.7 0-1.4-.1-2-.3-1.1-.3-2.1-.9-2.8-1.7-.2-.2-.3-.4-.5-.7-.2-.5-.3-1-.2-1.5l1-10.6c.1-1.1-.7-2.1-1.8-2.2l-7.9-1c-1.1-.1-2.1.6-2.3 1.7l-1.8 10.6c-.1.5-.3 1-.6 1.3-.8 1-2.5 1.5-4 1.5-1.3 0-2.6-.4-3.4-1-.6-.4-1-1-1.1-1.8L89.7 1.7C89.5.6 88.5-.1 87.4 0l-7.9 1c-1.1.1-1.9 1.1-1.8 2.2l1 10.6c.1.6 0 1.1-.3 1.6-.1.2-.2.4-.4.6-.6.7-1.5 1.2-2.6 1.6-.7.2-1.5.4-2.2.4-.5 0-1.6-.1-2.5-.6-.1-.1-.2-.1-.2-.2-.2-.2-.4-.5-.6-.9l-4.4-9.8c-.5-1-1.6-1.5-2.6-1l-7.4 3.1c-1 .4-1.5 1.6-1.1 2.6l3.8 10c.2.4.2.9.2 1.4v.1c0 .2-.1.3-.1.5-.1.3-.3.6-.4.8-.6.8-1.4 1.5-2.3 2-.9.5-2 .8-2.9.8-.4 0-.7-.1-1-.2-.5-.2-.9-.4-1.2-.9l-6.8-8.3c-.7-.8-1.9-1-2.8-.3L34.2 22c-.9.7-1.1 1.9-.4 2.8l6.2 8.7c.3.4.5.9.5 1.3v.3c0 .7-.3 1.4-.5 1.9-.3.7-.8 1.3-1.3 1.8-1.3 1.2-3 1.9-4.2 1.7h-.2c-.1 0-.2-.1-.3-.1-.1-.1-.2-.1-.3-.2l-8.8-6.3c-.9-.6-2.1-.5-2.8.4l-4.9 6.3c-.7.9-.5 2.1.3 2.8l8.3 6.8c.2.1.3.3.5.5.1.2.2.3.3.5v.1c.1.1.1.2.1.3s.1.2.1.4c.1 1-.2 2-.3 2.4-.1.3-.2.5-.3.8-.8 1.6-2.1 2.8-3.4 3.1-.2 0-.4.1-.6.1-.3 0-.7-.1-1-.2l-10-3.8c-1-.4-2.2.1-2.6 1.1l-3.1 7.4c-.4 1 0 2.2 1 2.6l9.8 4.4c.5.2.9.5 1.1.9.7 1 .7 2.5.5 3.9 0 .2-.1.5-.2.7-.4 1.2-1.1 2.3-2 2.9-.5.3-1.1.5-1.8.4l-10.6-1c-1.1-.1-2.1.7-2.2 1.8L0 87.4c-.1 1.1.6 2.1 1.7 2.3l10.6 1.7c.6.1 1.1.4 1.5.8.8.9 1.3 2.4 1.3 3.8s-.4 2.9-1.3 3.7c-.4.4-.9.7-1.5.8l-10.6 1.8c-1.1.2-1.8 1.2-1.7 2.3l1 7.9c.1 1 1 1.8 2 1.8h.2l10.7-1c.5-.1 1 0 1.4.2h.1c.1 0 .1.1.2.1 1 .6 1.7 1.8 2.2 3v.1c.1.2.1.4.2.6.2 1.1.2 2.4-.2 3.4-.1.2-.2.3-.3.4-.3.4-.6.7-1.1.9l-9.7 4.4c-1 .5-1.5 1.6-1 2.6l3.1 7.4c.3.8 1.1 1.3 1.9 1.3.2 0 .5 0 .7-.1l10-3.8c.3-.1.7-.2 1-.2.2 0 .4 0 .6.1 1.2.3 2.6 1.6 3.3 3.1.1.3.2.5.3.8.1.4.4 1.4.3 2.4 0 .1-.1.2-.1.4 0 .1-.1.2-.1.4-.2.3-.4.6-.7.9l-8.3 6.8c-.8.7-1 1.9-.3 2.8l4.9 6.4c.4.5 1 .8 1.6.8.4 0 .8-.1 1.2-.4l8.7-6.2c.3-.2.6-.4 1-.5 1.2-.2 2.9.5 4.1 1.7.5.5 1 1.1 1.4 1.8.2.5.5 1.1.5 1.9v.2c0 .4-.2.9-.5 1.3L34 167c-.6.9-.5 2.1.4 2.8l6.3 4.9c.4.3.8.4 1.2.4.6 0 1.2-.3 1.6-.7l6.8-8.3c.3-.4.8-.7 1.3-.9.3-.1.6-.2 1-.2 1 0 2 .3 2.9.8s1.7 1.2 2.3 2c.2.2.3.5.4.8.1.2.1.4.1.5.1.5 0 .9-.2 1.4l-3.8 10c-.4 1 .1 2.2 1.1 2.6l7.4 3.1c.3.1.5.2.8.2.8 0 1.5-.4 1.9-1.2l4.4-9.8c.2-.5.5-.9.9-1.1.1-.1.2-.1.2-.2.8-.4 1.7-.4 2.1-.4.7 0 1.4.1 2 .3 1.1.3 2.1.9 2.8 1.7.2.2.3.4.5.7.2.5.3.9.3 1.4l-1 10.7c-.1 1.1.7 2.1 1.8 2.2l7.9 1.1h.3c1 0 1.8-.7 2-1.7l1.8-10.6c.1-.8.5-1.4 1.1-1.8.9-.6 2.2-1 3.4-1 1.3 0 2.7.4 3.6 1 .1 0 .1.1.2.1l.3.3c.3.4.5.8.6 1.4l1.8 10.5c.2 1 1 1.7 2 1.7h.3l7.9-1c1.1-.1 1.9-1.1 1.8-2.2l-1-10.7c-.1-.5 0-1 .2-1.4.1-.3.3-.5.5-.8.7-.8 1.8-1.4 3-1.7.6-.1 1.2-.2 1.8-.2.5 0 1.4.1 2.1.4.1 0 .2.1.3.2.1.1.2.1.3.2.2.2.5.5.6.9l4.4 9.7c.3.7 1.1 1.2 1.9 1.2.3 0 .5-.1.8-.2l7.4-3.1c1-.4 1.5-1.6 1.1-2.6l-3.8-10c-.2-.4-.2-.9-.2-1.4 0-.2.1-.4.1-.5.1-.3.3-.6.4-.8.6-.8 1.4-1.5 2.3-2 .9-.5 2-.8 2.9-.8.4 0 .7.1 1 .1.5.2.9.4 1.3.9l6.8 8.3c.4.5 1 .7 1.6.7.4 0 .9-.1 1.2-.4l6.3-4.9c.9-.7 1.1-1.9.4-2.8l-6.2-8.7c-.3-.4-.5-.9-.5-1.3v-.3c0-.7.3-1.4.5-1.8.2-.5.6-1 .9-1.4l.1-.1.3-.3c1.3-1.2 3-2 4.3-1.7h.1c.1 0 .1 0 .1.1.1 0 .2.1.3.1h.1c.1.1.2.1.3.2l8.7 6.2c.4.3.8.4 1.2.4.6 0 1.2-.3 1.6-.8l4.9-6.3c.7-.9.5-2.1-.3-2.8l-8.3-6.8c-.2-.1-.3-.3-.4-.4-.1-.1-.2-.3-.3-.4 0 0 0-.1-.1-.1 0-.1-.1-.2-.1-.3-.3-1.1 0-2.4.2-2.9s.4-.9.6-1.3c.1-.1.1-.2.2-.3 0-.1.1-.1.1-.2.9-1.3 2.2-2.1 3.3-2.1h.3c.1 0 .2 0 .3.1.1 0 .2.1.3.1l10.1 3.8c.2.1.5.1.7.1.8 0 1.6-.5 1.9-1.3l3.1-7.4c.4-1 0-2.2-1-2.6l-9.8-4.4c-.5-.2-.9-.6-1.1-.9-.1-.1-.2-.2-.2-.4v-.1c-.4-1-.4-2.2-.2-3.3.3-1.5 1.2-3 2.3-3.7.1 0 .1-.1.2-.1h.1c.4-.2.9-.3 1.4-.2l10.7 1h.2c1 0 1.9-.7 2-1.8l1-7.9c0-1-.7-2-1.8-2.2M40.7 98.1l2.2 6.8-5.8-4.2-5.8 4.2 2.2-6.8-5.8-4.2h7.2l2.2-6.8 2.2 6.8h7.2l-5.8 4.2zM93 48.5c1.5-.2 3-.2 4.2-.2 4.4 0 6.7 2.3 6.7 5.4 0 3.1-2.1 5.4-6.1 5.4h-1.3v4.5H93V48.5zm-38.7-.1h3.5v5.9h5.8v-5.9h3.5v15.1h-3.5v-6.1h-5.8v6.1h-3.5V48.4zm6.8 84.1h-4.7v2.1h4.3v2.4h-4.3v2.3h4.7v2.5h-7.4V130h7.4v2.5zm7.7 9.4c-1.3 0-2.9-.5-3.9-1.2l.8-2.5c.9.7 2.2 1.1 3.3 1.1 1 0 1.3-.4 1.3-1s-.3-1-2.1-1.7c-2.1-.8-2.8-2-2.8-3.4 0-1.7 1.4-3.4 4.1-3.4 1.3 0 2.6.4 3.3.9l-.7 2.4c-.7-.5-1.8-1-2.6-1-1 0-1.4.5-1.4.9 0 .8.6 1 2.1 1.6 2.2.9 2.8 2 2.8 3.5 0 2-1.4 3.8-4.2 3.8m5.5-30.7c0 5.7-2.8 8.5-8.5 8.5h-3.5c-5.7 0-8.5-2.8-8.5-8.5V81.4c0-5.7 2.8-8.5 8.5-8.5h3.4c5.7 0 8.5 2.8 8.5 8.5v9.4h-6.9v-9c0-1.8-.9-2.7-2.6-2.7h-1.2c-1.8 0-2.7.9-2.7 2.7v29.1c0 1.8.9 2.7 2.7 2.7h1.3c1.8 0 2.6-.9 2.6-2.7v-10.4h6.9v10.7zm-1.6-47.7l7.1-15.3h.5l7.1 15.3h-3.7l-1.1-2.7h-5.2l-1.1 2.7h-3.6zm13.3 69h-3.5v9.2h-2.7v-9.2h-3.5V130H86v2.5zm3.3 9.3c-.7 0-1.2-.6-1.2-1.3s.6-1.3 1.2-1.3c.7 0 1.3.6 1.3 1.3-.1.8-.6 1.3-1.3 1.3m10.5-.1H97v-8.3l-2 .8-.9-2.4 4.8-1.9h.9v11.8zm-1.5-22h-3.7c-5.7 0-8.5-2.8-8.5-8.5V81.4c0-5.7 2.8-8.5 8.5-8.5h3.7c5.7 0 8.5 2.8 8.5 8.5v29.7c0 5.8-2.8 8.6-8.5 8.6m9 22.5l-1.2-2.2c1.8-.8 3.3-1.8 4.4-2.8-.4.2-1 .3-1.5.3-2.4 0-3.6-1.7-3.6-3.6 0-1.9 1.5-4 4.2-4 2.6 0 4.3 1.8 4.3 4.4 0 2.8-1.7 5.6-6.6 7.9m8-83.2H114v4.5h-3.5v-15c1.5-.2 3-.2 4.2-.2 4.4 0 6.7 2.3 6.7 5.4 0 3.1-2.1 5.3-6.1 5.3m4.9 83.2L119 140c1.8-.8 3.3-1.8 4.4-2.8-.4.2-1 .3-1.5.3-2.4 0-3.6-1.7-3.6-3.6 0-1.9 1.5-4 4.2-4 2.6 0 4.3 1.8 4.3 4.4 0 2.8-1.6 5.6-6.6 7.9m7-22.5c-5.7 0-8.5-2.8-8.5-8.5V81.4c0-5.7 2.8-8.5 8.5-8.5h3.7c5.7 0 8.5 2.8 8.5 8.5v7.4h-6.9v-7c0-1.8-.9-2.7-2.6-2.7h-1.4c-1.8 0-2.7.9-2.7 2.7v29.1c0 1.8.9 2.7 2.7 2.7h1.6c1.8 0 2.7-.9 2.7-2.7v-10.6H129v-6h10.5v17c0 5.7-2.8 8.5-8.5 8.5l-3.8-.1zm6 22.5L132 140c1.8-.8 3.3-1.8 4.4-2.8-.4.2-1 .3-1.5.3-2.4 0-3.6-1.7-3.6-3.6 0-1.9 1.5-4 4.2-4 2.6 0 4.3 1.8 4.3 4.4 0 2.8-1.7 5.6-6.6 7.9m1.8-84.7v6h-3.5v-6l-5.3-9.1h4l3.1 5.8 3.1-5.8h3.9l-5.3 9.1zm26.2 47.4l-5.8-4.2-5.8 4.2 2.2-6.8-5.8-4.2h7.2l2.2-6.8 2.2 6.8h7.2l-5.8 4.2 2.2 6.8z"/><defs><path id="e" d="M0 0h192v192H0z"/></defs><clipPath id="f"><use xlink:href="#e" overflow="visible"/></clipPath><defs><path id="g" d="M0 0h192v192H0z"/></defs><clipPath id="h"><use xlink:href="#g" overflow="visible"/></clipPath><defs><path id="i" d="M0 0h192v192H0z"/></defs><clipPath id="j"><use xlink:href="#i" overflow="visible"/></clipPath><defs><path id="k" d="M0 0h192v192H0z"/></defs><clipPath id="l"><use xlink:href="#k" overflow="visible"/></clipPath><defs><path id="m" d="M0 0h192v192H0z"/></defs><clipPath id="n"><use xlink:href="#m" overflow="visible"/></clipPath><defs><path id="o" d="M0 0h192v192H0z"/></defs><clipPath id="p"><use xlink:href="#o" overflow="visible"/></clipPath><defs><path id="q" d="M0 0h192v192H0z"/></defs><clipPath id="r"><use xlink:href="#q" overflow="visible"/></clipPath><defs><path id="s" d="M0 0h192v192H0z"/></defs><clipPath id="t"><use xlink:href="#s" overflow="visible"/></clipPath><defs><path id="u" d="M0 0h192v192H0z"/></defs><clipPath id="v"><use xlink:href="#u" overflow="visible"/></clipPath><defs><path id="w" d="M0 0h192v192H0z"/></defs><clipPath id="x"><use xlink:href="#w" overflow="visible"/></clipPath><defs><path id="y" d="M0 0h192v192H0z"/></defs><clipPath id="z"><use xlink:href="#y" overflow="visible"/></clipPath><defs><path id="A" d="M0 0h192v192H0z"/></defs><clipPath id="B"><use xlink:href="#A" overflow="visible"/></clipPath><defs><path id="C" d="M0 0h192v192H0z"/></defs><clipPath id="D"><use xlink:href="#C" overflow="visible"/></clipPath><defs><path id="E" d="M0 0h192v192H0z"/></defs><clipPath id="F"><use xlink:href="#E" overflow="visible"/></clipPath><defs><path id="G" d="M0 0h192v192H0z"/></defs><clipPath id="H"><use xlink:href="#G" overflow="visible"/></clipPath><defs><path id="I" d="M0 0h192v192H0z"/></defs><clipPath id="J"><use xlink:href="#I" overflow="visible"/></clipPath><g><defs><path id="K" d="M0 0h192v192H0z"/></defs><clipPath id="L"><use xlink:href="#K" overflow="visible"/></clipPath></g><g><defs><path id="M" d="M0 0h192v192H0z"/></defs><clipPath id="N"><use xlink:href="#M" overflow="visible"/></clipPath></g><g><defs><path id="O" d="M0 0h192v192H0z"/></defs><clipPath id="P"><use xlink:href="#O" overflow="visible"/></clipPath></g><g><defs><path id="Q" d="M0 0h192v192H0z"/></defs><clipPath id="R"><use xlink:href="#Q" overflow="visible"/></clipPath></g><g><defs><path id="S" d="M0 0h192v192H0z"/></defs><clipPath id="T"><use xlink:href="#S" overflow="visible"/></clipPath></g><g><defs><path id="U" d="M0 0h192v192H0z"/></defs><clipPath id="V"><use xlink:href="#U" overflow="visible"/></clipPath></g><g><defs><path id="W" d="M0 0h192v192H0z"/></defs><clipPath id="X"><use xlink:href="#W" overflow="visible"/></clipPath></g><g><defs><path id="Y" d="M0 0h192v192H0z"/></defs><clipPath id="Z"><use xlink:href="#Y" overflow="visible"/></clipPath></g><g><defs><path id="aa" d="M0 0h192v192H0z"/></defs><clipPath id="ab"><use xlink:href="#aa" overflow="visible"/></clipPath></g><g><defs><path id="ac" d="M0 0h192v192H0z"/></defs><clipPath id="ad"><use xlink:href="#ac" overflow="visible"/></clipPath></g><g><defs><path id="ae" d="M0 0h192v192H0z"/></defs><clipPath id="af"><use xlink:href="#ae" overflow="visible"/></clipPath></g><g><defs><path id="ag" d="M0 0h192v192H0z"/></defs><clipPath id="ah"><use xlink:href="#ag" overflow="visible"/></clipPath></g><g><defs><path id="ai" d="M0 0h192v192H0z"/></defs><clipPath id="aj"><use xlink:href="#ai" overflow="visible"/></clipPath><path clip-path="url(#aj)" d="M135.5 132.2c-1 0-1.4.8-1.4 1.7 0 1 .5 1.7 1.4 1.7s1.5-.5 1.5-1.7c0-1-.6-1.7-1.5-1.7"/></g><g><defs><path id="ak" d="M0 0h192v192H0z"/></defs><clipPath id="al"><use xlink:href="#ak" overflow="visible"/></clipPath><path clip-path="url(#al)" d="M97.2 79.1h-1.4c-1.8 0-2.7.9-2.7 2.7v29.1c0 1.8.9 2.7 2.7 2.7h1.4c1.8 0 2.6-.9 2.6-2.7V81.8c0-1.9-.9-2.7-2.6-2.7"/></g><g><defs><path id="am" d="M0 0h192v192H0z"/></defs><clipPath id="an"><use xlink:href="#am" overflow="visible"/></clipPath><path clip-path="url(#an)" d="M122.5 132.2c-1 0-1.4.8-1.4 1.7 0 1 .5 1.7 1.4 1.7s1.5-.5 1.5-1.7c0-1-.5-1.7-1.5-1.7"/></g><g><defs><path id="ao" d="M0 0h192v192H0z"/></defs><clipPath id="ap"><use xlink:href="#ao" overflow="visible"/></clipPath><path clip-path="url(#ap)" d="M80 54.4l-1.5 3.7h3"/></g><g><defs><path id="aq" d="M0 0h192v192H0z"/></defs><clipPath id="ar"><use xlink:href="#aq" overflow="visible"/></clipPath><path clip-path="url(#ar)" d="M115.3 51.5c-.5 0-.8 0-1.3.1v4.3h1.1c1.9 0 2.8-.8 2.8-2.3-.1-1.1-.9-2.1-2.6-2.1"/></g><g><defs><path id="as" d="M0 0h192v192H0z"/></defs><clipPath id="at"><use xlink:href="#as" overflow="visible"/></clipPath><path clip-path="url(#at)" d="M109.6 132.2c-1 0-1.4.8-1.4 1.7 0 1 .5 1.7 1.4 1.7s1.5-.5 1.5-1.7c0-1-.6-1.7-1.5-1.7"/></g><g><defs><path id="au" d="M0 0h192v192H0z"/></defs><clipPath id="av"><use xlink:href="#au" overflow="visible"/></clipPath><path clip-path="url(#av)" d="M100.3 53.7c0-1.2-.8-2.2-2.5-2.2-.5 0-.8 0-1.3.1v4.3h1.1c1.8.1 2.7-.7 2.7-2.2"/></g></svg>