<svg xmlns="http://www.w3.org/2000/svg" viewBox="0 0 270.9 50.4"><path fill="rgba(255, 255, 255, .75)" d="M55.3 21.7L44.8 3.5C43.6 1.3 41.2 0 38.7 0H17.6c-2.5 0-4.8 1.3-6.1 3.5L1 21.6c-1.3 2.2-1.3 4.9 0 7l5.3 9.1v.1l7.6 12.6h24.8c2.5 0 4.8-1.4 6.1-3.5l10.5-18.2c1.2-2.2 1.2-4.9 0-7zM4.5 23.6L15.1 5.5c.5-.9 1.5-1.5 2.5-1.5h7L8.1 32.6l-3.5-6.1c-.6-.8-.6-1.9-.1-2.9zm30.3-5.8l4.2 7.4-12.1 21.1h-8.6l16.5-28.5zm16.9 8.8L41.2 44.8c-.5.9-1.5 1.5-2.5 1.5h-7l11.5-20.1c.1-.2.2-.4.2-.6v-1.3c0-.1-.1-.3-.2-.4l-6.6-11.5c-.1-.1-.2-.3-.3-.4-.4-.4-.9-.6-1.4-.6h-.4c-.5.1-.9.3-1.2.7-.1.1-.1.1-.1.2L14.9 43.9l-4.3-7.5L29.5 3.7h9.3c1 0 2 .5 2.5 1.5l10.5 18.2c.4 1.2.4 2.3-.1 3.2zM93.1 10.9v28.6h-1c-.2 0-.3 0-.4-.1l-.3-.3-18.5-24.8c0 .4.1.8.1 1.2v24.1h-1.9V11h1c.2 0 .3 0 .4.1s.2.1.3.3l18.5 24.7c0-.4-.1-.8-.1-1.2v-24h1.9zM107 19c1.4 0 2.7.3 3.9.8 1.1.5 2.1 1.2 2.9 2.1s1.4 2 1.8 3.3.6 2.7.6 4.3-.2 3-.6 4.3-1 2.3-1.8 3.3c-.8.9-1.7 1.6-2.9 2.1-1.1.5-2.4.7-3.9.7s-2.7-.2-3.9-.7c-1.1-.5-2.1-1.2-2.9-2.1-.8-.9-1.4-2-1.8-3.3s-.6-2.7-.6-4.3.2-3 .6-4.3 1-2.4 1.8-3.3 1.8-1.6 2.9-2.1 2.4-.8 3.9-.8zm0 19.2c1.2 0 2.2-.2 3.1-.6.9-.4 1.6-1 2.2-1.8s1-1.7 1.4-2.8c.3-1.1.4-2.3.4-3.6s-.1-2.5-.4-3.6-.8-2-1.4-2.8-1.4-1.4-2.2-1.8c-.9-.4-1.9-.6-3.1-.6s-2.2.2-3.1.6-1.6 1-2.2 1.8-1 1.7-1.4 2.8c-.3 1.1-.5 2.3-.5 3.6 0 1.4.1 2.6.5 3.6.3 1.1.8 2 1.4 2.8s1.4 1.4 2.2 1.8c.8.4 1.9.6 3.1.6zm39.8-18.8l-6.7 20.1h-1.4c-.2 0-.4-.1-.5-.4l-5.5-16.3c-.1-.2-.1-.4-.2-.6-.1-.2-.1-.4-.1-.6l-.3 1.2-5.6 16.3c-.1.3-.2.4-.5.4h-1.4l-6.7-20.1h1.4c.2 0 .3.1.5.1.1.1.2.2.2.3l5.1 15.8c.1.3.1.6.2.9.1.3.1.6.2.9.1-.3.2-.6.2-.9l.3-.9 5.4-16c.1-.3.3-.4.6-.4h.8c.3 0 .5.1.6.4l5.3 16 .3.9c.1.3.1.6.2.8.1-.3.1-.6.2-.8.1-.3.1-.6.2-.9l5.1-15.8c.1-.1.1-.3.3-.3.1-.1.3-.1.4-.1h1.4zm17.9-5c-.1.2-.3.3-.5.3s-.4-.1-.7-.4c-.3-.3-.7-.5-1.1-.8-.5-.3-1.1-.6-1.8-.8-.7-.3-1.6-.4-2.6-.4s-2 .1-2.7.4c-.8.3-1.4.7-2 1.2-.5.5-.9 1.1-1.2 1.8s-.4 1.4-.4 2.1c0 1 .2 1.8.6 2.4.4.6 1 1.2 1.6 1.6.7.4 1.4.8 2.3 1.1.9.3 1.7.6 2.6.9.9.3 1.8.6 2.6 1 .9.3 1.6.8 2.3 1.4.7.5 1.2 1.2 1.6 2 .4.8.6 1.8.6 2.9 0 1.2-.2 2.3-.6 3.4-.4 1.1-1 2-1.8 2.8s-1.7 1.4-2.9 1.8c-1.1.5-2.4.7-3.9.7-1.9 0-3.5-.3-4.9-1s-2.5-1.6-3.6-2.7l.6-.9c.2-.2.3-.3.6-.3.1 0 .3.1.5.2.2.2.4.3.7.6.3.2.6.5 1 .8s.8.5 1.3.8c.5.2 1.1.4 1.7.6.6.2 1.4.2 2.2.2 1.1 0 2.1-.2 3-.5s1.6-.8 2.2-1.4c.6-.6 1.1-1.3 1.4-2.1.3-.8.5-1.7.5-2.6 0-1-.2-1.8-.6-2.5-.4-.7-1-1.2-1.6-1.6-.7-.4-1.4-.8-2.3-1.1-.9-.3-1.7-.6-2.6-.9-.9-.3-1.8-.6-2.6-1-.9-.3-1.6-.8-2.3-1.4-.7-.5-1.2-1.2-1.6-2-.4-.8-.6-1.8-.6-3.1 0-1 .2-1.9.5-2.8.4-.9.9-1.7 1.6-2.4.7-.7 1.6-1.2 2.6-1.6 1-.4 2.2-.6 3.5-.6 1.5 0 2.8.2 4 .7s2.2 1.2 3.2 2.2l-.4 1zm6.3 14.2v.4c0 1.5.2 2.8.5 4s.8 2.1 1.5 2.9c.6.8 1.4 1.4 2.3 1.8.9.4 1.9.6 3.1.6 1 0 1.9-.1 2.6-.3.7-.2 1.4-.5 1.9-.8s.9-.5 1.2-.8c.3-.2.5-.3.6-.3.2 0 .3.1.4.2l.5.6c-.3.4-.8.8-1.3 1.1s-1.1.7-1.8.9c-.7.3-1.4.5-2.1.6-.8.1-1.5.2-2.2.2-1.4 0-2.6-.2-3.8-.7-1.1-.5-2.1-1.2-2.9-2.1-.8-.9-1.4-2-1.9-3.4s-.7-2.9-.7-4.6c0-1.4.2-2.8.6-4 .4-1.2 1-2.3 1.8-3.1.8-.9 1.7-1.6 2.9-2.1 1.1-.5 2.4-.8 3.8-.8 1.1 0 2.2.2 3.1.6 1 .4 1.8 1 2.5 1.7.7.8 1.3 1.7 1.7 2.8s.6 2.3.6 3.8c0 .3 0 .5-.1.6s-.2.2-.4.2H171zm13.4-1.2c0-1.1-.1-2-.5-2.9-.3-.9-.7-1.6-1.3-2.2-.5-.6-1.2-1-2-1.4-.7-.3-1.6-.5-2.5-.5-1 0-2 .2-2.8.5s-1.5.8-2.1 1.4-1.1 1.3-1.4 2.2c-.4.8-.6 1.8-.7 2.9h13.3zm19.5-5.3l-.2.2s-.1.1-.3.1c-.1 0-.3-.1-.5-.3s-.5-.4-.9-.6-.9-.4-1.5-.6-1.3-.3-2.1-.3c-1.2 0-2.2.2-3.1.6-.9.4-1.6 1-2.3 1.8-.6.8-1.1 1.7-1.4 2.8-.3 1.1-.5 2.3-.5 3.7s.2 2.7.5 3.8.8 2 1.4 2.8 1.3 1.3 2.2 1.7 1.8.6 2.9.6c1 0 1.8-.1 2.4-.3.7-.2 1.2-.5 1.6-.8s.7-.5 1-.8c.2-.2.4-.3.6-.3s.3.1.4.2l.5.6c-.3.4-.7.8-1.2 1.1s-1 .7-1.6.9c-.6.3-1.2.5-1.9.6s-1.4.2-2.2.2c-1.3 0-2.5-.2-3.5-.7-1.1-.5-2-1.1-2.7-2s-1.4-2-1.8-3.2c-.4-1.3-.6-2.7-.6-4.4 0-1.5.2-2.9.6-4.2.4-1.3 1-2.4 1.8-3.3s1.7-1.6 2.9-2.1c1.1-.5 2.4-.8 3.9-.8 1.3 0 2.5.2 3.5.6s1.9 1 2.7 1.7l-.6.7zm20.1-2.7v20.1h-1.1c-.3 0-.5-.2-.6-.5l-.2-3c-.9 1.2-2 2.1-3.2 2.8s-2.6 1-4.1 1c-1.1 0-2.1-.2-2.9-.5-.8-.3-1.5-.9-2.1-1.5-.5-.7-1-1.4-1.2-2.4-.3-.9-.4-2-.4-3.1V19.5h1.9v12.8c0 1.9.4 3.4 1.3 4.4s2.2 1.6 3.9 1.6c1.3 0 2.5-.3 3.7-1 1.1-.7 2.2-1.6 3-2.8V19.4h2zm7.4 4.8c.3-.8.7-1.6 1.1-2.2s.9-1.2 1.4-1.6 1.1-.8 1.7-1c.6-.2 1.4-.3 2.1-.3.4 0 .8 0 1.2.1s.7.2 1.1.4l-.2 1.3c-.1.2-.2.3-.4.3s-.4-.1-.8-.1c-.3-.1-.7-.1-1.3-.1-.8 0-1.5.1-2.1.3s-1.1.6-1.6 1.1-.9 1.1-1.2 1.8-.7 1.5-1 2.4v13h-1.9V19.5h1c.2 0 .4.1.5.1.1.1.1.3.2.5l.2 4.1zm11 4.4v.4c0 1.5.2 2.8.5 4s.8 2.1 1.5 2.9c.6.8 1.4 1.4 2.3 1.8.9.4 1.9.6 3.1.6 1 0 1.9-.1 2.6-.3s1.4-.5 1.9-.8.9-.5 1.2-.8c.3-.2.5-.3.6-.3.2 0 .3.1.4.2l.5.6c-.3.4-.8.8-1.3 1.1-.5.3-1.1.7-1.8.9-.7.3-1.4.5-2.1.6s-1.5.2-2.2.2c-1.4 0-2.6-.2-3.8-.7s-2.1-1.2-2.9-2.1c-.8-.9-1.4-2-1.9-3.4-.4-1.3-.7-2.9-.7-4.6 0-1.4.2-2.8.6-4s1-2.3 1.8-3.1c.8-.9 1.7-1.6 2.9-2.1 1.1-.5 2.4-.8 3.8-.8 1.1 0 2.2.2 3.1.6 1 .4 1.8 1 2.5 1.7.7.8 1.3 1.7 1.7 2.8.4 1.1.6 2.3.6 3.8 0 .3 0 .5-.1.6s-.2.2-.4.2h-14.4zm13.4-1.2c0-1.1-.1-2-.5-2.9-.3-.9-.7-1.6-1.3-2.2-.5-.6-1.2-1-2-1.4-.7-.3-1.6-.5-2.5-.5-1 0-2 .2-2.8.5s-1.5.8-2.1 1.4-1.1 1.3-1.4 2.2c-.4.8-.6 1.8-.7 2.9h13.3zM258.6 10.8h4.8v.6h-2v5.2h-.7v-5.2h-2l-.1-.6zm12.3 0v5.8h-.6v-4.5l.1-.4-2.2 3.8c-.1.1-.1.2-.3.2h-.1c-.1 0-.2-.1-.3-.2l-2.2-3.8.1.4v4.5h-.6v-5.8h.7l.1.1 2.2 3.7c0 .1.1.1.1.1 0 .1 0 .1.1.1 0-.1 0-.1.1-.1 0-.1.1-.1.1-.1l2.2-3.7c0-.1.1-.1.1-.1h.4z"/></svg>