<svg xmlns="http://www.w3.org/2000/svg" viewBox="0 0 383.5 374.1"><path fill="rgba(255, 255, 255, .75)" d="M257.7 107.7h-32.5v87.6l-108.4-94v158.8h32.5v-87.6l108.4 94"/><path fill="rgba(255, 255, 255, .75)" d="M344.6 100.8c-21.5-31.7-19.4-49.7-25.4-66.3-10-27.4-30.5-39.6-67.6-32.5-37 7.1-44.4 8.6-70.1 5.9-50.2-5.2-102.9-20.3-145.7 23-69.7 70.4-15.2 136.6-20.7 193.8-2.7 27.9 2.3 51.8 18.3 71.1s38.3 15.8 72.8 31.4 102.8 67.9 180.3 37.7c40.2-15.6 52.5-51 61.7-87.4s25.1-40.3 33.2-79.1c7.9-38.8-6.9-53.5-36.8-97.6zM221.9 16.5c8.1-1.1 17.6-3 30.9-5.6l.5-.1c1.3-.3 2.7-.5 3.9-.7 27.8-4.1 43 10.3 40 13.4-2.9 3.2-17.4 5.8-59.8.5-8.3-1-23-2.1-25.9-4.1-2.7-1.9 6.2-2.8 10.4-3.4zM20.4 66.8c4.5-9.8 11.8-19.5 21.8-29.6 14.5-14.7 30.7-22.9 51.1-25.8 15.4-2.3 31.9-1.2 48.4.7 5.7.7 11.3 1.5 17 2.2 5.1.6 6.1 6.1-2 6.5-37.1 1.7-69.1 17-91.3 44.9-29.2 36.4-55.6 24-45 1.1zM47 203.9C35.8 127.5 88.7 56.5 165.1 45.4c76.4-11.2 147.4 41.7 158.5 118.1 11.2 76.4-41.7 147.4-118.1 158.5C129.2 333.2 58.2 280.3 47 203.9zm257.9 83.5c-11.1 16.5-24.8 32.2-42.5 41.5-25.1 13.2-55.4 14.7-84.6 10-8.7-1.4-8.9-5.1 4.9-4.9 46.1.7 87.6-19.5 115.7-51.8 13.8-15.9 17-10.4 6.5 5.2zm20.3-41c1.9 2 1.3 5.3-.4 9.7-6.4 16.6-14.3 10.6-6.4-4.6 2.2-4.3 4.9-7.1 6.8-5.1z"/></svg>