<svg xmlns="http://www.w3.org/2000/svg" viewBox="0 0 240 56.9"><path fill="rgba(255, 255, 255, .75)" d="M138.6 31.5h-1c-.3-4.6-3.7-8.5-7.6-8.5-6.6 0-7.4 7.4-7.4 12.5 0 4.7.4 12.6 7.1 12.6 4 0 7.6-4 8-8.5h1v7.5c-2.5 1.2-6.2 2.1-9.2 2.1-7.8 0-12.7-5.7-12.7-13.7 0-7.9 4.9-13.6 12.7-13.6 3 0 5.8.8 9 2.1l.1 7.5m7.1 7.3v1.6c0 3.3.6 7.3 4.4 7.3 2.8 0 4.6-1.8 5.8-4.4l.9.4c-1.3 3.7-4.1 5.5-7.5 5.5-5.3 0-8.8-3.7-8.8-9.5 0-5.5 3.6-9.5 8.8-9.5 4.4 0 7.9 3.1 7.9 8.6h-11.5m6.1-1.1V36c0-2.1-.5-4.7-2.8-4.7-3.1 0-3.2 4-3.3 6.4h6.1z"/><path fill="rgba(255, 255, 255, .75)" d="M174 47.7V22.3h-7.3v1.2h2.4v24.2h-4.8V22.3H157v1.2h2.4v24.2H157v1.1h19.4v-1.1H174m32.9 1.1v-1.1h-2.4V22.3h-7.3v1.2h2.4v24.2h-4.7V30.6h-7.3v1.2h2.4v9.8c0 4-1.6 5.9-3.8 5.9-1.4 0-2.6-.4-2.6-3.2V30.6h-7.3v1.2h2.4v11.4c0 4.8 2.4 6.1 5.8 6.1 2.1 0 4.2-1 5.4-3h.1v2.6l16.9-.1m28 0v-1.1h-2.4v-7.8c0-2.9.8-7.9 2.7-7.9.5 0 .6.3.6.7 0 .6-.1.7-.1 1.7 0 1.2.7 2 2.1 2 1.5 0 2.2-1 2.2-2.5 0-2.1-1.1-3.7-3.2-3.7-1.9 0-3.6 1.3-4.3 3.2h-.1v-2.9h-7.3v1.2h2.4v15.9h-2.3c-2.1 0-2.4-.7-2.4-3.1v-8.8c0-5-3.4-5.6-7.9-5.6-2.4 0-6.4.8-6.4 4 0 1.6.8 2 1.9 2 3.8 0 0-4.9 4.6-4.9 2.5 0 3 1.2 3 2.9v2.3c-.9.4-2.6.9-3.4 1.1-4.1.9-7.2 1.2-7.2 5.7 0 3.6 1.8 5.9 5.2 5.9 2.2 0 4.7-.5 5.5-2.9h.1c.4 2.2 1.4 2.4 3.4 2.4l13.3.2m-17-8c0 2.1 0 6.6-3.3 6.6-1.9 0-2.5-1.7-2.5-3.6 0-3.3 1-4.4 2.8-5.1l2.9-1.1v3.2h.1zM61.4 22.3h12.2v1.1H70v18.7c0 4.2 3.4 5.3 6.1 5.1 2.1-.2 6-.8 6-5.8v-18h-3.6v-1.1h8.9v1.1h-3.3v17.8c0 6.3-4.2 7.9-9.2 8-6.5.1-10.2-1.2-10.2-7.2V23.4h-3.2l-.1-1.1m29.1 17.6h1.2c.2 3.8 3 8 7.3 8 2.7 0 5.2-1.2 5.2-4.4 0-6.6-13.3-4.4-13.3-13.7 0-5.6 4.2-7.9 7.9-7.9 2 0 3.9.4 7 1.6v6.3h-1c-.7-3.6-3.1-6.6-6.5-6.6-2.2 0-3.8 1.6-3.8 4 0 5.8 13.1 3.6 13.1 13.9 0 4.8-3.9 8-8.8 8-2.7 0-5.5-.5-8.2-1.7l-.1-7.5m19.1 9.3c1.1 0 2-.9 2-2s-.9-2-2-2-2 .9-2 2 .9 2 2 2m-23 0c1.1 0 2-.9 2-2s-.9-2-2-2-2 .9-2 2 .9 2 2 2M48.3 20c-6-1.2-14.1-1.9-20.9-1.8C30 13 33.7 8 37.1 5l-.9-.7s-8.8 5.3-15.1 19.5l2.9 1c.7-1.5 1.5-3.1 2.3-4.6 6.1-.1 14.9.6 22.4 2-8.2 1.4-23.4 5.3-32.1 24.4 0 0 1.5-9.4 5.8-17.8.9.4 2.8 1.2 2.8 1.2l2.3-2c-5.9-2.8-12.6-4.6-19.8-5.5 0 0 4.8-1.5 13.3-2.1l1.2-2.1c-13.6.6-24 4.4-21.9 5 2.3.7 9 1 18.6 4.3-6 13-7 28.1-4.8 29.3s7.1-15.8 17.1-23.8c0 0 8.8 4.4 16 11.5.3-.3.6-.5 1-.7-4-5.2-9.5-10-14.5-12.6 3.7-2.6 10.7-5.3 17.4-6.7 2.7-.6 8.5-2.3-2.8-4.6M49.9 49.2c1.1 0 2-.9 2-2s-.9-2-2-2-2 .9-2 2 .9 2 2 2M39.3 4c1.1 0 2-.9 2-2s-.9-2-2-2-2 .9-2 2 .9 2 2 2M235.7 47.5c0 .9.7 1.6 1.5 1.6s1.5-.7 1.5-1.6c0-.9-.7-1.6-1.5-1.6s-1.5.7-1.5 1.6m.3 0c0-.7.5-1.2 1.2-1.2s1.2.5 1.2 1.2-.5 1.2-1.2 1.2-1.2-.5-1.2-1.2m.5.8h.7v-.1c-.2 0-.2 0-.2-.2v-.5h.1c.2.3.3.7.5.7h.4v-.1c-.1 0-.2-.2-.3-.3l-.2-.4c.2-.1.3-.2.3-.4 0-.3-.2-.4-.5-.4h-.8v.1c.2 0 .2.1.2.2V48c0 .1 0 .2-.2.3zm.5-1.6h.1c.1 0 .2.1.2.3s-.1.4-.2.4h-.1v-.7z"/></svg>