<svg xmlns="http://www.w3.org/2000/svg" viewBox="0 0 652 182.2"><path fill="rgba(255, 255, 255, .75)" d="M143.8 140.7h-20.4L107 91.8l-16.4 48.9H70.4L42.5 41.5h26.1l13.3 52.4 16.4-52.4H116l16.4 52.4 13.3-52.4h26.1l-28 99.2zm38.1 0V41.5h24.9v99.2h-24.9zm45.4 0V41.5h24.9V119h42.6v21.7h-67.5zm147.1-9.7c-7 6.8-16.8 9.8-27.4 9.8h-37.6V41.6H347c10.5 0 20.4 2.9 27.4 9.8 11.8 11.6 10.5 24.2 10.5 39.9 0 15.4 1.3 28.1-10.5 39.7zm-17.1-62.2c-2.3-3.3-5.7-5.6-12-5.6h-11v55.7h11c6.3 0 9.7-2.2 12-5.6 2-2.8 2.7-5.4 2.7-22.3 0-16.6-.7-19.4-2.7-22.2zm137.9 71.9V41.5h24.9v99.2h-24.9zm89.3-77.5v77.5h-24.9V63.2h-24.9V41.5h74.8v21.7h-25zM465.6 91.1c4.1-2.5 12.4-6.4 12.4-20.3 0-19-13.5-29.3-31.6-29.3h-44.2v99.2h44.2c18.1 0 31.6-10.3 31.6-29.3 0-13.9-8.3-17.8-12.4-20.3zm-38.5-27.7h16.8c6.8 0 9.1 4.6 9.1 8.8s-2.3 8.6-9.1 8.6h-16.8V63.4zm16.8 55.4h-16.8v-17.4h16.8c6.8 0 9.1 4.5 9.1 8.6 0 4.2-2.3 8.8-9.1 8.8z"/></svg>