<?xml version="1.0" encoding="utf-8"?>
<!-- Generator: Adobe Illustrator 18.1.1, SVG Export Plug-In . SVG Version: 6.00 Build 0)  -->
<svg version="1.1" id="Layer_1" xmlns="http://www.w3.org/2000/svg" xmlns:xlink="http://www.w3.org/1999/xlink" x="0px" y="0px"
	 viewBox="0 0 600 200" enable-background="new 0 0 600 200" xml:space="preserve">
<g>
	<g>
		<line fill="none" stroke="#231947" stroke-width="4" stroke-miterlimit="10" x1="22" y1="151" x2="579" y2="151"/>
		<circle fill="none" stroke="#38D7BD" stroke-width="5" stroke-miterlimit="10" cx="48.3" cy="150.7" r="27"/>
		<circle fill="none" stroke="#FB7049" stroke-width="5" stroke-miterlimit="10" cx="300.7" cy="150.7" r="27"/>
		<circle fill="none" stroke="#5A5AE0" stroke-width="5" stroke-miterlimit="10" cx="551.7" cy="150.7" r="27"/>
	</g>
	<rect x="24.3" y="22.3" fill="none" width="163.5" height="96"/>
	<text transform="matrix(1 0 0 1 24.2696 35.2178)"><tspan x="0" y="0" fill="#231947" font-family="'OpenSans-Bold'" font-size="17">August 28</tspan><tspan x="0" y="39.6" fill="#231947" font-family="'OpenSans'" font-size="16">Speaker Applications </tspan><tspan x="0" y="58.8" fill="#231947" font-family="'OpenSans'" font-size="16">Open</tspan></text>
	<rect x="216.3" y="22.8" fill="none" width="163.5" height="96"/>
	<text transform="matrix(1 0 0 1 239.7103 35.7256)"><tspan x="0" y="0" fill="#231947" font-family="'OpenSans-Bold'" font-size="17">September 30</tspan><tspan x="-19.5" y="39.6" fill="#231947" font-family="'OpenSans'" font-size="16">Speaker Applications </tspan><tspan x="38.1" y="58.8" fill="#231947" font-family="'OpenSans'" font-size="16">Close</tspan></text>
	<rect x="415.2" y="23.3" fill="none" width="163.5" height="96"/>
	<text transform="matrix(1 0 0 1 486.2159 36.2264)"><tspan x="0" y="0" fill="#231947" font-family="'OpenSans-Bold'" font-size="17">October 12</tspan><tspan x="-37.9" y="39.6" fill="#231947" font-family="'OpenSans'" font-size="16">Notifications sent</tspan></text>
</g>
</svg>
